G04 EAGLE Gerber RS-274X export*
G75*
%MOMM*%
%FSLAX34Y34*%
%LPD*%
%INTop Copper*%
%IPPOS*%
%AMOC8*
5,1,8,0,0,1.08239X$1,22.5*%
G01*
%ADD10C,1.350000*%
%ADD11C,2.400000*%
%ADD12R,1.000000X1.100000*%
%ADD13R,2.440000X1.130000*%
%ADD14C,3.616000*%
%ADD15R,1.600200X1.168400*%
%ADD16R,0.508000X0.508000*%
%ADD17C,1.650000*%
%ADD18C,4.950000*%
%ADD19C,1.800000*%
%ADD20C,2.000000*%
%ADD21C,1.270000*%
%ADD22C,0.604800*%
%ADD23C,0.904800*%
%ADD24C,0.300000*%
%ADD25C,0.304800*%

G36*
X643284Y3818D02*
X643284Y3818D01*
X643378Y3817D01*
X643528Y3838D01*
X643678Y3851D01*
X643769Y3874D01*
X643863Y3887D01*
X644006Y3933D01*
X644153Y3969D01*
X644239Y4007D01*
X644329Y4035D01*
X644464Y4104D01*
X644602Y4164D01*
X644681Y4215D01*
X644765Y4258D01*
X644887Y4347D01*
X645013Y4429D01*
X645083Y4492D01*
X645159Y4548D01*
X645265Y4656D01*
X645376Y4757D01*
X645435Y4831D01*
X645501Y4898D01*
X645587Y5022D01*
X645681Y5140D01*
X645727Y5222D01*
X645781Y5300D01*
X645846Y5436D01*
X645920Y5567D01*
X645952Y5656D01*
X645992Y5741D01*
X646034Y5886D01*
X646085Y6028D01*
X646103Y6121D01*
X646129Y6211D01*
X646140Y6326D01*
X646174Y6509D01*
X646178Y6695D01*
X646189Y6810D01*
X646189Y453190D01*
X646182Y453284D01*
X646183Y453378D01*
X646162Y453528D01*
X646149Y453678D01*
X646126Y453769D01*
X646113Y453863D01*
X646067Y454006D01*
X646031Y454153D01*
X645993Y454239D01*
X645965Y454329D01*
X645896Y454464D01*
X645836Y454602D01*
X645785Y454681D01*
X645742Y454765D01*
X645653Y454887D01*
X645571Y455013D01*
X645508Y455083D01*
X645452Y455159D01*
X645344Y455265D01*
X645243Y455376D01*
X645169Y455435D01*
X645102Y455501D01*
X644978Y455587D01*
X644860Y455681D01*
X644778Y455727D01*
X644700Y455781D01*
X644564Y455846D01*
X644433Y455920D01*
X644344Y455952D01*
X644259Y455992D01*
X644114Y456034D01*
X643972Y456085D01*
X643879Y456103D01*
X643789Y456129D01*
X643674Y456140D01*
X643491Y456174D01*
X643305Y456178D01*
X643190Y456189D01*
X587186Y456189D01*
X587167Y456188D01*
X587148Y456189D01*
X586924Y456168D01*
X586698Y456149D01*
X586680Y456145D01*
X586661Y456143D01*
X586443Y456086D01*
X586223Y456031D01*
X586206Y456023D01*
X586188Y456018D01*
X585981Y455926D01*
X585774Y455836D01*
X585758Y455826D01*
X585741Y455818D01*
X585551Y455693D01*
X585363Y455571D01*
X585349Y455559D01*
X585333Y455548D01*
X585166Y455394D01*
X584999Y455243D01*
X584988Y455228D01*
X584974Y455215D01*
X584835Y455037D01*
X584695Y454860D01*
X584685Y454844D01*
X584674Y454829D01*
X584566Y454630D01*
X584456Y454433D01*
X584450Y454415D01*
X584441Y454398D01*
X584367Y454186D01*
X584290Y453972D01*
X584287Y453954D01*
X584281Y453936D01*
X584243Y453714D01*
X584202Y453491D01*
X584201Y453472D01*
X584198Y453453D01*
X584197Y453228D01*
X584193Y453002D01*
X584195Y452983D01*
X584195Y452964D01*
X584231Y452740D01*
X584263Y452517D01*
X584269Y452499D01*
X584272Y452481D01*
X584343Y452266D01*
X584411Y452051D01*
X584420Y452034D01*
X584426Y452016D01*
X584531Y451816D01*
X584634Y451615D01*
X584645Y451599D01*
X584654Y451583D01*
X584789Y451403D01*
X584924Y451221D01*
X584937Y451207D01*
X584949Y451192D01*
X585112Y451037D01*
X585274Y450879D01*
X585290Y450868D01*
X585303Y450855D01*
X585489Y450729D01*
X585675Y450599D01*
X585693Y450591D01*
X585708Y450580D01*
X585791Y450544D01*
X586117Y450388D01*
X586200Y450364D01*
X586259Y450338D01*
X591894Y448507D01*
X597801Y444215D01*
X602093Y438308D01*
X604349Y431365D01*
X604349Y386224D01*
X604360Y386083D01*
X604362Y385942D01*
X604380Y385840D01*
X604389Y385736D01*
X604423Y385599D01*
X604448Y385460D01*
X604482Y385362D01*
X604507Y385262D01*
X604564Y385132D01*
X604611Y384998D01*
X604661Y384907D01*
X604702Y384812D01*
X604778Y384694D01*
X604846Y384570D01*
X604901Y384502D01*
X604967Y384401D01*
X605149Y384199D01*
X605227Y384103D01*
X609212Y380118D01*
X612429Y372353D01*
X612429Y363947D01*
X609212Y356182D01*
X603551Y350521D01*
X603490Y350449D01*
X603422Y350383D01*
X603332Y350263D01*
X603235Y350148D01*
X603186Y350067D01*
X603130Y349991D01*
X603060Y349857D01*
X602983Y349728D01*
X602948Y349640D01*
X602905Y349556D01*
X602858Y349413D01*
X602803Y349273D01*
X602783Y349181D01*
X602754Y349091D01*
X602731Y348942D01*
X602699Y348795D01*
X602694Y348700D01*
X602680Y348607D01*
X602682Y348456D01*
X602674Y348306D01*
X602685Y348212D01*
X602686Y348118D01*
X602713Y347969D01*
X602730Y347819D01*
X602755Y347729D01*
X602772Y347636D01*
X602822Y347494D01*
X602863Y347349D01*
X602903Y347263D01*
X602935Y347174D01*
X603007Y347042D01*
X603072Y346906D01*
X603125Y346828D01*
X603171Y346745D01*
X603244Y346656D01*
X603349Y346503D01*
X603478Y346369D01*
X603551Y346279D01*
X609212Y340618D01*
X612429Y332853D01*
X612429Y324447D01*
X609212Y316682D01*
X603551Y311021D01*
X603490Y310949D01*
X603422Y310883D01*
X603332Y310763D01*
X603235Y310648D01*
X603186Y310567D01*
X603130Y310491D01*
X603060Y310357D01*
X602983Y310228D01*
X602948Y310140D01*
X602905Y310056D01*
X602858Y309913D01*
X602803Y309773D01*
X602783Y309681D01*
X602754Y309591D01*
X602731Y309442D01*
X602699Y309295D01*
X602694Y309200D01*
X602680Y309107D01*
X602682Y308956D01*
X602674Y308806D01*
X602685Y308712D01*
X602686Y308618D01*
X602713Y308469D01*
X602730Y308319D01*
X602755Y308229D01*
X602772Y308136D01*
X602822Y307994D01*
X602863Y307849D01*
X602903Y307763D01*
X602935Y307674D01*
X603007Y307542D01*
X603072Y307406D01*
X603125Y307328D01*
X603171Y307245D01*
X603244Y307156D01*
X603349Y307003D01*
X603478Y306869D01*
X603551Y306779D01*
X609212Y301118D01*
X612429Y293353D01*
X612429Y284947D01*
X609212Y277182D01*
X603551Y271521D01*
X603490Y271449D01*
X603422Y271383D01*
X603332Y271263D01*
X603235Y271148D01*
X603186Y271067D01*
X603130Y270991D01*
X603060Y270857D01*
X602983Y270728D01*
X602948Y270640D01*
X602905Y270556D01*
X602858Y270413D01*
X602803Y270273D01*
X602783Y270181D01*
X602754Y270091D01*
X602731Y269942D01*
X602699Y269795D01*
X602694Y269700D01*
X602680Y269607D01*
X602682Y269456D01*
X602674Y269306D01*
X602685Y269212D01*
X602686Y269118D01*
X602713Y268969D01*
X602730Y268819D01*
X602755Y268729D01*
X602772Y268636D01*
X602822Y268494D01*
X602863Y268349D01*
X602903Y268263D01*
X602935Y268174D01*
X603007Y268042D01*
X603072Y267906D01*
X603125Y267828D01*
X603171Y267745D01*
X603244Y267656D01*
X603349Y267503D01*
X603478Y267369D01*
X603551Y267279D01*
X609212Y261618D01*
X612429Y253853D01*
X612429Y245447D01*
X609212Y237682D01*
X603551Y232021D01*
X603490Y231949D01*
X603422Y231883D01*
X603332Y231763D01*
X603235Y231648D01*
X603186Y231567D01*
X603130Y231491D01*
X603060Y231357D01*
X602983Y231228D01*
X602948Y231140D01*
X602905Y231056D01*
X602858Y230913D01*
X602803Y230773D01*
X602783Y230681D01*
X602754Y230591D01*
X602731Y230442D01*
X602699Y230295D01*
X602694Y230200D01*
X602680Y230107D01*
X602682Y229956D01*
X602674Y229806D01*
X602685Y229712D01*
X602686Y229618D01*
X602713Y229469D01*
X602730Y229319D01*
X602755Y229229D01*
X602772Y229136D01*
X602822Y228994D01*
X602863Y228849D01*
X602903Y228763D01*
X602935Y228674D01*
X603007Y228542D01*
X603072Y228406D01*
X603125Y228328D01*
X603171Y228245D01*
X603244Y228156D01*
X603349Y228003D01*
X603478Y227869D01*
X603551Y227779D01*
X609212Y222118D01*
X612429Y214353D01*
X612429Y205947D01*
X609212Y198182D01*
X603551Y192521D01*
X603490Y192449D01*
X603422Y192383D01*
X603332Y192263D01*
X603235Y192148D01*
X603186Y192067D01*
X603130Y191991D01*
X603060Y191857D01*
X602983Y191728D01*
X602948Y191640D01*
X602905Y191556D01*
X602858Y191413D01*
X602803Y191273D01*
X602783Y191181D01*
X602754Y191091D01*
X602731Y190942D01*
X602699Y190795D01*
X602694Y190700D01*
X602680Y190607D01*
X602682Y190456D01*
X602674Y190306D01*
X602685Y190212D01*
X602686Y190118D01*
X602713Y189969D01*
X602730Y189819D01*
X602755Y189729D01*
X602772Y189636D01*
X602822Y189494D01*
X602863Y189349D01*
X602903Y189263D01*
X602935Y189174D01*
X603007Y189042D01*
X603072Y188906D01*
X603125Y188828D01*
X603171Y188745D01*
X603244Y188656D01*
X603349Y188503D01*
X603478Y188369D01*
X603551Y188279D01*
X609212Y182618D01*
X612429Y174853D01*
X612429Y166447D01*
X609212Y158682D01*
X603551Y153021D01*
X603490Y152949D01*
X603422Y152883D01*
X603332Y152763D01*
X603235Y152648D01*
X603186Y152567D01*
X603130Y152491D01*
X603060Y152357D01*
X602983Y152228D01*
X602948Y152140D01*
X602905Y152056D01*
X602858Y151913D01*
X602803Y151773D01*
X602783Y151681D01*
X602754Y151591D01*
X602731Y151442D01*
X602699Y151295D01*
X602694Y151200D01*
X602680Y151107D01*
X602682Y150956D01*
X602674Y150806D01*
X602685Y150712D01*
X602686Y150618D01*
X602713Y150469D01*
X602730Y150319D01*
X602755Y150229D01*
X602772Y150136D01*
X602822Y149994D01*
X602863Y149849D01*
X602903Y149763D01*
X602935Y149674D01*
X603007Y149542D01*
X603072Y149406D01*
X603125Y149328D01*
X603171Y149245D01*
X603244Y149156D01*
X603349Y149003D01*
X603478Y148869D01*
X603551Y148779D01*
X609212Y143118D01*
X612429Y135353D01*
X612429Y126947D01*
X609212Y119182D01*
X603551Y113521D01*
X603490Y113449D01*
X603422Y113383D01*
X603332Y113263D01*
X603235Y113148D01*
X603186Y113067D01*
X603130Y112991D01*
X603060Y112857D01*
X602983Y112728D01*
X602948Y112640D01*
X602905Y112556D01*
X602858Y112413D01*
X602803Y112273D01*
X602783Y112181D01*
X602754Y112091D01*
X602731Y111942D01*
X602699Y111795D01*
X602694Y111700D01*
X602680Y111607D01*
X602682Y111456D01*
X602674Y111306D01*
X602685Y111212D01*
X602686Y111118D01*
X602713Y110969D01*
X602730Y110819D01*
X602755Y110729D01*
X602772Y110636D01*
X602822Y110494D01*
X602863Y110349D01*
X602903Y110263D01*
X602935Y110174D01*
X603007Y110042D01*
X603072Y109906D01*
X603125Y109828D01*
X603171Y109745D01*
X603244Y109656D01*
X603349Y109503D01*
X603478Y109369D01*
X603551Y109279D01*
X609212Y103618D01*
X612429Y95853D01*
X612429Y87447D01*
X609212Y79682D01*
X603268Y73738D01*
X595503Y70521D01*
X587097Y70521D01*
X579122Y73825D01*
X579046Y73867D01*
X578876Y73969D01*
X578832Y73986D01*
X578791Y74010D01*
X578605Y74077D01*
X578421Y74149D01*
X578375Y74159D01*
X578330Y74175D01*
X578136Y74211D01*
X577943Y74253D01*
X577896Y74255D01*
X577849Y74264D01*
X577652Y74268D01*
X577454Y74278D01*
X577407Y74272D01*
X577360Y74273D01*
X577164Y74245D01*
X576968Y74223D01*
X576922Y74210D01*
X576875Y74203D01*
X576687Y74143D01*
X576497Y74089D01*
X576454Y74069D01*
X576409Y74054D01*
X576233Y73965D01*
X576054Y73881D01*
X576015Y73854D01*
X575973Y73832D01*
X575813Y73715D01*
X575651Y73603D01*
X575617Y73570D01*
X575579Y73542D01*
X575441Y73401D01*
X575299Y73264D01*
X575270Y73226D01*
X575237Y73192D01*
X575124Y73029D01*
X575006Y72871D01*
X574984Y72829D01*
X574957Y72790D01*
X574872Y72612D01*
X574781Y72437D01*
X574766Y72392D01*
X574746Y72349D01*
X574691Y72159D01*
X574630Y71971D01*
X574622Y71924D01*
X574609Y71879D01*
X574597Y71756D01*
X574556Y71487D01*
X574557Y71366D01*
X574549Y71280D01*
X574549Y49095D01*
X573856Y47423D01*
X562577Y36144D01*
X560905Y35451D01*
X529095Y35451D01*
X527423Y36144D01*
X508794Y54773D01*
X508687Y54864D01*
X508585Y54963D01*
X508500Y55023D01*
X508421Y55089D01*
X508300Y55162D01*
X508184Y55243D01*
X508090Y55288D01*
X508001Y55341D01*
X507870Y55393D01*
X507742Y55454D01*
X507643Y55483D01*
X507546Y55521D01*
X507408Y55551D01*
X507272Y55591D01*
X507186Y55600D01*
X507068Y55625D01*
X506796Y55639D01*
X506674Y55651D01*
X404982Y55651D01*
X404841Y55640D01*
X404699Y55638D01*
X404597Y55620D01*
X404494Y55611D01*
X404357Y55577D01*
X404218Y55552D01*
X404120Y55518D01*
X404019Y55493D01*
X403889Y55436D01*
X403756Y55389D01*
X403665Y55339D01*
X403570Y55298D01*
X403451Y55222D01*
X403327Y55154D01*
X403267Y55104D01*
X400908Y54127D01*
X398492Y54127D01*
X396260Y55052D01*
X394552Y56760D01*
X393627Y58992D01*
X393627Y61408D01*
X394552Y63640D01*
X396260Y65348D01*
X398492Y66273D01*
X400908Y66273D01*
X403241Y65306D01*
X403355Y65238D01*
X403471Y65157D01*
X403565Y65112D01*
X403654Y65059D01*
X403785Y65007D01*
X403913Y64946D01*
X404012Y64917D01*
X404109Y64879D01*
X404247Y64849D01*
X404383Y64809D01*
X404469Y64800D01*
X404587Y64775D01*
X404859Y64761D01*
X404982Y64749D01*
X409728Y64749D01*
X409822Y64756D01*
X409916Y64755D01*
X410066Y64776D01*
X410216Y64789D01*
X410307Y64812D01*
X410401Y64825D01*
X410544Y64871D01*
X410691Y64907D01*
X410777Y64945D01*
X410867Y64973D01*
X411002Y65042D01*
X411140Y65102D01*
X411219Y65153D01*
X411303Y65196D01*
X411425Y65285D01*
X411551Y65367D01*
X411621Y65430D01*
X411697Y65486D01*
X411803Y65594D01*
X411914Y65695D01*
X411973Y65769D01*
X412039Y65836D01*
X412125Y65960D01*
X412219Y66078D01*
X412265Y66160D01*
X412319Y66238D01*
X412384Y66374D01*
X412458Y66505D01*
X412490Y66594D01*
X412530Y66679D01*
X412572Y66824D01*
X412623Y66966D01*
X412641Y67059D01*
X412667Y67149D01*
X412678Y67264D01*
X412712Y67447D01*
X412716Y67633D01*
X412727Y67748D01*
X412727Y68208D01*
X413652Y70440D01*
X415360Y72148D01*
X417592Y73073D01*
X420008Y73073D01*
X422341Y72106D01*
X422455Y72038D01*
X422571Y71957D01*
X422665Y71912D01*
X422754Y71859D01*
X422885Y71807D01*
X423013Y71746D01*
X423112Y71717D01*
X423209Y71679D01*
X423347Y71649D01*
X423483Y71609D01*
X423569Y71600D01*
X423687Y71575D01*
X423959Y71561D01*
X424082Y71549D01*
X467074Y71549D01*
X467214Y71560D01*
X467356Y71562D01*
X467458Y71580D01*
X467561Y71589D01*
X467698Y71623D01*
X467838Y71648D01*
X467935Y71682D01*
X468036Y71707D01*
X468166Y71764D01*
X468299Y71811D01*
X468390Y71861D01*
X468485Y71902D01*
X468604Y71978D01*
X468728Y72046D01*
X468795Y72101D01*
X468897Y72167D01*
X469098Y72349D01*
X469194Y72427D01*
X475973Y79206D01*
X476064Y79313D01*
X476163Y79415D01*
X476223Y79500D01*
X476289Y79579D01*
X476362Y79700D01*
X476443Y79816D01*
X476488Y79910D01*
X476541Y79999D01*
X476593Y80130D01*
X476654Y80258D01*
X476683Y80357D01*
X476721Y80454D01*
X476751Y80592D01*
X476791Y80728D01*
X476800Y80814D01*
X476825Y80932D01*
X476839Y81204D01*
X476851Y81326D01*
X476851Y145655D01*
X477544Y147327D01*
X487828Y157610D01*
X487979Y157789D01*
X488139Y157976D01*
X488141Y157980D01*
X488144Y157984D01*
X488266Y158187D01*
X488392Y158395D01*
X488394Y158399D01*
X488396Y158403D01*
X488486Y158629D01*
X488573Y158849D01*
X488574Y158854D01*
X488576Y158858D01*
X488628Y159097D01*
X488679Y159327D01*
X488679Y159332D01*
X488680Y159337D01*
X488692Y159575D01*
X488705Y159816D01*
X488704Y159821D01*
X488705Y159825D01*
X488677Y160066D01*
X488651Y160303D01*
X488650Y160307D01*
X488649Y160312D01*
X488614Y160436D01*
X488613Y160444D01*
X488602Y160478D01*
X488516Y160783D01*
X488491Y160836D01*
X488478Y160879D01*
X486171Y166447D01*
X486171Y174853D01*
X489388Y182618D01*
X495605Y188836D01*
X495616Y188849D01*
X495630Y188861D01*
X495776Y189037D01*
X495922Y189209D01*
X495931Y189224D01*
X495942Y189237D01*
X496057Y189434D01*
X496174Y189629D01*
X496180Y189645D01*
X496189Y189660D01*
X496270Y189872D01*
X496354Y190084D01*
X496358Y190101D01*
X496364Y190117D01*
X496409Y190340D01*
X496458Y190562D01*
X496458Y190580D01*
X496462Y190597D01*
X496471Y190823D01*
X496482Y191051D01*
X496480Y191068D01*
X496481Y191086D01*
X496453Y191311D01*
X496427Y191537D01*
X496422Y191554D01*
X496420Y191571D01*
X496356Y191788D01*
X496293Y192008D01*
X496286Y192024D01*
X496281Y192041D01*
X496182Y192245D01*
X496085Y192451D01*
X496075Y192465D01*
X496067Y192481D01*
X495935Y192668D01*
X495807Y192854D01*
X495795Y192866D01*
X495785Y192881D01*
X495722Y192942D01*
X495468Y193206D01*
X495400Y193257D01*
X495354Y193301D01*
X493538Y194750D01*
X491900Y196388D01*
X490456Y198199D01*
X489224Y200160D01*
X488219Y202246D01*
X487553Y204151D01*
X504300Y204151D01*
X504394Y204158D01*
X504488Y204157D01*
X504637Y204178D01*
X504788Y204191D01*
X504879Y204214D01*
X504973Y204227D01*
X505116Y204273D01*
X505262Y204309D01*
X505349Y204347D01*
X505439Y204376D01*
X505573Y204444D01*
X505712Y204504D01*
X505791Y204555D01*
X505875Y204598D01*
X505997Y204687D01*
X506123Y204769D01*
X506193Y204832D01*
X506269Y204888D01*
X506375Y204996D01*
X506486Y205097D01*
X506545Y205171D01*
X506611Y205238D01*
X506697Y205362D01*
X506791Y205480D01*
X506837Y205562D01*
X506891Y205640D01*
X506956Y205776D01*
X507030Y205907D01*
X507061Y205996D01*
X507102Y206081D01*
X507144Y206226D01*
X507195Y206368D01*
X507212Y206461D01*
X507239Y206551D01*
X507250Y206666D01*
X507284Y206849D01*
X507287Y207035D01*
X507299Y207150D01*
X507299Y210151D01*
X507301Y210151D01*
X507301Y207150D01*
X507309Y207056D01*
X507307Y206962D01*
X507329Y206812D01*
X507341Y206662D01*
X507364Y206571D01*
X507377Y206477D01*
X507423Y206334D01*
X507460Y206187D01*
X507497Y206101D01*
X507526Y206011D01*
X507594Y205876D01*
X507654Y205738D01*
X507705Y205659D01*
X507748Y205575D01*
X507837Y205453D01*
X507919Y205327D01*
X507982Y205257D01*
X508038Y205181D01*
X508146Y205075D01*
X508247Y204964D01*
X508321Y204905D01*
X508388Y204839D01*
X508512Y204753D01*
X508630Y204659D01*
X508712Y204613D01*
X508790Y204559D01*
X508926Y204494D01*
X509057Y204420D01*
X509146Y204388D01*
X509231Y204348D01*
X509376Y204306D01*
X509518Y204255D01*
X509611Y204237D01*
X509701Y204211D01*
X509817Y204200D01*
X509999Y204166D01*
X510185Y204162D01*
X510300Y204151D01*
X527047Y204151D01*
X526381Y202246D01*
X525376Y200160D01*
X524144Y198199D01*
X522700Y196388D01*
X521062Y194750D01*
X519246Y193301D01*
X519233Y193289D01*
X519218Y193279D01*
X519055Y193122D01*
X518889Y192966D01*
X518878Y192952D01*
X518866Y192940D01*
X518730Y192758D01*
X518592Y192577D01*
X518584Y192562D01*
X518573Y192548D01*
X518469Y192347D01*
X518362Y192145D01*
X518356Y192128D01*
X518348Y192113D01*
X518278Y191895D01*
X518205Y191681D01*
X518202Y191664D01*
X518197Y191647D01*
X518163Y191422D01*
X518126Y191198D01*
X518126Y191181D01*
X518124Y191164D01*
X518126Y190936D01*
X518127Y190709D01*
X518129Y190692D01*
X518130Y190674D01*
X518170Y190450D01*
X518207Y190226D01*
X518212Y190210D01*
X518215Y190192D01*
X518291Y189977D01*
X518364Y189763D01*
X518372Y189747D01*
X518378Y189731D01*
X518487Y189532D01*
X518595Y189331D01*
X518606Y189317D01*
X518614Y189302D01*
X518669Y189235D01*
X518893Y188943D01*
X518955Y188885D01*
X518995Y188836D01*
X525212Y182618D01*
X528429Y174853D01*
X528429Y166447D01*
X525212Y158682D01*
X519551Y153021D01*
X519490Y152949D01*
X519422Y152883D01*
X519332Y152763D01*
X519235Y152648D01*
X519186Y152567D01*
X519130Y152491D01*
X519060Y152357D01*
X518983Y152228D01*
X518948Y152140D01*
X518905Y152056D01*
X518858Y151913D01*
X518803Y151773D01*
X518783Y151681D01*
X518754Y151591D01*
X518731Y151442D01*
X518699Y151295D01*
X518694Y151200D01*
X518680Y151107D01*
X518682Y150956D01*
X518674Y150806D01*
X518685Y150712D01*
X518686Y150618D01*
X518713Y150469D01*
X518730Y150319D01*
X518755Y150229D01*
X518772Y150136D01*
X518822Y149994D01*
X518863Y149849D01*
X518903Y149763D01*
X518935Y149674D01*
X519007Y149542D01*
X519072Y149406D01*
X519125Y149328D01*
X519171Y149245D01*
X519244Y149156D01*
X519349Y149003D01*
X519478Y148869D01*
X519551Y148779D01*
X525212Y143118D01*
X528429Y135353D01*
X528429Y126947D01*
X525212Y119182D01*
X519551Y113521D01*
X519490Y113449D01*
X519422Y113383D01*
X519332Y113263D01*
X519235Y113148D01*
X519186Y113067D01*
X519130Y112991D01*
X519060Y112857D01*
X518983Y112728D01*
X518948Y112640D01*
X518905Y112556D01*
X518858Y112413D01*
X518803Y112273D01*
X518783Y112181D01*
X518754Y112091D01*
X518731Y111942D01*
X518699Y111795D01*
X518694Y111700D01*
X518680Y111607D01*
X518682Y111456D01*
X518674Y111306D01*
X518685Y111212D01*
X518686Y111118D01*
X518713Y110969D01*
X518730Y110819D01*
X518755Y110729D01*
X518772Y110636D01*
X518822Y110494D01*
X518863Y110349D01*
X518903Y110263D01*
X518935Y110174D01*
X519007Y110042D01*
X519072Y109906D01*
X519125Y109828D01*
X519171Y109745D01*
X519244Y109656D01*
X519349Y109503D01*
X519478Y109369D01*
X519551Y109279D01*
X525212Y103618D01*
X528429Y95853D01*
X528429Y87447D01*
X525212Y79682D01*
X519268Y73738D01*
X511418Y70486D01*
X511359Y70481D01*
X511217Y70446D01*
X511074Y70420D01*
X510980Y70387D01*
X510884Y70363D01*
X510750Y70305D01*
X510613Y70256D01*
X510526Y70208D01*
X510435Y70168D01*
X510312Y70089D01*
X510184Y70018D01*
X510107Y69957D01*
X510024Y69903D01*
X509915Y69805D01*
X509801Y69715D01*
X509734Y69641D01*
X509661Y69575D01*
X509570Y69461D01*
X509471Y69353D01*
X509417Y69270D01*
X509356Y69192D01*
X509285Y69065D01*
X509205Y68942D01*
X509165Y68851D01*
X509117Y68765D01*
X509068Y68627D01*
X509009Y68493D01*
X508985Y68398D01*
X508951Y68304D01*
X508925Y68160D01*
X508889Y68019D01*
X508881Y67920D01*
X508863Y67823D01*
X508860Y67677D01*
X508848Y67531D01*
X508855Y67432D01*
X508854Y67334D01*
X508875Y67189D01*
X508886Y67043D01*
X508910Y66947D01*
X508924Y66849D01*
X508968Y66710D01*
X509003Y66568D01*
X509042Y66477D01*
X509072Y66383D01*
X509139Y66253D01*
X509196Y66118D01*
X509250Y66035D01*
X509295Y65947D01*
X509381Y65829D01*
X509460Y65706D01*
X509526Y65632D01*
X509585Y65553D01*
X509689Y65451D01*
X509787Y65342D01*
X509864Y65280D01*
X509935Y65211D01*
X510055Y65127D01*
X510169Y65036D01*
X510242Y64997D01*
X510336Y64931D01*
X510592Y64808D01*
X510699Y64751D01*
X512377Y64056D01*
X531006Y45427D01*
X531113Y45336D01*
X531215Y45237D01*
X531300Y45177D01*
X531379Y45111D01*
X531500Y45038D01*
X531616Y44957D01*
X531710Y44912D01*
X531799Y44859D01*
X531930Y44807D01*
X532058Y44746D01*
X532157Y44717D01*
X532254Y44679D01*
X532392Y44649D01*
X532528Y44609D01*
X532614Y44600D01*
X532732Y44575D01*
X533004Y44561D01*
X533126Y44549D01*
X556874Y44549D01*
X557014Y44560D01*
X557156Y44562D01*
X557258Y44580D01*
X557361Y44589D01*
X557498Y44623D01*
X557638Y44648D01*
X557735Y44682D01*
X557836Y44707D01*
X557966Y44764D01*
X558099Y44811D01*
X558190Y44861D01*
X558285Y44902D01*
X558404Y44978D01*
X558528Y45046D01*
X558595Y45101D01*
X558697Y45167D01*
X558898Y45349D01*
X558994Y45427D01*
X564573Y51006D01*
X564664Y51113D01*
X564763Y51215D01*
X564823Y51300D01*
X564889Y51379D01*
X564962Y51500D01*
X565043Y51616D01*
X565088Y51710D01*
X565141Y51799D01*
X565193Y51930D01*
X565254Y52058D01*
X565283Y52157D01*
X565321Y52254D01*
X565351Y52392D01*
X565391Y52528D01*
X565400Y52614D01*
X565425Y52732D01*
X565439Y53004D01*
X565451Y53126D01*
X565451Y80534D01*
X565448Y80576D01*
X565450Y80619D01*
X565428Y80820D01*
X565411Y81022D01*
X565401Y81063D01*
X565396Y81105D01*
X565361Y81222D01*
X565293Y81496D01*
X565247Y81602D01*
X565223Y81682D01*
X565171Y81806D01*
X565171Y149975D01*
X565864Y151647D01*
X571828Y157610D01*
X571979Y157789D01*
X572139Y157976D01*
X572141Y157980D01*
X572144Y157984D01*
X572264Y158183D01*
X572392Y158395D01*
X572394Y158399D01*
X572396Y158403D01*
X572485Y158629D01*
X572573Y158849D01*
X572574Y158854D01*
X572576Y158858D01*
X572628Y159098D01*
X572679Y159327D01*
X572679Y159332D01*
X572680Y159337D01*
X572692Y159575D01*
X572705Y159816D01*
X572704Y159821D01*
X572705Y159825D01*
X572677Y160066D01*
X572651Y160303D01*
X572650Y160307D01*
X572649Y160312D01*
X572614Y160436D01*
X572613Y160444D01*
X572602Y160479D01*
X572516Y160783D01*
X572491Y160836D01*
X572478Y160879D01*
X570171Y166447D01*
X570171Y174853D01*
X573388Y182618D01*
X579049Y188279D01*
X579110Y188351D01*
X579178Y188417D01*
X579268Y188537D01*
X579365Y188652D01*
X579414Y188733D01*
X579470Y188809D01*
X579540Y188943D01*
X579617Y189072D01*
X579652Y189160D01*
X579695Y189244D01*
X579742Y189387D01*
X579797Y189527D01*
X579817Y189619D01*
X579846Y189709D01*
X579869Y189858D01*
X579901Y190005D01*
X579906Y190100D01*
X579920Y190193D01*
X579918Y190344D01*
X579926Y190494D01*
X579915Y190588D01*
X579914Y190682D01*
X579887Y190831D01*
X579870Y190981D01*
X579845Y191071D01*
X579828Y191164D01*
X579778Y191306D01*
X579737Y191451D01*
X579697Y191537D01*
X579665Y191626D01*
X579593Y191758D01*
X579528Y191894D01*
X579475Y191972D01*
X579429Y192055D01*
X579356Y192145D01*
X579251Y192297D01*
X579122Y192431D01*
X579049Y192521D01*
X573388Y198182D01*
X570171Y205947D01*
X570171Y214353D01*
X573388Y222118D01*
X579049Y227779D01*
X579110Y227851D01*
X579178Y227917D01*
X579268Y228037D01*
X579365Y228152D01*
X579414Y228233D01*
X579470Y228309D01*
X579540Y228443D01*
X579617Y228572D01*
X579652Y228660D01*
X579695Y228744D01*
X579742Y228887D01*
X579797Y229027D01*
X579817Y229119D01*
X579846Y229209D01*
X579869Y229358D01*
X579901Y229505D01*
X579906Y229600D01*
X579920Y229693D01*
X579918Y229844D01*
X579926Y229994D01*
X579915Y230088D01*
X579914Y230182D01*
X579887Y230331D01*
X579870Y230481D01*
X579845Y230571D01*
X579828Y230664D01*
X579778Y230806D01*
X579737Y230951D01*
X579697Y231037D01*
X579665Y231126D01*
X579593Y231258D01*
X579528Y231394D01*
X579475Y231472D01*
X579429Y231555D01*
X579356Y231645D01*
X579251Y231797D01*
X579122Y231931D01*
X579049Y232021D01*
X573388Y237682D01*
X570171Y245447D01*
X570171Y253853D01*
X573388Y261618D01*
X579049Y267279D01*
X579110Y267351D01*
X579178Y267417D01*
X579268Y267537D01*
X579365Y267652D01*
X579414Y267733D01*
X579470Y267809D01*
X579540Y267943D01*
X579617Y268072D01*
X579652Y268160D01*
X579695Y268244D01*
X579742Y268387D01*
X579797Y268527D01*
X579817Y268619D01*
X579846Y268709D01*
X579869Y268858D01*
X579901Y269005D01*
X579906Y269100D01*
X579920Y269193D01*
X579918Y269344D01*
X579926Y269494D01*
X579915Y269588D01*
X579914Y269682D01*
X579887Y269831D01*
X579870Y269981D01*
X579845Y270071D01*
X579828Y270164D01*
X579778Y270306D01*
X579737Y270451D01*
X579697Y270537D01*
X579665Y270626D01*
X579593Y270758D01*
X579528Y270894D01*
X579475Y270972D01*
X579429Y271055D01*
X579356Y271145D01*
X579251Y271297D01*
X579122Y271431D01*
X579049Y271521D01*
X573388Y277182D01*
X570171Y284947D01*
X570171Y293353D01*
X573388Y301118D01*
X579049Y306779D01*
X579110Y306851D01*
X579178Y306917D01*
X579268Y307037D01*
X579365Y307152D01*
X579414Y307233D01*
X579470Y307309D01*
X579540Y307443D01*
X579617Y307572D01*
X579652Y307660D01*
X579695Y307744D01*
X579742Y307887D01*
X579797Y308027D01*
X579817Y308119D01*
X579846Y308209D01*
X579869Y308358D01*
X579901Y308505D01*
X579906Y308600D01*
X579920Y308693D01*
X579918Y308844D01*
X579926Y308994D01*
X579915Y309088D01*
X579914Y309182D01*
X579887Y309331D01*
X579870Y309481D01*
X579845Y309571D01*
X579828Y309664D01*
X579778Y309806D01*
X579737Y309951D01*
X579697Y310037D01*
X579665Y310126D01*
X579593Y310258D01*
X579528Y310394D01*
X579475Y310472D01*
X579429Y310555D01*
X579356Y310645D01*
X579251Y310797D01*
X579122Y310931D01*
X579049Y311021D01*
X573388Y316682D01*
X570171Y324447D01*
X570171Y332853D01*
X573388Y340618D01*
X579049Y346279D01*
X579110Y346351D01*
X579178Y346417D01*
X579268Y346537D01*
X579365Y346652D01*
X579414Y346733D01*
X579470Y346809D01*
X579540Y346943D01*
X579617Y347072D01*
X579652Y347160D01*
X579695Y347244D01*
X579742Y347387D01*
X579797Y347527D01*
X579817Y347619D01*
X579846Y347709D01*
X579869Y347858D01*
X579901Y348005D01*
X579906Y348100D01*
X579920Y348193D01*
X579918Y348344D01*
X579926Y348494D01*
X579915Y348588D01*
X579914Y348682D01*
X579887Y348831D01*
X579870Y348981D01*
X579845Y349071D01*
X579828Y349164D01*
X579778Y349306D01*
X579737Y349451D01*
X579697Y349537D01*
X579665Y349626D01*
X579593Y349758D01*
X579528Y349894D01*
X579475Y349972D01*
X579429Y350055D01*
X579356Y350145D01*
X579251Y350297D01*
X579122Y350431D01*
X579049Y350521D01*
X573388Y356182D01*
X570171Y363947D01*
X570171Y372353D01*
X573388Y380118D01*
X577373Y384103D01*
X577464Y384211D01*
X577563Y384312D01*
X577622Y384398D01*
X577689Y384477D01*
X577762Y384598D01*
X577843Y384714D01*
X577888Y384807D01*
X577941Y384896D01*
X577993Y385027D01*
X578054Y385155D01*
X578083Y385255D01*
X578121Y385351D01*
X578151Y385489D01*
X578191Y385625D01*
X578200Y385711D01*
X578225Y385830D01*
X578239Y386101D01*
X578251Y386224D01*
X578251Y421666D01*
X578244Y421760D01*
X578245Y421854D01*
X578224Y422004D01*
X578211Y422154D01*
X578188Y422245D01*
X578175Y422339D01*
X578129Y422482D01*
X578093Y422629D01*
X578055Y422715D01*
X578027Y422805D01*
X577958Y422940D01*
X577898Y423078D01*
X577847Y423157D01*
X577804Y423241D01*
X577715Y423363D01*
X577633Y423489D01*
X577570Y423559D01*
X577514Y423635D01*
X577406Y423741D01*
X577305Y423852D01*
X577231Y423911D01*
X577164Y423977D01*
X577040Y424063D01*
X576922Y424157D01*
X576840Y424203D01*
X576762Y424257D01*
X576626Y424322D01*
X576495Y424396D01*
X576406Y424428D01*
X576321Y424468D01*
X576176Y424510D01*
X576034Y424561D01*
X575941Y424579D01*
X575851Y424605D01*
X575736Y424616D01*
X575553Y424650D01*
X575367Y424654D01*
X575252Y424665D01*
X356048Y424665D01*
X355954Y424658D01*
X355860Y424659D01*
X355710Y424638D01*
X355560Y424625D01*
X355469Y424602D01*
X355375Y424589D01*
X355232Y424543D01*
X355085Y424507D01*
X354999Y424469D01*
X354909Y424441D01*
X354774Y424372D01*
X354636Y424312D01*
X354557Y424261D01*
X354473Y424218D01*
X354351Y424129D01*
X354225Y424047D01*
X354155Y423984D01*
X354079Y423928D01*
X353973Y423820D01*
X353862Y423719D01*
X353803Y423645D01*
X353737Y423578D01*
X353651Y423454D01*
X353557Y423336D01*
X353511Y423254D01*
X353457Y423176D01*
X353392Y423040D01*
X353318Y422909D01*
X353286Y422820D01*
X353246Y422735D01*
X353204Y422590D01*
X353153Y422448D01*
X353135Y422355D01*
X353109Y422265D01*
X353098Y422150D01*
X353064Y421967D01*
X353060Y421781D01*
X353049Y421666D01*
X353049Y405664D01*
X353053Y405616D01*
X353050Y405569D01*
X353055Y405529D01*
X353055Y405522D01*
X353059Y405493D01*
X353073Y405373D01*
X353089Y405176D01*
X353100Y405130D01*
X353106Y405083D01*
X353159Y404893D01*
X353207Y404701D01*
X353226Y404658D01*
X353239Y404612D01*
X353323Y404433D01*
X353402Y404252D01*
X353428Y404212D01*
X353448Y404169D01*
X353560Y404006D01*
X353667Y403840D01*
X353698Y403805D01*
X353725Y403766D01*
X353863Y403624D01*
X353995Y403477D01*
X354032Y403448D01*
X354065Y403414D01*
X354223Y403296D01*
X354378Y403173D01*
X354419Y403149D01*
X354457Y403121D01*
X354632Y403031D01*
X354805Y402934D01*
X354850Y402918D01*
X354892Y402896D01*
X355080Y402835D01*
X355266Y402768D01*
X355313Y402760D01*
X355358Y402745D01*
X355552Y402716D01*
X355747Y402680D01*
X355795Y402679D01*
X355842Y402672D01*
X356039Y402674D01*
X356236Y402670D01*
X356283Y402677D01*
X356331Y402678D01*
X356525Y402713D01*
X356721Y402741D01*
X356766Y402755D01*
X356813Y402764D01*
X356999Y402829D01*
X357187Y402889D01*
X357229Y402911D01*
X357274Y402927D01*
X357447Y403022D01*
X357623Y403111D01*
X357662Y403140D01*
X357703Y403163D01*
X357798Y403241D01*
X358017Y403402D01*
X358102Y403489D01*
X358169Y403543D01*
X358245Y403620D01*
X362338Y407712D01*
X367134Y409699D01*
X368795Y409699D01*
X368936Y409710D01*
X369077Y409712D01*
X369179Y409730D01*
X369283Y409739D01*
X369420Y409773D01*
X369559Y409798D01*
X369657Y409832D01*
X369757Y409857D01*
X369887Y409914D01*
X370021Y409961D01*
X370112Y410011D01*
X370207Y410052D01*
X370325Y410128D01*
X370449Y410196D01*
X370516Y410251D01*
X370618Y410317D01*
X370820Y410499D01*
X370916Y410577D01*
X373437Y413099D01*
X375903Y413099D01*
X376044Y413110D01*
X376185Y413112D01*
X376287Y413130D01*
X376391Y413139D01*
X376528Y413173D01*
X376667Y413198D01*
X376765Y413232D01*
X376865Y413257D01*
X376995Y413314D01*
X377129Y413361D01*
X377220Y413411D01*
X377315Y413452D01*
X377433Y413528D01*
X377557Y413596D01*
X377625Y413651D01*
X377726Y413717D01*
X377927Y413899D01*
X378024Y413977D01*
X379509Y415462D01*
X384304Y417449D01*
X389496Y417449D01*
X394291Y415462D01*
X395776Y413977D01*
X395884Y413886D01*
X395986Y413787D01*
X396071Y413728D01*
X396150Y413661D01*
X396271Y413588D01*
X396387Y413507D01*
X396481Y413462D01*
X396569Y413409D01*
X396701Y413357D01*
X396828Y413296D01*
X396928Y413267D01*
X397024Y413229D01*
X397163Y413199D01*
X397298Y413159D01*
X397384Y413150D01*
X397503Y413125D01*
X397774Y413111D01*
X397897Y413099D01*
X400363Y413099D01*
X402149Y411313D01*
X402149Y397487D01*
X400363Y395701D01*
X397897Y395701D01*
X397756Y395690D01*
X397615Y395688D01*
X397513Y395670D01*
X397409Y395661D01*
X397272Y395627D01*
X397133Y395602D01*
X397035Y395568D01*
X396935Y395543D01*
X396805Y395486D01*
X396672Y395439D01*
X396581Y395389D01*
X396485Y395348D01*
X396367Y395272D01*
X396243Y395204D01*
X396176Y395149D01*
X396074Y395083D01*
X395872Y394901D01*
X395776Y394823D01*
X393772Y392819D01*
X393747Y392789D01*
X393723Y392767D01*
X393719Y392762D01*
X393707Y392751D01*
X393584Y392596D01*
X393456Y392446D01*
X393432Y392405D01*
X393402Y392368D01*
X393306Y392195D01*
X393204Y392026D01*
X393187Y391982D01*
X393164Y391941D01*
X393097Y391755D01*
X393024Y391571D01*
X393014Y391525D01*
X392998Y391480D01*
X392962Y391286D01*
X392920Y391093D01*
X392918Y391045D01*
X392909Y390999D01*
X392905Y390801D01*
X392895Y390604D01*
X392901Y390557D01*
X392900Y390510D01*
X392928Y390314D01*
X392951Y390117D01*
X392964Y390072D01*
X392970Y390025D01*
X393030Y389837D01*
X393084Y389647D01*
X393104Y389604D01*
X393119Y389559D01*
X393209Y389382D01*
X393293Y389204D01*
X393319Y389165D01*
X393341Y389123D01*
X393459Y388963D01*
X393570Y388801D01*
X393603Y388767D01*
X393631Y388729D01*
X393773Y388590D01*
X393910Y388448D01*
X393948Y388420D01*
X393982Y388387D01*
X394144Y388273D01*
X394302Y388156D01*
X394344Y388134D01*
X394383Y388107D01*
X394562Y388021D01*
X394737Y387931D01*
X394782Y387916D01*
X394824Y387896D01*
X395014Y387840D01*
X395202Y387779D01*
X395249Y387772D01*
X395294Y387759D01*
X395417Y387747D01*
X395686Y387706D01*
X395807Y387707D01*
X395893Y387699D01*
X400363Y387699D01*
X402243Y385818D01*
X402271Y385732D01*
X402307Y385585D01*
X402345Y385499D01*
X402373Y385409D01*
X402442Y385274D01*
X402502Y385136D01*
X402553Y385057D01*
X402596Y384973D01*
X402685Y384851D01*
X402767Y384725D01*
X402830Y384655D01*
X402886Y384579D01*
X402994Y384473D01*
X403095Y384362D01*
X403169Y384303D01*
X403236Y384237D01*
X403360Y384151D01*
X403478Y384057D01*
X403560Y384011D01*
X403638Y383957D01*
X403774Y383892D01*
X403905Y383818D01*
X403994Y383786D01*
X404079Y383746D01*
X404224Y383704D01*
X404366Y383653D01*
X404459Y383635D01*
X404549Y383609D01*
X404664Y383598D01*
X404847Y383564D01*
X405033Y383560D01*
X405148Y383549D01*
X491576Y383549D01*
X491717Y383560D01*
X491858Y383562D01*
X491960Y383580D01*
X492064Y383589D01*
X492201Y383623D01*
X492340Y383648D01*
X492438Y383682D01*
X492538Y383707D01*
X492668Y383764D01*
X492802Y383811D01*
X492893Y383861D01*
X492988Y383902D01*
X493106Y383978D01*
X493230Y384046D01*
X493297Y384101D01*
X493399Y384167D01*
X493601Y384349D01*
X493697Y384427D01*
X495332Y386062D01*
X503097Y389279D01*
X511503Y389279D01*
X519268Y386062D01*
X525212Y380118D01*
X528429Y372353D01*
X528429Y363947D01*
X525212Y356182D01*
X519551Y350521D01*
X519490Y350449D01*
X519422Y350383D01*
X519332Y350263D01*
X519235Y350148D01*
X519186Y350067D01*
X519130Y349991D01*
X519060Y349857D01*
X518983Y349728D01*
X518948Y349640D01*
X518905Y349556D01*
X518858Y349413D01*
X518803Y349273D01*
X518783Y349181D01*
X518754Y349091D01*
X518731Y348942D01*
X518699Y348795D01*
X518694Y348700D01*
X518680Y348607D01*
X518682Y348456D01*
X518674Y348306D01*
X518685Y348212D01*
X518686Y348118D01*
X518713Y347969D01*
X518730Y347819D01*
X518755Y347729D01*
X518772Y347636D01*
X518822Y347494D01*
X518863Y347349D01*
X518903Y347263D01*
X518935Y347174D01*
X519007Y347042D01*
X519072Y346906D01*
X519125Y346828D01*
X519171Y346745D01*
X519244Y346656D01*
X519349Y346503D01*
X519478Y346369D01*
X519551Y346279D01*
X525212Y340618D01*
X528429Y332853D01*
X528429Y324447D01*
X525212Y316682D01*
X519551Y311021D01*
X519490Y310949D01*
X519422Y310883D01*
X519332Y310763D01*
X519235Y310648D01*
X519186Y310567D01*
X519130Y310491D01*
X519060Y310357D01*
X518983Y310228D01*
X518948Y310140D01*
X518905Y310056D01*
X518858Y309913D01*
X518803Y309773D01*
X518783Y309681D01*
X518754Y309591D01*
X518731Y309442D01*
X518699Y309295D01*
X518694Y309200D01*
X518680Y309107D01*
X518682Y308956D01*
X518674Y308806D01*
X518685Y308712D01*
X518686Y308618D01*
X518713Y308469D01*
X518730Y308319D01*
X518755Y308229D01*
X518772Y308136D01*
X518822Y307994D01*
X518863Y307849D01*
X518903Y307763D01*
X518935Y307674D01*
X519007Y307542D01*
X519072Y307406D01*
X519125Y307328D01*
X519171Y307245D01*
X519244Y307156D01*
X519349Y307003D01*
X519478Y306869D01*
X519551Y306779D01*
X525212Y301118D01*
X528429Y293353D01*
X528429Y284947D01*
X525212Y277182D01*
X518995Y270964D01*
X518984Y270951D01*
X518970Y270939D01*
X518824Y270763D01*
X518678Y270591D01*
X518669Y270576D01*
X518658Y270563D01*
X518543Y270366D01*
X518426Y270171D01*
X518420Y270155D01*
X518411Y270140D01*
X518330Y269928D01*
X518246Y269716D01*
X518242Y269699D01*
X518236Y269683D01*
X518191Y269460D01*
X518142Y269238D01*
X518142Y269220D01*
X518138Y269203D01*
X518129Y268977D01*
X518118Y268749D01*
X518120Y268732D01*
X518119Y268714D01*
X518147Y268489D01*
X518173Y268263D01*
X518178Y268246D01*
X518180Y268229D01*
X518244Y268012D01*
X518307Y267792D01*
X518314Y267776D01*
X518319Y267759D01*
X518418Y267555D01*
X518515Y267349D01*
X518525Y267335D01*
X518533Y267319D01*
X518665Y267132D01*
X518793Y266946D01*
X518805Y266934D01*
X518815Y266919D01*
X518878Y266858D01*
X519132Y266594D01*
X519200Y266543D01*
X519246Y266499D01*
X521062Y265050D01*
X522700Y263412D01*
X524144Y261601D01*
X525376Y259640D01*
X526381Y257554D01*
X527047Y255649D01*
X510300Y255649D01*
X510206Y255641D01*
X510112Y255643D01*
X509963Y255622D01*
X509812Y255609D01*
X509721Y255586D01*
X509627Y255573D01*
X509484Y255527D01*
X509338Y255491D01*
X509251Y255453D01*
X509161Y255424D01*
X509027Y255356D01*
X508888Y255296D01*
X508809Y255245D01*
X508725Y255202D01*
X508603Y255113D01*
X508477Y255031D01*
X508407Y254968D01*
X508331Y254912D01*
X508225Y254804D01*
X508114Y254703D01*
X508055Y254629D01*
X507989Y254562D01*
X507903Y254438D01*
X507809Y254320D01*
X507763Y254238D01*
X507709Y254160D01*
X507644Y254024D01*
X507570Y253893D01*
X507539Y253804D01*
X507498Y253719D01*
X507456Y253574D01*
X507405Y253432D01*
X507388Y253339D01*
X507361Y253249D01*
X507350Y253134D01*
X507316Y252951D01*
X507313Y252765D01*
X507301Y252650D01*
X507301Y249649D01*
X507299Y249649D01*
X507299Y252650D01*
X507291Y252744D01*
X507293Y252838D01*
X507271Y252987D01*
X507259Y253138D01*
X507236Y253229D01*
X507223Y253323D01*
X507177Y253466D01*
X507140Y253613D01*
X507103Y253699D01*
X507074Y253789D01*
X507006Y253923D01*
X506946Y254062D01*
X506895Y254141D01*
X506852Y254225D01*
X506763Y254347D01*
X506681Y254473D01*
X506618Y254543D01*
X506562Y254619D01*
X506454Y254725D01*
X506353Y254836D01*
X506279Y254895D01*
X506212Y254961D01*
X506088Y255047D01*
X505970Y255141D01*
X505888Y255187D01*
X505810Y255241D01*
X505674Y255306D01*
X505543Y255380D01*
X505454Y255412D01*
X505369Y255452D01*
X505224Y255494D01*
X505082Y255545D01*
X504989Y255563D01*
X504899Y255589D01*
X504783Y255600D01*
X504601Y255634D01*
X504415Y255638D01*
X504300Y255649D01*
X487553Y255649D01*
X488219Y257554D01*
X489224Y259640D01*
X490456Y261601D01*
X491900Y263412D01*
X493538Y265050D01*
X495354Y266499D01*
X495367Y266511D01*
X495382Y266521D01*
X495545Y266678D01*
X495711Y266834D01*
X495722Y266848D01*
X495734Y266860D01*
X495870Y267042D01*
X496008Y267223D01*
X496016Y267238D01*
X496027Y267252D01*
X496131Y267453D01*
X496238Y267655D01*
X496244Y267672D01*
X496252Y267687D01*
X496322Y267903D01*
X496395Y268119D01*
X496398Y268136D01*
X496403Y268153D01*
X496437Y268378D01*
X496474Y268602D01*
X496474Y268619D01*
X496476Y268636D01*
X496474Y268864D01*
X496473Y269091D01*
X496471Y269108D01*
X496470Y269126D01*
X496430Y269350D01*
X496393Y269574D01*
X496388Y269590D01*
X496385Y269608D01*
X496309Y269823D01*
X496236Y270037D01*
X496228Y270053D01*
X496222Y270069D01*
X496113Y270268D01*
X496005Y270469D01*
X495994Y270483D01*
X495986Y270498D01*
X495931Y270565D01*
X495707Y270857D01*
X495645Y270915D01*
X495605Y270964D01*
X489388Y277182D01*
X486729Y283600D01*
X486623Y283808D01*
X486511Y284027D01*
X486508Y284031D01*
X486506Y284035D01*
X486365Y284225D01*
X486221Y284421D01*
X486217Y284425D01*
X486214Y284428D01*
X486044Y284594D01*
X485870Y284763D01*
X485866Y284766D01*
X485863Y284769D01*
X485669Y284904D01*
X485469Y285043D01*
X485465Y285045D01*
X485461Y285048D01*
X485249Y285148D01*
X485027Y285254D01*
X485023Y285256D01*
X485019Y285258D01*
X484787Y285324D01*
X484557Y285391D01*
X484553Y285391D01*
X484548Y285393D01*
X484062Y285449D01*
X484003Y285447D01*
X483958Y285451D01*
X483126Y285451D01*
X482986Y285440D01*
X482844Y285438D01*
X482742Y285420D01*
X482639Y285411D01*
X482502Y285377D01*
X482362Y285352D01*
X482265Y285318D01*
X482164Y285293D01*
X482034Y285236D01*
X481901Y285189D01*
X481810Y285139D01*
X481715Y285098D01*
X481596Y285022D01*
X481472Y284954D01*
X481405Y284899D01*
X481303Y284833D01*
X481102Y284651D01*
X481006Y284573D01*
X439577Y243144D01*
X437905Y242451D01*
X410426Y242451D01*
X410286Y242440D01*
X410144Y242438D01*
X410042Y242420D01*
X409939Y242411D01*
X409802Y242377D01*
X409662Y242352D01*
X409565Y242318D01*
X409464Y242293D01*
X409334Y242236D01*
X409201Y242189D01*
X409110Y242139D01*
X409015Y242098D01*
X408896Y242022D01*
X408772Y241954D01*
X408705Y241899D01*
X408603Y241833D01*
X408402Y241651D01*
X408306Y241573D01*
X403027Y236294D01*
X402936Y236187D01*
X402837Y236085D01*
X402777Y236000D01*
X402711Y235921D01*
X402638Y235800D01*
X402557Y235684D01*
X402512Y235590D01*
X402459Y235501D01*
X402407Y235370D01*
X402346Y235242D01*
X402317Y235143D01*
X402279Y235046D01*
X402249Y234908D01*
X402209Y234772D01*
X402200Y234686D01*
X402175Y234568D01*
X402161Y234296D01*
X402149Y234174D01*
X402149Y219687D01*
X400363Y217901D01*
X385876Y217901D01*
X385736Y217890D01*
X385594Y217888D01*
X385492Y217870D01*
X385389Y217861D01*
X385252Y217827D01*
X385112Y217802D01*
X385015Y217768D01*
X384914Y217743D01*
X384784Y217686D01*
X384651Y217639D01*
X384560Y217589D01*
X384465Y217548D01*
X384346Y217472D01*
X384222Y217404D01*
X384155Y217349D01*
X384053Y217283D01*
X383852Y217101D01*
X383756Y217023D01*
X372877Y206144D01*
X371205Y205451D01*
X269095Y205451D01*
X267423Y206144D01*
X232018Y241549D01*
X231911Y241640D01*
X231809Y241739D01*
X231724Y241799D01*
X231645Y241865D01*
X231524Y241938D01*
X231408Y242019D01*
X231314Y242064D01*
X231225Y242117D01*
X231094Y242169D01*
X230966Y242230D01*
X230867Y242259D01*
X230770Y242297D01*
X230632Y242327D01*
X230496Y242367D01*
X230410Y242376D01*
X230292Y242401D01*
X230020Y242415D01*
X229898Y242427D01*
X145749Y242427D01*
X145707Y242424D01*
X145665Y242426D01*
X145463Y242404D01*
X145262Y242387D01*
X145220Y242377D01*
X145178Y242372D01*
X145143Y242362D01*
X131484Y242362D01*
X131343Y242350D01*
X131202Y242348D01*
X131100Y242330D01*
X130997Y242322D01*
X130859Y242287D01*
X130720Y242263D01*
X130622Y242228D01*
X130522Y242203D01*
X130392Y242147D01*
X130259Y242100D01*
X130168Y242050D01*
X130073Y242009D01*
X129954Y241932D01*
X129830Y241864D01*
X129769Y241815D01*
X127411Y240838D01*
X124995Y240838D01*
X122661Y241804D01*
X122547Y241872D01*
X122431Y241954D01*
X122338Y241998D01*
X122249Y242052D01*
X122117Y242104D01*
X121990Y242165D01*
X121890Y242194D01*
X121794Y242232D01*
X121655Y242262D01*
X121520Y242301D01*
X121434Y242310D01*
X121315Y242336D01*
X121044Y242349D01*
X120921Y242362D01*
X109085Y242362D01*
X107413Y243054D01*
X72016Y278451D01*
X71836Y278604D01*
X71650Y278763D01*
X71646Y278765D01*
X71643Y278768D01*
X71441Y278889D01*
X71231Y279016D01*
X71227Y279017D01*
X71223Y279020D01*
X71001Y279108D01*
X70777Y279197D01*
X70772Y279198D01*
X70768Y279200D01*
X70533Y279251D01*
X70299Y279302D01*
X70294Y279303D01*
X70290Y279304D01*
X70048Y279316D01*
X69810Y279328D01*
X69806Y279328D01*
X69801Y279328D01*
X69559Y279301D01*
X69323Y279275D01*
X69320Y279273D01*
X69315Y279273D01*
X68844Y279139D01*
X68807Y279122D01*
X68791Y279117D01*
X68773Y279109D01*
X68747Y279101D01*
X68694Y279079D01*
X68522Y278991D01*
X68348Y278909D01*
X68305Y278879D01*
X68259Y278856D01*
X68103Y278740D01*
X67945Y278631D01*
X67907Y278595D01*
X67865Y278564D01*
X67731Y278425D01*
X67592Y278292D01*
X67561Y278250D01*
X67525Y278213D01*
X67415Y278054D01*
X67300Y277899D01*
X67276Y277853D01*
X67246Y277810D01*
X67163Y277636D01*
X67075Y277465D01*
X67059Y277415D01*
X67036Y277368D01*
X66983Y277182D01*
X66924Y276999D01*
X66916Y276948D01*
X66901Y276898D01*
X66879Y276706D01*
X66850Y276515D01*
X66851Y276463D01*
X66845Y276412D01*
X66854Y276219D01*
X66856Y276026D01*
X66865Y275975D01*
X66868Y275923D01*
X66908Y275734D01*
X66942Y275544D01*
X66959Y275495D01*
X66970Y275444D01*
X67041Y275264D01*
X67105Y275083D01*
X67130Y275037D01*
X67149Y274988D01*
X67248Y274823D01*
X67341Y274654D01*
X67369Y274619D01*
X67399Y274568D01*
X67715Y274194D01*
X67719Y274191D01*
X67721Y274188D01*
X112482Y229427D01*
X112589Y229336D01*
X112691Y229237D01*
X112776Y229177D01*
X112855Y229111D01*
X112976Y229038D01*
X113092Y228957D01*
X113186Y228912D01*
X113275Y228859D01*
X113406Y228807D01*
X113534Y228746D01*
X113633Y228717D01*
X113730Y228679D01*
X113868Y228649D01*
X114004Y228609D01*
X114090Y228600D01*
X114208Y228575D01*
X114480Y228561D01*
X114602Y228549D01*
X124992Y228549D01*
X125133Y228560D01*
X125275Y228562D01*
X125377Y228580D01*
X125480Y228589D01*
X125617Y228623D01*
X125756Y228648D01*
X125854Y228682D01*
X125955Y228707D01*
X126085Y228764D01*
X126218Y228811D01*
X126309Y228861D01*
X126404Y228902D01*
X126523Y228978D01*
X126647Y229046D01*
X126707Y229096D01*
X129066Y230073D01*
X131482Y230073D01*
X133714Y229148D01*
X135422Y227440D01*
X136347Y225208D01*
X136347Y223548D01*
X136354Y223454D01*
X136353Y223360D01*
X136374Y223210D01*
X136387Y223060D01*
X136410Y222969D01*
X136423Y222875D01*
X136469Y222732D01*
X136505Y222585D01*
X136543Y222499D01*
X136571Y222409D01*
X136640Y222274D01*
X136700Y222136D01*
X136751Y222057D01*
X136794Y221973D01*
X136883Y221851D01*
X136965Y221725D01*
X137028Y221655D01*
X137084Y221579D01*
X137192Y221473D01*
X137293Y221362D01*
X137367Y221303D01*
X137434Y221237D01*
X137558Y221151D01*
X137676Y221057D01*
X137758Y221011D01*
X137836Y220957D01*
X137972Y220892D01*
X138103Y220818D01*
X138192Y220786D01*
X138277Y220746D01*
X138422Y220704D01*
X138564Y220653D01*
X138657Y220635D01*
X138747Y220609D01*
X138862Y220598D01*
X139045Y220564D01*
X139231Y220560D01*
X139346Y220549D01*
X139718Y220549D01*
X139859Y220560D01*
X140001Y220562D01*
X140103Y220580D01*
X140206Y220589D01*
X140343Y220623D01*
X140482Y220648D01*
X140580Y220682D01*
X140681Y220707D01*
X140811Y220764D01*
X140944Y220811D01*
X141035Y220861D01*
X141130Y220902D01*
X141249Y220978D01*
X141373Y221046D01*
X141433Y221096D01*
X143792Y222073D01*
X146208Y222073D01*
X148440Y221148D01*
X150148Y219440D01*
X151073Y217208D01*
X151073Y216048D01*
X151080Y215954D01*
X151079Y215860D01*
X151100Y215710D01*
X151113Y215560D01*
X151136Y215469D01*
X151149Y215375D01*
X151195Y215232D01*
X151231Y215085D01*
X151269Y214999D01*
X151297Y214909D01*
X151366Y214774D01*
X151426Y214636D01*
X151477Y214557D01*
X151520Y214473D01*
X151609Y214351D01*
X151691Y214225D01*
X151754Y214155D01*
X151810Y214079D01*
X151918Y213973D01*
X152019Y213862D01*
X152093Y213803D01*
X152160Y213737D01*
X152284Y213651D01*
X152402Y213557D01*
X152484Y213511D01*
X152562Y213457D01*
X152698Y213392D01*
X152829Y213318D01*
X152918Y213286D01*
X153003Y213246D01*
X153148Y213204D01*
X153290Y213153D01*
X153383Y213135D01*
X153473Y213109D01*
X153588Y213098D01*
X153771Y213064D01*
X153957Y213060D01*
X154072Y213049D01*
X192596Y213049D01*
X197392Y211062D01*
X256527Y151927D01*
X256634Y151836D01*
X256736Y151737D01*
X256821Y151677D01*
X256900Y151611D01*
X257021Y151538D01*
X257137Y151457D01*
X257231Y151412D01*
X257319Y151359D01*
X257451Y151307D01*
X257578Y151246D01*
X257678Y151217D01*
X257774Y151179D01*
X257913Y151149D01*
X258048Y151109D01*
X258134Y151100D01*
X258253Y151075D01*
X258524Y151061D01*
X258647Y151049D01*
X328396Y151049D01*
X333192Y149062D01*
X336862Y145392D01*
X338849Y140596D01*
X338849Y135404D01*
X336862Y130608D01*
X333192Y126938D01*
X328396Y124951D01*
X249404Y124951D01*
X244608Y126938D01*
X185473Y186073D01*
X185366Y186164D01*
X185264Y186263D01*
X185179Y186323D01*
X185100Y186389D01*
X184979Y186462D01*
X184863Y186543D01*
X184769Y186588D01*
X184681Y186641D01*
X184549Y186693D01*
X184422Y186754D01*
X184322Y186783D01*
X184226Y186821D01*
X184087Y186851D01*
X183952Y186891D01*
X183866Y186900D01*
X183747Y186925D01*
X183476Y186939D01*
X183353Y186951D01*
X96647Y186951D01*
X96506Y186940D01*
X96365Y186938D01*
X96263Y186920D01*
X96160Y186911D01*
X96022Y186877D01*
X95883Y186852D01*
X95785Y186818D01*
X95685Y186793D01*
X95555Y186736D01*
X95422Y186689D01*
X95331Y186639D01*
X95236Y186598D01*
X95117Y186522D01*
X94993Y186454D01*
X94926Y186399D01*
X94824Y186333D01*
X94622Y186151D01*
X94527Y186073D01*
X89397Y180943D01*
X89302Y180832D01*
X89201Y180727D01*
X89144Y180645D01*
X89080Y180570D01*
X89005Y180445D01*
X88922Y180325D01*
X88879Y180235D01*
X88828Y180150D01*
X88775Y180015D01*
X88712Y179882D01*
X88685Y179787D01*
X88648Y179695D01*
X88617Y179552D01*
X88577Y179412D01*
X88565Y179314D01*
X88544Y179217D01*
X88537Y179071D01*
X88520Y178926D01*
X88525Y178827D01*
X88520Y178728D01*
X88536Y178583D01*
X88543Y178437D01*
X88564Y178340D01*
X88575Y178242D01*
X88615Y178101D01*
X88645Y177958D01*
X88682Y177866D01*
X88709Y177771D01*
X88771Y177639D01*
X88824Y177503D01*
X88875Y177418D01*
X88917Y177328D01*
X89000Y177208D01*
X89075Y177082D01*
X89138Y177007D01*
X89195Y176925D01*
X89296Y176820D01*
X89390Y176708D01*
X89465Y176644D01*
X89534Y176573D01*
X89651Y176485D01*
X89762Y176390D01*
X89847Y176339D01*
X89927Y176280D01*
X90056Y176213D01*
X90181Y176137D01*
X90273Y176100D01*
X90361Y176055D01*
X90500Y176010D01*
X90636Y175956D01*
X90732Y175934D01*
X90827Y175904D01*
X90971Y175882D01*
X91114Y175850D01*
X91213Y175845D01*
X91311Y175830D01*
X91457Y175832D01*
X91603Y175824D01*
X91701Y175835D01*
X91800Y175836D01*
X91944Y175862D01*
X92089Y175878D01*
X92169Y175902D01*
X92282Y175922D01*
X92549Y176016D01*
X92665Y176051D01*
X96401Y177599D01*
X100299Y177599D01*
X103901Y176107D01*
X106657Y173351D01*
X108279Y169434D01*
X108301Y169392D01*
X108317Y169348D01*
X108412Y169175D01*
X108503Y168999D01*
X108531Y168961D01*
X108554Y168920D01*
X108677Y168764D01*
X108794Y168606D01*
X108828Y168573D01*
X108857Y168536D01*
X109004Y168403D01*
X109146Y168265D01*
X109184Y168238D01*
X109219Y168207D01*
X109385Y168099D01*
X109548Y167986D01*
X109590Y167966D01*
X109630Y167940D01*
X109811Y167861D01*
X109947Y167797D01*
X109914Y167783D01*
X109730Y167711D01*
X109690Y167687D01*
X109646Y167668D01*
X109479Y167562D01*
X109310Y167461D01*
X109274Y167430D01*
X109234Y167405D01*
X109087Y167272D01*
X108936Y167145D01*
X108905Y167109D01*
X108870Y167078D01*
X108746Y166923D01*
X108618Y166773D01*
X108594Y166733D01*
X108564Y166696D01*
X108505Y166587D01*
X108365Y166354D01*
X108320Y166242D01*
X108279Y166166D01*
X106657Y162249D01*
X103901Y159493D01*
X100299Y158001D01*
X96401Y158001D01*
X92799Y159493D01*
X89976Y162317D01*
X89956Y162354D01*
X89928Y162392D01*
X89905Y162434D01*
X89782Y162589D01*
X89665Y162748D01*
X89631Y162781D01*
X89602Y162818D01*
X89455Y162951D01*
X89314Y163088D01*
X89275Y163115D01*
X89240Y163147D01*
X89074Y163255D01*
X88911Y163367D01*
X88869Y163388D01*
X88829Y163413D01*
X88648Y163492D01*
X88469Y163577D01*
X88424Y163590D01*
X88380Y163609D01*
X88190Y163657D01*
X87999Y163712D01*
X87952Y163718D01*
X87906Y163729D01*
X87709Y163746D01*
X87513Y163769D01*
X87466Y163767D01*
X87418Y163771D01*
X87221Y163755D01*
X87024Y163746D01*
X86978Y163736D01*
X86930Y163732D01*
X86738Y163685D01*
X86545Y163644D01*
X86501Y163626D01*
X86455Y163615D01*
X86274Y163537D01*
X86090Y163465D01*
X86049Y163441D01*
X86005Y163422D01*
X85839Y163316D01*
X85669Y163215D01*
X85633Y163184D01*
X85593Y163158D01*
X85446Y163026D01*
X85295Y162899D01*
X85264Y162863D01*
X85229Y162831D01*
X85105Y162677D01*
X84977Y162527D01*
X84953Y162486D01*
X84923Y162449D01*
X84864Y162340D01*
X84724Y162108D01*
X84679Y161996D01*
X84638Y161919D01*
X84012Y160408D01*
X80879Y157276D01*
X80785Y157164D01*
X80683Y157059D01*
X80626Y156978D01*
X80563Y156902D01*
X80487Y156777D01*
X80404Y156657D01*
X80362Y156567D01*
X80311Y156483D01*
X80257Y156347D01*
X80194Y156214D01*
X80167Y156119D01*
X80131Y156028D01*
X80100Y155885D01*
X80059Y155744D01*
X80048Y155646D01*
X80027Y155549D01*
X80019Y155403D01*
X80003Y155258D01*
X80007Y155159D01*
X80002Y155061D01*
X80019Y154915D01*
X80026Y154769D01*
X80046Y154672D01*
X80057Y154574D01*
X80097Y154433D01*
X80128Y154290D01*
X80164Y154198D01*
X80191Y154103D01*
X80253Y153971D01*
X80307Y153835D01*
X80358Y153750D01*
X80399Y153661D01*
X80483Y153540D01*
X80557Y153414D01*
X80621Y153339D01*
X80677Y153257D01*
X80779Y153152D01*
X80873Y153040D01*
X80948Y152976D01*
X81017Y152905D01*
X81134Y152817D01*
X81245Y152722D01*
X81330Y152671D01*
X81409Y152612D01*
X81539Y152545D01*
X81664Y152469D01*
X81756Y152433D01*
X81844Y152387D01*
X81983Y152342D01*
X82119Y152288D01*
X82215Y152267D01*
X82309Y152236D01*
X82454Y152214D01*
X82597Y152183D01*
X82695Y152177D01*
X82793Y152163D01*
X82939Y152165D01*
X83086Y152157D01*
X83184Y152168D01*
X83282Y152169D01*
X83426Y152194D01*
X83465Y152199D01*
X87599Y152199D01*
X91201Y150707D01*
X93957Y147951D01*
X95449Y144349D01*
X95449Y140451D01*
X93957Y136849D01*
X91201Y134093D01*
X87599Y132601D01*
X83701Y132601D01*
X80099Y134093D01*
X77343Y136849D01*
X75851Y140451D01*
X75851Y144349D01*
X77343Y147951D01*
X79562Y150169D01*
X79656Y150281D01*
X79758Y150386D01*
X79814Y150467D01*
X79878Y150542D01*
X79954Y150668D01*
X80037Y150788D01*
X80079Y150877D01*
X80130Y150962D01*
X80184Y151098D01*
X80247Y151230D01*
X80274Y151325D01*
X80310Y151417D01*
X80341Y151560D01*
X80382Y151700D01*
X80393Y151799D01*
X80414Y151895D01*
X80421Y152041D01*
X80438Y152186D01*
X80434Y152285D01*
X80439Y152384D01*
X80422Y152529D01*
X80415Y152675D01*
X80395Y152772D01*
X80383Y152871D01*
X80344Y153011D01*
X80313Y153154D01*
X80277Y153246D01*
X80250Y153341D01*
X80188Y153474D01*
X80134Y153610D01*
X80084Y153695D01*
X80041Y153784D01*
X79959Y153905D01*
X79884Y154030D01*
X79820Y154106D01*
X79764Y154187D01*
X79662Y154293D01*
X79568Y154404D01*
X79493Y154468D01*
X79424Y154540D01*
X79307Y154627D01*
X79196Y154722D01*
X79112Y154773D01*
X79032Y154832D01*
X78902Y154900D01*
X78777Y154975D01*
X78685Y155012D01*
X78597Y155057D01*
X78458Y155103D01*
X78323Y155157D01*
X78226Y155178D01*
X78132Y155209D01*
X77987Y155231D01*
X77845Y155262D01*
X77746Y155267D01*
X77648Y155282D01*
X77502Y155280D01*
X77356Y155288D01*
X77258Y155277D01*
X77159Y155276D01*
X77015Y155250D01*
X76870Y155234D01*
X76790Y155210D01*
X76677Y155190D01*
X76410Y155096D01*
X76293Y155061D01*
X75546Y154751D01*
X70354Y154751D01*
X66676Y156275D01*
X66554Y156314D01*
X66437Y156362D01*
X66322Y156389D01*
X66210Y156425D01*
X66084Y156444D01*
X66079Y156445D01*
X66048Y156470D01*
X65963Y156516D01*
X65847Y156594D01*
X65679Y156668D01*
X65569Y156727D01*
X61888Y160408D01*
X59901Y165204D01*
X59901Y185546D01*
X61888Y190342D01*
X82608Y211062D01*
X87404Y213049D01*
X99527Y213049D01*
X99574Y213053D01*
X99621Y213050D01*
X99818Y213073D01*
X100015Y213089D01*
X100061Y213100D01*
X100108Y213105D01*
X100298Y213159D01*
X100490Y213207D01*
X100533Y213226D01*
X100579Y213239D01*
X100758Y213323D01*
X100939Y213402D01*
X100979Y213427D01*
X101021Y213447D01*
X101184Y213560D01*
X101351Y213667D01*
X101386Y213698D01*
X101424Y213725D01*
X101567Y213862D01*
X101714Y213995D01*
X101743Y214032D01*
X101777Y214065D01*
X101895Y214223D01*
X102018Y214378D01*
X102041Y214419D01*
X102070Y214457D01*
X102160Y214632D01*
X102257Y214805D01*
X102273Y214850D01*
X102295Y214892D01*
X102356Y215079D01*
X102423Y215266D01*
X102431Y215312D01*
X102446Y215357D01*
X102475Y215552D01*
X102511Y215747D01*
X102512Y215794D01*
X102519Y215841D01*
X102517Y216039D01*
X102521Y216236D01*
X102514Y216283D01*
X102513Y216330D01*
X102478Y216525D01*
X102450Y216721D01*
X102436Y216766D01*
X102427Y216812D01*
X102362Y216999D01*
X102302Y217187D01*
X102280Y217229D01*
X102265Y217274D01*
X102169Y217447D01*
X102080Y217623D01*
X102051Y217661D01*
X102029Y217703D01*
X101951Y217798D01*
X101789Y218017D01*
X101703Y218102D01*
X101648Y218169D01*
X48643Y271174D01*
X48535Y271265D01*
X48434Y271364D01*
X48349Y271423D01*
X48270Y271490D01*
X48149Y271563D01*
X48033Y271644D01*
X47939Y271689D01*
X47850Y271742D01*
X47719Y271794D01*
X47591Y271855D01*
X47492Y271884D01*
X47395Y271922D01*
X47257Y271952D01*
X47121Y271992D01*
X47044Y271999D01*
X44685Y272977D01*
X42977Y274685D01*
X42052Y276917D01*
X42052Y279333D01*
X42977Y281565D01*
X44685Y283273D01*
X45404Y283571D01*
X45488Y283614D01*
X45575Y283648D01*
X45705Y283725D01*
X45839Y283794D01*
X45915Y283850D01*
X45996Y283899D01*
X46111Y283996D01*
X46232Y284086D01*
X46298Y284153D01*
X46370Y284214D01*
X46468Y284329D01*
X46573Y284437D01*
X46626Y284515D01*
X46688Y284586D01*
X46766Y284716D01*
X46852Y284839D01*
X46892Y284924D01*
X46941Y285005D01*
X46997Y285145D01*
X47061Y285281D01*
X47087Y285372D01*
X47122Y285460D01*
X47155Y285607D01*
X47196Y285752D01*
X47207Y285846D01*
X47228Y285938D01*
X47236Y286088D01*
X47253Y286238D01*
X47249Y286332D01*
X47254Y286427D01*
X47237Y286576D01*
X47230Y286727D01*
X47210Y286819D01*
X47200Y286913D01*
X47167Y287024D01*
X47128Y287206D01*
X47060Y287378D01*
X47027Y287489D01*
X46975Y287614D01*
X46975Y290030D01*
X47900Y292262D01*
X48693Y293055D01*
X48818Y293202D01*
X48948Y293345D01*
X48976Y293389D01*
X49010Y293428D01*
X49109Y293594D01*
X49214Y293756D01*
X49235Y293803D01*
X49262Y293848D01*
X49333Y294028D01*
X49410Y294204D01*
X49423Y294255D01*
X49442Y294303D01*
X49483Y294492D01*
X49530Y294679D01*
X49535Y294730D01*
X49546Y294781D01*
X49555Y294974D01*
X49572Y295167D01*
X49568Y295218D01*
X49570Y295270D01*
X49549Y295462D01*
X49533Y295654D01*
X49521Y295705D01*
X49515Y295756D01*
X49462Y295942D01*
X49416Y296130D01*
X49396Y296177D01*
X49381Y296227D01*
X49299Y296402D01*
X49223Y296579D01*
X49195Y296623D01*
X49173Y296670D01*
X49063Y296829D01*
X48960Y296992D01*
X48925Y297030D01*
X48895Y297073D01*
X48762Y297212D01*
X48632Y297356D01*
X48592Y297388D01*
X48556Y297426D01*
X48402Y297541D01*
X48250Y297662D01*
X48210Y297683D01*
X48164Y297718D01*
X47729Y297943D01*
X47724Y297945D01*
X47720Y297947D01*
X45100Y299032D01*
X30932Y313200D01*
X29501Y316654D01*
X29501Y334146D01*
X30932Y337600D01*
X43300Y349968D01*
X44786Y350583D01*
X45016Y350702D01*
X45219Y350805D01*
X45220Y350806D01*
X45221Y350807D01*
X45416Y350951D01*
X45612Y351096D01*
X45613Y351097D01*
X45614Y351098D01*
X45778Y351267D01*
X45953Y351447D01*
X45954Y351449D01*
X45955Y351450D01*
X46086Y351639D01*
X46232Y351849D01*
X46233Y351851D01*
X46234Y351852D01*
X46328Y352050D01*
X46443Y352291D01*
X46443Y352293D01*
X46444Y352294D01*
X46507Y352516D01*
X46578Y352761D01*
X46578Y352763D01*
X46579Y352765D01*
X46607Y353006D01*
X46635Y353248D01*
X46635Y353249D01*
X46636Y353251D01*
X46623Y353512D01*
X46613Y353736D01*
X46613Y353738D01*
X46612Y353740D01*
X46561Y353979D01*
X46511Y354215D01*
X46511Y354217D01*
X46510Y354218D01*
X46430Y354422D01*
X46333Y354671D01*
X46332Y354672D01*
X46331Y354674D01*
X46211Y354875D01*
X46083Y355092D01*
X46082Y355093D01*
X46081Y355094D01*
X45923Y355281D01*
X45768Y355466D01*
X45767Y355467D01*
X45765Y355468D01*
X45583Y355625D01*
X45396Y355784D01*
X45394Y355785D01*
X45393Y355786D01*
X45194Y355906D01*
X44977Y356038D01*
X44976Y356038D01*
X44974Y356039D01*
X44520Y356221D01*
X44459Y356234D01*
X44414Y356251D01*
X39770Y357496D01*
X33431Y361156D01*
X28256Y366331D01*
X24596Y372670D01*
X22701Y379740D01*
X22701Y387060D01*
X24596Y394130D01*
X28256Y400469D01*
X33431Y405644D01*
X39770Y409304D01*
X46840Y411199D01*
X54160Y411199D01*
X61230Y409304D01*
X67569Y405644D01*
X72744Y400469D01*
X76404Y394130D01*
X78110Y387764D01*
X78159Y387628D01*
X78198Y387489D01*
X78241Y387398D01*
X78275Y387303D01*
X78345Y387177D01*
X78407Y387046D01*
X78464Y386963D01*
X78512Y386875D01*
X78602Y386762D01*
X78684Y386643D01*
X78754Y386571D01*
X78816Y386492D01*
X78923Y386395D01*
X79024Y386291D01*
X79104Y386230D01*
X79179Y386163D01*
X79300Y386084D01*
X79416Y385998D01*
X79505Y385952D01*
X79590Y385897D01*
X79722Y385840D01*
X79851Y385773D01*
X79946Y385742D01*
X80039Y385702D01*
X80179Y385667D01*
X80316Y385622D01*
X80415Y385607D01*
X80513Y385582D01*
X80657Y385570D01*
X80800Y385548D01*
X80901Y385550D01*
X81001Y385541D01*
X81145Y385553D01*
X81289Y385554D01*
X81389Y385572D01*
X81489Y385580D01*
X81629Y385615D01*
X81771Y385640D01*
X81866Y385674D01*
X81964Y385698D01*
X82096Y385755D01*
X82233Y385803D01*
X82321Y385852D01*
X82413Y385891D01*
X82535Y385969D01*
X82662Y386039D01*
X82727Y386092D01*
X82825Y386155D01*
X83033Y386342D01*
X83128Y386420D01*
X84676Y387968D01*
X87335Y389069D01*
X87507Y389157D01*
X87682Y389240D01*
X87724Y389269D01*
X87771Y389293D01*
X87926Y389408D01*
X88085Y389517D01*
X88122Y389553D01*
X88164Y389584D01*
X88298Y389723D01*
X88437Y389857D01*
X88468Y389898D01*
X88504Y389936D01*
X88615Y390095D01*
X88730Y390249D01*
X88754Y390295D01*
X88783Y390338D01*
X88866Y390513D01*
X88955Y390684D01*
X88971Y390733D01*
X88993Y390780D01*
X89046Y390965D01*
X89106Y391149D01*
X89114Y391201D01*
X89128Y391251D01*
X89150Y391442D01*
X89179Y391633D01*
X89179Y391685D01*
X89185Y391737D01*
X89176Y391930D01*
X89173Y392123D01*
X89164Y392174D01*
X89162Y392226D01*
X89121Y392414D01*
X89088Y392604D01*
X89070Y392653D01*
X89060Y392704D01*
X88989Y392884D01*
X88925Y393066D01*
X88900Y393112D01*
X88881Y393160D01*
X88782Y393326D01*
X88689Y393495D01*
X88660Y393530D01*
X88630Y393580D01*
X88315Y393954D01*
X88311Y393958D01*
X88308Y393961D01*
X8931Y473338D01*
X8895Y473369D01*
X8863Y473404D01*
X8708Y473527D01*
X8558Y473655D01*
X8517Y473679D01*
X8480Y473709D01*
X8307Y473805D01*
X8138Y473907D01*
X8094Y473924D01*
X8053Y473947D01*
X7867Y474014D01*
X7683Y474087D01*
X7637Y474097D01*
X7592Y474113D01*
X7398Y474149D01*
X7205Y474191D01*
X7157Y474193D01*
X7111Y474202D01*
X6913Y474205D01*
X6716Y474215D01*
X6669Y474210D01*
X6622Y474211D01*
X6426Y474183D01*
X6229Y474160D01*
X6184Y474147D01*
X6137Y474140D01*
X5949Y474081D01*
X5759Y474027D01*
X5716Y474006D01*
X5671Y473992D01*
X5494Y473902D01*
X5316Y473818D01*
X5277Y473791D01*
X5235Y473770D01*
X5075Y473652D01*
X4913Y473541D01*
X4879Y473508D01*
X4841Y473480D01*
X4702Y473338D01*
X4560Y473201D01*
X4532Y473163D01*
X4499Y473129D01*
X4385Y472967D01*
X4268Y472809D01*
X4246Y472767D01*
X4219Y472728D01*
X4133Y472549D01*
X4043Y472374D01*
X4028Y472329D01*
X4008Y472286D01*
X3952Y472096D01*
X3891Y471909D01*
X3884Y471862D01*
X3871Y471816D01*
X3859Y471694D01*
X3818Y471425D01*
X3819Y471304D01*
X3811Y471218D01*
X3811Y6810D01*
X3818Y6716D01*
X3817Y6622D01*
X3838Y6472D01*
X3851Y6322D01*
X3874Y6231D01*
X3887Y6137D01*
X3933Y5994D01*
X3969Y5847D01*
X4007Y5761D01*
X4035Y5671D01*
X4104Y5536D01*
X4164Y5398D01*
X4215Y5319D01*
X4258Y5235D01*
X4347Y5113D01*
X4429Y4987D01*
X4492Y4917D01*
X4548Y4841D01*
X4656Y4735D01*
X4757Y4624D01*
X4831Y4565D01*
X4898Y4499D01*
X5022Y4413D01*
X5140Y4319D01*
X5222Y4273D01*
X5300Y4219D01*
X5436Y4154D01*
X5567Y4080D01*
X5656Y4048D01*
X5741Y4008D01*
X5886Y3966D01*
X6028Y3915D01*
X6121Y3897D01*
X6211Y3871D01*
X6326Y3860D01*
X6509Y3826D01*
X6695Y3822D01*
X6810Y3811D01*
X643190Y3811D01*
X643284Y3818D01*
G37*
G36*
X362015Y219560D02*
X362015Y219560D01*
X362156Y219562D01*
X362258Y219580D01*
X362361Y219589D01*
X362499Y219623D01*
X362638Y219648D01*
X362735Y219682D01*
X362836Y219707D01*
X362966Y219764D01*
X363099Y219811D01*
X363190Y219861D01*
X363285Y219902D01*
X363404Y219978D01*
X363528Y220046D01*
X363595Y220101D01*
X363697Y220167D01*
X363899Y220349D01*
X363994Y220427D01*
X364573Y221006D01*
X364664Y221113D01*
X364763Y221215D01*
X364822Y221300D01*
X364890Y221379D01*
X364962Y221500D01*
X365043Y221616D01*
X365088Y221710D01*
X365141Y221799D01*
X365193Y221930D01*
X365254Y222058D01*
X365283Y222157D01*
X365321Y222254D01*
X365351Y222392D01*
X365391Y222528D01*
X365400Y222614D01*
X365425Y222732D01*
X365439Y223004D01*
X365451Y223126D01*
X365451Y236005D01*
X366144Y237677D01*
X370773Y242306D01*
X370864Y242413D01*
X370963Y242515D01*
X371023Y242600D01*
X371089Y242679D01*
X371162Y242800D01*
X371243Y242916D01*
X371288Y243010D01*
X371341Y243099D01*
X371393Y243230D01*
X371454Y243358D01*
X371483Y243457D01*
X371521Y243554D01*
X371551Y243692D01*
X371591Y243828D01*
X371600Y243914D01*
X371625Y244032D01*
X371639Y244304D01*
X371651Y244426D01*
X371651Y258913D01*
X373437Y260699D01*
X400363Y260699D01*
X402243Y258818D01*
X402271Y258732D01*
X402307Y258585D01*
X402345Y258499D01*
X402373Y258409D01*
X402442Y258274D01*
X402502Y258136D01*
X402553Y258057D01*
X402596Y257973D01*
X402685Y257851D01*
X402767Y257725D01*
X402830Y257655D01*
X402886Y257579D01*
X402994Y257473D01*
X403095Y257362D01*
X403169Y257303D01*
X403236Y257237D01*
X403360Y257151D01*
X403478Y257057D01*
X403560Y257011D01*
X403638Y256957D01*
X403774Y256892D01*
X403905Y256818D01*
X403994Y256786D01*
X404079Y256746D01*
X404224Y256704D01*
X404366Y256653D01*
X404459Y256635D01*
X404549Y256609D01*
X404664Y256598D01*
X404847Y256564D01*
X405033Y256560D01*
X405148Y256549D01*
X428874Y256549D01*
X429014Y256560D01*
X429156Y256562D01*
X429258Y256580D01*
X429361Y256589D01*
X429498Y256623D01*
X429638Y256648D01*
X429735Y256682D01*
X429836Y256707D01*
X429966Y256764D01*
X430099Y256811D01*
X430190Y256861D01*
X430285Y256902D01*
X430404Y256978D01*
X430528Y257046D01*
X430595Y257101D01*
X430697Y257167D01*
X430898Y257349D01*
X430994Y257427D01*
X452436Y278869D01*
X452467Y278905D01*
X452502Y278937D01*
X452625Y279092D01*
X452753Y279242D01*
X452777Y279283D01*
X452807Y279320D01*
X452903Y279493D01*
X453005Y279662D01*
X453022Y279706D01*
X453045Y279747D01*
X453112Y279933D01*
X453185Y280117D01*
X453195Y280163D01*
X453211Y280208D01*
X453247Y280402D01*
X453289Y280595D01*
X453291Y280643D01*
X453300Y280689D01*
X453303Y280887D01*
X453313Y281084D01*
X453308Y281131D01*
X453309Y281178D01*
X453280Y281374D01*
X453258Y281571D01*
X453245Y281616D01*
X453238Y281663D01*
X453178Y281851D01*
X453176Y281861D01*
X453267Y281828D01*
X453313Y281819D01*
X453358Y281805D01*
X453553Y281775D01*
X453748Y281739D01*
X453795Y281738D01*
X453842Y281731D01*
X454040Y281734D01*
X454237Y281730D01*
X454284Y281737D01*
X454331Y281737D01*
X454526Y281772D01*
X454722Y281801D01*
X454767Y281815D01*
X454813Y281823D01*
X455000Y281889D01*
X455188Y281949D01*
X455230Y281970D01*
X455275Y281986D01*
X455448Y282081D01*
X455624Y282171D01*
X455662Y282199D01*
X455704Y282222D01*
X455799Y282300D01*
X456018Y282461D01*
X456103Y282548D01*
X456170Y282603D01*
X474573Y301006D01*
X474664Y301113D01*
X474763Y301215D01*
X474823Y301300D01*
X474889Y301379D01*
X474962Y301500D01*
X475043Y301616D01*
X475088Y301710D01*
X475141Y301799D01*
X475193Y301930D01*
X475254Y302058D01*
X475283Y302157D01*
X475321Y302254D01*
X475351Y302392D01*
X475391Y302528D01*
X475400Y302614D01*
X475425Y302732D01*
X475439Y303004D01*
X475451Y303126D01*
X475451Y364718D01*
X475440Y364859D01*
X475438Y365001D01*
X475420Y365103D01*
X475411Y365206D01*
X475377Y365343D01*
X475352Y365482D01*
X475318Y365580D01*
X475293Y365681D01*
X475236Y365811D01*
X475189Y365944D01*
X475139Y366035D01*
X475098Y366130D01*
X475022Y366249D01*
X474954Y366373D01*
X474904Y366433D01*
X473927Y368792D01*
X473927Y371452D01*
X473920Y371546D01*
X473921Y371640D01*
X473900Y371790D01*
X473887Y371940D01*
X473864Y372031D01*
X473851Y372125D01*
X473805Y372268D01*
X473769Y372415D01*
X473731Y372501D01*
X473703Y372591D01*
X473634Y372726D01*
X473574Y372864D01*
X473523Y372943D01*
X473480Y373027D01*
X473391Y373149D01*
X473309Y373275D01*
X473246Y373345D01*
X473190Y373421D01*
X473082Y373527D01*
X472981Y373638D01*
X472907Y373697D01*
X472840Y373763D01*
X472716Y373849D01*
X472598Y373943D01*
X472516Y373989D01*
X472438Y374043D01*
X472302Y374108D01*
X472171Y374182D01*
X472082Y374214D01*
X471997Y374254D01*
X471852Y374296D01*
X471710Y374347D01*
X471617Y374365D01*
X471527Y374391D01*
X471412Y374402D01*
X471229Y374436D01*
X471043Y374440D01*
X470928Y374451D01*
X405148Y374451D01*
X405054Y374444D01*
X404960Y374445D01*
X404810Y374424D01*
X404660Y374411D01*
X404569Y374388D01*
X404475Y374375D01*
X404332Y374329D01*
X404185Y374293D01*
X404099Y374255D01*
X404009Y374227D01*
X403874Y374158D01*
X403736Y374098D01*
X403657Y374047D01*
X403573Y374004D01*
X403451Y373915D01*
X403325Y373833D01*
X403255Y373770D01*
X403179Y373714D01*
X403073Y373606D01*
X402962Y373505D01*
X402903Y373431D01*
X402837Y373364D01*
X402751Y373240D01*
X402657Y373122D01*
X402611Y373040D01*
X402557Y372962D01*
X402492Y372826D01*
X402418Y372695D01*
X402386Y372606D01*
X402346Y372521D01*
X402304Y372376D01*
X402253Y372234D01*
X402243Y372181D01*
X400363Y370301D01*
X394448Y370301D01*
X394354Y370294D01*
X394260Y370295D01*
X394110Y370274D01*
X393960Y370261D01*
X393869Y370238D01*
X393775Y370225D01*
X393632Y370179D01*
X393485Y370143D01*
X393399Y370105D01*
X393309Y370077D01*
X393174Y370008D01*
X393036Y369948D01*
X392957Y369897D01*
X392873Y369854D01*
X392751Y369765D01*
X392625Y369683D01*
X392555Y369620D01*
X392479Y369564D01*
X392373Y369456D01*
X392262Y369355D01*
X392203Y369281D01*
X392137Y369214D01*
X392051Y369090D01*
X391957Y368972D01*
X391911Y368890D01*
X391857Y368812D01*
X391792Y368676D01*
X391718Y368545D01*
X391686Y368456D01*
X391646Y368371D01*
X391604Y368226D01*
X391553Y368084D01*
X391535Y367991D01*
X391509Y367901D01*
X391498Y367786D01*
X391464Y367603D01*
X391460Y367417D01*
X391449Y367302D01*
X391449Y365298D01*
X391456Y365204D01*
X391455Y365110D01*
X391476Y364960D01*
X391489Y364810D01*
X391512Y364719D01*
X391525Y364625D01*
X391571Y364482D01*
X391607Y364335D01*
X391645Y364249D01*
X391673Y364159D01*
X391742Y364024D01*
X391802Y363886D01*
X391853Y363807D01*
X391896Y363723D01*
X391985Y363601D01*
X392067Y363475D01*
X392130Y363405D01*
X392186Y363329D01*
X392294Y363223D01*
X392395Y363112D01*
X392469Y363053D01*
X392536Y362987D01*
X392660Y362901D01*
X392778Y362807D01*
X392860Y362761D01*
X392938Y362707D01*
X393074Y362642D01*
X393205Y362568D01*
X393294Y362536D01*
X393379Y362496D01*
X393524Y362454D01*
X393666Y362403D01*
X393759Y362385D01*
X393849Y362359D01*
X393964Y362348D01*
X394147Y362314D01*
X394333Y362310D01*
X394448Y362299D01*
X400363Y362299D01*
X402149Y360513D01*
X402149Y346687D01*
X400363Y344901D01*
X394448Y344901D01*
X394354Y344894D01*
X394260Y344895D01*
X394110Y344874D01*
X393960Y344861D01*
X393869Y344838D01*
X393775Y344825D01*
X393632Y344779D01*
X393485Y344743D01*
X393399Y344705D01*
X393309Y344677D01*
X393174Y344608D01*
X393036Y344548D01*
X392957Y344497D01*
X392873Y344454D01*
X392751Y344365D01*
X392625Y344283D01*
X392555Y344220D01*
X392479Y344164D01*
X392373Y344056D01*
X392262Y343955D01*
X392203Y343881D01*
X392137Y343814D01*
X392051Y343690D01*
X391957Y343572D01*
X391911Y343490D01*
X391857Y343412D01*
X391792Y343276D01*
X391718Y343145D01*
X391686Y343056D01*
X391646Y342971D01*
X391604Y342826D01*
X391553Y342684D01*
X391535Y342591D01*
X391509Y342501D01*
X391498Y342386D01*
X391464Y342203D01*
X391460Y342017D01*
X391449Y341902D01*
X391449Y339898D01*
X391456Y339804D01*
X391455Y339710D01*
X391476Y339560D01*
X391489Y339410D01*
X391512Y339319D01*
X391525Y339225D01*
X391571Y339082D01*
X391607Y338935D01*
X391645Y338849D01*
X391673Y338759D01*
X391742Y338624D01*
X391802Y338486D01*
X391853Y338407D01*
X391896Y338323D01*
X391985Y338201D01*
X392067Y338075D01*
X392130Y338005D01*
X392186Y337929D01*
X392294Y337823D01*
X392395Y337712D01*
X392469Y337653D01*
X392536Y337587D01*
X392660Y337501D01*
X392778Y337407D01*
X392860Y337361D01*
X392938Y337307D01*
X393074Y337242D01*
X393205Y337168D01*
X393294Y337136D01*
X393379Y337096D01*
X393524Y337054D01*
X393666Y337003D01*
X393759Y336985D01*
X393849Y336959D01*
X393964Y336948D01*
X394147Y336914D01*
X394333Y336910D01*
X394448Y336899D01*
X400363Y336899D01*
X402149Y335113D01*
X402149Y321422D01*
X402153Y321375D01*
X402150Y321328D01*
X402173Y321131D01*
X402189Y320935D01*
X402200Y320889D01*
X402205Y320842D01*
X402259Y320651D01*
X402307Y320460D01*
X402326Y320417D01*
X402339Y320371D01*
X402423Y320192D01*
X402502Y320011D01*
X402527Y319971D01*
X402547Y319928D01*
X402660Y319765D01*
X402767Y319599D01*
X402798Y319564D01*
X402825Y319525D01*
X402962Y319383D01*
X403095Y319236D01*
X403132Y319207D01*
X403165Y319173D01*
X403323Y319055D01*
X403478Y318931D01*
X403519Y318908D01*
X403557Y318880D01*
X403732Y318789D01*
X403905Y318693D01*
X403950Y318677D01*
X403992Y318655D01*
X404180Y318594D01*
X404366Y318527D01*
X404412Y318518D01*
X404457Y318504D01*
X404652Y318474D01*
X404847Y318438D01*
X404894Y318437D01*
X404941Y318430D01*
X405139Y318433D01*
X405336Y318429D01*
X405383Y318436D01*
X405430Y318436D01*
X405625Y318471D01*
X405821Y318500D01*
X405866Y318514D01*
X405912Y318522D01*
X406099Y318588D01*
X406287Y318648D01*
X406329Y318669D01*
X406374Y318685D01*
X406547Y318780D01*
X406723Y318870D01*
X406761Y318898D01*
X406803Y318921D01*
X406898Y318999D01*
X407117Y319160D01*
X407202Y319247D01*
X407269Y319302D01*
X414273Y326306D01*
X414364Y326413D01*
X414463Y326515D01*
X414523Y326600D01*
X414589Y326679D01*
X414662Y326800D01*
X414743Y326916D01*
X414788Y327010D01*
X414841Y327099D01*
X414893Y327230D01*
X414954Y327358D01*
X414983Y327457D01*
X415021Y327554D01*
X415051Y327692D01*
X415091Y327828D01*
X415100Y327914D01*
X415125Y328032D01*
X415139Y328304D01*
X415151Y328426D01*
X415151Y335563D01*
X416937Y337349D01*
X429463Y337349D01*
X429579Y337232D01*
X429651Y337171D01*
X429717Y337103D01*
X429838Y337013D01*
X429952Y336916D01*
X430033Y336867D01*
X430109Y336811D01*
X430243Y336741D01*
X430372Y336664D01*
X430460Y336629D01*
X430544Y336586D01*
X430687Y336539D01*
X430827Y336484D01*
X430919Y336464D01*
X431009Y336435D01*
X431158Y336412D01*
X431305Y336380D01*
X431400Y336375D01*
X431493Y336361D01*
X431644Y336363D01*
X431794Y336355D01*
X431888Y336366D01*
X431982Y336367D01*
X432131Y336394D01*
X432281Y336411D01*
X432371Y336436D01*
X432464Y336453D01*
X432606Y336503D01*
X432751Y336544D01*
X432837Y336584D01*
X432926Y336616D01*
X433058Y336688D01*
X433194Y336753D01*
X433272Y336806D01*
X433355Y336852D01*
X433444Y336925D01*
X433597Y337030D01*
X433731Y337159D01*
X433821Y337232D01*
X433937Y337349D01*
X446463Y337349D01*
X448249Y335563D01*
X448249Y322028D01*
X448154Y321909D01*
X448026Y321758D01*
X448001Y321717D01*
X447972Y321680D01*
X447875Y321507D01*
X447774Y321338D01*
X447757Y321294D01*
X447733Y321253D01*
X447666Y321066D01*
X447594Y320883D01*
X447584Y320837D01*
X447568Y320792D01*
X447532Y320598D01*
X447490Y320405D01*
X447488Y320357D01*
X447479Y320311D01*
X447475Y320114D01*
X447465Y319916D01*
X447471Y319869D01*
X447470Y319822D01*
X447498Y319626D01*
X447521Y319429D01*
X447533Y319384D01*
X447540Y319337D01*
X447600Y319148D01*
X447654Y318959D01*
X447674Y318916D01*
X447689Y318871D01*
X447778Y318695D01*
X447863Y318516D01*
X447889Y318477D01*
X447911Y318435D01*
X448028Y318276D01*
X448140Y318113D01*
X448173Y318079D01*
X448201Y318041D01*
X448342Y317903D01*
X448480Y317760D01*
X448518Y317732D01*
X448551Y317699D01*
X448632Y317643D01*
X451050Y315225D01*
X451050Y284723D01*
X451054Y284676D01*
X451051Y284629D01*
X451074Y284432D01*
X451090Y284236D01*
X451101Y284190D01*
X451106Y284143D01*
X451160Y283953D01*
X451186Y283850D01*
X451006Y283909D01*
X450960Y283916D01*
X450914Y283929D01*
X450792Y283941D01*
X450523Y283982D01*
X450402Y283981D01*
X450316Y283989D01*
X438784Y283989D01*
X438644Y283978D01*
X438502Y283976D01*
X438400Y283958D01*
X438297Y283949D01*
X438160Y283915D01*
X438020Y283890D01*
X437922Y283856D01*
X437822Y283831D01*
X437692Y283774D01*
X437559Y283727D01*
X437468Y283677D01*
X437373Y283636D01*
X437254Y283560D01*
X437130Y283492D01*
X437063Y283437D01*
X436961Y283371D01*
X436760Y283189D01*
X436664Y283111D01*
X428798Y275245D01*
X427097Y273544D01*
X425425Y272851D01*
X409282Y272851D01*
X409141Y272840D01*
X408999Y272838D01*
X408897Y272820D01*
X408794Y272811D01*
X408656Y272777D01*
X408517Y272752D01*
X408420Y272718D01*
X408319Y272693D01*
X408189Y272636D01*
X408056Y272589D01*
X407965Y272539D01*
X407870Y272498D01*
X407751Y272422D01*
X407627Y272353D01*
X407567Y272304D01*
X405208Y271327D01*
X404231Y271327D01*
X404090Y271316D01*
X403949Y271314D01*
X403847Y271296D01*
X403743Y271287D01*
X403606Y271253D01*
X403467Y271228D01*
X403369Y271194D01*
X403269Y271169D01*
X403139Y271112D01*
X403005Y271065D01*
X402914Y271015D01*
X402819Y270974D01*
X402701Y270898D01*
X402576Y270830D01*
X402509Y270775D01*
X402408Y270709D01*
X402207Y270527D01*
X402110Y270449D01*
X400363Y268701D01*
X373437Y268701D01*
X371557Y270582D01*
X371529Y270668D01*
X371493Y270815D01*
X371455Y270901D01*
X371427Y270991D01*
X371358Y271126D01*
X371298Y271264D01*
X371247Y271343D01*
X371204Y271427D01*
X371115Y271549D01*
X371033Y271675D01*
X370970Y271745D01*
X370914Y271821D01*
X370806Y271927D01*
X370705Y272038D01*
X370631Y272097D01*
X370564Y272163D01*
X370440Y272249D01*
X370322Y272343D01*
X370240Y272389D01*
X370162Y272443D01*
X370026Y272508D01*
X369895Y272582D01*
X369806Y272614D01*
X369721Y272654D01*
X369576Y272696D01*
X369434Y272747D01*
X369341Y272765D01*
X369251Y272791D01*
X369136Y272802D01*
X368953Y272836D01*
X368767Y272840D01*
X368652Y272851D01*
X367050Y272851D01*
X366910Y272840D01*
X366768Y272838D01*
X366666Y272820D01*
X366563Y272811D01*
X366426Y272777D01*
X366286Y272752D01*
X366189Y272718D01*
X366088Y272693D01*
X365958Y272636D01*
X365825Y272589D01*
X365734Y272539D01*
X365639Y272498D01*
X365520Y272422D01*
X365396Y272354D01*
X365329Y272299D01*
X365227Y272233D01*
X365026Y272051D01*
X364930Y271973D01*
X363475Y270518D01*
X363384Y270411D01*
X363285Y270309D01*
X363225Y270224D01*
X363159Y270145D01*
X363086Y270024D01*
X363005Y269908D01*
X362960Y269814D01*
X362907Y269725D01*
X362855Y269594D01*
X362794Y269466D01*
X362765Y269367D01*
X362727Y269270D01*
X362697Y269132D01*
X362657Y268996D01*
X362649Y268919D01*
X361672Y266560D01*
X359964Y264852D01*
X357732Y263927D01*
X355316Y263927D01*
X353084Y264852D01*
X351376Y266560D01*
X350451Y268792D01*
X350451Y271236D01*
X350432Y271473D01*
X350413Y271715D01*
X350412Y271719D01*
X350411Y271724D01*
X350353Y271957D01*
X350296Y272190D01*
X350294Y272194D01*
X350293Y272199D01*
X350199Y272414D01*
X350103Y272640D01*
X350100Y272644D01*
X350098Y272648D01*
X349969Y272848D01*
X349839Y273052D01*
X349836Y273055D01*
X349833Y273059D01*
X349674Y273236D01*
X349512Y273416D01*
X349508Y273419D01*
X349505Y273422D01*
X349319Y273571D01*
X349130Y273722D01*
X349126Y273724D01*
X349122Y273727D01*
X348695Y273966D01*
X348640Y273986D01*
X348600Y274007D01*
X346560Y274852D01*
X344852Y276560D01*
X343927Y278792D01*
X343927Y281208D01*
X344852Y283440D01*
X346560Y285148D01*
X348893Y286115D01*
X349022Y286147D01*
X349162Y286172D01*
X349259Y286206D01*
X349360Y286231D01*
X349490Y286288D01*
X349623Y286335D01*
X349714Y286385D01*
X349809Y286426D01*
X349928Y286502D01*
X350052Y286570D01*
X350119Y286625D01*
X350221Y286691D01*
X350422Y286873D01*
X350518Y286951D01*
X370375Y306808D01*
X370425Y306845D01*
X370621Y306990D01*
X370625Y306993D01*
X370628Y306995D01*
X370794Y307166D01*
X370963Y307340D01*
X370966Y307344D01*
X370969Y307347D01*
X371102Y307540D01*
X371243Y307741D01*
X371245Y307746D01*
X371248Y307749D01*
X371347Y307957D01*
X371454Y308183D01*
X371456Y308187D01*
X371458Y308191D01*
X371524Y308422D01*
X371591Y308653D01*
X371591Y308657D01*
X371593Y308662D01*
X371649Y309148D01*
X371647Y309206D01*
X371651Y309252D01*
X371651Y309713D01*
X373437Y311499D01*
X398224Y311499D01*
X398364Y311510D01*
X398506Y311512D01*
X398608Y311530D01*
X398711Y311539D01*
X398848Y311573D01*
X398988Y311598D01*
X399085Y311632D01*
X399186Y311657D01*
X399316Y311714D01*
X399449Y311761D01*
X399540Y311811D01*
X399635Y311852D01*
X399754Y311928D01*
X399878Y311996D01*
X399945Y312051D01*
X400047Y312117D01*
X400248Y312299D01*
X400344Y312377D01*
X402348Y314381D01*
X402379Y314417D01*
X402414Y314449D01*
X402537Y314603D01*
X402665Y314754D01*
X402689Y314795D01*
X402719Y314832D01*
X402815Y315005D01*
X402917Y315174D01*
X402934Y315218D01*
X402957Y315259D01*
X403024Y315446D01*
X403097Y315629D01*
X403107Y315675D01*
X403123Y315720D01*
X403159Y315914D01*
X403201Y316107D01*
X403203Y316155D01*
X403212Y316201D01*
X403215Y316398D01*
X403225Y316596D01*
X403220Y316643D01*
X403221Y316690D01*
X403192Y316886D01*
X403170Y317083D01*
X403157Y317128D01*
X403150Y317175D01*
X403090Y317363D01*
X403037Y317553D01*
X403016Y317596D01*
X403002Y317641D01*
X402912Y317818D01*
X402828Y317996D01*
X402801Y318035D01*
X402780Y318077D01*
X402662Y318237D01*
X402550Y318399D01*
X402518Y318433D01*
X402490Y318471D01*
X402348Y318609D01*
X402211Y318752D01*
X402173Y318780D01*
X402139Y318813D01*
X401977Y318926D01*
X401819Y319044D01*
X401777Y319066D01*
X401738Y319093D01*
X401559Y319179D01*
X401384Y319269D01*
X401339Y319284D01*
X401296Y319304D01*
X401107Y319359D01*
X400919Y319421D01*
X400872Y319428D01*
X400826Y319441D01*
X400704Y319453D01*
X400435Y319494D01*
X400314Y319493D01*
X400228Y319501D01*
X373437Y319501D01*
X371651Y321287D01*
X371651Y322428D01*
X371644Y322522D01*
X371645Y322616D01*
X371624Y322766D01*
X371611Y322916D01*
X371588Y323007D01*
X371575Y323101D01*
X371529Y323244D01*
X371493Y323391D01*
X371455Y323477D01*
X371427Y323567D01*
X371358Y323702D01*
X371298Y323840D01*
X371247Y323919D01*
X371204Y324003D01*
X371115Y324125D01*
X371033Y324251D01*
X370970Y324321D01*
X370914Y324397D01*
X370806Y324503D01*
X370705Y324614D01*
X370631Y324673D01*
X370564Y324739D01*
X370440Y324825D01*
X370322Y324919D01*
X370240Y324965D01*
X370162Y325019D01*
X370026Y325084D01*
X369895Y325158D01*
X369806Y325190D01*
X369721Y325230D01*
X369576Y325272D01*
X369434Y325323D01*
X369341Y325341D01*
X369251Y325367D01*
X369136Y325378D01*
X368953Y325412D01*
X368767Y325416D01*
X368652Y325427D01*
X347258Y325427D01*
X347117Y325416D01*
X346975Y325414D01*
X346873Y325396D01*
X346770Y325387D01*
X346633Y325353D01*
X346494Y325328D01*
X346396Y325294D01*
X346295Y325269D01*
X346165Y325212D01*
X346032Y325165D01*
X345941Y325115D01*
X345846Y325074D01*
X345727Y324998D01*
X345603Y324930D01*
X345578Y324909D01*
X343208Y323927D01*
X340792Y323927D01*
X338560Y324852D01*
X336852Y326560D01*
X335927Y328792D01*
X335927Y331208D01*
X336852Y333440D01*
X338560Y335148D01*
X340792Y336073D01*
X343208Y336073D01*
X345593Y335085D01*
X345631Y335062D01*
X345747Y334981D01*
X345841Y334936D01*
X345930Y334883D01*
X346061Y334831D01*
X346189Y334770D01*
X346288Y334741D01*
X346385Y334703D01*
X346523Y334673D01*
X346659Y334633D01*
X346745Y334624D01*
X346863Y334599D01*
X347135Y334585D01*
X347258Y334573D01*
X369869Y334573D01*
X370010Y334584D01*
X370151Y334586D01*
X370253Y334604D01*
X370357Y334613D01*
X370494Y334647D01*
X370633Y334672D01*
X370731Y334706D01*
X370831Y334731D01*
X370961Y334788D01*
X371095Y334835D01*
X371186Y334885D01*
X371281Y334926D01*
X371399Y335002D01*
X371523Y335070D01*
X371590Y335125D01*
X371692Y335191D01*
X371894Y335373D01*
X371990Y335451D01*
X373437Y336899D01*
X379352Y336899D01*
X379446Y336906D01*
X379540Y336905D01*
X379690Y336926D01*
X379840Y336939D01*
X379931Y336962D01*
X380025Y336975D01*
X380168Y337021D01*
X380315Y337057D01*
X380401Y337095D01*
X380491Y337123D01*
X380626Y337192D01*
X380764Y337252D01*
X380843Y337303D01*
X380927Y337346D01*
X381049Y337435D01*
X381175Y337517D01*
X381245Y337580D01*
X381321Y337636D01*
X381427Y337744D01*
X381538Y337845D01*
X381597Y337919D01*
X381663Y337986D01*
X381749Y338110D01*
X381843Y338228D01*
X381889Y338310D01*
X381943Y338388D01*
X382008Y338524D01*
X382082Y338655D01*
X382114Y338744D01*
X382154Y338829D01*
X382196Y338974D01*
X382247Y339116D01*
X382265Y339209D01*
X382291Y339299D01*
X382302Y339414D01*
X382336Y339597D01*
X382340Y339783D01*
X382351Y339898D01*
X382351Y341902D01*
X382344Y341996D01*
X382345Y342090D01*
X382324Y342240D01*
X382311Y342390D01*
X382288Y342481D01*
X382275Y342575D01*
X382229Y342718D01*
X382193Y342865D01*
X382155Y342951D01*
X382127Y343041D01*
X382058Y343176D01*
X381998Y343314D01*
X381947Y343393D01*
X381904Y343477D01*
X381815Y343599D01*
X381733Y343725D01*
X381670Y343795D01*
X381614Y343871D01*
X381506Y343977D01*
X381405Y344088D01*
X381331Y344147D01*
X381264Y344213D01*
X381140Y344299D01*
X381022Y344393D01*
X380940Y344439D01*
X380862Y344493D01*
X380726Y344558D01*
X380595Y344632D01*
X380506Y344664D01*
X380421Y344704D01*
X380276Y344746D01*
X380134Y344797D01*
X380041Y344815D01*
X379951Y344841D01*
X379836Y344852D01*
X379653Y344886D01*
X379467Y344890D01*
X379352Y344901D01*
X373437Y344901D01*
X371651Y346687D01*
X371651Y351957D01*
X371647Y352004D01*
X371650Y352051D01*
X371627Y352248D01*
X371611Y352445D01*
X371600Y352490D01*
X371595Y352537D01*
X371541Y352727D01*
X371493Y352919D01*
X371474Y352963D01*
X371461Y353008D01*
X371377Y353187D01*
X371298Y353369D01*
X371273Y353408D01*
X371253Y353451D01*
X371140Y353614D01*
X371033Y353780D01*
X371002Y353815D01*
X370975Y353854D01*
X370837Y353997D01*
X370705Y354143D01*
X370668Y354172D01*
X370635Y354207D01*
X370477Y354325D01*
X370322Y354448D01*
X370281Y354471D01*
X370243Y354499D01*
X370068Y354590D01*
X369895Y354686D01*
X369850Y354702D01*
X369808Y354724D01*
X369620Y354785D01*
X369434Y354852D01*
X369388Y354861D01*
X369343Y354875D01*
X369148Y354905D01*
X368953Y354941D01*
X368906Y354942D01*
X368859Y354949D01*
X368661Y354946D01*
X368464Y354950D01*
X368417Y354943D01*
X368370Y354943D01*
X368175Y354908D01*
X367979Y354880D01*
X367934Y354865D01*
X367888Y354857D01*
X367701Y354791D01*
X367513Y354731D01*
X367471Y354710D01*
X367426Y354694D01*
X367253Y354599D01*
X367077Y354509D01*
X367039Y354481D01*
X366997Y354458D01*
X366902Y354380D01*
X366683Y354219D01*
X366598Y354132D01*
X366531Y354078D01*
X365391Y352938D01*
X360596Y350951D01*
X355404Y350951D01*
X350608Y352938D01*
X346938Y356608D01*
X344884Y361566D01*
X344796Y361737D01*
X344714Y361912D01*
X344685Y361955D01*
X344661Y362001D01*
X344546Y362157D01*
X344436Y362315D01*
X344400Y362353D01*
X344369Y362395D01*
X344230Y362529D01*
X344097Y362668D01*
X344055Y362699D01*
X344018Y362735D01*
X343859Y362846D01*
X343705Y362961D01*
X343659Y362984D01*
X343616Y363014D01*
X343441Y363097D01*
X343270Y363186D01*
X343220Y363202D01*
X343174Y363224D01*
X342988Y363277D01*
X342804Y363337D01*
X342753Y363345D01*
X342703Y363359D01*
X342511Y363381D01*
X342320Y363410D01*
X342269Y363410D01*
X342217Y363416D01*
X342024Y363407D01*
X341831Y363404D01*
X341780Y363395D01*
X341728Y363393D01*
X341539Y363352D01*
X341349Y363318D01*
X341300Y363301D01*
X341250Y363290D01*
X341070Y363220D01*
X340888Y363156D01*
X340842Y363130D01*
X340794Y363112D01*
X340628Y363013D01*
X340459Y362920D01*
X340424Y362891D01*
X340373Y362861D01*
X339999Y362546D01*
X339996Y362542D01*
X339993Y362539D01*
X319992Y342538D01*
X316171Y340955D01*
X316000Y340867D01*
X315825Y340785D01*
X315782Y340755D01*
X315736Y340732D01*
X315580Y340617D01*
X315421Y340507D01*
X315384Y340471D01*
X315342Y340440D01*
X315208Y340301D01*
X315069Y340168D01*
X315038Y340126D01*
X315002Y340089D01*
X314891Y339930D01*
X314776Y339775D01*
X314753Y339730D01*
X314723Y339687D01*
X314640Y339512D01*
X314551Y339341D01*
X314535Y339292D01*
X314513Y339245D01*
X314460Y339059D01*
X314400Y338875D01*
X314392Y338824D01*
X314378Y338774D01*
X314356Y338583D01*
X314327Y338391D01*
X314327Y338340D01*
X314321Y338288D01*
X314330Y338095D01*
X314333Y337902D01*
X314342Y337851D01*
X314344Y337799D01*
X314385Y337610D01*
X314419Y337420D01*
X314436Y337371D01*
X314447Y337320D01*
X314517Y337141D01*
X314581Y336959D01*
X314606Y336913D01*
X314625Y336865D01*
X314724Y336699D01*
X314817Y336530D01*
X314846Y336495D01*
X314876Y336444D01*
X315191Y336070D01*
X315195Y336067D01*
X315198Y336064D01*
X316149Y335113D01*
X316149Y321287D01*
X314363Y319501D01*
X311897Y319501D01*
X311756Y319490D01*
X311615Y319488D01*
X311513Y319470D01*
X311409Y319461D01*
X311272Y319427D01*
X311133Y319402D01*
X311035Y319368D01*
X310935Y319343D01*
X310805Y319286D01*
X310671Y319239D01*
X310580Y319189D01*
X310485Y319148D01*
X310367Y319072D01*
X310243Y319004D01*
X310175Y318949D01*
X310074Y318883D01*
X309873Y318701D01*
X309776Y318623D01*
X308227Y317073D01*
X308173Y317045D01*
X308055Y316958D01*
X307932Y316879D01*
X307859Y316813D01*
X307780Y316754D01*
X307678Y316649D01*
X307569Y316551D01*
X307508Y316474D01*
X307439Y316403D01*
X307356Y316282D01*
X307265Y316168D01*
X307216Y316082D01*
X307160Y316001D01*
X307097Y315868D01*
X307026Y315741D01*
X306993Y315648D01*
X306950Y315558D01*
X306910Y315418D01*
X306860Y315280D01*
X306842Y315183D01*
X306815Y315088D01*
X306798Y314943D01*
X306772Y314799D01*
X306770Y314700D01*
X306758Y314602D01*
X306765Y314456D01*
X306762Y314310D01*
X306777Y314212D01*
X306781Y314113D01*
X306812Y313970D01*
X306833Y313825D01*
X306863Y313731D01*
X306884Y313634D01*
X306937Y313498D01*
X306981Y313359D01*
X307026Y313271D01*
X307062Y313179D01*
X307137Y313053D01*
X307203Y312923D01*
X307262Y312843D01*
X307313Y312758D01*
X307407Y312646D01*
X307494Y312529D01*
X307564Y312460D01*
X307628Y312384D01*
X307739Y312289D01*
X307844Y312187D01*
X307925Y312130D01*
X308000Y312066D01*
X308125Y311991D01*
X308245Y311907D01*
X308335Y311864D01*
X308419Y311813D01*
X308555Y311759D01*
X308687Y311696D01*
X308782Y311668D01*
X308874Y311631D01*
X309017Y311600D01*
X309157Y311559D01*
X309239Y311551D01*
X309352Y311526D01*
X309635Y311511D01*
X309756Y311499D01*
X314363Y311499D01*
X316149Y309713D01*
X316149Y308005D01*
X316168Y307765D01*
X316187Y307526D01*
X316188Y307521D01*
X316189Y307517D01*
X316246Y307286D01*
X316304Y307051D01*
X316306Y307046D01*
X316307Y307042D01*
X316402Y306824D01*
X316497Y306601D01*
X316500Y306597D01*
X316502Y306593D01*
X316629Y306394D01*
X316761Y306189D01*
X316764Y306185D01*
X316767Y306181D01*
X316925Y306006D01*
X317088Y305825D01*
X317092Y305822D01*
X317095Y305818D01*
X317284Y305668D01*
X317470Y305519D01*
X317474Y305517D01*
X317478Y305513D01*
X317905Y305275D01*
X317960Y305255D01*
X318000Y305234D01*
X318241Y305134D01*
X322334Y301041D01*
X324549Y295694D01*
X324549Y259106D01*
X322334Y253759D01*
X318241Y249666D01*
X318000Y249566D01*
X317788Y249458D01*
X317573Y249348D01*
X317569Y249345D01*
X317565Y249343D01*
X317377Y249203D01*
X317179Y249058D01*
X317175Y249054D01*
X317172Y249051D01*
X317007Y248882D01*
X316837Y248707D01*
X316834Y248703D01*
X316831Y248700D01*
X316696Y248506D01*
X316557Y248306D01*
X316555Y248302D01*
X316552Y248298D01*
X316450Y248082D01*
X316346Y247864D01*
X316344Y247860D01*
X316342Y247856D01*
X316276Y247625D01*
X316209Y247394D01*
X316209Y247390D01*
X316207Y247385D01*
X316176Y247116D01*
X316164Y247051D01*
X316163Y247006D01*
X316151Y246899D01*
X316153Y246841D01*
X316149Y246795D01*
X316149Y245087D01*
X314363Y243301D01*
X290372Y243301D01*
X290325Y243297D01*
X290278Y243300D01*
X290081Y243277D01*
X289885Y243261D01*
X289839Y243250D01*
X289792Y243245D01*
X289601Y243191D01*
X289410Y243143D01*
X289367Y243124D01*
X289321Y243111D01*
X289142Y243027D01*
X288961Y242948D01*
X288921Y242923D01*
X288878Y242903D01*
X288715Y242790D01*
X288549Y242683D01*
X288514Y242652D01*
X288475Y242625D01*
X288332Y242487D01*
X288186Y242355D01*
X288157Y242318D01*
X288123Y242285D01*
X288004Y242127D01*
X287881Y241972D01*
X287858Y241931D01*
X287830Y241893D01*
X287739Y241718D01*
X287643Y241545D01*
X287627Y241500D01*
X287605Y241458D01*
X287544Y241270D01*
X287477Y241084D01*
X287468Y241038D01*
X287454Y240993D01*
X287424Y240798D01*
X287388Y240603D01*
X287387Y240556D01*
X287380Y240509D01*
X287383Y240311D01*
X287379Y240114D01*
X287386Y240067D01*
X287386Y240020D01*
X287421Y239824D01*
X287450Y239629D01*
X287464Y239584D01*
X287472Y239538D01*
X287538Y239351D01*
X287598Y239163D01*
X287619Y239121D01*
X287635Y239076D01*
X287730Y238903D01*
X287820Y238727D01*
X287848Y238689D01*
X287871Y238647D01*
X287949Y238552D01*
X288110Y238333D01*
X288197Y238248D01*
X288252Y238181D01*
X290256Y236177D01*
X290364Y236086D01*
X290465Y235987D01*
X290550Y235928D01*
X290629Y235860D01*
X290750Y235788D01*
X290866Y235707D01*
X290960Y235662D01*
X291049Y235609D01*
X291180Y235557D01*
X291308Y235496D01*
X291407Y235467D01*
X291504Y235429D01*
X291642Y235399D01*
X291778Y235359D01*
X291864Y235350D01*
X291982Y235325D01*
X292254Y235311D01*
X292376Y235299D01*
X314363Y235299D01*
X316149Y233513D01*
X316149Y222548D01*
X316156Y222454D01*
X316155Y222360D01*
X316176Y222210D01*
X316189Y222060D01*
X316212Y221969D01*
X316225Y221875D01*
X316271Y221732D01*
X316307Y221585D01*
X316345Y221499D01*
X316373Y221409D01*
X316442Y221274D01*
X316502Y221136D01*
X316553Y221057D01*
X316596Y220973D01*
X316685Y220851D01*
X316767Y220725D01*
X316830Y220655D01*
X316886Y220579D01*
X316994Y220473D01*
X317095Y220362D01*
X317169Y220303D01*
X317236Y220237D01*
X317360Y220151D01*
X317478Y220057D01*
X317560Y220011D01*
X317638Y219957D01*
X317774Y219892D01*
X317905Y219818D01*
X317994Y219786D01*
X318079Y219746D01*
X318224Y219704D01*
X318366Y219653D01*
X318459Y219635D01*
X318549Y219609D01*
X318664Y219598D01*
X318847Y219564D01*
X319033Y219560D01*
X319148Y219549D01*
X361874Y219549D01*
X362015Y219560D01*
G37*
G36*
X196347Y370377D02*
X196347Y370377D01*
X196397Y370374D01*
X196591Y370396D01*
X196784Y370411D01*
X196833Y370424D01*
X196883Y370429D01*
X197071Y370482D01*
X197259Y370529D01*
X197306Y370549D01*
X197354Y370563D01*
X197530Y370646D01*
X197709Y370723D01*
X197751Y370750D01*
X197797Y370771D01*
X197957Y370882D01*
X198121Y370987D01*
X198158Y371020D01*
X198200Y371049D01*
X198340Y371184D01*
X198485Y371314D01*
X198516Y371354D01*
X198552Y371388D01*
X198669Y371544D01*
X198790Y371696D01*
X198815Y371740D01*
X198845Y371781D01*
X198934Y371953D01*
X199030Y372123D01*
X199047Y372171D01*
X199070Y372215D01*
X199130Y372400D01*
X199196Y372584D01*
X199206Y372633D01*
X199221Y372681D01*
X199251Y372874D01*
X199286Y373065D01*
X199287Y373115D01*
X199295Y373165D01*
X199292Y373359D01*
X199296Y373554D01*
X199289Y373597D01*
X199289Y373654D01*
X199203Y374136D01*
X199201Y374142D01*
X199200Y374148D01*
X197701Y379740D01*
X197701Y387060D01*
X199596Y394130D01*
X203256Y400469D01*
X208431Y405644D01*
X214770Y409304D01*
X221840Y411199D01*
X229160Y411199D01*
X236230Y409304D01*
X242569Y405645D01*
X246781Y401432D01*
X246817Y401401D01*
X246849Y401367D01*
X247004Y401243D01*
X247154Y401115D01*
X247195Y401091D01*
X247232Y401062D01*
X247405Y400965D01*
X247574Y400864D01*
X247618Y400846D01*
X247659Y400823D01*
X247846Y400756D01*
X248029Y400683D01*
X248075Y400673D01*
X248120Y400657D01*
X248315Y400622D01*
X248507Y400580D01*
X248555Y400577D01*
X248601Y400569D01*
X248798Y400565D01*
X248996Y400555D01*
X249043Y400560D01*
X249090Y400560D01*
X249286Y400588D01*
X249483Y400610D01*
X249528Y400623D01*
X249575Y400630D01*
X249763Y400690D01*
X249953Y400744D01*
X249996Y400764D01*
X250041Y400778D01*
X250218Y400868D01*
X250396Y400952D01*
X250435Y400979D01*
X250477Y401001D01*
X250637Y401118D01*
X250799Y401230D01*
X250833Y401263D01*
X250871Y401291D01*
X251009Y401432D01*
X251152Y401569D01*
X251180Y401607D01*
X251213Y401641D01*
X251326Y401803D01*
X251444Y401962D01*
X251466Y402004D01*
X251493Y402042D01*
X251579Y402221D01*
X251669Y402396D01*
X251684Y402441D01*
X251704Y402484D01*
X251760Y402674D01*
X251821Y402862D01*
X251828Y402909D01*
X251841Y402954D01*
X251853Y403077D01*
X251894Y403346D01*
X251893Y403467D01*
X251901Y403553D01*
X251901Y427103D01*
X251890Y427244D01*
X251888Y427385D01*
X251870Y427487D01*
X251861Y427590D01*
X251827Y427728D01*
X251802Y427867D01*
X251768Y427965D01*
X251743Y428065D01*
X251686Y428195D01*
X251639Y428328D01*
X251589Y428419D01*
X251548Y428514D01*
X251472Y428633D01*
X251404Y428757D01*
X251349Y428824D01*
X251283Y428926D01*
X251101Y429128D01*
X251023Y429223D01*
X210414Y469833D01*
X210342Y469894D01*
X210276Y469962D01*
X210155Y470052D01*
X210041Y470149D01*
X209960Y470198D01*
X209884Y470254D01*
X209750Y470324D01*
X209621Y470401D01*
X209533Y470436D01*
X209449Y470479D01*
X209306Y470526D01*
X209166Y470581D01*
X209073Y470601D01*
X208984Y470630D01*
X208835Y470653D01*
X208687Y470685D01*
X208593Y470690D01*
X208500Y470704D01*
X208349Y470702D01*
X208199Y470710D01*
X208105Y470699D01*
X208011Y470698D01*
X207862Y470671D01*
X207712Y470654D01*
X207622Y470629D01*
X207529Y470612D01*
X207386Y470562D01*
X207242Y470521D01*
X207156Y470481D01*
X207067Y470449D01*
X206935Y470376D01*
X206799Y470312D01*
X206721Y470259D01*
X206638Y470213D01*
X206548Y470140D01*
X206396Y470035D01*
X206262Y469906D01*
X206172Y469833D01*
X204825Y468486D01*
X200397Y466651D01*
X195603Y466651D01*
X191175Y468486D01*
X189121Y470540D01*
X189049Y470601D01*
X188983Y470669D01*
X188862Y470759D01*
X188748Y470856D01*
X188667Y470905D01*
X188591Y470961D01*
X188457Y471031D01*
X188328Y471108D01*
X188240Y471143D01*
X188156Y471186D01*
X188013Y471233D01*
X187873Y471288D01*
X187781Y471308D01*
X187691Y471338D01*
X187542Y471360D01*
X187395Y471392D01*
X187300Y471397D01*
X187207Y471411D01*
X187056Y471409D01*
X186906Y471417D01*
X186812Y471406D01*
X186718Y471405D01*
X186569Y471378D01*
X186419Y471361D01*
X186329Y471336D01*
X186236Y471319D01*
X186094Y471269D01*
X185949Y471228D01*
X185863Y471188D01*
X185774Y471156D01*
X185642Y471084D01*
X185506Y471019D01*
X185428Y470966D01*
X185345Y470920D01*
X185255Y470847D01*
X185103Y470742D01*
X184969Y470613D01*
X184879Y470540D01*
X182825Y468486D01*
X178397Y466651D01*
X173603Y466651D01*
X169175Y468486D01*
X167121Y470540D01*
X167049Y470601D01*
X166983Y470669D01*
X166862Y470759D01*
X166748Y470856D01*
X166667Y470905D01*
X166591Y470961D01*
X166457Y471031D01*
X166328Y471108D01*
X166240Y471143D01*
X166156Y471186D01*
X166013Y471233D01*
X165873Y471288D01*
X165781Y471308D01*
X165691Y471338D01*
X165542Y471360D01*
X165395Y471392D01*
X165300Y471397D01*
X165207Y471411D01*
X165056Y471409D01*
X164906Y471417D01*
X164812Y471406D01*
X164718Y471405D01*
X164569Y471378D01*
X164419Y471361D01*
X164329Y471336D01*
X164236Y471319D01*
X164094Y471269D01*
X163949Y471228D01*
X163863Y471188D01*
X163774Y471156D01*
X163642Y471084D01*
X163506Y471019D01*
X163428Y470966D01*
X163345Y470920D01*
X163255Y470847D01*
X163103Y470742D01*
X162969Y470613D01*
X162879Y470540D01*
X160825Y468486D01*
X156397Y466651D01*
X151603Y466651D01*
X147175Y468486D01*
X144762Y470899D01*
X144689Y470960D01*
X144624Y471028D01*
X144504Y471118D01*
X144388Y471216D01*
X144307Y471264D01*
X144232Y471321D01*
X144098Y471390D01*
X143969Y471467D01*
X143881Y471502D01*
X143797Y471545D01*
X143654Y471592D01*
X143514Y471648D01*
X143422Y471668D01*
X143332Y471697D01*
X143183Y471719D01*
X143035Y471751D01*
X142941Y471756D01*
X142848Y471770D01*
X142697Y471768D01*
X142547Y471776D01*
X142453Y471765D01*
X142358Y471764D01*
X142210Y471738D01*
X142060Y471721D01*
X141969Y471695D01*
X141877Y471678D01*
X141735Y471628D01*
X141589Y471587D01*
X141504Y471547D01*
X141415Y471515D01*
X141283Y471443D01*
X141147Y471379D01*
X141069Y471325D01*
X140986Y471280D01*
X140896Y471206D01*
X140744Y471101D01*
X140610Y470972D01*
X140520Y470899D01*
X139518Y469897D01*
X138049Y468829D01*
X136430Y468005D01*
X134999Y467540D01*
X134999Y478700D01*
X134999Y489860D01*
X136430Y489395D01*
X138049Y488571D01*
X139518Y487503D01*
X140520Y486501D01*
X140592Y486440D01*
X140657Y486372D01*
X140778Y486282D01*
X140893Y486184D01*
X140974Y486136D01*
X141050Y486079D01*
X141184Y486010D01*
X141313Y485933D01*
X141401Y485898D01*
X141484Y485854D01*
X141628Y485808D01*
X141768Y485752D01*
X141860Y485732D01*
X141950Y485703D01*
X142099Y485681D01*
X142246Y485649D01*
X142341Y485644D01*
X142434Y485630D01*
X142584Y485632D01*
X142735Y485624D01*
X142829Y485635D01*
X142923Y485636D01*
X143072Y485662D01*
X143221Y485679D01*
X143312Y485705D01*
X143405Y485722D01*
X143547Y485772D01*
X143692Y485813D01*
X143778Y485853D01*
X143867Y485885D01*
X143999Y485957D01*
X144135Y486021D01*
X144213Y486075D01*
X144295Y486120D01*
X144386Y486194D01*
X144538Y486299D01*
X144672Y486427D01*
X144762Y486501D01*
X147175Y488914D01*
X151603Y490749D01*
X156397Y490749D01*
X160825Y488914D01*
X162879Y486860D01*
X162951Y486799D01*
X163017Y486731D01*
X163137Y486641D01*
X163252Y486544D01*
X163333Y486495D01*
X163409Y486439D01*
X163543Y486369D01*
X163672Y486292D01*
X163760Y486257D01*
X163844Y486214D01*
X163987Y486167D01*
X164127Y486112D01*
X164219Y486092D01*
X164309Y486062D01*
X164458Y486040D01*
X164605Y486008D01*
X164700Y486003D01*
X164793Y485989D01*
X164944Y485991D01*
X165094Y485983D01*
X165188Y485994D01*
X165282Y485995D01*
X165431Y486022D01*
X165581Y486039D01*
X165671Y486064D01*
X165764Y486081D01*
X165906Y486131D01*
X166051Y486172D01*
X166137Y486212D01*
X166226Y486244D01*
X166358Y486316D01*
X166494Y486381D01*
X166572Y486434D01*
X166655Y486480D01*
X166744Y486553D01*
X166897Y486658D01*
X167031Y486787D01*
X167121Y486860D01*
X169175Y488914D01*
X173603Y490749D01*
X178397Y490749D01*
X182825Y488914D01*
X184879Y486860D01*
X184951Y486799D01*
X185017Y486731D01*
X185137Y486641D01*
X185252Y486544D01*
X185333Y486495D01*
X185409Y486439D01*
X185543Y486369D01*
X185672Y486292D01*
X185760Y486257D01*
X185844Y486214D01*
X185987Y486167D01*
X186127Y486112D01*
X186219Y486092D01*
X186309Y486062D01*
X186458Y486040D01*
X186605Y486008D01*
X186700Y486003D01*
X186793Y485989D01*
X186944Y485991D01*
X187094Y485983D01*
X187188Y485994D01*
X187282Y485995D01*
X187431Y486022D01*
X187581Y486039D01*
X187671Y486064D01*
X187764Y486081D01*
X187906Y486131D01*
X188051Y486172D01*
X188137Y486212D01*
X188226Y486244D01*
X188358Y486316D01*
X188494Y486381D01*
X188572Y486434D01*
X188655Y486480D01*
X188744Y486553D01*
X188897Y486658D01*
X189031Y486787D01*
X189121Y486860D01*
X191175Y488914D01*
X195603Y490749D01*
X200397Y490749D01*
X204825Y488914D01*
X206172Y487567D01*
X206244Y487506D01*
X206310Y487438D01*
X206348Y487410D01*
X206380Y487378D01*
X206464Y487320D01*
X206545Y487251D01*
X206626Y487202D01*
X206702Y487146D01*
X206746Y487123D01*
X206781Y487098D01*
X206871Y487055D01*
X206965Y486999D01*
X207053Y486964D01*
X207137Y486921D01*
X207185Y486905D01*
X207223Y486887D01*
X207316Y486860D01*
X207420Y486819D01*
X207512Y486799D01*
X207602Y486770D01*
X207654Y486762D01*
X207693Y486750D01*
X207772Y486742D01*
X207898Y486715D01*
X207993Y486710D01*
X208086Y486696D01*
X208215Y486698D01*
X208292Y486690D01*
X208294Y486690D01*
X208332Y486693D01*
X208387Y486690D01*
X208481Y486701D01*
X208575Y486702D01*
X208688Y486722D01*
X208782Y486730D01*
X208821Y486740D01*
X208873Y486746D01*
X208964Y486771D01*
X209057Y486788D01*
X209163Y486825D01*
X209257Y486849D01*
X209295Y486865D01*
X209344Y486879D01*
X209430Y486919D01*
X209519Y486951D01*
X209615Y487004D01*
X209706Y487043D01*
X209742Y487066D01*
X209787Y487088D01*
X209865Y487141D01*
X209948Y487187D01*
X210017Y487243D01*
X210117Y487308D01*
X210151Y487338D01*
X210190Y487365D01*
X210324Y487494D01*
X210414Y487567D01*
X212608Y489762D01*
X217404Y491749D01*
X222596Y491749D01*
X227392Y489762D01*
X268781Y448372D01*
X268817Y448342D01*
X268849Y448307D01*
X269004Y448184D01*
X269154Y448056D01*
X269195Y448032D01*
X269232Y448002D01*
X269405Y447906D01*
X269574Y447804D01*
X269618Y447787D01*
X269659Y447764D01*
X269845Y447697D01*
X270029Y447624D01*
X270075Y447614D01*
X270120Y447598D01*
X270314Y447562D01*
X270507Y447520D01*
X270555Y447518D01*
X270601Y447509D01*
X270799Y447505D01*
X270996Y447495D01*
X271043Y447501D01*
X271090Y447500D01*
X271286Y447528D01*
X271483Y447551D01*
X271528Y447564D01*
X271575Y447570D01*
X271763Y447630D01*
X271953Y447684D01*
X271996Y447704D01*
X272041Y447719D01*
X272218Y447809D01*
X272396Y447893D01*
X272435Y447919D01*
X272477Y447941D01*
X272637Y448059D01*
X272799Y448170D01*
X272833Y448203D01*
X272871Y448231D01*
X273010Y448373D01*
X273152Y448510D01*
X273180Y448548D01*
X273213Y448582D01*
X273327Y448744D01*
X273444Y448902D01*
X273466Y448944D01*
X273493Y448983D01*
X273579Y449162D01*
X273669Y449337D01*
X273684Y449382D01*
X273704Y449424D01*
X273760Y449614D01*
X273821Y449802D01*
X273828Y449849D01*
X273841Y449894D01*
X273853Y450017D01*
X273894Y450286D01*
X273893Y450407D01*
X273901Y450493D01*
X273901Y453801D01*
X273895Y453876D01*
X273895Y453887D01*
X273893Y453903D01*
X273890Y453942D01*
X273888Y454084D01*
X273870Y454186D01*
X273861Y454289D01*
X273827Y454426D01*
X273802Y454565D01*
X273768Y454663D01*
X273743Y454764D01*
X273686Y454894D01*
X273639Y455027D01*
X273589Y455118D01*
X273548Y455213D01*
X273472Y455332D01*
X273404Y455456D01*
X273349Y455523D01*
X273283Y455625D01*
X273101Y455826D01*
X273023Y455922D01*
X231730Y497215D01*
X224689Y504256D01*
X224542Y504381D01*
X224399Y504511D01*
X224356Y504539D01*
X224316Y504572D01*
X224150Y504672D01*
X223988Y504777D01*
X223941Y504797D01*
X223896Y504824D01*
X223717Y504895D01*
X223540Y504972D01*
X223490Y504985D01*
X223441Y505004D01*
X223252Y505045D01*
X223065Y505093D01*
X223014Y505097D01*
X222963Y505108D01*
X222770Y505118D01*
X222578Y505134D01*
X222526Y505130D01*
X222474Y505133D01*
X222282Y505111D01*
X222090Y505096D01*
X222039Y505083D01*
X221988Y505077D01*
X221802Y505025D01*
X221615Y504978D01*
X221567Y504958D01*
X221517Y504944D01*
X221342Y504862D01*
X221165Y504785D01*
X221121Y504757D01*
X221074Y504735D01*
X220915Y504626D01*
X220752Y504522D01*
X220714Y504487D01*
X220671Y504458D01*
X220532Y504324D01*
X220388Y504195D01*
X220356Y504154D01*
X220319Y504118D01*
X220203Y503963D01*
X220082Y503813D01*
X220061Y503773D01*
X220026Y503726D01*
X219801Y503291D01*
X219799Y503286D01*
X219797Y503283D01*
X219214Y501875D01*
X215825Y498486D01*
X211397Y496651D01*
X206603Y496651D01*
X202175Y498486D01*
X200828Y499833D01*
X200756Y499894D01*
X200690Y499962D01*
X200569Y500052D01*
X200455Y500149D01*
X200374Y500198D01*
X200298Y500254D01*
X200164Y500324D01*
X200035Y500401D01*
X199947Y500436D01*
X199863Y500479D01*
X199720Y500526D01*
X199580Y500581D01*
X199488Y500601D01*
X199398Y500630D01*
X199249Y500653D01*
X199102Y500685D01*
X199007Y500690D01*
X198914Y500704D01*
X198764Y500702D01*
X198613Y500710D01*
X198519Y500699D01*
X198425Y500698D01*
X198276Y500671D01*
X198127Y500654D01*
X198036Y500629D01*
X197943Y500612D01*
X197801Y500562D01*
X197656Y500521D01*
X197570Y500481D01*
X197481Y500449D01*
X197349Y500376D01*
X197213Y500312D01*
X197135Y500259D01*
X197052Y500213D01*
X196962Y500140D01*
X196810Y500035D01*
X196676Y499906D01*
X196586Y499833D01*
X194391Y497638D01*
X189596Y495651D01*
X184404Y495651D01*
X179609Y497638D01*
X177414Y499833D01*
X177342Y499894D01*
X177276Y499962D01*
X177156Y500052D01*
X177041Y500149D01*
X176960Y500198D01*
X176884Y500254D01*
X176750Y500323D01*
X176621Y500401D01*
X176533Y500436D01*
X176449Y500479D01*
X176306Y500526D01*
X176166Y500581D01*
X176074Y500601D01*
X175984Y500630D01*
X175835Y500653D01*
X175688Y500685D01*
X175593Y500690D01*
X175500Y500704D01*
X175349Y500702D01*
X175199Y500710D01*
X175105Y500699D01*
X175011Y500698D01*
X174862Y500671D01*
X174712Y500654D01*
X174622Y500629D01*
X174529Y500612D01*
X174387Y500562D01*
X174242Y500521D01*
X174156Y500481D01*
X174067Y500449D01*
X173935Y500377D01*
X173799Y500312D01*
X173721Y500259D01*
X173638Y500213D01*
X173549Y500140D01*
X173396Y500035D01*
X173262Y499906D01*
X173172Y499833D01*
X171825Y498486D01*
X167397Y496651D01*
X162603Y496651D01*
X158175Y498486D01*
X156121Y500540D01*
X156049Y500601D01*
X155983Y500669D01*
X155862Y500759D01*
X155748Y500856D01*
X155667Y500905D01*
X155591Y500961D01*
X155457Y501031D01*
X155328Y501108D01*
X155240Y501143D01*
X155156Y501186D01*
X155013Y501233D01*
X154873Y501288D01*
X154781Y501308D01*
X154691Y501338D01*
X154542Y501360D01*
X154395Y501392D01*
X154300Y501397D01*
X154207Y501411D01*
X154056Y501409D01*
X153906Y501417D01*
X153812Y501406D01*
X153718Y501405D01*
X153569Y501378D01*
X153419Y501361D01*
X153329Y501336D01*
X153236Y501319D01*
X153094Y501269D01*
X152949Y501228D01*
X152863Y501188D01*
X152774Y501156D01*
X152642Y501084D01*
X152506Y501019D01*
X152428Y500966D01*
X152345Y500920D01*
X152255Y500847D01*
X152103Y500742D01*
X151969Y500613D01*
X151879Y500540D01*
X149825Y498486D01*
X145397Y496651D01*
X140603Y496651D01*
X136175Y498486D01*
X134121Y500540D01*
X134049Y500601D01*
X133983Y500669D01*
X133862Y500759D01*
X133748Y500856D01*
X133667Y500905D01*
X133591Y500961D01*
X133457Y501031D01*
X133328Y501108D01*
X133240Y501143D01*
X133156Y501186D01*
X133013Y501233D01*
X132873Y501288D01*
X132781Y501308D01*
X132691Y501338D01*
X132542Y501360D01*
X132395Y501392D01*
X132300Y501397D01*
X132207Y501411D01*
X132056Y501409D01*
X131906Y501417D01*
X131812Y501406D01*
X131718Y501405D01*
X131569Y501378D01*
X131419Y501361D01*
X131329Y501336D01*
X131236Y501319D01*
X131094Y501269D01*
X130949Y501228D01*
X130863Y501188D01*
X130774Y501156D01*
X130642Y501084D01*
X130506Y501019D01*
X130428Y500966D01*
X130345Y500920D01*
X130255Y500847D01*
X130103Y500742D01*
X129969Y500613D01*
X129879Y500540D01*
X127825Y498486D01*
X123397Y496651D01*
X118603Y496651D01*
X114175Y498486D01*
X112121Y500540D01*
X112049Y500601D01*
X111983Y500669D01*
X111862Y500759D01*
X111748Y500856D01*
X111667Y500905D01*
X111591Y500961D01*
X111457Y501031D01*
X111328Y501108D01*
X111240Y501143D01*
X111156Y501186D01*
X111013Y501233D01*
X110873Y501288D01*
X110781Y501308D01*
X110691Y501338D01*
X110542Y501360D01*
X110395Y501392D01*
X110300Y501397D01*
X110207Y501411D01*
X110056Y501409D01*
X109906Y501417D01*
X109812Y501406D01*
X109718Y501405D01*
X109569Y501378D01*
X109419Y501361D01*
X109329Y501336D01*
X109236Y501319D01*
X109094Y501269D01*
X108949Y501228D01*
X108863Y501188D01*
X108774Y501156D01*
X108642Y501084D01*
X108506Y501019D01*
X108428Y500966D01*
X108345Y500920D01*
X108255Y500847D01*
X108103Y500742D01*
X107969Y500613D01*
X107879Y500540D01*
X105825Y498486D01*
X101397Y496651D01*
X96603Y496651D01*
X92175Y498486D01*
X90121Y500540D01*
X90049Y500601D01*
X89983Y500669D01*
X89862Y500759D01*
X89748Y500856D01*
X89667Y500905D01*
X89591Y500961D01*
X89457Y501031D01*
X89328Y501108D01*
X89240Y501143D01*
X89156Y501186D01*
X89013Y501233D01*
X88873Y501288D01*
X88781Y501308D01*
X88691Y501338D01*
X88542Y501360D01*
X88395Y501392D01*
X88300Y501397D01*
X88207Y501411D01*
X88056Y501409D01*
X87906Y501417D01*
X87812Y501406D01*
X87718Y501405D01*
X87569Y501378D01*
X87419Y501361D01*
X87329Y501336D01*
X87236Y501319D01*
X87094Y501269D01*
X86949Y501228D01*
X86863Y501188D01*
X86774Y501156D01*
X86642Y501084D01*
X86506Y501019D01*
X86428Y500966D01*
X86345Y500920D01*
X86255Y500847D01*
X86103Y500742D01*
X85969Y500613D01*
X85879Y500540D01*
X83825Y498486D01*
X79397Y496651D01*
X74603Y496651D01*
X70175Y498486D01*
X68121Y500540D01*
X68049Y500601D01*
X67983Y500669D01*
X67862Y500759D01*
X67748Y500856D01*
X67667Y500905D01*
X67591Y500961D01*
X67457Y501031D01*
X67328Y501108D01*
X67240Y501143D01*
X67156Y501186D01*
X67013Y501233D01*
X66873Y501288D01*
X66781Y501308D01*
X66691Y501338D01*
X66542Y501360D01*
X66395Y501392D01*
X66300Y501397D01*
X66207Y501411D01*
X66056Y501409D01*
X65906Y501417D01*
X65812Y501406D01*
X65718Y501405D01*
X65569Y501378D01*
X65419Y501361D01*
X65329Y501336D01*
X65236Y501319D01*
X65094Y501269D01*
X64949Y501228D01*
X64863Y501188D01*
X64774Y501156D01*
X64642Y501084D01*
X64506Y501019D01*
X64428Y500966D01*
X64345Y500920D01*
X64255Y500847D01*
X64103Y500742D01*
X63969Y500613D01*
X63879Y500540D01*
X61825Y498486D01*
X57397Y496651D01*
X52603Y496651D01*
X48175Y498486D01*
X45519Y501142D01*
X45483Y501172D01*
X45451Y501207D01*
X45297Y501330D01*
X45146Y501458D01*
X45105Y501483D01*
X45068Y501512D01*
X44895Y501609D01*
X44726Y501710D01*
X44682Y501728D01*
X44641Y501751D01*
X44454Y501818D01*
X44271Y501890D01*
X44225Y501900D01*
X44180Y501916D01*
X43986Y501952D01*
X43793Y501994D01*
X43745Y501997D01*
X43699Y502005D01*
X43502Y502009D01*
X43304Y502019D01*
X43257Y502013D01*
X43210Y502014D01*
X43014Y501986D01*
X42817Y501963D01*
X42772Y501951D01*
X42725Y501944D01*
X42537Y501884D01*
X42347Y501830D01*
X42304Y501810D01*
X42259Y501795D01*
X42082Y501706D01*
X41904Y501621D01*
X41865Y501595D01*
X41823Y501573D01*
X41663Y501456D01*
X41501Y501344D01*
X41467Y501311D01*
X41429Y501283D01*
X41291Y501142D01*
X41148Y501004D01*
X41120Y500966D01*
X41087Y500933D01*
X40974Y500771D01*
X40856Y500612D01*
X40834Y500570D01*
X40807Y500531D01*
X40721Y500353D01*
X40631Y500177D01*
X40616Y500133D01*
X40596Y500090D01*
X40541Y499900D01*
X40479Y499712D01*
X40472Y499665D01*
X40459Y499620D01*
X40447Y499497D01*
X40406Y499228D01*
X40407Y499107D01*
X40399Y499021D01*
X40399Y490485D01*
X40410Y490345D01*
X40412Y490203D01*
X40430Y490101D01*
X40439Y489998D01*
X40473Y489860D01*
X40498Y489721D01*
X40532Y489624D01*
X40557Y489523D01*
X40614Y489393D01*
X40661Y489260D01*
X40711Y489169D01*
X40752Y489074D01*
X40828Y488955D01*
X40896Y488831D01*
X40951Y488764D01*
X41017Y488662D01*
X41199Y488460D01*
X41277Y488365D01*
X49194Y480448D01*
X49341Y480323D01*
X49484Y480193D01*
X49528Y480165D01*
X49567Y480131D01*
X49732Y480032D01*
X49895Y479927D01*
X49942Y479906D01*
X49987Y479879D01*
X50166Y479808D01*
X50343Y479731D01*
X50393Y479718D01*
X50442Y479699D01*
X50631Y479658D01*
X50818Y479611D01*
X50869Y479607D01*
X50920Y479596D01*
X51113Y479586D01*
X51305Y479569D01*
X51357Y479574D01*
X51409Y479571D01*
X51601Y479593D01*
X51793Y479608D01*
X51844Y479620D01*
X51895Y479626D01*
X52081Y479679D01*
X52268Y479725D01*
X52316Y479746D01*
X52366Y479760D01*
X52541Y479842D01*
X52718Y479918D01*
X52762Y479946D01*
X52809Y479968D01*
X52968Y480078D01*
X53131Y480182D01*
X53169Y480216D01*
X53212Y480246D01*
X53351Y480380D01*
X53495Y480509D01*
X53527Y480549D01*
X53564Y480585D01*
X53680Y480740D01*
X53801Y480891D01*
X53822Y480931D01*
X53857Y480978D01*
X54082Y481412D01*
X54084Y481417D01*
X54086Y481421D01*
X55786Y485525D01*
X59175Y488914D01*
X63603Y490749D01*
X68397Y490749D01*
X72825Y488914D01*
X74879Y486860D01*
X74951Y486799D01*
X75017Y486731D01*
X75137Y486641D01*
X75252Y486544D01*
X75333Y486495D01*
X75409Y486439D01*
X75543Y486369D01*
X75672Y486292D01*
X75760Y486257D01*
X75844Y486214D01*
X75987Y486167D01*
X76127Y486112D01*
X76219Y486092D01*
X76309Y486062D01*
X76458Y486040D01*
X76605Y486008D01*
X76700Y486003D01*
X76793Y485989D01*
X76944Y485991D01*
X77094Y485983D01*
X77188Y485994D01*
X77282Y485995D01*
X77431Y486022D01*
X77581Y486039D01*
X77671Y486064D01*
X77764Y486081D01*
X77906Y486131D01*
X78051Y486172D01*
X78137Y486212D01*
X78226Y486244D01*
X78358Y486316D01*
X78494Y486381D01*
X78572Y486434D01*
X78655Y486480D01*
X78744Y486553D01*
X78897Y486658D01*
X79031Y486787D01*
X79121Y486860D01*
X81175Y488914D01*
X85603Y490749D01*
X90397Y490749D01*
X94825Y488914D01*
X96879Y486860D01*
X96951Y486799D01*
X97017Y486731D01*
X97137Y486641D01*
X97252Y486544D01*
X97333Y486495D01*
X97409Y486439D01*
X97543Y486369D01*
X97672Y486292D01*
X97760Y486257D01*
X97844Y486214D01*
X97987Y486167D01*
X98127Y486112D01*
X98219Y486092D01*
X98309Y486062D01*
X98458Y486040D01*
X98605Y486008D01*
X98700Y486003D01*
X98793Y485989D01*
X98944Y485991D01*
X99094Y485983D01*
X99188Y485994D01*
X99282Y485995D01*
X99431Y486022D01*
X99581Y486039D01*
X99671Y486064D01*
X99764Y486081D01*
X99906Y486131D01*
X100051Y486172D01*
X100137Y486212D01*
X100226Y486244D01*
X100358Y486316D01*
X100494Y486381D01*
X100572Y486434D01*
X100655Y486480D01*
X100744Y486553D01*
X100897Y486658D01*
X101031Y486787D01*
X101121Y486860D01*
X103175Y488914D01*
X107603Y490749D01*
X112397Y490749D01*
X116825Y488914D01*
X119238Y486501D01*
X119311Y486440D01*
X119376Y486372D01*
X119496Y486282D01*
X119612Y486184D01*
X119693Y486136D01*
X119768Y486079D01*
X119902Y486010D01*
X120031Y485933D01*
X120119Y485898D01*
X120203Y485855D01*
X120346Y485808D01*
X120486Y485752D01*
X120578Y485732D01*
X120668Y485703D01*
X120817Y485681D01*
X120965Y485649D01*
X121059Y485644D01*
X121152Y485630D01*
X121303Y485632D01*
X121453Y485624D01*
X121547Y485635D01*
X121642Y485636D01*
X121790Y485662D01*
X121940Y485679D01*
X122031Y485705D01*
X122123Y485722D01*
X122265Y485772D01*
X122411Y485813D01*
X122496Y485853D01*
X122585Y485885D01*
X122717Y485957D01*
X122853Y486021D01*
X122931Y486075D01*
X123014Y486120D01*
X123104Y486194D01*
X123256Y486299D01*
X123390Y486428D01*
X123480Y486501D01*
X124482Y487503D01*
X125951Y488571D01*
X127570Y489395D01*
X129001Y489860D01*
X129001Y478700D01*
X129001Y467540D01*
X127570Y468005D01*
X125951Y468829D01*
X124482Y469897D01*
X123480Y470899D01*
X123408Y470960D01*
X123343Y471028D01*
X123222Y471118D01*
X123107Y471216D01*
X123026Y471264D01*
X122950Y471321D01*
X122816Y471390D01*
X122687Y471467D01*
X122599Y471502D01*
X122516Y471546D01*
X122372Y471592D01*
X122232Y471648D01*
X122140Y471668D01*
X122050Y471697D01*
X121901Y471719D01*
X121754Y471751D01*
X121659Y471756D01*
X121566Y471770D01*
X121416Y471768D01*
X121265Y471776D01*
X121171Y471765D01*
X121077Y471764D01*
X120928Y471738D01*
X120779Y471721D01*
X120688Y471695D01*
X120595Y471678D01*
X120453Y471628D01*
X120308Y471587D01*
X120222Y471547D01*
X120133Y471515D01*
X120001Y471443D01*
X119865Y471379D01*
X119787Y471325D01*
X119705Y471280D01*
X119614Y471206D01*
X119462Y471101D01*
X119328Y470973D01*
X119238Y470899D01*
X116825Y468486D01*
X112397Y466651D01*
X107603Y466651D01*
X106474Y467119D01*
X106335Y467164D01*
X106199Y467217D01*
X106102Y467239D01*
X106008Y467269D01*
X105864Y467290D01*
X105721Y467321D01*
X105622Y467326D01*
X105524Y467341D01*
X105378Y467338D01*
X105232Y467346D01*
X105134Y467335D01*
X105035Y467333D01*
X104891Y467307D01*
X104746Y467291D01*
X104650Y467264D01*
X104553Y467246D01*
X104416Y467197D01*
X104275Y467157D01*
X104185Y467115D01*
X104092Y467082D01*
X103964Y467011D01*
X103832Y466949D01*
X103751Y466892D01*
X103664Y466844D01*
X103549Y466754D01*
X103429Y466671D01*
X103358Y466602D01*
X103280Y466541D01*
X103182Y466433D01*
X103077Y466331D01*
X103017Y466252D01*
X102951Y466179D01*
X102871Y466056D01*
X102784Y465939D01*
X102738Y465851D01*
X102685Y465768D01*
X102626Y465634D01*
X102559Y465504D01*
X102528Y465410D01*
X102489Y465319D01*
X102453Y465178D01*
X102408Y465039D01*
X102393Y464941D01*
X102369Y464845D01*
X102356Y464699D01*
X102334Y464555D01*
X102336Y464456D01*
X102327Y464357D01*
X102339Y464212D01*
X102340Y464066D01*
X102358Y463968D01*
X102366Y463869D01*
X102401Y463728D01*
X102426Y463584D01*
X102459Y463490D01*
X102483Y463394D01*
X102540Y463260D01*
X102589Y463122D01*
X102637Y463036D01*
X102676Y462945D01*
X102755Y462821D01*
X102825Y462693D01*
X102877Y462629D01*
X102939Y462532D01*
X103129Y462321D01*
X103206Y462227D01*
X194182Y371251D01*
X194330Y371125D01*
X194474Y370994D01*
X194517Y370967D01*
X194555Y370934D01*
X194722Y370834D01*
X194885Y370729D01*
X194932Y370708D01*
X194975Y370683D01*
X195156Y370611D01*
X195334Y370533D01*
X195383Y370521D01*
X195430Y370502D01*
X195620Y370461D01*
X195809Y370413D01*
X195859Y370409D01*
X195908Y370399D01*
X196102Y370389D01*
X196296Y370373D01*
X196347Y370377D01*
G37*
G36*
X323995Y410484D02*
X323995Y410484D01*
X324140Y410481D01*
X324238Y410495D01*
X324337Y410500D01*
X324480Y410530D01*
X324625Y410551D01*
X324719Y410581D01*
X324816Y410602D01*
X324952Y410655D01*
X325091Y410700D01*
X325179Y410745D01*
X325272Y410781D01*
X325397Y410856D01*
X325527Y410922D01*
X325607Y410981D01*
X325692Y411031D01*
X325804Y411125D01*
X325921Y411212D01*
X325990Y411283D01*
X326066Y411347D01*
X326161Y411458D01*
X326263Y411562D01*
X326320Y411644D01*
X326384Y411719D01*
X326459Y411844D01*
X326543Y411964D01*
X326586Y412053D01*
X326637Y412138D01*
X326691Y412273D01*
X326754Y412405D01*
X326782Y412500D01*
X326819Y412592D01*
X326850Y412735D01*
X326891Y412875D01*
X326899Y412958D01*
X326924Y413070D01*
X326939Y413353D01*
X326951Y413474D01*
X326951Y440310D01*
X328938Y445106D01*
X332608Y448776D01*
X336575Y450419D01*
X336705Y450486D01*
X336839Y450544D01*
X336922Y450597D01*
X337010Y450643D01*
X337128Y450730D01*
X337250Y450809D01*
X337324Y450875D01*
X337403Y450934D01*
X337505Y451039D01*
X337613Y451137D01*
X337675Y451214D01*
X337744Y451285D01*
X337827Y451406D01*
X337918Y451520D01*
X337967Y451606D01*
X338023Y451688D01*
X338085Y451819D01*
X338157Y451947D01*
X338190Y452041D01*
X338233Y452130D01*
X338273Y452270D01*
X338323Y452408D01*
X338340Y452505D01*
X338368Y452600D01*
X338385Y452745D01*
X338411Y452889D01*
X338413Y452988D01*
X338425Y453086D01*
X338418Y453233D01*
X338420Y453378D01*
X338406Y453476D01*
X338401Y453575D01*
X338371Y453718D01*
X338350Y453863D01*
X338320Y453957D01*
X338299Y454054D01*
X338246Y454190D01*
X338202Y454329D01*
X338157Y454417D01*
X338120Y454510D01*
X338046Y454635D01*
X337979Y454765D01*
X337920Y454845D01*
X337870Y454930D01*
X337776Y455041D01*
X337689Y455159D01*
X337618Y455229D01*
X337554Y455304D01*
X337443Y455399D01*
X337339Y455501D01*
X337257Y455558D01*
X337182Y455622D01*
X337058Y455697D01*
X336937Y455781D01*
X336848Y455824D01*
X336763Y455875D01*
X336628Y455929D01*
X336496Y455992D01*
X336401Y456020D01*
X336309Y456057D01*
X336166Y456088D01*
X336026Y456129D01*
X335943Y456137D01*
X335831Y456162D01*
X335548Y456177D01*
X335427Y456189D01*
X309242Y456189D01*
X307841Y456769D01*
X306769Y457841D01*
X306189Y459242D01*
X306189Y553190D01*
X306182Y553284D01*
X306183Y553378D01*
X306162Y553528D01*
X306149Y553678D01*
X306126Y553769D01*
X306113Y553863D01*
X306067Y554006D01*
X306031Y554153D01*
X305993Y554239D01*
X305965Y554329D01*
X305896Y554464D01*
X305836Y554602D01*
X305785Y554681D01*
X305742Y554765D01*
X305653Y554887D01*
X305571Y555013D01*
X305508Y555083D01*
X305452Y555159D01*
X305344Y555265D01*
X305243Y555376D01*
X305169Y555435D01*
X305102Y555501D01*
X304978Y555587D01*
X304860Y555681D01*
X304778Y555727D01*
X304700Y555781D01*
X304564Y555846D01*
X304433Y555920D01*
X304344Y555952D01*
X304259Y555992D01*
X304114Y556034D01*
X303972Y556085D01*
X303879Y556103D01*
X303789Y556129D01*
X303674Y556140D01*
X303491Y556174D01*
X303305Y556178D01*
X303190Y556189D01*
X145132Y556189D01*
X145085Y556185D01*
X145038Y556188D01*
X144841Y556165D01*
X144645Y556149D01*
X144599Y556138D01*
X144552Y556133D01*
X144362Y556079D01*
X144170Y556031D01*
X144126Y556012D01*
X144081Y555999D01*
X143902Y555915D01*
X143721Y555836D01*
X143681Y555811D01*
X143638Y555791D01*
X143475Y555678D01*
X143309Y555571D01*
X143274Y555540D01*
X143235Y555513D01*
X143093Y555376D01*
X142946Y555243D01*
X142917Y555206D01*
X142883Y555173D01*
X142764Y555015D01*
X142641Y554860D01*
X142618Y554819D01*
X142590Y554781D01*
X142499Y554606D01*
X142403Y554433D01*
X142387Y554388D01*
X142365Y554346D01*
X142304Y554159D01*
X142237Y553972D01*
X142228Y553926D01*
X142214Y553881D01*
X142184Y553686D01*
X142148Y553491D01*
X142147Y553444D01*
X142140Y553397D01*
X142143Y553199D01*
X142139Y553002D01*
X142146Y552955D01*
X142146Y552908D01*
X142181Y552713D01*
X142210Y552517D01*
X142224Y552472D01*
X142232Y552426D01*
X142298Y552239D01*
X142358Y552051D01*
X142379Y552009D01*
X142395Y551964D01*
X142490Y551791D01*
X142580Y551615D01*
X142608Y551577D01*
X142631Y551535D01*
X142709Y551440D01*
X142870Y551221D01*
X142957Y551136D01*
X143012Y551069D01*
X169902Y524179D01*
X171524Y522557D01*
X171672Y522432D01*
X171814Y522302D01*
X171858Y522274D01*
X171897Y522240D01*
X172063Y522141D01*
X172225Y522036D01*
X172272Y522015D01*
X172317Y521988D01*
X172497Y521917D01*
X172673Y521840D01*
X172724Y521827D01*
X172772Y521808D01*
X172961Y521767D01*
X173148Y521720D01*
X173199Y521715D01*
X173250Y521704D01*
X173443Y521695D01*
X173636Y521678D01*
X173687Y521682D01*
X173739Y521680D01*
X173931Y521702D01*
X174123Y521717D01*
X174174Y521729D01*
X174225Y521735D01*
X174411Y521788D01*
X174599Y521834D01*
X174646Y521854D01*
X174696Y521869D01*
X174871Y521951D01*
X175048Y522027D01*
X175092Y522055D01*
X175139Y522077D01*
X175298Y522187D01*
X175461Y522290D01*
X175499Y522325D01*
X175542Y522355D01*
X175681Y522489D01*
X175825Y522618D01*
X175857Y522658D01*
X175895Y522694D01*
X176010Y522849D01*
X176131Y523000D01*
X176152Y523039D01*
X176187Y523086D01*
X176412Y523521D01*
X176414Y523526D01*
X176416Y523530D01*
X176938Y524790D01*
X192910Y540762D01*
X197706Y542749D01*
X220294Y542749D01*
X225090Y540762D01*
X298012Y467840D01*
X299999Y463044D01*
X299999Y445576D01*
X300014Y445384D01*
X300024Y445191D01*
X300034Y445140D01*
X300039Y445088D01*
X300085Y444901D01*
X300126Y444712D01*
X300145Y444664D01*
X300157Y444613D01*
X300234Y444436D01*
X300305Y444256D01*
X300331Y444212D01*
X300352Y444164D01*
X300456Y444002D01*
X300555Y443836D01*
X300589Y443796D01*
X300617Y443753D01*
X300746Y443610D01*
X300871Y443462D01*
X300910Y443428D01*
X300945Y443390D01*
X301096Y443269D01*
X301243Y443144D01*
X301287Y443117D01*
X301328Y443085D01*
X301497Y442991D01*
X301662Y442891D01*
X301710Y442872D01*
X301755Y442846D01*
X301937Y442781D01*
X302116Y442709D01*
X302167Y442698D01*
X302216Y442681D01*
X302406Y442645D01*
X302594Y442604D01*
X302646Y442601D01*
X302697Y442592D01*
X302891Y442588D01*
X303083Y442578D01*
X303135Y442584D01*
X303186Y442583D01*
X303377Y442610D01*
X303569Y442632D01*
X303613Y442645D01*
X303671Y442653D01*
X304137Y442801D01*
X304142Y442804D01*
X304146Y442805D01*
X304792Y443073D01*
X307208Y443073D01*
X307825Y442817D01*
X307866Y442804D01*
X307904Y442786D01*
X308099Y442729D01*
X308291Y442667D01*
X308333Y442661D01*
X308374Y442649D01*
X308495Y442637D01*
X308775Y442595D01*
X308890Y442597D01*
X308973Y442589D01*
X317803Y442589D01*
X319589Y440803D01*
X319589Y433197D01*
X317803Y431411D01*
X313548Y431411D01*
X313454Y431404D01*
X313360Y431405D01*
X313210Y431384D01*
X313060Y431371D01*
X312969Y431348D01*
X312875Y431335D01*
X312732Y431289D01*
X312585Y431253D01*
X312499Y431215D01*
X312409Y431187D01*
X312274Y431118D01*
X312136Y431058D01*
X312057Y431007D01*
X311973Y430964D01*
X311851Y430875D01*
X311725Y430793D01*
X311655Y430730D01*
X311579Y430674D01*
X311473Y430566D01*
X311362Y430465D01*
X311303Y430391D01*
X311237Y430324D01*
X311151Y430200D01*
X311057Y430082D01*
X311011Y430000D01*
X310957Y429922D01*
X310892Y429786D01*
X310818Y429655D01*
X310786Y429566D01*
X310746Y429481D01*
X310704Y429336D01*
X310653Y429194D01*
X310635Y429101D01*
X310609Y429011D01*
X310598Y428896D01*
X310564Y428713D01*
X310560Y428527D01*
X310549Y428412D01*
X310549Y425226D01*
X310560Y425085D01*
X310562Y424944D01*
X310580Y424842D01*
X310589Y424738D01*
X310623Y424601D01*
X310648Y424462D01*
X310682Y424364D01*
X310707Y424264D01*
X310764Y424134D01*
X310811Y424000D01*
X310861Y423910D01*
X310902Y423814D01*
X310978Y423696D01*
X311046Y423572D01*
X311101Y423505D01*
X311167Y423403D01*
X311349Y423201D01*
X311427Y423105D01*
X318755Y415778D01*
X320456Y414076D01*
X321181Y412326D01*
X321248Y412196D01*
X321306Y412062D01*
X321359Y411979D01*
X321405Y411891D01*
X321492Y411773D01*
X321571Y411651D01*
X321637Y411578D01*
X321696Y411498D01*
X321801Y411396D01*
X321899Y411288D01*
X321976Y411226D01*
X322047Y411157D01*
X322167Y411074D01*
X322282Y410983D01*
X322368Y410935D01*
X322450Y410878D01*
X322581Y410816D01*
X322709Y410745D01*
X322803Y410711D01*
X322892Y410669D01*
X323032Y410628D01*
X323170Y410579D01*
X323267Y410561D01*
X323362Y410533D01*
X323507Y410517D01*
X323651Y410490D01*
X323750Y410488D01*
X323848Y410477D01*
X323995Y410484D01*
G37*
G36*
X198688Y331633D02*
X198688Y331633D01*
X198782Y331634D01*
X198931Y331661D01*
X199081Y331678D01*
X199171Y331704D01*
X199264Y331720D01*
X199406Y331770D01*
X199551Y331811D01*
X199637Y331852D01*
X199726Y331883D01*
X199858Y331956D01*
X199994Y332020D01*
X200072Y332073D01*
X200155Y332119D01*
X200244Y332192D01*
X200397Y332297D01*
X200531Y332426D01*
X200621Y332500D01*
X203100Y334979D01*
X204198Y335433D01*
X204370Y335522D01*
X204544Y335604D01*
X204587Y335633D01*
X204633Y335657D01*
X204789Y335772D01*
X204947Y335881D01*
X204985Y335917D01*
X205026Y335948D01*
X205161Y336087D01*
X205300Y336221D01*
X205331Y336262D01*
X205367Y336300D01*
X205477Y336459D01*
X205593Y336613D01*
X205616Y336659D01*
X205646Y336702D01*
X205729Y336877D01*
X205817Y337048D01*
X205833Y337097D01*
X205856Y337144D01*
X205909Y337330D01*
X205969Y337513D01*
X205976Y337565D01*
X205991Y337615D01*
X206013Y337806D01*
X206042Y337997D01*
X206042Y338049D01*
X206048Y338101D01*
X206038Y338294D01*
X206036Y338487D01*
X206027Y338538D01*
X206024Y338590D01*
X205984Y338778D01*
X205950Y338969D01*
X205933Y339018D01*
X205922Y339068D01*
X205852Y339248D01*
X205787Y339430D01*
X205762Y339476D01*
X205743Y339524D01*
X205645Y339690D01*
X205552Y339859D01*
X205523Y339894D01*
X205493Y339944D01*
X205177Y340319D01*
X205173Y340322D01*
X205171Y340325D01*
X84723Y460773D01*
X84616Y460864D01*
X84514Y460963D01*
X84429Y461023D01*
X84350Y461089D01*
X84229Y461162D01*
X84113Y461243D01*
X84019Y461288D01*
X83930Y461341D01*
X83799Y461393D01*
X83671Y461454D01*
X83572Y461483D01*
X83475Y461521D01*
X83337Y461551D01*
X83201Y461591D01*
X83115Y461600D01*
X82997Y461625D01*
X82725Y461639D01*
X82602Y461651D01*
X77595Y461651D01*
X75923Y462344D01*
X74222Y464045D01*
X72090Y466177D01*
X71911Y466329D01*
X71725Y466488D01*
X71721Y466491D01*
X71717Y466494D01*
X71515Y466615D01*
X71306Y466741D01*
X71301Y466743D01*
X71297Y466746D01*
X71072Y466835D01*
X70851Y466923D01*
X70847Y466924D01*
X70842Y466926D01*
X70603Y466978D01*
X70374Y467028D01*
X70369Y467028D01*
X70364Y467029D01*
X70121Y467042D01*
X69885Y467054D01*
X69880Y467054D01*
X69875Y467054D01*
X69636Y467027D01*
X69398Y467001D01*
X69394Y466999D01*
X69389Y466999D01*
X68918Y466865D01*
X68865Y466840D01*
X68822Y466827D01*
X68721Y466786D01*
X68550Y466698D01*
X68375Y466615D01*
X68332Y466586D01*
X68286Y466562D01*
X68131Y466447D01*
X67971Y466338D01*
X67934Y466302D01*
X67893Y466271D01*
X67758Y466132D01*
X67619Y465998D01*
X67588Y465957D01*
X67552Y465920D01*
X67442Y465760D01*
X67326Y465606D01*
X67303Y465560D01*
X67273Y465517D01*
X67190Y465342D01*
X67101Y465171D01*
X67085Y465122D01*
X67063Y465075D01*
X67010Y464889D01*
X66950Y464706D01*
X66942Y464654D01*
X66928Y464605D01*
X66906Y464413D01*
X66877Y464222D01*
X66877Y464170D01*
X66871Y464119D01*
X66880Y463926D01*
X66883Y463732D01*
X66892Y463681D01*
X66894Y463630D01*
X66935Y463441D01*
X66968Y463250D01*
X66986Y463202D01*
X66996Y463151D01*
X67067Y462971D01*
X67131Y462789D01*
X67156Y462744D01*
X67175Y462695D01*
X67274Y462529D01*
X67367Y462360D01*
X67396Y462325D01*
X67426Y462275D01*
X67741Y461901D01*
X67745Y461897D01*
X67748Y461894D01*
X151468Y378174D01*
X152899Y374720D01*
X152899Y336018D01*
X152903Y335971D01*
X152900Y335924D01*
X152923Y335727D01*
X152939Y335531D01*
X152950Y335485D01*
X152955Y335438D01*
X153009Y335248D01*
X153057Y335056D01*
X153076Y335012D01*
X153089Y334967D01*
X153173Y334788D01*
X153252Y334607D01*
X153277Y334567D01*
X153297Y334524D01*
X153410Y334361D01*
X153517Y334195D01*
X153548Y334160D01*
X153575Y334121D01*
X153713Y333978D01*
X153845Y333832D01*
X153882Y333803D01*
X153915Y333769D01*
X154073Y333650D01*
X154228Y333527D01*
X154269Y333504D01*
X154307Y333476D01*
X154482Y333385D01*
X154655Y333289D01*
X154700Y333273D01*
X154742Y333251D01*
X154930Y333190D01*
X155116Y333123D01*
X155162Y333114D01*
X155207Y333100D01*
X155402Y333070D01*
X155597Y333034D01*
X155644Y333033D01*
X155691Y333026D01*
X155889Y333029D01*
X156086Y333025D01*
X156133Y333032D01*
X156180Y333032D01*
X156375Y333067D01*
X156571Y333096D01*
X156616Y333110D01*
X156662Y333118D01*
X156849Y333184D01*
X157037Y333244D01*
X157079Y333265D01*
X157124Y333281D01*
X157297Y333376D01*
X157473Y333466D01*
X157511Y333494D01*
X157553Y333517D01*
X157648Y333595D01*
X157867Y333756D01*
X157952Y333843D01*
X158019Y333898D01*
X159100Y334979D01*
X163253Y336699D01*
X167747Y336699D01*
X171900Y334979D01*
X174379Y332500D01*
X174451Y332438D01*
X174517Y332371D01*
X174637Y332281D01*
X174752Y332183D01*
X174833Y332134D01*
X174909Y332078D01*
X175043Y332009D01*
X175172Y331931D01*
X175260Y331896D01*
X175344Y331853D01*
X175487Y331806D01*
X175627Y331751D01*
X175719Y331731D01*
X175809Y331702D01*
X175958Y331679D01*
X176105Y331647D01*
X176200Y331642D01*
X176293Y331628D01*
X176444Y331630D01*
X176594Y331623D01*
X176688Y331633D01*
X176782Y331634D01*
X176931Y331661D01*
X177081Y331678D01*
X177171Y331704D01*
X177264Y331720D01*
X177406Y331770D01*
X177551Y331811D01*
X177637Y331852D01*
X177726Y331883D01*
X177858Y331956D01*
X177994Y332020D01*
X178072Y332073D01*
X178155Y332119D01*
X178244Y332192D01*
X178397Y332297D01*
X178531Y332426D01*
X178621Y332500D01*
X181100Y334979D01*
X185253Y336699D01*
X189747Y336699D01*
X193900Y334979D01*
X196379Y332500D01*
X196451Y332438D01*
X196517Y332371D01*
X196637Y332281D01*
X196752Y332183D01*
X196833Y332134D01*
X196909Y332078D01*
X197043Y332009D01*
X197172Y331931D01*
X197260Y331896D01*
X197344Y331853D01*
X197487Y331806D01*
X197627Y331751D01*
X197719Y331731D01*
X197809Y331702D01*
X197958Y331679D01*
X198105Y331647D01*
X198200Y331642D01*
X198293Y331628D01*
X198444Y331630D01*
X198594Y331623D01*
X198688Y331633D01*
G37*
%LPC*%
G36*
X24207Y33351D02*
X24207Y33351D01*
X18676Y35642D01*
X14442Y39876D01*
X12151Y45407D01*
X12151Y51393D01*
X14442Y56924D01*
X18676Y61158D01*
X24207Y63449D01*
X28843Y63449D01*
X29035Y63464D01*
X29229Y63474D01*
X29279Y63484D01*
X29331Y63489D01*
X29518Y63535D01*
X29707Y63576D01*
X29755Y63595D01*
X29806Y63607D01*
X29983Y63684D01*
X30163Y63755D01*
X30207Y63781D01*
X30255Y63802D01*
X30417Y63906D01*
X30583Y64005D01*
X30623Y64039D01*
X30667Y64067D01*
X30809Y64196D01*
X30957Y64321D01*
X30991Y64360D01*
X31030Y64395D01*
X31150Y64546D01*
X31275Y64693D01*
X31302Y64737D01*
X31334Y64778D01*
X31428Y64946D01*
X31528Y65112D01*
X31548Y65160D01*
X31573Y65205D01*
X31638Y65387D01*
X31710Y65566D01*
X31721Y65617D01*
X31739Y65666D01*
X31774Y65856D01*
X31815Y66044D01*
X31818Y66096D01*
X31827Y66147D01*
X31831Y66340D01*
X31841Y66533D01*
X31836Y66585D01*
X31837Y66636D01*
X31809Y66827D01*
X31788Y67019D01*
X31775Y67063D01*
X31766Y67121D01*
X31618Y67587D01*
X31615Y67592D01*
X31614Y67596D01*
X28501Y75111D01*
X28501Y82689D01*
X31401Y89690D01*
X36760Y95049D01*
X43761Y97949D01*
X51339Y97949D01*
X58340Y95049D01*
X63699Y89690D01*
X66599Y82689D01*
X66599Y75111D01*
X63699Y68110D01*
X58340Y62751D01*
X51339Y59851D01*
X43234Y59851D01*
X43042Y59836D01*
X42849Y59826D01*
X42798Y59816D01*
X42746Y59811D01*
X42559Y59765D01*
X42370Y59724D01*
X42322Y59705D01*
X42271Y59693D01*
X42094Y59616D01*
X41914Y59545D01*
X41870Y59519D01*
X41822Y59498D01*
X41660Y59394D01*
X41494Y59295D01*
X41454Y59261D01*
X41411Y59233D01*
X41268Y59104D01*
X41120Y58979D01*
X41086Y58940D01*
X41048Y58905D01*
X40927Y58754D01*
X40802Y58607D01*
X40775Y58563D01*
X40743Y58522D01*
X40649Y58353D01*
X40549Y58188D01*
X40530Y58140D01*
X40504Y58095D01*
X40439Y57913D01*
X40367Y57734D01*
X40356Y57683D01*
X40339Y57634D01*
X40304Y57444D01*
X40262Y57256D01*
X40259Y57204D01*
X40250Y57153D01*
X40246Y56960D01*
X40236Y56767D01*
X40242Y56715D01*
X40241Y56664D01*
X40269Y56473D01*
X40290Y56281D01*
X40303Y56237D01*
X40311Y56179D01*
X40460Y55713D01*
X40462Y55708D01*
X40463Y55704D01*
X42249Y51393D01*
X42249Y45407D01*
X39958Y39876D01*
X35724Y35642D01*
X30193Y33351D01*
X24207Y33351D01*
G37*
%LPD*%
%LPC*%
G36*
X179207Y33351D02*
X179207Y33351D01*
X173676Y35642D01*
X169442Y39876D01*
X167151Y45407D01*
X167151Y51393D01*
X168937Y55704D01*
X168996Y55888D01*
X169061Y56070D01*
X169071Y56121D01*
X169087Y56170D01*
X169115Y56361D01*
X169150Y56551D01*
X169151Y56603D01*
X169159Y56654D01*
X169156Y56847D01*
X169159Y57040D01*
X169152Y57092D01*
X169151Y57144D01*
X169117Y57334D01*
X169089Y57525D01*
X169073Y57574D01*
X169064Y57625D01*
X168999Y57808D01*
X168940Y57991D01*
X168917Y58037D01*
X168899Y58086D01*
X168806Y58255D01*
X168718Y58427D01*
X168687Y58469D01*
X168662Y58514D01*
X168543Y58666D01*
X168428Y58821D01*
X168391Y58858D01*
X168359Y58898D01*
X168216Y59028D01*
X168078Y59163D01*
X168035Y59193D01*
X167997Y59228D01*
X167835Y59333D01*
X167676Y59443D01*
X167629Y59466D01*
X167586Y59494D01*
X167409Y59571D01*
X167235Y59654D01*
X167185Y59669D01*
X167137Y59690D01*
X166950Y59737D01*
X166765Y59791D01*
X166720Y59795D01*
X166663Y59810D01*
X166175Y59851D01*
X166170Y59851D01*
X166166Y59851D01*
X158061Y59851D01*
X151060Y62751D01*
X145701Y68110D01*
X142801Y75111D01*
X142801Y82689D01*
X145701Y89690D01*
X151060Y95049D01*
X158061Y97949D01*
X165639Y97949D01*
X172640Y95049D01*
X177999Y89690D01*
X180899Y82689D01*
X180899Y75111D01*
X177786Y67596D01*
X177727Y67412D01*
X177661Y67230D01*
X177652Y67179D01*
X177636Y67130D01*
X177608Y66939D01*
X177573Y66749D01*
X177572Y66697D01*
X177564Y66646D01*
X177567Y66453D01*
X177563Y66260D01*
X177571Y66208D01*
X177572Y66156D01*
X177606Y65967D01*
X177634Y65775D01*
X177650Y65726D01*
X177659Y65675D01*
X177724Y65493D01*
X177782Y65309D01*
X177806Y65263D01*
X177823Y65214D01*
X177917Y65045D01*
X178004Y64873D01*
X178035Y64831D01*
X178060Y64786D01*
X178180Y64634D01*
X178295Y64479D01*
X178332Y64442D01*
X178364Y64402D01*
X178507Y64272D01*
X178645Y64137D01*
X178688Y64107D01*
X178726Y64072D01*
X178888Y63968D01*
X179046Y63857D01*
X179093Y63834D01*
X179137Y63806D01*
X179313Y63729D01*
X179488Y63646D01*
X179538Y63631D01*
X179585Y63610D01*
X179772Y63563D01*
X179958Y63509D01*
X180003Y63505D01*
X180060Y63490D01*
X180547Y63449D01*
X180553Y63449D01*
X180557Y63449D01*
X185193Y63449D01*
X190724Y61158D01*
X194958Y56924D01*
X197249Y51393D01*
X197249Y45407D01*
X194958Y39876D01*
X190724Y35642D01*
X185193Y33351D01*
X179207Y33351D01*
G37*
%LPD*%
G36*
X151068Y256415D02*
X151068Y256415D01*
X151116Y256414D01*
X151311Y256442D01*
X151507Y256464D01*
X151553Y256477D01*
X151601Y256484D01*
X151788Y256544D01*
X151978Y256598D01*
X152021Y256618D01*
X152067Y256633D01*
X152242Y256722D01*
X152421Y256806D01*
X152460Y256833D01*
X152503Y256855D01*
X152662Y256971D01*
X152824Y257083D01*
X152859Y257116D01*
X152897Y257145D01*
X153035Y257286D01*
X153177Y257422D01*
X153205Y257461D01*
X153239Y257495D01*
X153352Y257657D01*
X153470Y257815D01*
X153492Y257857D01*
X153519Y257897D01*
X153604Y258074D01*
X153695Y258249D01*
X153710Y258295D01*
X153730Y258338D01*
X153785Y258527D01*
X153846Y258714D01*
X153853Y258762D01*
X153867Y258808D01*
X153879Y258931D01*
X153920Y259198D01*
X153919Y259320D01*
X153927Y259407D01*
X153927Y261332D01*
X154852Y263564D01*
X156560Y265272D01*
X158792Y266197D01*
X161208Y266197D01*
X163471Y265259D01*
X163494Y265237D01*
X163579Y265178D01*
X163658Y265111D01*
X163779Y265038D01*
X163895Y264957D01*
X163989Y264912D01*
X164078Y264859D01*
X164209Y264807D01*
X164337Y264746D01*
X164436Y264717D01*
X164533Y264679D01*
X164671Y264649D01*
X164807Y264609D01*
X164893Y264600D01*
X165011Y264575D01*
X165283Y264561D01*
X165406Y264549D01*
X194919Y264549D01*
X194966Y264553D01*
X195013Y264550D01*
X195210Y264573D01*
X195406Y264589D01*
X195452Y264600D01*
X195499Y264605D01*
X195689Y264659D01*
X195881Y264707D01*
X195925Y264726D01*
X195970Y264739D01*
X196149Y264823D01*
X196330Y264902D01*
X196370Y264927D01*
X196413Y264947D01*
X196576Y265060D01*
X196742Y265167D01*
X196777Y265198D01*
X196816Y265225D01*
X196958Y265362D01*
X197105Y265495D01*
X197134Y265532D01*
X197168Y265565D01*
X197287Y265723D01*
X197410Y265878D01*
X197433Y265919D01*
X197461Y265957D01*
X197552Y266132D01*
X197648Y266305D01*
X197664Y266350D01*
X197686Y266392D01*
X197747Y266579D01*
X197814Y266766D01*
X197823Y266812D01*
X197837Y266857D01*
X197867Y267052D01*
X197903Y267247D01*
X197904Y267294D01*
X197911Y267341D01*
X197908Y267539D01*
X197912Y267736D01*
X197905Y267783D01*
X197905Y267830D01*
X197870Y268025D01*
X197841Y268221D01*
X197827Y268266D01*
X197819Y268312D01*
X197753Y268499D01*
X197693Y268687D01*
X197672Y268729D01*
X197656Y268774D01*
X197561Y268947D01*
X197471Y269123D01*
X197443Y269161D01*
X197420Y269203D01*
X197342Y269298D01*
X197181Y269517D01*
X197094Y269602D01*
X197039Y269669D01*
X193598Y273110D01*
X190532Y276176D01*
X189101Y279630D01*
X189101Y279782D01*
X189097Y279829D01*
X189100Y279876D01*
X189095Y279917D01*
X189095Y279930D01*
X189088Y279983D01*
X189077Y280073D01*
X189061Y280269D01*
X189050Y280315D01*
X189045Y280362D01*
X188991Y280552D01*
X188943Y280744D01*
X188924Y280788D01*
X188911Y280833D01*
X188827Y281012D01*
X188748Y281193D01*
X188723Y281233D01*
X188703Y281276D01*
X188590Y281439D01*
X188483Y281605D01*
X188452Y281640D01*
X188425Y281679D01*
X188287Y281822D01*
X188155Y281968D01*
X188118Y281997D01*
X188085Y282031D01*
X187927Y282150D01*
X187772Y282273D01*
X187731Y282296D01*
X187693Y282324D01*
X187518Y282415D01*
X187345Y282511D01*
X187300Y282527D01*
X187258Y282549D01*
X187070Y282610D01*
X186884Y282677D01*
X186838Y282686D01*
X186793Y282700D01*
X186598Y282730D01*
X186403Y282766D01*
X186356Y282767D01*
X186309Y282774D01*
X186111Y282771D01*
X185914Y282775D01*
X185867Y282768D01*
X185820Y282768D01*
X185625Y282733D01*
X185429Y282704D01*
X185384Y282690D01*
X185338Y282682D01*
X185151Y282616D01*
X184963Y282556D01*
X184921Y282535D01*
X184876Y282519D01*
X184703Y282424D01*
X184527Y282334D01*
X184489Y282306D01*
X184447Y282283D01*
X184352Y282205D01*
X184252Y282131D01*
X184239Y282123D01*
X184232Y282117D01*
X184133Y282044D01*
X184048Y281957D01*
X183981Y281902D01*
X182900Y280821D01*
X178747Y279101D01*
X174253Y279101D01*
X170100Y280821D01*
X167621Y283300D01*
X167549Y283361D01*
X167483Y283429D01*
X167363Y283520D01*
X167248Y283617D01*
X167167Y283666D01*
X167091Y283722D01*
X166957Y283791D01*
X166828Y283869D01*
X166740Y283904D01*
X166656Y283947D01*
X166513Y283994D01*
X166373Y284049D01*
X166281Y284069D01*
X166191Y284098D01*
X166042Y284121D01*
X165895Y284153D01*
X165800Y284158D01*
X165707Y284172D01*
X165556Y284170D01*
X165406Y284177D01*
X165312Y284167D01*
X165218Y284166D01*
X165069Y284139D01*
X164919Y284122D01*
X164829Y284096D01*
X164736Y284080D01*
X164594Y284030D01*
X164449Y283989D01*
X164363Y283948D01*
X164274Y283917D01*
X164142Y283844D01*
X164006Y283780D01*
X163928Y283727D01*
X163845Y283681D01*
X163755Y283608D01*
X163603Y283502D01*
X163469Y283374D01*
X163379Y283300D01*
X160900Y280821D01*
X156747Y279101D01*
X152253Y279101D01*
X148100Y280821D01*
X145242Y283679D01*
X145177Y283734D01*
X145119Y283796D01*
X144991Y283892D01*
X144869Y283996D01*
X144796Y284039D01*
X144728Y284091D01*
X144586Y284165D01*
X144449Y284247D01*
X144370Y284279D01*
X144295Y284318D01*
X144143Y284369D01*
X143994Y284428D01*
X143911Y284446D01*
X143831Y284472D01*
X143672Y284497D01*
X143516Y284531D01*
X143431Y284536D01*
X143347Y284549D01*
X143187Y284548D01*
X143027Y284556D01*
X142943Y284546D01*
X142858Y284546D01*
X142700Y284519D01*
X142541Y284501D01*
X142459Y284478D01*
X142375Y284463D01*
X142224Y284411D01*
X142070Y284367D01*
X141993Y284331D01*
X141913Y284303D01*
X141772Y284227D01*
X141627Y284159D01*
X141557Y284111D01*
X141482Y284070D01*
X141356Y283972D01*
X141224Y283881D01*
X141163Y283822D01*
X141096Y283770D01*
X141016Y283680D01*
X140872Y283542D01*
X140782Y283422D01*
X139530Y282169D01*
X138156Y281171D01*
X136642Y280400D01*
X135499Y280029D01*
X135499Y290400D01*
X135492Y290494D01*
X135493Y290588D01*
X135472Y290737D01*
X135459Y290887D01*
X135437Y290979D01*
X135423Y291072D01*
X135377Y291216D01*
X135341Y291362D01*
X135303Y291449D01*
X135275Y291539D01*
X135206Y291673D01*
X135146Y291811D01*
X135095Y291891D01*
X135052Y291975D01*
X134963Y292097D01*
X134881Y292223D01*
X134818Y292293D01*
X134762Y292369D01*
X134654Y292474D01*
X134553Y292586D01*
X134480Y292645D01*
X134412Y292711D01*
X134288Y292797D01*
X134170Y292891D01*
X134088Y292937D01*
X134011Y292991D01*
X133874Y293056D01*
X133743Y293129D01*
X133654Y293161D01*
X133569Y293202D01*
X133424Y293244D01*
X133282Y293295D01*
X133189Y293312D01*
X133099Y293339D01*
X132984Y293350D01*
X132801Y293384D01*
X132616Y293387D01*
X132500Y293399D01*
X132406Y293391D01*
X132312Y293393D01*
X132311Y293393D01*
X132162Y293371D01*
X132012Y293359D01*
X131921Y293336D01*
X131827Y293323D01*
X131683Y293277D01*
X131537Y293240D01*
X131451Y293203D01*
X131361Y293174D01*
X131226Y293106D01*
X131088Y293046D01*
X131009Y292995D01*
X130925Y292952D01*
X130803Y292862D01*
X130676Y292781D01*
X130607Y292718D01*
X130530Y292662D01*
X130425Y292554D01*
X130313Y292453D01*
X130255Y292379D01*
X130189Y292311D01*
X130102Y292188D01*
X130009Y292070D01*
X129963Y291987D01*
X129909Y291910D01*
X129844Y291774D01*
X129770Y291642D01*
X129738Y291554D01*
X129697Y291469D01*
X129655Y291324D01*
X129604Y291182D01*
X129587Y291089D01*
X129561Y290999D01*
X129549Y290883D01*
X129516Y290701D01*
X129512Y290515D01*
X129501Y290400D01*
X129501Y280029D01*
X128358Y280400D01*
X126844Y281171D01*
X125470Y282169D01*
X124240Y283400D01*
X124201Y283455D01*
X124091Y283571D01*
X123986Y283692D01*
X123921Y283747D01*
X123862Y283808D01*
X123734Y283904D01*
X123611Y284007D01*
X123538Y284050D01*
X123470Y284101D01*
X123328Y284174D01*
X123190Y284256D01*
X123110Y284286D01*
X123035Y284326D01*
X122883Y284375D01*
X122734Y284433D01*
X122650Y284450D01*
X122569Y284477D01*
X122411Y284501D01*
X122255Y284534D01*
X122170Y284538D01*
X122086Y284550D01*
X121926Y284548D01*
X121766Y284555D01*
X121681Y284545D01*
X121596Y284544D01*
X121438Y284516D01*
X121280Y284497D01*
X121198Y284473D01*
X121114Y284458D01*
X120963Y284405D01*
X120810Y284361D01*
X120733Y284324D01*
X120653Y284296D01*
X120513Y284218D01*
X120368Y284149D01*
X120298Y284101D01*
X120224Y284060D01*
X120131Y283984D01*
X119967Y283869D01*
X119844Y283749D01*
X119758Y283679D01*
X116900Y280821D01*
X112747Y279101D01*
X108572Y279101D01*
X108525Y279097D01*
X108478Y279100D01*
X108281Y279077D01*
X108085Y279061D01*
X108039Y279050D01*
X107992Y279045D01*
X107802Y278991D01*
X107610Y278943D01*
X107566Y278924D01*
X107521Y278911D01*
X107342Y278827D01*
X107161Y278748D01*
X107121Y278723D01*
X107078Y278703D01*
X106915Y278590D01*
X106749Y278483D01*
X106714Y278452D01*
X106675Y278425D01*
X106533Y278288D01*
X106386Y278155D01*
X106357Y278118D01*
X106323Y278085D01*
X106205Y277927D01*
X106081Y277772D01*
X106058Y277731D01*
X106030Y277693D01*
X105939Y277518D01*
X105843Y277345D01*
X105827Y277300D01*
X105805Y277258D01*
X105744Y277070D01*
X105677Y276884D01*
X105668Y276838D01*
X105654Y276793D01*
X105624Y276598D01*
X105588Y276403D01*
X105587Y276356D01*
X105580Y276309D01*
X105583Y276111D01*
X105579Y275914D01*
X105586Y275867D01*
X105586Y275820D01*
X105621Y275625D01*
X105650Y275429D01*
X105664Y275384D01*
X105672Y275338D01*
X105738Y275151D01*
X105798Y274963D01*
X105819Y274921D01*
X105835Y274876D01*
X105930Y274703D01*
X106020Y274527D01*
X106048Y274489D01*
X106071Y274447D01*
X106149Y274352D01*
X106310Y274133D01*
X106397Y274048D01*
X106452Y273981D01*
X120447Y259986D01*
X120555Y259894D01*
X120656Y259795D01*
X120742Y259736D01*
X120820Y259669D01*
X120942Y259596D01*
X121058Y259515D01*
X121151Y259470D01*
X121240Y259417D01*
X121372Y259365D01*
X121499Y259304D01*
X121599Y259275D01*
X121695Y259237D01*
X121834Y259207D01*
X121969Y259168D01*
X122047Y259160D01*
X124507Y258141D01*
X124621Y258072D01*
X124737Y257991D01*
X124831Y257946D01*
X124919Y257893D01*
X125051Y257841D01*
X125179Y257780D01*
X125278Y257751D01*
X125374Y257713D01*
X125513Y257683D01*
X125649Y257644D01*
X125734Y257635D01*
X125853Y257609D01*
X126125Y257596D01*
X126247Y257583D01*
X147531Y257583D01*
X149555Y256745D01*
X149598Y256719D01*
X149643Y256701D01*
X149685Y256677D01*
X149870Y256611D01*
X150053Y256538D01*
X150100Y256528D01*
X150146Y256512D01*
X150340Y256476D01*
X150532Y256434D01*
X150580Y256432D01*
X150627Y256423D01*
X150824Y256419D01*
X151020Y256409D01*
X151068Y256415D01*
G37*
G36*
X368746Y281956D02*
X368746Y281956D01*
X368840Y281955D01*
X368990Y281976D01*
X369140Y281989D01*
X369231Y282012D01*
X369325Y282025D01*
X369468Y282071D01*
X369615Y282107D01*
X369701Y282145D01*
X369791Y282173D01*
X369926Y282242D01*
X370064Y282302D01*
X370143Y282353D01*
X370227Y282396D01*
X370349Y282485D01*
X370475Y282567D01*
X370545Y282630D01*
X370621Y282686D01*
X370727Y282794D01*
X370838Y282895D01*
X370897Y282969D01*
X370963Y283036D01*
X371049Y283160D01*
X371143Y283278D01*
X371189Y283360D01*
X371243Y283438D01*
X371308Y283574D01*
X371382Y283705D01*
X371414Y283794D01*
X371454Y283879D01*
X371496Y284024D01*
X371547Y284166D01*
X371557Y284219D01*
X373437Y286099D01*
X400363Y286099D01*
X402110Y284351D01*
X402218Y284260D01*
X402319Y284161D01*
X402404Y284102D01*
X402483Y284035D01*
X402605Y283962D01*
X402721Y283881D01*
X402814Y283836D01*
X402903Y283783D01*
X403034Y283731D01*
X403162Y283670D01*
X403262Y283641D01*
X403358Y283603D01*
X403496Y283573D01*
X403632Y283533D01*
X403718Y283524D01*
X403837Y283499D01*
X404108Y283485D01*
X404231Y283473D01*
X405208Y283473D01*
X407541Y282506D01*
X407655Y282438D01*
X407771Y282357D01*
X407865Y282312D01*
X407953Y282259D01*
X408085Y282207D01*
X408213Y282146D01*
X408312Y282117D01*
X408409Y282079D01*
X408547Y282049D01*
X408683Y282009D01*
X408769Y282000D01*
X408887Y281975D01*
X409159Y281961D01*
X409282Y281949D01*
X421394Y281949D01*
X421534Y281960D01*
X421676Y281962D01*
X421778Y281980D01*
X421881Y281989D01*
X422018Y282023D01*
X422158Y282048D01*
X422255Y282082D01*
X422356Y282107D01*
X422486Y282164D01*
X422619Y282211D01*
X422710Y282261D01*
X422805Y282302D01*
X422924Y282378D01*
X423048Y282446D01*
X423115Y282501D01*
X423217Y282567D01*
X423418Y282749D01*
X423514Y282827D01*
X428072Y287385D01*
X428163Y287492D01*
X428262Y287594D01*
X428321Y287679D01*
X428388Y287758D01*
X428461Y287879D01*
X428542Y287995D01*
X428587Y288089D01*
X428640Y288178D01*
X428692Y288309D01*
X428753Y288437D01*
X428782Y288536D01*
X428820Y288633D01*
X428850Y288771D01*
X428890Y288907D01*
X428899Y288993D01*
X428924Y289111D01*
X428938Y289383D01*
X428950Y289505D01*
X428950Y315234D01*
X429045Y315353D01*
X429173Y315504D01*
X429198Y315545D01*
X429227Y315582D01*
X429324Y315755D01*
X429425Y315924D01*
X429442Y315968D01*
X429466Y316009D01*
X429533Y316196D01*
X429605Y316379D01*
X429615Y316425D01*
X429631Y316470D01*
X429667Y316664D01*
X429709Y316857D01*
X429711Y316905D01*
X429720Y316951D01*
X429724Y317148D01*
X429734Y317346D01*
X429728Y317393D01*
X429729Y317440D01*
X429701Y317636D01*
X429678Y317833D01*
X429666Y317878D01*
X429659Y317925D01*
X429599Y318113D01*
X429545Y318303D01*
X429525Y318346D01*
X429510Y318391D01*
X429421Y318567D01*
X429336Y318746D01*
X429310Y318785D01*
X429288Y318827D01*
X429171Y318986D01*
X429059Y319149D01*
X429026Y319183D01*
X428998Y319221D01*
X428857Y319359D01*
X428719Y319502D01*
X428681Y319530D01*
X428648Y319563D01*
X428485Y319676D01*
X428327Y319794D01*
X428285Y319816D01*
X428246Y319843D01*
X428068Y319929D01*
X427892Y320019D01*
X427847Y320034D01*
X427805Y320054D01*
X427615Y320110D01*
X427427Y320171D01*
X427380Y320178D01*
X427335Y320191D01*
X427212Y320203D01*
X426943Y320244D01*
X426822Y320243D01*
X426736Y320251D01*
X422326Y320251D01*
X422186Y320240D01*
X422044Y320238D01*
X421942Y320220D01*
X421839Y320211D01*
X421702Y320177D01*
X421562Y320152D01*
X421465Y320118D01*
X421364Y320093D01*
X421234Y320036D01*
X421101Y319989D01*
X421010Y319939D01*
X420915Y319898D01*
X420796Y319822D01*
X420672Y319754D01*
X420605Y319699D01*
X420503Y319633D01*
X420302Y319451D01*
X420206Y319373D01*
X403027Y302194D01*
X402936Y302087D01*
X402837Y301985D01*
X402777Y301900D01*
X402711Y301821D01*
X402638Y301700D01*
X402557Y301584D01*
X402512Y301490D01*
X402459Y301401D01*
X402407Y301270D01*
X402346Y301142D01*
X402317Y301043D01*
X402279Y300946D01*
X402249Y300808D01*
X402209Y300672D01*
X402200Y300586D01*
X402175Y300468D01*
X402161Y300196D01*
X402149Y300074D01*
X402149Y295887D01*
X400363Y294101D01*
X373072Y294101D01*
X372999Y294125D01*
X372859Y294181D01*
X372766Y294201D01*
X372677Y294230D01*
X372528Y294252D01*
X372380Y294284D01*
X372286Y294289D01*
X372193Y294303D01*
X372042Y294301D01*
X371891Y294309D01*
X371798Y294298D01*
X371703Y294297D01*
X371555Y294271D01*
X371405Y294254D01*
X371314Y294228D01*
X371221Y294211D01*
X371079Y294161D01*
X370934Y294120D01*
X370849Y294080D01*
X370760Y294049D01*
X370628Y293976D01*
X370491Y293912D01*
X370414Y293858D01*
X370331Y293813D01*
X370241Y293739D01*
X370088Y293634D01*
X369955Y293505D01*
X369865Y293432D01*
X363502Y287069D01*
X363471Y287033D01*
X363436Y287001D01*
X363313Y286846D01*
X363185Y286696D01*
X363161Y286655D01*
X363131Y286618D01*
X363035Y286445D01*
X362933Y286276D01*
X362916Y286232D01*
X362893Y286191D01*
X362826Y286005D01*
X362753Y285821D01*
X362743Y285775D01*
X362727Y285730D01*
X362691Y285536D01*
X362649Y285343D01*
X362647Y285295D01*
X362638Y285249D01*
X362635Y285051D01*
X362625Y284854D01*
X362630Y284807D01*
X362629Y284760D01*
X362658Y284564D01*
X362680Y284367D01*
X362693Y284322D01*
X362700Y284275D01*
X362760Y284087D01*
X362813Y283897D01*
X362834Y283854D01*
X362848Y283809D01*
X362938Y283632D01*
X363022Y283454D01*
X363049Y283415D01*
X363070Y283373D01*
X363188Y283213D01*
X363300Y283051D01*
X363332Y283017D01*
X363360Y282979D01*
X363502Y282840D01*
X363639Y282698D01*
X363677Y282670D01*
X363711Y282637D01*
X363873Y282523D01*
X364031Y282406D01*
X364073Y282384D01*
X364112Y282357D01*
X364291Y282271D01*
X364466Y282181D01*
X364511Y282166D01*
X364554Y282146D01*
X364744Y282090D01*
X364932Y282029D01*
X364978Y282022D01*
X365024Y282009D01*
X365146Y281997D01*
X365415Y281956D01*
X365536Y281957D01*
X365622Y281949D01*
X368652Y281949D01*
X368746Y281956D01*
G37*
G36*
X282746Y219556D02*
X282746Y219556D01*
X282840Y219555D01*
X282990Y219576D01*
X283140Y219589D01*
X283231Y219612D01*
X283325Y219625D01*
X283468Y219671D01*
X283615Y219707D01*
X283701Y219745D01*
X283791Y219773D01*
X283926Y219842D01*
X284064Y219902D01*
X284143Y219953D01*
X284227Y219996D01*
X284349Y220085D01*
X284475Y220167D01*
X284545Y220230D01*
X284621Y220286D01*
X284727Y220394D01*
X284838Y220495D01*
X284897Y220569D01*
X284963Y220636D01*
X285049Y220760D01*
X285143Y220878D01*
X285189Y220960D01*
X285243Y221038D01*
X285308Y221174D01*
X285382Y221305D01*
X285414Y221394D01*
X285454Y221479D01*
X285496Y221624D01*
X285547Y221766D01*
X285565Y221859D01*
X285591Y221949D01*
X285602Y222064D01*
X285636Y222247D01*
X285640Y222433D01*
X285651Y222548D01*
X285651Y226674D01*
X285640Y226814D01*
X285638Y226956D01*
X285620Y227058D01*
X285611Y227161D01*
X285577Y227298D01*
X285552Y227438D01*
X285518Y227535D01*
X285493Y227636D01*
X285436Y227766D01*
X285389Y227899D01*
X285339Y227990D01*
X285298Y228085D01*
X285222Y228204D01*
X285154Y228328D01*
X285099Y228395D01*
X285033Y228497D01*
X284851Y228698D01*
X284773Y228794D01*
X278651Y234916D01*
X277666Y235901D01*
X275451Y241248D01*
X275451Y255252D01*
X276637Y258113D01*
X276681Y258252D01*
X276735Y258388D01*
X276756Y258485D01*
X276786Y258579D01*
X276808Y258724D01*
X276839Y258867D01*
X276844Y258966D01*
X276858Y259063D01*
X276856Y259209D01*
X276863Y259355D01*
X276852Y259454D01*
X276851Y259553D01*
X276825Y259696D01*
X276808Y259842D01*
X276781Y259937D01*
X276764Y260034D01*
X276714Y260172D01*
X276675Y260313D01*
X276632Y260402D01*
X276599Y260495D01*
X276528Y260623D01*
X276466Y260755D01*
X276410Y260837D01*
X276362Y260924D01*
X276271Y261038D01*
X276189Y261158D01*
X276120Y261230D01*
X276058Y261307D01*
X275950Y261406D01*
X275849Y261511D01*
X275770Y261570D01*
X275696Y261637D01*
X275574Y261716D01*
X275457Y261804D01*
X275369Y261849D01*
X275286Y261903D01*
X275152Y261961D01*
X275022Y262029D01*
X274928Y262059D01*
X274837Y262099D01*
X274696Y262135D01*
X274557Y262180D01*
X274459Y262195D01*
X274363Y262219D01*
X274217Y262231D01*
X274073Y262253D01*
X273974Y262252D01*
X273875Y262260D01*
X273729Y262249D01*
X273583Y262247D01*
X273486Y262230D01*
X273387Y262222D01*
X273245Y262187D01*
X273101Y262161D01*
X273008Y262128D01*
X272912Y262105D01*
X272778Y262047D01*
X272640Y261998D01*
X272553Y261951D01*
X272462Y261912D01*
X272339Y261833D01*
X272211Y261763D01*
X272147Y261710D01*
X272050Y261648D01*
X271839Y261459D01*
X271745Y261382D01*
X268358Y257995D01*
X266657Y256294D01*
X264985Y255601D01*
X261864Y255601D01*
X261821Y255598D01*
X261779Y255600D01*
X261577Y255578D01*
X261376Y255561D01*
X261334Y255551D01*
X261292Y255546D01*
X261176Y255511D01*
X260936Y255451D01*
X245422Y255451D01*
X245375Y255447D01*
X245328Y255450D01*
X245131Y255427D01*
X244935Y255411D01*
X244889Y255400D01*
X244842Y255395D01*
X244652Y255341D01*
X244460Y255293D01*
X244416Y255274D01*
X244371Y255261D01*
X244192Y255177D01*
X244011Y255098D01*
X243971Y255073D01*
X243928Y255053D01*
X243765Y254940D01*
X243599Y254833D01*
X243564Y254802D01*
X243525Y254775D01*
X243383Y254638D01*
X243236Y254505D01*
X243207Y254468D01*
X243173Y254435D01*
X243055Y254277D01*
X242931Y254122D01*
X242908Y254081D01*
X242880Y254043D01*
X242789Y253868D01*
X242693Y253695D01*
X242677Y253650D01*
X242655Y253608D01*
X242594Y253421D01*
X242527Y253234D01*
X242518Y253188D01*
X242504Y253143D01*
X242474Y252948D01*
X242438Y252753D01*
X242437Y252706D01*
X242430Y252659D01*
X242433Y252461D01*
X242429Y252264D01*
X242436Y252217D01*
X242436Y252170D01*
X242471Y251975D01*
X242500Y251779D01*
X242514Y251734D01*
X242522Y251688D01*
X242588Y251501D01*
X242648Y251313D01*
X242669Y251271D01*
X242685Y251226D01*
X242780Y251053D01*
X242870Y250877D01*
X242898Y250839D01*
X242921Y250797D01*
X242999Y250702D01*
X243160Y250483D01*
X243247Y250398D01*
X243302Y250331D01*
X273206Y220427D01*
X273313Y220336D01*
X273415Y220237D01*
X273500Y220177D01*
X273579Y220111D01*
X273700Y220038D01*
X273816Y219957D01*
X273910Y219912D01*
X273999Y219859D01*
X274130Y219807D01*
X274258Y219746D01*
X274357Y219717D01*
X274454Y219679D01*
X274592Y219649D01*
X274728Y219609D01*
X274814Y219600D01*
X274932Y219575D01*
X275204Y219561D01*
X275326Y219549D01*
X282652Y219549D01*
X282746Y219556D01*
G37*
%LPC*%
G36*
X121801Y158001D02*
X121801Y158001D01*
X118199Y159493D01*
X115443Y162249D01*
X113821Y166166D01*
X113799Y166208D01*
X113784Y166252D01*
X113688Y166425D01*
X113597Y166601D01*
X113569Y166639D01*
X113546Y166680D01*
X113424Y166835D01*
X113306Y166994D01*
X113272Y167027D01*
X113243Y167064D01*
X113097Y167197D01*
X112955Y167335D01*
X112916Y167362D01*
X112881Y167393D01*
X112715Y167501D01*
X112552Y167614D01*
X112510Y167634D01*
X112470Y167660D01*
X112289Y167739D01*
X112153Y167803D01*
X112186Y167817D01*
X112370Y167889D01*
X112410Y167913D01*
X112454Y167932D01*
X112620Y168038D01*
X112790Y168139D01*
X112826Y168170D01*
X112866Y168195D01*
X113013Y168327D01*
X113164Y168455D01*
X113195Y168491D01*
X113230Y168522D01*
X113354Y168677D01*
X113482Y168827D01*
X113506Y168867D01*
X113536Y168904D01*
X113595Y169013D01*
X113735Y169246D01*
X113780Y169358D01*
X113821Y169434D01*
X115443Y173351D01*
X118199Y176107D01*
X121801Y177599D01*
X125699Y177599D01*
X129301Y176107D01*
X132057Y173351D01*
X133679Y169434D01*
X133701Y169392D01*
X133717Y169348D01*
X133812Y169175D01*
X133903Y168999D01*
X133931Y168961D01*
X133954Y168920D01*
X134077Y168764D01*
X134194Y168606D01*
X134228Y168573D01*
X134257Y168536D01*
X134404Y168403D01*
X134546Y168265D01*
X134584Y168238D01*
X134619Y168207D01*
X134785Y168099D01*
X134948Y167986D01*
X134990Y167966D01*
X135030Y167940D01*
X135211Y167861D01*
X135347Y167797D01*
X135314Y167783D01*
X135130Y167711D01*
X135090Y167687D01*
X135046Y167668D01*
X134879Y167562D01*
X134710Y167461D01*
X134674Y167430D01*
X134634Y167405D01*
X134487Y167272D01*
X134336Y167145D01*
X134305Y167109D01*
X134270Y167078D01*
X134146Y166923D01*
X134018Y166773D01*
X133994Y166733D01*
X133964Y166696D01*
X133905Y166587D01*
X133765Y166354D01*
X133720Y166242D01*
X133679Y166166D01*
X132057Y162249D01*
X129301Y159493D01*
X125699Y158001D01*
X121801Y158001D01*
G37*
%LPD*%
%LPC*%
G36*
X147201Y158001D02*
X147201Y158001D01*
X143599Y159493D01*
X140843Y162249D01*
X139221Y166166D01*
X139199Y166208D01*
X139184Y166252D01*
X139088Y166425D01*
X138997Y166601D01*
X138969Y166639D01*
X138946Y166680D01*
X138824Y166835D01*
X138706Y166994D01*
X138672Y167027D01*
X138643Y167064D01*
X138497Y167197D01*
X138355Y167335D01*
X138316Y167362D01*
X138281Y167393D01*
X138115Y167501D01*
X137952Y167614D01*
X137910Y167634D01*
X137870Y167660D01*
X137689Y167739D01*
X137553Y167803D01*
X137586Y167817D01*
X137770Y167889D01*
X137810Y167913D01*
X137854Y167932D01*
X138020Y168038D01*
X138190Y168139D01*
X138226Y168170D01*
X138266Y168195D01*
X138413Y168327D01*
X138564Y168455D01*
X138595Y168491D01*
X138630Y168522D01*
X138754Y168677D01*
X138882Y168827D01*
X138906Y168867D01*
X138936Y168904D01*
X138995Y169013D01*
X139135Y169246D01*
X139180Y169358D01*
X139221Y169434D01*
X140843Y173351D01*
X143599Y176107D01*
X147201Y177599D01*
X151099Y177599D01*
X154701Y176107D01*
X157457Y173351D01*
X158949Y169749D01*
X158949Y165851D01*
X157457Y162249D01*
X154701Y159493D01*
X151099Y158001D01*
X147201Y158001D01*
G37*
%LPD*%
%LPC*%
G36*
X134501Y132601D02*
X134501Y132601D01*
X130899Y134093D01*
X128143Y136849D01*
X126651Y140451D01*
X126651Y144349D01*
X128143Y147951D01*
X130899Y150707D01*
X134501Y152199D01*
X138399Y152199D01*
X142001Y150707D01*
X144757Y147951D01*
X146249Y144349D01*
X146249Y140451D01*
X144757Y136849D01*
X142001Y134093D01*
X138399Y132601D01*
X134501Y132601D01*
G37*
%LPD*%
%LPC*%
G36*
X513299Y216149D02*
X513299Y216149D01*
X513299Y243651D01*
X527047Y243651D01*
X526381Y241746D01*
X525376Y239660D01*
X524144Y237699D01*
X522700Y235888D01*
X521062Y234250D01*
X519251Y232806D01*
X518668Y232440D01*
X518642Y232420D01*
X518614Y232405D01*
X518446Y232273D01*
X518276Y232146D01*
X518254Y232123D01*
X518228Y232103D01*
X518084Y231946D01*
X517938Y231793D01*
X517919Y231766D01*
X517897Y231742D01*
X517781Y231564D01*
X517661Y231390D01*
X517647Y231360D01*
X517629Y231333D01*
X517543Y231138D01*
X517453Y230946D01*
X517444Y230915D01*
X517431Y230885D01*
X517378Y230679D01*
X517320Y230475D01*
X517317Y230443D01*
X517309Y230412D01*
X517289Y230200D01*
X517266Y229989D01*
X517268Y229956D01*
X517265Y229924D01*
X517280Y229712D01*
X517291Y229500D01*
X517298Y229469D01*
X517301Y229436D01*
X517351Y229229D01*
X517396Y229022D01*
X517408Y228992D01*
X517416Y228960D01*
X517498Y228765D01*
X517577Y228567D01*
X517594Y228539D01*
X517606Y228510D01*
X517720Y228330D01*
X517829Y228148D01*
X517851Y228123D01*
X517868Y228096D01*
X518009Y227937D01*
X518147Y227775D01*
X518172Y227754D01*
X518193Y227730D01*
X518283Y227661D01*
X518521Y227459D01*
X518609Y227407D01*
X518668Y227360D01*
X519252Y226994D01*
X521062Y225550D01*
X522700Y223912D01*
X524144Y222101D01*
X525376Y220140D01*
X526381Y218054D01*
X527047Y216149D01*
X513299Y216149D01*
G37*
%LPD*%
%LPC*%
G36*
X487553Y216149D02*
X487553Y216149D01*
X488219Y218054D01*
X489224Y220140D01*
X490456Y222101D01*
X491900Y223912D01*
X493538Y225550D01*
X495348Y226994D01*
X495932Y227360D01*
X495958Y227380D01*
X495986Y227396D01*
X496153Y227526D01*
X496324Y227654D01*
X496346Y227677D01*
X496372Y227697D01*
X496515Y227854D01*
X496662Y228007D01*
X496681Y228034D01*
X496703Y228058D01*
X496819Y228235D01*
X496939Y228410D01*
X496953Y228440D01*
X496971Y228467D01*
X497057Y228662D01*
X497147Y228854D01*
X497156Y228885D01*
X497169Y228915D01*
X497222Y229121D01*
X497280Y229325D01*
X497283Y229357D01*
X497291Y229389D01*
X497311Y229600D01*
X497334Y229811D01*
X497332Y229844D01*
X497335Y229876D01*
X497320Y230088D01*
X497309Y230300D01*
X497302Y230332D01*
X497299Y230364D01*
X497249Y230570D01*
X497204Y230778D01*
X497192Y230808D01*
X497184Y230840D01*
X497102Y231035D01*
X497023Y231233D01*
X497006Y231261D01*
X496994Y231291D01*
X496880Y231470D01*
X496770Y231652D01*
X496749Y231677D01*
X496732Y231704D01*
X496591Y231863D01*
X496453Y232025D01*
X496428Y232046D01*
X496407Y232070D01*
X496317Y232140D01*
X496079Y232341D01*
X495991Y232393D01*
X495932Y232440D01*
X495349Y232806D01*
X493538Y234250D01*
X491900Y235888D01*
X490456Y237699D01*
X489224Y239660D01*
X488219Y241746D01*
X487553Y243651D01*
X501301Y243651D01*
X501301Y216149D01*
X487553Y216149D01*
G37*
%LPD*%
%LPC*%
G36*
X368799Y110999D02*
X368799Y110999D01*
X368799Y130212D01*
X370614Y129622D01*
X372373Y128726D01*
X373970Y127566D01*
X375366Y126170D01*
X376526Y124573D01*
X377422Y122814D01*
X378032Y120937D01*
X378341Y118987D01*
X378341Y110999D01*
X368799Y110999D01*
G37*
%LPD*%
%LPC*%
G36*
X318799Y77999D02*
X318799Y77999D01*
X318799Y87541D01*
X326787Y87541D01*
X328737Y87232D01*
X330614Y86622D01*
X332373Y85726D01*
X333970Y84566D01*
X335366Y83170D01*
X336526Y81573D01*
X337422Y79814D01*
X338012Y77999D01*
X318799Y77999D01*
G37*
%LPD*%
%LPC*%
G36*
X368799Y105001D02*
X368799Y105001D01*
X378341Y105001D01*
X378341Y97013D01*
X378032Y95063D01*
X377422Y93186D01*
X376526Y91427D01*
X375366Y89830D01*
X373970Y88434D01*
X372373Y87274D01*
X370614Y86378D01*
X368799Y85788D01*
X368799Y105001D01*
G37*
%LPD*%
%LPC*%
G36*
X293588Y77999D02*
X293588Y77999D01*
X294178Y79814D01*
X295074Y81573D01*
X296234Y83170D01*
X297630Y84566D01*
X299227Y85726D01*
X300986Y86622D01*
X302863Y87232D01*
X304813Y87541D01*
X312801Y87541D01*
X312801Y77999D01*
X293588Y77999D01*
G37*
%LPD*%
%LPC*%
G36*
X353259Y110999D02*
X353259Y110999D01*
X353259Y118987D01*
X353568Y120937D01*
X354178Y122814D01*
X355074Y124573D01*
X356234Y126170D01*
X357630Y127566D01*
X359227Y128726D01*
X360986Y129622D01*
X362801Y130212D01*
X362801Y110999D01*
X353259Y110999D01*
G37*
%LPD*%
%LPC*%
G36*
X318799Y62459D02*
X318799Y62459D01*
X318799Y72001D01*
X338012Y72001D01*
X337422Y70186D01*
X336526Y68427D01*
X335366Y66830D01*
X333970Y65434D01*
X332373Y64274D01*
X330614Y63378D01*
X328737Y62768D01*
X326787Y62459D01*
X318799Y62459D01*
G37*
%LPD*%
%LPC*%
G36*
X304813Y62459D02*
X304813Y62459D01*
X302863Y62768D01*
X300986Y63378D01*
X299227Y64274D01*
X297630Y65434D01*
X296234Y66830D01*
X295074Y68427D01*
X294178Y70186D01*
X293588Y72001D01*
X312801Y72001D01*
X312801Y62459D01*
X304813Y62459D01*
G37*
%LPD*%
%LPC*%
G36*
X360986Y86378D02*
X360986Y86378D01*
X359227Y87274D01*
X357630Y88434D01*
X356234Y89830D01*
X355074Y91427D01*
X354178Y93186D01*
X353568Y95063D01*
X353259Y97013D01*
X353259Y105001D01*
X362801Y105001D01*
X362801Y85788D01*
X360986Y86378D01*
G37*
%LPD*%
%LPC*%
G36*
X63249Y145399D02*
X63249Y145399D01*
X63249Y151194D01*
X63443Y151131D01*
X63567Y151102D01*
X63688Y151063D01*
X63805Y151046D01*
X63820Y151042D01*
X63850Y151018D01*
X64012Y150931D01*
X64166Y150832D01*
X65119Y150346D01*
X66303Y149487D01*
X67337Y148453D01*
X68196Y147269D01*
X68860Y145966D01*
X69044Y145399D01*
X63249Y145399D01*
G37*
%LPD*%
%LPC*%
G36*
X114049Y145399D02*
X114049Y145399D01*
X114049Y151194D01*
X114616Y151010D01*
X115919Y150346D01*
X117103Y149487D01*
X118137Y148453D01*
X118996Y147269D01*
X119660Y145966D01*
X119844Y145399D01*
X114049Y145399D01*
G37*
%LPD*%
%LPC*%
G36*
X102256Y145399D02*
X102256Y145399D01*
X102440Y145966D01*
X103104Y147269D01*
X103963Y148453D01*
X104997Y149487D01*
X106181Y150346D01*
X107484Y151010D01*
X108051Y151194D01*
X108051Y145399D01*
X102256Y145399D01*
G37*
%LPD*%
%LPC*%
G36*
X51456Y145399D02*
X51456Y145399D01*
X51640Y145966D01*
X52304Y147269D01*
X53163Y148453D01*
X54197Y149487D01*
X55381Y150346D01*
X56684Y151010D01*
X57251Y151194D01*
X57251Y145399D01*
X51456Y145399D01*
G37*
%LPD*%
%LPC*%
G36*
X63249Y139401D02*
X63249Y139401D01*
X69044Y139401D01*
X68860Y138833D01*
X68196Y137531D01*
X67337Y136347D01*
X66303Y135313D01*
X65119Y134454D01*
X63816Y133790D01*
X63249Y133606D01*
X63249Y139401D01*
G37*
%LPD*%
%LPC*%
G36*
X114049Y139401D02*
X114049Y139401D01*
X119844Y139401D01*
X119660Y138833D01*
X118996Y137531D01*
X118137Y136347D01*
X117103Y135313D01*
X115919Y134454D01*
X114616Y133790D01*
X114049Y133606D01*
X114049Y139401D01*
G37*
%LPD*%
%LPC*%
G36*
X56684Y133790D02*
X56684Y133790D01*
X55381Y134454D01*
X54197Y135313D01*
X53163Y136347D01*
X52304Y137531D01*
X51640Y138833D01*
X51456Y139401D01*
X57251Y139401D01*
X57251Y133606D01*
X56684Y133790D01*
G37*
%LPD*%
%LPC*%
G36*
X107484Y133790D02*
X107484Y133790D01*
X106181Y134454D01*
X104997Y135313D01*
X103963Y136347D01*
X103104Y137531D01*
X102440Y138833D01*
X102256Y139401D01*
X108051Y139401D01*
X108051Y133606D01*
X107484Y133790D01*
G37*
%LPD*%
%LPC*%
G36*
X52999Y222999D02*
X52999Y222999D01*
X52999Y225047D01*
X53521Y224908D01*
X54100Y224573D01*
X54573Y224100D01*
X54908Y223521D01*
X55047Y222999D01*
X52999Y222999D01*
G37*
%LPD*%
%LPC*%
G36*
X52999Y217001D02*
X52999Y217001D01*
X55047Y217001D01*
X54908Y216479D01*
X54573Y215900D01*
X54100Y215427D01*
X53521Y215092D01*
X52999Y214953D01*
X52999Y217001D01*
G37*
%LPD*%
%LPC*%
G36*
X44953Y222999D02*
X44953Y222999D01*
X45092Y223521D01*
X45427Y224100D01*
X45900Y224573D01*
X46479Y224908D01*
X47001Y225047D01*
X47001Y222999D01*
X44953Y222999D01*
G37*
%LPD*%
%LPC*%
G36*
X46479Y215092D02*
X46479Y215092D01*
X45900Y215427D01*
X45427Y215900D01*
X45092Y216479D01*
X44953Y217001D01*
X47001Y217001D01*
X47001Y214953D01*
X46479Y215092D01*
G37*
%LPD*%
D10*
X149150Y167800D03*
X123750Y167800D03*
X98350Y167800D03*
X72950Y167800D03*
X85650Y142400D03*
X111050Y142400D03*
X136450Y142400D03*
X60250Y142400D03*
D11*
X27200Y48400D03*
X182200Y48400D03*
D12*
X440200Y328800D03*
X423200Y328800D03*
D13*
X300900Y302800D03*
X386900Y302800D03*
X386900Y328200D03*
X300900Y328200D03*
X300900Y379000D03*
X300900Y353600D03*
X300900Y404400D03*
X386900Y404400D03*
X386900Y353600D03*
X386900Y379000D03*
X386900Y252000D03*
X300900Y252000D03*
X386900Y277400D03*
X300900Y277400D03*
X300900Y226600D03*
X386900Y226600D03*
D14*
X591300Y368150D03*
X591300Y328650D03*
X591300Y289150D03*
X591300Y249650D03*
X591300Y210150D03*
X591300Y170650D03*
X591300Y131150D03*
X591300Y91650D03*
X507300Y368150D03*
X507300Y328650D03*
X507300Y289150D03*
X507300Y249650D03*
X507300Y210150D03*
X507300Y170650D03*
X507300Y131150D03*
X507300Y91650D03*
D15*
X440000Y292880D03*
X440000Y308120D03*
D16*
X90000Y200000D03*
X281000Y278000D03*
X281000Y299100D03*
X314000Y437000D03*
X50000Y220000D03*
D17*
X66500Y290400D03*
X88500Y290400D03*
X110500Y290400D03*
X132500Y290400D03*
X154500Y290400D03*
X176500Y290400D03*
X198500Y290400D03*
X220500Y290400D03*
X55500Y325400D03*
X77500Y325400D03*
X99500Y325400D03*
X121500Y325400D03*
X143500Y325400D03*
X165500Y325400D03*
X187500Y325400D03*
X209500Y325400D03*
D18*
X225500Y383400D03*
X50500Y383400D03*
D19*
X66000Y478700D03*
X88000Y478700D03*
X110000Y478700D03*
X132000Y478700D03*
X154000Y478700D03*
X176000Y478700D03*
X198000Y478700D03*
X220000Y478700D03*
X55000Y508700D03*
X77000Y508700D03*
X99000Y508700D03*
X121000Y508700D03*
X143000Y508700D03*
X165000Y508700D03*
X187000Y508700D03*
X209000Y508700D03*
D20*
X305800Y138000D02*
X325800Y138000D01*
X325800Y75000D02*
X305800Y75000D01*
X365800Y98000D02*
X365800Y118000D01*
D21*
X48624Y342000D02*
X38900Y332276D01*
X38900Y318524D01*
X161376Y307000D02*
X171100Y297276D01*
X171100Y295800D01*
X176500Y290400D01*
X50424Y307000D02*
X38900Y318524D01*
X50424Y307000D02*
X161376Y307000D01*
X80000Y342000D02*
X48624Y342000D01*
D22*
X90000Y380000D03*
D21*
X90000Y352000D01*
X80000Y342000D01*
D22*
X260000Y270000D03*
D21*
X210000Y270000D01*
X198500Y281500D01*
X198500Y290400D01*
D20*
X264950Y370000D02*
X281350Y353600D01*
X300900Y353600D01*
X312600Y353600D01*
X72950Y182950D02*
X72950Y167800D01*
X340000Y381000D02*
X340000Y437714D01*
X340000Y381000D02*
X312600Y353600D01*
X90000Y200000D02*
X72950Y182950D01*
X90000Y200000D02*
X190000Y200000D01*
D23*
X270000Y320000D03*
D20*
X300900Y328200D02*
X300900Y353600D01*
X278200Y328200D02*
X270000Y320000D01*
X278200Y328200D02*
X300900Y328200D01*
X264950Y433750D02*
X220000Y478700D01*
X264950Y433750D02*
X264950Y370000D01*
X591300Y368150D02*
X591300Y427714D01*
X591297Y427956D01*
X591288Y428197D01*
X591274Y428438D01*
X591253Y428679D01*
X591227Y428919D01*
X591195Y429159D01*
X591157Y429398D01*
X591114Y429635D01*
X591064Y429872D01*
X591009Y430107D01*
X590949Y430341D01*
X590882Y430573D01*
X590811Y430804D01*
X590733Y431033D01*
X590650Y431260D01*
X590562Y431485D01*
X590468Y431708D01*
X590369Y431928D01*
X590264Y432146D01*
X590155Y432361D01*
X590040Y432574D01*
X589920Y432784D01*
X589795Y432990D01*
X589665Y433194D01*
X589530Y433395D01*
X589390Y433592D01*
X589246Y433786D01*
X589097Y433976D01*
X588943Y434162D01*
X588785Y434345D01*
X588623Y434524D01*
X588456Y434699D01*
X588285Y434870D01*
X588110Y435037D01*
X587931Y435199D01*
X587748Y435357D01*
X587562Y435511D01*
X587372Y435660D01*
X587178Y435804D01*
X586981Y435944D01*
X586780Y436079D01*
X586576Y436209D01*
X586370Y436334D01*
X586160Y436454D01*
X585947Y436569D01*
X585732Y436678D01*
X585514Y436783D01*
X585294Y436882D01*
X585071Y436976D01*
X584846Y437064D01*
X584619Y437147D01*
X584390Y437225D01*
X584159Y437296D01*
X583927Y437363D01*
X583693Y437423D01*
X583458Y437478D01*
X583221Y437528D01*
X582984Y437571D01*
X582745Y437609D01*
X582505Y437641D01*
X582265Y437667D01*
X582024Y437688D01*
X581783Y437702D01*
X581542Y437711D01*
X581300Y437714D01*
X340000Y437714D01*
D23*
X200000Y190000D03*
D20*
X252000Y138000D01*
X315800Y138000D01*
X200000Y190000D02*
X190000Y200000D01*
D21*
X130000Y530000D02*
X51000Y530000D01*
X31000Y510000D01*
X31000Y485350D01*
X143500Y372850D02*
X143500Y325400D01*
X143500Y372850D02*
X31000Y485350D01*
X143000Y508700D02*
X143000Y517000D01*
X130000Y530000D01*
X136089Y544700D02*
X44911Y544700D01*
X16300Y516089D01*
X16300Y479261D01*
D23*
X124000Y342100D03*
D21*
X114700Y351400D01*
X114700Y380861D01*
X16300Y479261D01*
X136089Y544700D02*
X165000Y515789D01*
X165000Y508700D01*
D23*
X358000Y364000D03*
D20*
X362700Y368700D01*
X362700Y389621D01*
X369729Y396650D01*
X379150Y396650D01*
X386900Y404400D01*
D23*
X280000Y520000D03*
X180000Y440000D03*
X143400Y394500D03*
X450000Y370000D03*
X340000Y250000D03*
X250000Y250000D03*
X380000Y290000D03*
D24*
X407300Y247000D02*
X386900Y226600D01*
X437000Y247000D02*
X480000Y290000D01*
X506450Y290000D01*
X507300Y289150D01*
X437000Y247000D02*
X407300Y247000D01*
X233024Y246976D02*
X144155Y246976D01*
X233024Y246976D02*
X270000Y210000D01*
X370300Y210000D01*
X386900Y226600D01*
X144155Y246976D02*
X144090Y246910D01*
X126203Y246910D01*
X109990Y246910D01*
X66500Y290400D01*
D22*
X126203Y246910D03*
D24*
X88500Y285500D02*
X88500Y290400D01*
X386900Y252000D02*
X432000Y252000D01*
X480000Y300000D02*
X480000Y370000D01*
D22*
X480000Y370000D03*
D24*
X480000Y300000D02*
X432000Y252000D01*
X386900Y252000D02*
X370000Y235100D01*
X370000Y220000D01*
X365000Y215000D01*
X272200Y215000D01*
X148085Y251576D02*
X146626Y253034D01*
X120966Y253034D01*
X235624Y251576D02*
X272200Y215000D01*
X120966Y253034D02*
X88500Y285500D01*
X148085Y251576D02*
X235624Y251576D01*
D22*
X120966Y253034D03*
D24*
X386900Y277400D02*
X404000Y277400D01*
D22*
X404000Y277400D03*
X356524Y270000D03*
D24*
X363924Y277400D01*
X386900Y277400D01*
X424520Y277400D02*
X440000Y292880D01*
X424520Y277400D02*
X404000Y277400D01*
D22*
X350000Y280000D03*
D24*
X372800Y302800D01*
X386900Y302800D01*
X397200Y302800D01*
X423200Y328800D01*
D22*
X145000Y216000D03*
X48125Y278125D03*
D24*
X110250Y216000D01*
X145000Y216000D01*
D22*
X399700Y60200D03*
D24*
X509800Y60200D01*
X530000Y40000D01*
X560000Y40000D01*
X570000Y50000D01*
X570000Y82431D01*
X569720Y82711D01*
X569720Y149070D01*
X591300Y170650D01*
X386900Y353600D02*
X386900Y379000D01*
X386900Y353600D02*
X386900Y330000D01*
X386900Y328200D01*
D25*
X386900Y330000D02*
X342000Y330000D01*
D22*
X342000Y330000D03*
D24*
X386900Y379000D02*
X497300Y379000D01*
X497542Y378997D01*
X497783Y378988D01*
X498024Y378974D01*
X498265Y378953D01*
X498505Y378927D01*
X498745Y378895D01*
X498984Y378857D01*
X499221Y378814D01*
X499458Y378764D01*
X499693Y378709D01*
X499927Y378649D01*
X500159Y378582D01*
X500390Y378511D01*
X500619Y378433D01*
X500846Y378350D01*
X501071Y378262D01*
X501294Y378168D01*
X501514Y378069D01*
X501732Y377964D01*
X501947Y377855D01*
X502160Y377740D01*
X502370Y377620D01*
X502576Y377495D01*
X502780Y377365D01*
X502981Y377230D01*
X503178Y377090D01*
X503372Y376946D01*
X503562Y376797D01*
X503748Y376643D01*
X503931Y376485D01*
X504110Y376323D01*
X504285Y376156D01*
X504456Y375985D01*
X504623Y375810D01*
X504785Y375631D01*
X504943Y375448D01*
X505097Y375262D01*
X505246Y375072D01*
X505390Y374878D01*
X505530Y374681D01*
X505665Y374480D01*
X505795Y374276D01*
X505920Y374070D01*
X506040Y373860D01*
X506155Y373647D01*
X506264Y373432D01*
X506369Y373214D01*
X506468Y372994D01*
X506562Y372771D01*
X506650Y372546D01*
X506733Y372319D01*
X506811Y372090D01*
X506882Y371859D01*
X506949Y371627D01*
X507009Y371393D01*
X507064Y371158D01*
X507114Y370921D01*
X507157Y370684D01*
X507195Y370445D01*
X507227Y370205D01*
X507253Y369965D01*
X507274Y369724D01*
X507288Y369483D01*
X507297Y369242D01*
X507300Y369000D01*
X507300Y368150D01*
D22*
X160000Y260124D03*
D24*
X209500Y325400D02*
X254900Y280000D01*
X269850Y274080D02*
X269850Y270150D01*
X270000Y270000D01*
X269850Y269850D01*
X269850Y265920D01*
X264080Y260150D01*
X260150Y260150D01*
X260000Y260000D01*
X160124Y260000D01*
X160000Y260124D01*
X254900Y280000D02*
X263930Y280000D01*
X269850Y274080D01*
D22*
X53048Y288822D03*
D24*
X53048Y282428D01*
X111476Y224000D02*
X130274Y224000D01*
D22*
X130274Y224000D03*
D24*
X111476Y224000D02*
X53048Y282428D01*
D22*
X418800Y67000D03*
D24*
X470200Y67000D01*
X481400Y78200D01*
X481400Y144750D01*
X507300Y170650D01*
D22*
X306000Y437000D03*
D24*
X306000Y422100D01*
X316600Y411500D01*
X316600Y394700D01*
X300900Y379000D01*
X306000Y437000D02*
X314000Y437000D01*
D20*
X286950Y418350D02*
X300900Y404400D01*
X217699Y529700D02*
X200302Y529700D01*
X188000Y517399D01*
X188000Y509700D01*
X187000Y508700D01*
X286950Y460449D02*
X286950Y418350D01*
X286950Y460449D02*
X238699Y508699D01*
X217699Y529700D01*
D24*
X88000Y478700D02*
X88000Y471000D01*
X281000Y278000D01*
X300300Y278000D01*
X300900Y277400D01*
X282929Y259429D01*
X282758Y259253D01*
X282590Y259074D01*
X282428Y258890D01*
X282270Y258702D01*
X282117Y258510D01*
X281968Y258315D01*
X281824Y258116D01*
X281685Y257914D01*
X281551Y257708D01*
X281423Y257499D01*
X281299Y257287D01*
X281181Y257072D01*
X281068Y256854D01*
X280960Y256634D01*
X280858Y256410D01*
X280761Y256185D01*
X280670Y255957D01*
X280585Y255727D01*
X280505Y255495D01*
X280431Y255261D01*
X280362Y255025D01*
X280300Y254788D01*
X280243Y254549D01*
X280192Y254309D01*
X280147Y254068D01*
X280108Y253825D01*
X280075Y253582D01*
X280048Y253338D01*
X280027Y253094D01*
X280012Y252849D01*
X280003Y252603D01*
X280000Y252358D01*
X280000Y244142D02*
X280003Y243897D01*
X280012Y243651D01*
X280027Y243406D01*
X280048Y243162D01*
X280075Y242918D01*
X280108Y242675D01*
X280147Y242432D01*
X280192Y242191D01*
X280243Y241951D01*
X280300Y241712D01*
X280362Y241475D01*
X280431Y241239D01*
X280505Y241005D01*
X280585Y240773D01*
X280670Y240543D01*
X280761Y240315D01*
X280858Y240090D01*
X280960Y239866D01*
X281068Y239646D01*
X281181Y239428D01*
X281299Y239213D01*
X281423Y239001D01*
X281551Y238792D01*
X281685Y238586D01*
X281824Y238384D01*
X281968Y238185D01*
X282117Y237990D01*
X282270Y237798D01*
X282428Y237610D01*
X282590Y237426D01*
X282758Y237247D01*
X282929Y237071D01*
X280000Y244142D02*
X280000Y252358D01*
X282929Y237071D02*
X290471Y229529D01*
X297542Y226600D02*
X300900Y226600D01*
X297542Y226600D02*
X297304Y226603D01*
X297066Y226611D01*
X296829Y226625D01*
X296591Y226645D01*
X296355Y226671D01*
X296119Y226702D01*
X295884Y226738D01*
X295649Y226781D01*
X295416Y226829D01*
X295184Y226882D01*
X294954Y226941D01*
X294725Y227005D01*
X294497Y227075D01*
X294271Y227150D01*
X294047Y227231D01*
X293825Y227316D01*
X293605Y227407D01*
X293388Y227504D01*
X293173Y227605D01*
X292960Y227712D01*
X292750Y227823D01*
X292542Y227940D01*
X292337Y228061D01*
X292136Y228187D01*
X291937Y228319D01*
X291741Y228454D01*
X291549Y228595D01*
X291360Y228739D01*
X291175Y228889D01*
X290993Y229043D01*
X290815Y229200D01*
X290641Y229363D01*
X290471Y229529D01*
X78500Y466200D02*
X66000Y478700D01*
X78500Y466200D02*
X85729Y466200D01*
X255137Y296792D02*
X255137Y294637D01*
D22*
X255137Y294637D03*
X271200Y299200D03*
D24*
X255137Y296792D02*
X85729Y466200D01*
X300900Y252000D02*
X310000Y252000D01*
X310242Y252003D01*
X310483Y252012D01*
X310724Y252026D01*
X310965Y252047D01*
X311205Y252073D01*
X311445Y252105D01*
X311684Y252143D01*
X311921Y252186D01*
X312158Y252236D01*
X312393Y252291D01*
X312627Y252351D01*
X312859Y252418D01*
X313090Y252489D01*
X313319Y252567D01*
X313546Y252650D01*
X313771Y252738D01*
X313994Y252832D01*
X314214Y252931D01*
X314432Y253036D01*
X314647Y253145D01*
X314860Y253260D01*
X315070Y253380D01*
X315276Y253505D01*
X315480Y253635D01*
X315681Y253770D01*
X315878Y253910D01*
X316072Y254054D01*
X316262Y254203D01*
X316448Y254357D01*
X316631Y254515D01*
X316810Y254677D01*
X316985Y254844D01*
X317156Y255015D01*
X317323Y255190D01*
X317485Y255369D01*
X317643Y255552D01*
X317797Y255738D01*
X317946Y255928D01*
X318090Y256122D01*
X318230Y256319D01*
X318365Y256520D01*
X318495Y256724D01*
X318620Y256930D01*
X318740Y257140D01*
X318855Y257353D01*
X318964Y257568D01*
X319069Y257786D01*
X319168Y258006D01*
X319262Y258229D01*
X319350Y258454D01*
X319433Y258681D01*
X319511Y258910D01*
X319582Y259141D01*
X319649Y259373D01*
X319709Y259607D01*
X319764Y259842D01*
X319814Y260079D01*
X319857Y260316D01*
X319895Y260555D01*
X319927Y260795D01*
X319953Y261035D01*
X319974Y261276D01*
X319988Y261517D01*
X319997Y261758D01*
X320000Y262000D01*
X320000Y292800D02*
X319997Y293042D01*
X319988Y293283D01*
X319974Y293524D01*
X319953Y293765D01*
X319927Y294005D01*
X319895Y294245D01*
X319857Y294484D01*
X319814Y294721D01*
X319764Y294958D01*
X319709Y295193D01*
X319649Y295427D01*
X319582Y295659D01*
X319511Y295890D01*
X319433Y296119D01*
X319350Y296346D01*
X319262Y296571D01*
X319168Y296794D01*
X319069Y297014D01*
X318964Y297232D01*
X318855Y297447D01*
X318740Y297660D01*
X318620Y297870D01*
X318495Y298076D01*
X318365Y298280D01*
X318230Y298481D01*
X318090Y298678D01*
X317946Y298872D01*
X317797Y299062D01*
X317643Y299248D01*
X317485Y299431D01*
X317323Y299610D01*
X317156Y299785D01*
X316985Y299956D01*
X316810Y300123D01*
X316631Y300285D01*
X316448Y300443D01*
X316262Y300597D01*
X316072Y300746D01*
X315878Y300890D01*
X315681Y301030D01*
X315480Y301165D01*
X315276Y301295D01*
X315070Y301420D01*
X314860Y301540D01*
X314647Y301655D01*
X314432Y301764D01*
X314214Y301869D01*
X313994Y301968D01*
X313771Y302062D01*
X313546Y302150D01*
X313319Y302233D01*
X313090Y302311D01*
X312859Y302382D01*
X312627Y302449D01*
X312393Y302509D01*
X312158Y302564D01*
X311921Y302614D01*
X311684Y302657D01*
X311445Y302695D01*
X311205Y302727D01*
X310965Y302753D01*
X310724Y302774D01*
X310483Y302788D01*
X310242Y302797D01*
X310000Y302800D01*
X300900Y302800D01*
X320000Y292800D02*
X320000Y262000D01*
X281000Y299100D02*
X280900Y299000D01*
X271400Y299000D01*
X271200Y299200D01*
X297200Y299100D02*
X300900Y302800D01*
X297200Y299100D02*
X281000Y299100D01*
X440200Y308320D02*
X440200Y328800D01*
X440200Y308320D02*
X440000Y308120D01*
M02*
