G04 EAGLE Gerber RS-274X export*
G75*
%MOMM*%
%FSLAX34Y34*%
%LPD*%
%INBottom Copper*%
%IPPOS*%
%AMOC8*
5,1,8,0,0,1.08239X$1,22.5*%
G01*
%ADD10C,1.350000*%
%ADD11C,2.400000*%
%ADD12C,3.616000*%
%ADD13R,0.508000X0.508000*%
%ADD14C,1.650000*%
%ADD15C,4.950000*%
%ADD16C,1.800000*%
%ADD17C,2.000000*%
%ADD18C,0.604800*%
%ADD19C,1.270000*%
%ADD20C,0.904800*%
%ADD21C,0.600000*%
%ADD22C,0.300000*%

G36*
X643284Y3818D02*
X643284Y3818D01*
X643378Y3817D01*
X643528Y3838D01*
X643678Y3851D01*
X643769Y3874D01*
X643863Y3887D01*
X644006Y3933D01*
X644153Y3969D01*
X644239Y4007D01*
X644329Y4035D01*
X644464Y4104D01*
X644602Y4164D01*
X644681Y4215D01*
X644765Y4258D01*
X644887Y4347D01*
X645013Y4429D01*
X645083Y4492D01*
X645159Y4548D01*
X645265Y4656D01*
X645376Y4757D01*
X645435Y4831D01*
X645501Y4898D01*
X645587Y5022D01*
X645681Y5140D01*
X645727Y5222D01*
X645781Y5300D01*
X645846Y5436D01*
X645920Y5567D01*
X645952Y5656D01*
X645992Y5741D01*
X646034Y5886D01*
X646085Y6028D01*
X646103Y6121D01*
X646129Y6211D01*
X646140Y6326D01*
X646174Y6509D01*
X646178Y6695D01*
X646189Y6810D01*
X646189Y453190D01*
X646182Y453284D01*
X646183Y453378D01*
X646162Y453528D01*
X646149Y453678D01*
X646126Y453769D01*
X646113Y453863D01*
X646067Y454006D01*
X646031Y454153D01*
X645993Y454239D01*
X645965Y454329D01*
X645896Y454464D01*
X645836Y454602D01*
X645785Y454681D01*
X645742Y454765D01*
X645653Y454887D01*
X645571Y455013D01*
X645508Y455083D01*
X645452Y455159D01*
X645344Y455265D01*
X645243Y455376D01*
X645169Y455435D01*
X645102Y455501D01*
X644978Y455587D01*
X644860Y455681D01*
X644778Y455727D01*
X644700Y455781D01*
X644564Y455846D01*
X644433Y455920D01*
X644344Y455952D01*
X644259Y455992D01*
X644114Y456034D01*
X643972Y456085D01*
X643879Y456103D01*
X643789Y456129D01*
X643674Y456140D01*
X643491Y456174D01*
X643305Y456178D01*
X643190Y456189D01*
X309242Y456189D01*
X307841Y456769D01*
X306769Y457841D01*
X306189Y459242D01*
X306189Y553190D01*
X306182Y553284D01*
X306183Y553378D01*
X306162Y553528D01*
X306149Y553678D01*
X306126Y553769D01*
X306113Y553863D01*
X306067Y554006D01*
X306031Y554153D01*
X305993Y554239D01*
X305965Y554329D01*
X305896Y554464D01*
X305836Y554602D01*
X305785Y554681D01*
X305742Y554765D01*
X305653Y554887D01*
X305571Y555013D01*
X305508Y555083D01*
X305452Y555159D01*
X305344Y555265D01*
X305243Y555376D01*
X305169Y555435D01*
X305102Y555501D01*
X304978Y555587D01*
X304860Y555681D01*
X304778Y555727D01*
X304700Y555781D01*
X304564Y555846D01*
X304433Y555920D01*
X304344Y555952D01*
X304259Y555992D01*
X304114Y556034D01*
X303972Y556085D01*
X303879Y556103D01*
X303789Y556129D01*
X303674Y556140D01*
X303491Y556174D01*
X303305Y556178D01*
X303190Y556189D01*
X6810Y556189D01*
X6716Y556182D01*
X6622Y556183D01*
X6472Y556162D01*
X6322Y556149D01*
X6231Y556126D01*
X6137Y556113D01*
X5994Y556067D01*
X5847Y556031D01*
X5761Y555993D01*
X5671Y555965D01*
X5536Y555896D01*
X5398Y555836D01*
X5319Y555785D01*
X5235Y555742D01*
X5113Y555653D01*
X4987Y555571D01*
X4917Y555508D01*
X4841Y555452D01*
X4735Y555344D01*
X4624Y555243D01*
X4565Y555169D01*
X4499Y555102D01*
X4413Y554978D01*
X4319Y554860D01*
X4273Y554778D01*
X4219Y554700D01*
X4154Y554564D01*
X4080Y554433D01*
X4048Y554344D01*
X4008Y554259D01*
X3966Y554114D01*
X3915Y553972D01*
X3897Y553879D01*
X3871Y553789D01*
X3860Y553674D01*
X3826Y553491D01*
X3822Y553305D01*
X3811Y553190D01*
X3811Y500484D01*
X3815Y500437D01*
X3812Y500390D01*
X3835Y500193D01*
X3851Y499997D01*
X3862Y499951D01*
X3867Y499904D01*
X3921Y499713D01*
X3969Y499522D01*
X3988Y499479D01*
X4001Y499433D01*
X4085Y499254D01*
X4164Y499073D01*
X4189Y499033D01*
X4209Y498990D01*
X4322Y498827D01*
X4429Y498661D01*
X4460Y498626D01*
X4487Y498587D01*
X4624Y498445D01*
X4757Y498298D01*
X4794Y498269D01*
X4827Y498235D01*
X4985Y498117D01*
X5140Y497993D01*
X5181Y497970D01*
X5219Y497942D01*
X5394Y497851D01*
X5567Y497755D01*
X5612Y497739D01*
X5654Y497717D01*
X5842Y497656D01*
X6028Y497589D01*
X6074Y497580D01*
X6119Y497566D01*
X6314Y497536D01*
X6509Y497500D01*
X6556Y497499D01*
X6603Y497492D01*
X6801Y497495D01*
X6998Y497491D01*
X7045Y497498D01*
X7092Y497498D01*
X7287Y497533D01*
X7483Y497562D01*
X7528Y497576D01*
X7574Y497584D01*
X7761Y497650D01*
X7949Y497710D01*
X7991Y497731D01*
X8036Y497747D01*
X8209Y497842D01*
X8385Y497932D01*
X8423Y497960D01*
X8465Y497983D01*
X8560Y498061D01*
X8779Y498222D01*
X8864Y498309D01*
X8931Y498364D01*
X12423Y501856D01*
X14095Y502549D01*
X40018Y502549D01*
X40210Y502564D01*
X40403Y502574D01*
X40454Y502584D01*
X40506Y502589D01*
X40693Y502636D01*
X40882Y502676D01*
X40930Y502695D01*
X40980Y502707D01*
X41158Y502784D01*
X41338Y502855D01*
X41382Y502881D01*
X41430Y502902D01*
X41592Y503006D01*
X41758Y503105D01*
X41798Y503139D01*
X41841Y503167D01*
X41984Y503296D01*
X42132Y503421D01*
X42166Y503460D01*
X42204Y503495D01*
X42324Y503646D01*
X42450Y503793D01*
X42477Y503837D01*
X42509Y503878D01*
X42603Y504047D01*
X42703Y504212D01*
X42722Y504260D01*
X42747Y504305D01*
X42813Y504487D01*
X42885Y504666D01*
X42896Y504717D01*
X42913Y504766D01*
X42948Y504956D01*
X42990Y505144D01*
X42993Y505196D01*
X43002Y505247D01*
X43006Y505440D01*
X43016Y505633D01*
X43010Y505685D01*
X43011Y505736D01*
X42983Y505928D01*
X42962Y506120D01*
X42951Y506155D01*
X42951Y511097D01*
X44786Y515525D01*
X48175Y518914D01*
X52603Y520749D01*
X57397Y520749D01*
X61825Y518914D01*
X63879Y516860D01*
X63951Y516799D01*
X64017Y516731D01*
X64137Y516641D01*
X64252Y516544D01*
X64333Y516495D01*
X64409Y516439D01*
X64543Y516369D01*
X64672Y516292D01*
X64760Y516257D01*
X64844Y516214D01*
X64987Y516167D01*
X65127Y516112D01*
X65219Y516092D01*
X65309Y516062D01*
X65458Y516040D01*
X65605Y516008D01*
X65700Y516003D01*
X65793Y515989D01*
X65944Y515991D01*
X66094Y515983D01*
X66188Y515994D01*
X66282Y515995D01*
X66431Y516022D01*
X66581Y516039D01*
X66671Y516064D01*
X66764Y516081D01*
X66906Y516131D01*
X67051Y516172D01*
X67137Y516212D01*
X67226Y516244D01*
X67358Y516316D01*
X67494Y516381D01*
X67572Y516434D01*
X67655Y516480D01*
X67744Y516553D01*
X67897Y516658D01*
X68031Y516787D01*
X68121Y516860D01*
X70175Y518914D01*
X74603Y520749D01*
X79397Y520749D01*
X83825Y518914D01*
X85879Y516860D01*
X85951Y516799D01*
X86017Y516731D01*
X86137Y516641D01*
X86252Y516544D01*
X86333Y516495D01*
X86409Y516439D01*
X86543Y516369D01*
X86672Y516292D01*
X86760Y516257D01*
X86844Y516214D01*
X86987Y516167D01*
X87127Y516112D01*
X87219Y516092D01*
X87309Y516062D01*
X87458Y516040D01*
X87605Y516008D01*
X87700Y516003D01*
X87793Y515989D01*
X87944Y515991D01*
X88094Y515983D01*
X88188Y515994D01*
X88282Y515995D01*
X88431Y516022D01*
X88581Y516039D01*
X88671Y516064D01*
X88764Y516081D01*
X88906Y516131D01*
X89051Y516172D01*
X89137Y516212D01*
X89226Y516244D01*
X89358Y516316D01*
X89494Y516381D01*
X89572Y516434D01*
X89655Y516480D01*
X89744Y516553D01*
X89897Y516658D01*
X90031Y516787D01*
X90121Y516860D01*
X92175Y518914D01*
X96603Y520749D01*
X101397Y520749D01*
X105825Y518914D01*
X107879Y516860D01*
X107951Y516799D01*
X108017Y516731D01*
X108137Y516641D01*
X108252Y516544D01*
X108333Y516495D01*
X108409Y516439D01*
X108543Y516369D01*
X108672Y516292D01*
X108760Y516257D01*
X108844Y516214D01*
X108987Y516167D01*
X109127Y516112D01*
X109219Y516092D01*
X109309Y516062D01*
X109458Y516040D01*
X109605Y516008D01*
X109700Y516003D01*
X109793Y515989D01*
X109944Y515991D01*
X110094Y515983D01*
X110188Y515994D01*
X110282Y515995D01*
X110431Y516022D01*
X110581Y516039D01*
X110671Y516064D01*
X110764Y516081D01*
X110906Y516131D01*
X111051Y516172D01*
X111137Y516212D01*
X111226Y516244D01*
X111358Y516316D01*
X111494Y516381D01*
X111572Y516434D01*
X111655Y516480D01*
X111744Y516553D01*
X111897Y516658D01*
X112031Y516787D01*
X112121Y516860D01*
X114175Y518914D01*
X118603Y520749D01*
X123397Y520749D01*
X127825Y518914D01*
X129879Y516860D01*
X129951Y516799D01*
X130017Y516731D01*
X130137Y516641D01*
X130252Y516544D01*
X130333Y516495D01*
X130409Y516439D01*
X130543Y516369D01*
X130672Y516292D01*
X130760Y516257D01*
X130844Y516214D01*
X130987Y516167D01*
X131127Y516112D01*
X131219Y516092D01*
X131309Y516062D01*
X131458Y516040D01*
X131605Y516008D01*
X131700Y516003D01*
X131793Y515989D01*
X131944Y515991D01*
X132094Y515983D01*
X132188Y515994D01*
X132282Y515995D01*
X132431Y516022D01*
X132581Y516039D01*
X132671Y516064D01*
X132764Y516081D01*
X132906Y516131D01*
X133051Y516172D01*
X133137Y516212D01*
X133226Y516244D01*
X133358Y516316D01*
X133494Y516381D01*
X133572Y516434D01*
X133655Y516480D01*
X133744Y516553D01*
X133897Y516658D01*
X134031Y516787D01*
X134121Y516860D01*
X136175Y518914D01*
X140603Y520749D01*
X145397Y520749D01*
X149825Y518914D01*
X151879Y516860D01*
X151951Y516799D01*
X152017Y516731D01*
X152137Y516641D01*
X152252Y516544D01*
X152333Y516495D01*
X152409Y516439D01*
X152543Y516369D01*
X152672Y516292D01*
X152760Y516257D01*
X152844Y516214D01*
X152987Y516167D01*
X153127Y516112D01*
X153219Y516092D01*
X153309Y516062D01*
X153458Y516040D01*
X153605Y516008D01*
X153700Y516003D01*
X153793Y515989D01*
X153944Y515991D01*
X154094Y515983D01*
X154188Y515994D01*
X154282Y515995D01*
X154431Y516022D01*
X154581Y516039D01*
X154671Y516064D01*
X154764Y516081D01*
X154906Y516131D01*
X155051Y516172D01*
X155137Y516212D01*
X155226Y516244D01*
X155358Y516316D01*
X155494Y516381D01*
X155572Y516434D01*
X155655Y516480D01*
X155744Y516553D01*
X155897Y516658D01*
X156031Y516787D01*
X156121Y516860D01*
X158175Y518914D01*
X162603Y520749D01*
X167397Y520749D01*
X171825Y518914D01*
X173879Y516860D01*
X173951Y516799D01*
X174017Y516731D01*
X174137Y516641D01*
X174252Y516544D01*
X174333Y516495D01*
X174409Y516439D01*
X174543Y516369D01*
X174672Y516292D01*
X174760Y516257D01*
X174844Y516214D01*
X174987Y516167D01*
X175127Y516112D01*
X175219Y516092D01*
X175309Y516062D01*
X175458Y516040D01*
X175605Y516008D01*
X175700Y516003D01*
X175793Y515989D01*
X175944Y515991D01*
X176094Y515983D01*
X176188Y515994D01*
X176282Y515995D01*
X176431Y516022D01*
X176581Y516039D01*
X176671Y516064D01*
X176764Y516081D01*
X176906Y516131D01*
X177051Y516172D01*
X177137Y516212D01*
X177226Y516244D01*
X177358Y516316D01*
X177494Y516381D01*
X177572Y516434D01*
X177655Y516480D01*
X177744Y516553D01*
X177897Y516658D01*
X178031Y516787D01*
X178121Y516860D01*
X180175Y518914D01*
X184603Y520749D01*
X189397Y520749D01*
X193825Y518914D01*
X195879Y516860D01*
X195951Y516799D01*
X196017Y516731D01*
X196137Y516641D01*
X196252Y516544D01*
X196333Y516495D01*
X196409Y516439D01*
X196543Y516369D01*
X196672Y516292D01*
X196760Y516257D01*
X196844Y516214D01*
X196987Y516167D01*
X197127Y516112D01*
X197219Y516092D01*
X197309Y516062D01*
X197458Y516040D01*
X197605Y516008D01*
X197700Y516003D01*
X197793Y515989D01*
X197944Y515991D01*
X198094Y515983D01*
X198188Y515994D01*
X198282Y515995D01*
X198431Y516022D01*
X198581Y516039D01*
X198671Y516064D01*
X198764Y516081D01*
X198906Y516131D01*
X199051Y516172D01*
X199137Y516212D01*
X199226Y516244D01*
X199358Y516316D01*
X199494Y516381D01*
X199572Y516434D01*
X199655Y516480D01*
X199744Y516553D01*
X199897Y516658D01*
X200031Y516787D01*
X200121Y516860D01*
X202175Y518914D01*
X206603Y520749D01*
X211397Y520749D01*
X215825Y518914D01*
X219214Y515525D01*
X219390Y515100D01*
X219497Y514892D01*
X219609Y514673D01*
X219612Y514669D01*
X219614Y514665D01*
X219755Y514475D01*
X219899Y514279D01*
X219903Y514275D01*
X219905Y514272D01*
X220080Y514102D01*
X220250Y513937D01*
X220253Y513934D01*
X220257Y513931D01*
X220456Y513793D01*
X220651Y513657D01*
X220655Y513655D01*
X220659Y513652D01*
X220873Y513551D01*
X221093Y513446D01*
X221097Y513444D01*
X221101Y513442D01*
X221333Y513376D01*
X221563Y513309D01*
X221567Y513309D01*
X221572Y513307D01*
X222058Y513251D01*
X222116Y513253D01*
X222161Y513249D01*
X235205Y513249D01*
X236877Y512556D01*
X305482Y443951D01*
X305589Y443860D01*
X305691Y443761D01*
X305776Y443701D01*
X305855Y443635D01*
X305976Y443562D01*
X306092Y443481D01*
X306186Y443436D01*
X306275Y443383D01*
X306406Y443331D01*
X306534Y443270D01*
X306633Y443241D01*
X306730Y443203D01*
X306868Y443173D01*
X307004Y443133D01*
X307081Y443125D01*
X309440Y442148D01*
X311148Y440440D01*
X312073Y438208D01*
X312073Y435792D01*
X311148Y433560D01*
X309440Y431852D01*
X307208Y430927D01*
X304792Y430927D01*
X302560Y431852D01*
X300852Y433560D01*
X299885Y435893D01*
X299853Y436022D01*
X299828Y436162D01*
X299794Y436259D01*
X299769Y436360D01*
X299712Y436490D01*
X299665Y436623D01*
X299615Y436714D01*
X299574Y436809D01*
X299498Y436928D01*
X299430Y437052D01*
X299375Y437119D01*
X299309Y437221D01*
X299127Y437422D01*
X299049Y437518D01*
X233294Y503273D01*
X233187Y503364D01*
X233085Y503463D01*
X233000Y503523D01*
X232921Y503589D01*
X232800Y503662D01*
X232684Y503743D01*
X232590Y503788D01*
X232501Y503841D01*
X232370Y503893D01*
X232242Y503954D01*
X232143Y503983D01*
X232046Y504021D01*
X231908Y504051D01*
X231772Y504091D01*
X231686Y504100D01*
X231568Y504125D01*
X231296Y504139D01*
X231174Y504151D01*
X222161Y504151D01*
X221924Y504132D01*
X221683Y504113D01*
X221678Y504112D01*
X221674Y504111D01*
X221439Y504053D01*
X221208Y503996D01*
X221203Y503994D01*
X221199Y503993D01*
X220980Y503898D01*
X220758Y503803D01*
X220754Y503800D01*
X220750Y503798D01*
X220554Y503672D01*
X220345Y503539D01*
X220342Y503536D01*
X220338Y503533D01*
X220167Y503379D01*
X219981Y503212D01*
X219978Y503208D01*
X219975Y503205D01*
X219826Y503018D01*
X219675Y502830D01*
X219673Y502826D01*
X219670Y502822D01*
X219432Y502395D01*
X219412Y502340D01*
X219390Y502300D01*
X219214Y501875D01*
X215825Y498486D01*
X211397Y496651D01*
X206603Y496651D01*
X202175Y498486D01*
X200121Y500540D01*
X200049Y500601D01*
X199983Y500669D01*
X199862Y500759D01*
X199748Y500856D01*
X199667Y500905D01*
X199591Y500961D01*
X199457Y501031D01*
X199328Y501108D01*
X199240Y501143D01*
X199156Y501186D01*
X199013Y501233D01*
X198873Y501288D01*
X198781Y501308D01*
X198691Y501338D01*
X198542Y501360D01*
X198395Y501392D01*
X198300Y501397D01*
X198207Y501411D01*
X198056Y501409D01*
X197906Y501417D01*
X197812Y501406D01*
X197718Y501405D01*
X197569Y501378D01*
X197419Y501361D01*
X197329Y501336D01*
X197236Y501319D01*
X197094Y501269D01*
X196949Y501228D01*
X196863Y501188D01*
X196774Y501156D01*
X196642Y501084D01*
X196506Y501019D01*
X196428Y500966D01*
X196345Y500920D01*
X196255Y500847D01*
X196103Y500742D01*
X195969Y500613D01*
X195879Y500540D01*
X193825Y498486D01*
X189397Y496651D01*
X184603Y496651D01*
X180175Y498486D01*
X178121Y500540D01*
X178049Y500601D01*
X177983Y500669D01*
X177862Y500759D01*
X177748Y500856D01*
X177667Y500905D01*
X177591Y500961D01*
X177457Y501031D01*
X177328Y501108D01*
X177240Y501143D01*
X177156Y501186D01*
X177013Y501233D01*
X176873Y501288D01*
X176781Y501308D01*
X176691Y501338D01*
X176542Y501360D01*
X176395Y501392D01*
X176300Y501397D01*
X176207Y501411D01*
X176056Y501409D01*
X175906Y501417D01*
X175812Y501406D01*
X175718Y501405D01*
X175569Y501378D01*
X175419Y501361D01*
X175329Y501336D01*
X175236Y501319D01*
X175094Y501269D01*
X174949Y501228D01*
X174863Y501188D01*
X174774Y501156D01*
X174642Y501084D01*
X174506Y501019D01*
X174428Y500966D01*
X174345Y500920D01*
X174255Y500847D01*
X174103Y500742D01*
X173969Y500613D01*
X173879Y500540D01*
X171825Y498486D01*
X167397Y496651D01*
X162603Y496651D01*
X158175Y498486D01*
X156121Y500540D01*
X156049Y500601D01*
X155983Y500669D01*
X155862Y500759D01*
X155748Y500856D01*
X155667Y500905D01*
X155591Y500961D01*
X155457Y501031D01*
X155328Y501108D01*
X155240Y501143D01*
X155156Y501186D01*
X155013Y501233D01*
X154873Y501288D01*
X154781Y501308D01*
X154691Y501338D01*
X154542Y501360D01*
X154395Y501392D01*
X154300Y501397D01*
X154207Y501411D01*
X154056Y501409D01*
X153906Y501417D01*
X153812Y501406D01*
X153718Y501405D01*
X153569Y501378D01*
X153419Y501361D01*
X153329Y501336D01*
X153236Y501319D01*
X153094Y501269D01*
X152949Y501228D01*
X152863Y501188D01*
X152774Y501156D01*
X152642Y501084D01*
X152506Y501019D01*
X152428Y500966D01*
X152345Y500920D01*
X152255Y500847D01*
X152103Y500742D01*
X151969Y500613D01*
X151879Y500540D01*
X149825Y498486D01*
X145397Y496651D01*
X140603Y496651D01*
X136175Y498486D01*
X134121Y500540D01*
X134049Y500601D01*
X133983Y500669D01*
X133862Y500759D01*
X133748Y500856D01*
X133667Y500905D01*
X133591Y500961D01*
X133457Y501031D01*
X133328Y501108D01*
X133240Y501143D01*
X133156Y501186D01*
X133013Y501233D01*
X132873Y501288D01*
X132781Y501308D01*
X132691Y501338D01*
X132542Y501360D01*
X132395Y501392D01*
X132300Y501397D01*
X132207Y501411D01*
X132056Y501409D01*
X131906Y501417D01*
X131812Y501406D01*
X131718Y501405D01*
X131569Y501378D01*
X131419Y501361D01*
X131329Y501336D01*
X131236Y501319D01*
X131094Y501269D01*
X130949Y501228D01*
X130863Y501188D01*
X130774Y501156D01*
X130642Y501084D01*
X130506Y501019D01*
X130428Y500966D01*
X130345Y500920D01*
X130255Y500847D01*
X130103Y500742D01*
X129969Y500613D01*
X129879Y500540D01*
X127825Y498486D01*
X123397Y496651D01*
X118603Y496651D01*
X114175Y498486D01*
X112121Y500540D01*
X112049Y500601D01*
X111983Y500669D01*
X111862Y500759D01*
X111748Y500856D01*
X111667Y500905D01*
X111591Y500961D01*
X111457Y501031D01*
X111328Y501108D01*
X111240Y501143D01*
X111156Y501186D01*
X111013Y501233D01*
X110873Y501288D01*
X110781Y501308D01*
X110691Y501338D01*
X110542Y501360D01*
X110395Y501392D01*
X110300Y501397D01*
X110207Y501411D01*
X110056Y501409D01*
X109906Y501417D01*
X109812Y501406D01*
X109718Y501405D01*
X109569Y501378D01*
X109419Y501361D01*
X109329Y501336D01*
X109236Y501319D01*
X109094Y501269D01*
X108949Y501228D01*
X108863Y501188D01*
X108774Y501156D01*
X108642Y501084D01*
X108506Y501019D01*
X108428Y500966D01*
X108345Y500920D01*
X108255Y500847D01*
X108103Y500742D01*
X107969Y500613D01*
X107879Y500540D01*
X105825Y498486D01*
X101397Y496651D01*
X96603Y496651D01*
X92175Y498486D01*
X90121Y500540D01*
X90049Y500601D01*
X89983Y500669D01*
X89862Y500759D01*
X89748Y500856D01*
X89667Y500905D01*
X89591Y500961D01*
X89457Y501031D01*
X89328Y501108D01*
X89240Y501143D01*
X89156Y501186D01*
X89013Y501233D01*
X88873Y501288D01*
X88781Y501308D01*
X88691Y501338D01*
X88542Y501360D01*
X88395Y501392D01*
X88300Y501397D01*
X88207Y501411D01*
X88056Y501409D01*
X87906Y501417D01*
X87812Y501406D01*
X87718Y501405D01*
X87569Y501378D01*
X87419Y501361D01*
X87329Y501336D01*
X87236Y501319D01*
X87094Y501269D01*
X86949Y501228D01*
X86863Y501188D01*
X86774Y501156D01*
X86642Y501084D01*
X86506Y501019D01*
X86428Y500966D01*
X86345Y500920D01*
X86255Y500847D01*
X86103Y500742D01*
X85969Y500613D01*
X85879Y500540D01*
X83825Y498486D01*
X79397Y496651D01*
X74026Y496651D01*
X73886Y496640D01*
X73744Y496638D01*
X73642Y496620D01*
X73539Y496611D01*
X73401Y496577D01*
X73262Y496552D01*
X73165Y496518D01*
X73064Y496493D01*
X72934Y496436D01*
X72801Y496389D01*
X72710Y496339D01*
X72615Y496298D01*
X72496Y496222D01*
X72372Y496154D01*
X72305Y496099D01*
X72203Y496033D01*
X72002Y495851D01*
X71906Y495773D01*
X70499Y494366D01*
X70374Y494219D01*
X70244Y494076D01*
X70216Y494033D01*
X70183Y493993D01*
X70083Y493828D01*
X69978Y493666D01*
X69958Y493618D01*
X69931Y493574D01*
X69860Y493394D01*
X69783Y493217D01*
X69770Y493167D01*
X69751Y493119D01*
X69710Y492930D01*
X69662Y492743D01*
X69658Y492691D01*
X69647Y492640D01*
X69637Y492447D01*
X69621Y492255D01*
X69625Y492203D01*
X69622Y492151D01*
X69644Y491959D01*
X69659Y491767D01*
X69672Y491717D01*
X69678Y491665D01*
X69730Y491479D01*
X69777Y491292D01*
X69797Y491244D01*
X69811Y491194D01*
X69893Y491020D01*
X69970Y490842D01*
X69997Y490798D01*
X70020Y490751D01*
X70129Y490593D01*
X70233Y490430D01*
X70268Y490391D01*
X70297Y490348D01*
X70431Y490210D01*
X70560Y490066D01*
X70601Y490033D01*
X70637Y489996D01*
X70791Y489880D01*
X70942Y489760D01*
X70982Y489738D01*
X71029Y489703D01*
X71464Y489478D01*
X71469Y489477D01*
X71472Y489475D01*
X72825Y488914D01*
X74879Y486860D01*
X74951Y486799D01*
X75017Y486731D01*
X75137Y486641D01*
X75252Y486544D01*
X75333Y486495D01*
X75409Y486439D01*
X75543Y486369D01*
X75672Y486292D01*
X75760Y486257D01*
X75844Y486214D01*
X75987Y486167D01*
X76127Y486112D01*
X76219Y486092D01*
X76309Y486062D01*
X76458Y486040D01*
X76605Y486008D01*
X76700Y486003D01*
X76793Y485989D01*
X76944Y485991D01*
X77094Y485983D01*
X77188Y485994D01*
X77282Y485995D01*
X77431Y486022D01*
X77581Y486039D01*
X77671Y486064D01*
X77764Y486081D01*
X77906Y486131D01*
X78051Y486172D01*
X78137Y486212D01*
X78226Y486244D01*
X78358Y486316D01*
X78494Y486381D01*
X78572Y486434D01*
X78655Y486480D01*
X78744Y486553D01*
X78897Y486658D01*
X79031Y486787D01*
X79121Y486860D01*
X81175Y488914D01*
X85603Y490749D01*
X90397Y490749D01*
X94825Y488914D01*
X96879Y486860D01*
X96951Y486799D01*
X97017Y486731D01*
X97137Y486641D01*
X97252Y486544D01*
X97333Y486495D01*
X97409Y486439D01*
X97543Y486369D01*
X97672Y486292D01*
X97760Y486257D01*
X97844Y486214D01*
X97987Y486167D01*
X98127Y486112D01*
X98219Y486092D01*
X98309Y486062D01*
X98458Y486040D01*
X98605Y486008D01*
X98700Y486003D01*
X98793Y485989D01*
X98944Y485991D01*
X99094Y485983D01*
X99188Y485994D01*
X99282Y485995D01*
X99431Y486022D01*
X99581Y486039D01*
X99671Y486064D01*
X99764Y486081D01*
X99906Y486131D01*
X100051Y486172D01*
X100137Y486212D01*
X100226Y486244D01*
X100358Y486316D01*
X100494Y486381D01*
X100572Y486434D01*
X100655Y486480D01*
X100744Y486553D01*
X100897Y486658D01*
X101031Y486787D01*
X101121Y486860D01*
X103175Y488914D01*
X107603Y490749D01*
X112397Y490749D01*
X116825Y488914D01*
X119238Y486501D01*
X119311Y486440D01*
X119376Y486372D01*
X119496Y486282D01*
X119612Y486184D01*
X119693Y486136D01*
X119768Y486079D01*
X119902Y486010D01*
X120031Y485933D01*
X120119Y485898D01*
X120203Y485855D01*
X120346Y485808D01*
X120486Y485752D01*
X120578Y485732D01*
X120668Y485703D01*
X120817Y485681D01*
X120965Y485649D01*
X121059Y485644D01*
X121152Y485630D01*
X121303Y485632D01*
X121453Y485624D01*
X121547Y485635D01*
X121642Y485636D01*
X121790Y485662D01*
X121940Y485679D01*
X122031Y485705D01*
X122123Y485722D01*
X122265Y485772D01*
X122411Y485813D01*
X122496Y485853D01*
X122585Y485885D01*
X122717Y485957D01*
X122853Y486021D01*
X122931Y486075D01*
X123014Y486120D01*
X123104Y486194D01*
X123256Y486299D01*
X123390Y486428D01*
X123480Y486501D01*
X124482Y487503D01*
X125951Y488571D01*
X127570Y489395D01*
X129001Y489860D01*
X129001Y478700D01*
X129001Y467540D01*
X127570Y468005D01*
X125951Y468829D01*
X124482Y469897D01*
X123480Y470899D01*
X123408Y470960D01*
X123343Y471028D01*
X123222Y471118D01*
X123107Y471216D01*
X123026Y471264D01*
X122950Y471321D01*
X122816Y471390D01*
X122687Y471467D01*
X122599Y471502D01*
X122516Y471546D01*
X122372Y471592D01*
X122232Y471648D01*
X122140Y471668D01*
X122050Y471697D01*
X121901Y471719D01*
X121754Y471751D01*
X121659Y471756D01*
X121566Y471770D01*
X121416Y471768D01*
X121265Y471776D01*
X121171Y471765D01*
X121077Y471764D01*
X120928Y471738D01*
X120779Y471721D01*
X120688Y471695D01*
X120595Y471678D01*
X120453Y471628D01*
X120308Y471587D01*
X120222Y471547D01*
X120133Y471515D01*
X120001Y471443D01*
X119865Y471379D01*
X119787Y471325D01*
X119705Y471280D01*
X119614Y471206D01*
X119462Y471101D01*
X119328Y470973D01*
X119238Y470899D01*
X116825Y468486D01*
X112397Y466651D01*
X107603Y466651D01*
X103175Y468486D01*
X101121Y470540D01*
X101049Y470601D01*
X100983Y470669D01*
X100862Y470759D01*
X100748Y470856D01*
X100667Y470905D01*
X100591Y470961D01*
X100457Y471031D01*
X100328Y471108D01*
X100240Y471143D01*
X100156Y471186D01*
X100013Y471233D01*
X99873Y471288D01*
X99781Y471308D01*
X99691Y471338D01*
X99542Y471360D01*
X99395Y471392D01*
X99300Y471397D01*
X99207Y471411D01*
X99056Y471409D01*
X98906Y471417D01*
X98812Y471406D01*
X98718Y471405D01*
X98569Y471378D01*
X98419Y471361D01*
X98329Y471336D01*
X98236Y471319D01*
X98094Y471269D01*
X97949Y471228D01*
X97863Y471188D01*
X97774Y471156D01*
X97642Y471084D01*
X97506Y471019D01*
X97428Y470966D01*
X97345Y470920D01*
X97255Y470847D01*
X97103Y470742D01*
X96969Y470613D01*
X96879Y470540D01*
X94825Y468486D01*
X90397Y466651D01*
X85603Y466651D01*
X81175Y468486D01*
X79121Y470540D01*
X79049Y470601D01*
X78983Y470669D01*
X78862Y470759D01*
X78748Y470856D01*
X78667Y470905D01*
X78591Y470961D01*
X78457Y471031D01*
X78328Y471108D01*
X78240Y471143D01*
X78156Y471186D01*
X78013Y471233D01*
X77873Y471288D01*
X77781Y471308D01*
X77691Y471338D01*
X77542Y471360D01*
X77395Y471392D01*
X77300Y471397D01*
X77207Y471411D01*
X77056Y471409D01*
X76906Y471417D01*
X76812Y471406D01*
X76718Y471405D01*
X76569Y471378D01*
X76419Y471361D01*
X76329Y471336D01*
X76236Y471319D01*
X76094Y471269D01*
X75949Y471228D01*
X75863Y471188D01*
X75774Y471156D01*
X75642Y471084D01*
X75506Y471019D01*
X75428Y470966D01*
X75345Y470920D01*
X75255Y470847D01*
X75103Y470742D01*
X74969Y470613D01*
X74879Y470540D01*
X72825Y468486D01*
X68397Y466651D01*
X63603Y466651D01*
X59175Y468486D01*
X55786Y471875D01*
X53951Y476303D01*
X53951Y481097D01*
X55280Y484304D01*
X55339Y484488D01*
X55404Y484670D01*
X55414Y484721D01*
X55430Y484770D01*
X55458Y484961D01*
X55493Y485151D01*
X55494Y485203D01*
X55502Y485254D01*
X55499Y485447D01*
X55502Y485640D01*
X55495Y485692D01*
X55494Y485744D01*
X55460Y485933D01*
X55432Y486125D01*
X55416Y486174D01*
X55407Y486225D01*
X55342Y486407D01*
X55283Y486591D01*
X55260Y486637D01*
X55242Y486686D01*
X55149Y486855D01*
X55061Y487027D01*
X55030Y487069D01*
X55005Y487114D01*
X54886Y487265D01*
X54771Y487421D01*
X54734Y487458D01*
X54702Y487498D01*
X54559Y487628D01*
X54421Y487763D01*
X54378Y487793D01*
X54340Y487828D01*
X54178Y487932D01*
X54019Y488043D01*
X53972Y488066D01*
X53929Y488094D01*
X53753Y488171D01*
X53578Y488254D01*
X53528Y488269D01*
X53480Y488290D01*
X53293Y488337D01*
X53108Y488391D01*
X53063Y488395D01*
X53006Y488410D01*
X52518Y488451D01*
X52513Y488451D01*
X52509Y488451D01*
X20548Y488451D01*
X20454Y488444D01*
X20360Y488445D01*
X20210Y488424D01*
X20060Y488411D01*
X19969Y488388D01*
X19875Y488375D01*
X19732Y488329D01*
X19585Y488293D01*
X19499Y488255D01*
X19409Y488227D01*
X19274Y488158D01*
X19136Y488098D01*
X19057Y488047D01*
X18973Y488004D01*
X18851Y487915D01*
X18725Y487833D01*
X18655Y487770D01*
X18579Y487714D01*
X18473Y487606D01*
X18362Y487505D01*
X18303Y487431D01*
X18237Y487364D01*
X18151Y487240D01*
X18057Y487122D01*
X18011Y487040D01*
X17957Y486962D01*
X17892Y486826D01*
X17818Y486695D01*
X17786Y486606D01*
X17746Y486521D01*
X17704Y486376D01*
X17653Y486234D01*
X17635Y486141D01*
X17609Y486051D01*
X17598Y485936D01*
X17564Y485753D01*
X17560Y485567D01*
X17549Y485452D01*
X17549Y390612D01*
X17555Y390537D01*
X17555Y390526D01*
X17557Y390512D01*
X17555Y390417D01*
X17577Y390271D01*
X17589Y390124D01*
X17612Y390029D01*
X17627Y389933D01*
X17672Y389792D01*
X17707Y389649D01*
X17746Y389560D01*
X17776Y389467D01*
X17843Y389335D01*
X17902Y389200D01*
X17955Y389118D01*
X17999Y389031D01*
X18087Y388912D01*
X18167Y388788D01*
X18232Y388716D01*
X18290Y388638D01*
X18396Y388535D01*
X18495Y388425D01*
X18571Y388365D01*
X18641Y388297D01*
X18762Y388212D01*
X18878Y388121D01*
X18963Y388073D01*
X19043Y388017D01*
X19176Y387954D01*
X19305Y387882D01*
X19397Y387849D01*
X19485Y387807D01*
X19627Y387766D01*
X19766Y387716D01*
X19862Y387699D01*
X19955Y387672D01*
X20102Y387654D01*
X20247Y387628D01*
X20345Y387626D01*
X20441Y387614D01*
X20589Y387621D01*
X20736Y387618D01*
X20833Y387632D01*
X20930Y387637D01*
X21074Y387668D01*
X21221Y387689D01*
X21314Y387718D01*
X21409Y387739D01*
X21547Y387793D01*
X21687Y387837D01*
X21774Y387881D01*
X21865Y387917D01*
X21992Y387992D01*
X22123Y388059D01*
X22202Y388117D01*
X22285Y388167D01*
X22398Y388262D01*
X22517Y388350D01*
X22585Y388419D01*
X22660Y388482D01*
X22756Y388594D01*
X22859Y388700D01*
X22915Y388780D01*
X22978Y388854D01*
X23055Y388980D01*
X23139Y389101D01*
X23181Y389189D01*
X23232Y389273D01*
X23272Y389380D01*
X23350Y389543D01*
X23403Y389726D01*
X23445Y389835D01*
X24596Y394130D01*
X28256Y400469D01*
X33431Y405644D01*
X39770Y409304D01*
X46840Y411199D01*
X54160Y411199D01*
X61230Y409304D01*
X67569Y405644D01*
X72744Y400469D01*
X76313Y394288D01*
X76367Y394209D01*
X76414Y394125D01*
X76506Y394008D01*
X76591Y393886D01*
X76658Y393817D01*
X76718Y393742D01*
X76828Y393641D01*
X76932Y393534D01*
X77008Y393477D01*
X77080Y393412D01*
X77205Y393331D01*
X77324Y393242D01*
X77410Y393198D01*
X77490Y393146D01*
X77627Y393086D01*
X77760Y393018D01*
X77851Y392989D01*
X77939Y392950D01*
X78083Y392914D01*
X78225Y392868D01*
X78320Y392854D01*
X78413Y392830D01*
X78562Y392817D01*
X78709Y392795D01*
X78805Y392797D01*
X78901Y392789D01*
X79050Y392800D01*
X79199Y392803D01*
X79293Y392820D01*
X79389Y392827D01*
X79534Y392863D01*
X79681Y392889D01*
X79771Y392921D01*
X79864Y392944D01*
X80001Y393003D01*
X80142Y393053D01*
X80225Y393099D01*
X80314Y393137D01*
X80440Y393218D01*
X80570Y393290D01*
X80645Y393349D01*
X80726Y393401D01*
X80837Y393501D01*
X80954Y393593D01*
X81019Y393664D01*
X81090Y393728D01*
X81184Y393844D01*
X81284Y393955D01*
X81336Y394035D01*
X81396Y394110D01*
X81451Y394211D01*
X81551Y394365D01*
X81626Y394537D01*
X81681Y394640D01*
X82032Y395487D01*
X149556Y463011D01*
X149681Y463158D01*
X149811Y463301D01*
X149839Y463344D01*
X149872Y463384D01*
X149972Y463550D01*
X150077Y463712D01*
X150097Y463759D01*
X150124Y463804D01*
X150195Y463983D01*
X150272Y464160D01*
X150285Y464210D01*
X150304Y464259D01*
X150345Y464448D01*
X150393Y464635D01*
X150397Y464686D01*
X150408Y464737D01*
X150418Y464930D01*
X150434Y465122D01*
X150430Y465174D01*
X150433Y465226D01*
X150411Y465418D01*
X150396Y465610D01*
X150383Y465661D01*
X150377Y465712D01*
X150325Y465898D01*
X150278Y466085D01*
X150258Y466133D01*
X150244Y466183D01*
X150162Y466358D01*
X150085Y466535D01*
X150057Y466579D01*
X150035Y466626D01*
X149926Y466785D01*
X149822Y466948D01*
X149787Y466986D01*
X149758Y467029D01*
X149624Y467168D01*
X149495Y467312D01*
X149454Y467344D01*
X149418Y467381D01*
X149263Y467497D01*
X149113Y467618D01*
X149073Y467639D01*
X149026Y467674D01*
X148591Y467899D01*
X148586Y467900D01*
X148583Y467903D01*
X147175Y468486D01*
X144762Y470899D01*
X144690Y470960D01*
X144624Y471028D01*
X144503Y471118D01*
X144388Y471216D01*
X144308Y471264D01*
X144232Y471321D01*
X144098Y471390D01*
X143969Y471467D01*
X143881Y471502D01*
X143797Y471546D01*
X143654Y471592D01*
X143514Y471648D01*
X143421Y471668D01*
X143332Y471697D01*
X143183Y471719D01*
X143035Y471751D01*
X142941Y471756D01*
X142848Y471770D01*
X142697Y471768D01*
X142547Y471776D01*
X142453Y471765D01*
X142358Y471764D01*
X142210Y471738D01*
X142060Y471721D01*
X141970Y471695D01*
X141876Y471678D01*
X141734Y471628D01*
X141589Y471587D01*
X141504Y471547D01*
X141415Y471515D01*
X141283Y471443D01*
X141147Y471379D01*
X141069Y471325D01*
X140986Y471280D01*
X140896Y471206D01*
X140743Y471101D01*
X140610Y470972D01*
X140520Y470899D01*
X139518Y469897D01*
X138049Y468829D01*
X136430Y468005D01*
X134999Y467540D01*
X134999Y478700D01*
X134999Y489860D01*
X136430Y489395D01*
X138049Y488571D01*
X139518Y487503D01*
X140520Y486501D01*
X140592Y486440D01*
X140657Y486372D01*
X140778Y486282D01*
X140893Y486184D01*
X140974Y486136D01*
X141050Y486079D01*
X141183Y486010D01*
X141313Y485933D01*
X141401Y485898D01*
X141484Y485855D01*
X141628Y485808D01*
X141768Y485752D01*
X141860Y485732D01*
X141950Y485703D01*
X142099Y485681D01*
X142246Y485649D01*
X142341Y485644D01*
X142434Y485630D01*
X142584Y485632D01*
X142735Y485624D01*
X142829Y485635D01*
X142923Y485636D01*
X143072Y485662D01*
X143221Y485679D01*
X143312Y485705D01*
X143405Y485722D01*
X143547Y485772D01*
X143692Y485813D01*
X143777Y485853D01*
X143867Y485885D01*
X143999Y485957D01*
X144135Y486021D01*
X144213Y486075D01*
X144295Y486120D01*
X144385Y486194D01*
X144538Y486299D01*
X144672Y486428D01*
X144762Y486501D01*
X147175Y488914D01*
X151603Y490749D01*
X156397Y490749D01*
X160825Y488914D01*
X162879Y486860D01*
X162951Y486799D01*
X163017Y486731D01*
X163137Y486641D01*
X163252Y486544D01*
X163333Y486495D01*
X163409Y486439D01*
X163543Y486369D01*
X163672Y486292D01*
X163760Y486257D01*
X163844Y486214D01*
X163987Y486167D01*
X164127Y486112D01*
X164219Y486092D01*
X164309Y486062D01*
X164458Y486040D01*
X164605Y486008D01*
X164700Y486003D01*
X164793Y485989D01*
X164944Y485991D01*
X165094Y485983D01*
X165188Y485994D01*
X165282Y485995D01*
X165431Y486022D01*
X165581Y486039D01*
X165671Y486064D01*
X165764Y486081D01*
X165906Y486131D01*
X166051Y486172D01*
X166137Y486212D01*
X166226Y486244D01*
X166358Y486316D01*
X166494Y486381D01*
X166572Y486434D01*
X166655Y486480D01*
X166744Y486553D01*
X166897Y486658D01*
X167031Y486787D01*
X167121Y486860D01*
X169175Y488914D01*
X173603Y490749D01*
X178397Y490749D01*
X182825Y488914D01*
X184879Y486860D01*
X184951Y486799D01*
X185017Y486731D01*
X185137Y486641D01*
X185252Y486544D01*
X185333Y486495D01*
X185409Y486439D01*
X185543Y486369D01*
X185672Y486292D01*
X185760Y486257D01*
X185844Y486214D01*
X185987Y486167D01*
X186127Y486112D01*
X186219Y486092D01*
X186309Y486062D01*
X186458Y486040D01*
X186605Y486008D01*
X186700Y486003D01*
X186793Y485989D01*
X186944Y485991D01*
X187094Y485983D01*
X187188Y485994D01*
X187282Y485995D01*
X187431Y486022D01*
X187581Y486039D01*
X187671Y486064D01*
X187764Y486081D01*
X187906Y486131D01*
X188051Y486172D01*
X188137Y486212D01*
X188226Y486244D01*
X188358Y486316D01*
X188494Y486381D01*
X188572Y486434D01*
X188655Y486480D01*
X188744Y486553D01*
X188897Y486658D01*
X189031Y486787D01*
X189121Y486860D01*
X191175Y488914D01*
X195603Y490749D01*
X200397Y490749D01*
X204825Y488914D01*
X206879Y486860D01*
X206951Y486799D01*
X207017Y486731D01*
X207137Y486641D01*
X207252Y486544D01*
X207333Y486495D01*
X207409Y486439D01*
X207543Y486369D01*
X207672Y486292D01*
X207760Y486257D01*
X207844Y486214D01*
X207987Y486167D01*
X208127Y486112D01*
X208219Y486092D01*
X208309Y486062D01*
X208458Y486040D01*
X208605Y486008D01*
X208700Y486003D01*
X208793Y485989D01*
X208944Y485991D01*
X209094Y485983D01*
X209188Y485994D01*
X209282Y485995D01*
X209431Y486022D01*
X209581Y486039D01*
X209671Y486064D01*
X209764Y486081D01*
X209906Y486131D01*
X210051Y486172D01*
X210137Y486212D01*
X210226Y486244D01*
X210358Y486316D01*
X210494Y486381D01*
X210572Y486434D01*
X210655Y486480D01*
X210744Y486553D01*
X210897Y486658D01*
X211031Y486787D01*
X211121Y486860D01*
X213175Y488914D01*
X217603Y490749D01*
X222397Y490749D01*
X226825Y488914D01*
X230214Y485525D01*
X232049Y481097D01*
X232049Y476303D01*
X230214Y471875D01*
X226825Y468486D01*
X222397Y466651D01*
X217603Y466651D01*
X213175Y468486D01*
X212519Y469142D01*
X212483Y469172D01*
X212451Y469207D01*
X212296Y469331D01*
X212146Y469458D01*
X212105Y469483D01*
X212068Y469512D01*
X211895Y469609D01*
X211726Y469710D01*
X211682Y469728D01*
X211641Y469751D01*
X211455Y469818D01*
X211271Y469890D01*
X211225Y469900D01*
X211180Y469916D01*
X210986Y469952D01*
X210793Y469994D01*
X210745Y469997D01*
X210699Y470005D01*
X210502Y470009D01*
X210304Y470019D01*
X210257Y470013D01*
X210210Y470014D01*
X210014Y469986D01*
X209817Y469963D01*
X209772Y469951D01*
X209725Y469944D01*
X209537Y469884D01*
X209347Y469830D01*
X209304Y469810D01*
X209259Y469795D01*
X209083Y469706D01*
X208904Y469622D01*
X208865Y469595D01*
X208823Y469573D01*
X208663Y469456D01*
X208501Y469344D01*
X208467Y469311D01*
X208429Y469283D01*
X208290Y469141D01*
X208148Y469004D01*
X208120Y468967D01*
X208087Y468933D01*
X207973Y468770D01*
X207856Y468612D01*
X207834Y468570D01*
X207807Y468531D01*
X207721Y468353D01*
X207631Y468177D01*
X207616Y468132D01*
X207596Y468090D01*
X207540Y467900D01*
X207479Y467712D01*
X207472Y467665D01*
X207459Y467620D01*
X207447Y467497D01*
X207406Y467228D01*
X207407Y467107D01*
X207399Y467021D01*
X207399Y463608D01*
X207410Y463467D01*
X207412Y463325D01*
X207430Y463223D01*
X207439Y463120D01*
X207473Y462983D01*
X207498Y462844D01*
X207532Y462746D01*
X207557Y462645D01*
X207614Y462515D01*
X207661Y462382D01*
X207711Y462291D01*
X207752Y462196D01*
X207828Y462077D01*
X207896Y461953D01*
X207951Y461886D01*
X208017Y461784D01*
X208199Y461583D01*
X208277Y461487D01*
X264111Y405654D01*
X264218Y405562D01*
X264320Y405463D01*
X264405Y405404D01*
X264484Y405337D01*
X264605Y405264D01*
X264721Y405183D01*
X264815Y405138D01*
X264903Y405085D01*
X265035Y405033D01*
X265163Y404972D01*
X265262Y404943D01*
X265359Y404905D01*
X265497Y404875D01*
X265633Y404836D01*
X265718Y404827D01*
X265837Y404801D01*
X266109Y404788D01*
X266231Y404775D01*
X348503Y404775D01*
X361067Y401409D01*
X372332Y394905D01*
X381529Y385708D01*
X388032Y374444D01*
X391399Y361880D01*
X391399Y330130D01*
X389968Y326676D01*
X353061Y289769D01*
X353000Y289697D01*
X352932Y289632D01*
X352842Y289511D01*
X352744Y289396D01*
X352696Y289315D01*
X352639Y289239D01*
X352570Y289105D01*
X352492Y288976D01*
X352457Y288888D01*
X352414Y288805D01*
X352368Y288661D01*
X352312Y288521D01*
X352292Y288429D01*
X352263Y288339D01*
X352240Y288190D01*
X352208Y288043D01*
X352204Y287948D01*
X352189Y287855D01*
X352191Y287705D01*
X352184Y287554D01*
X352194Y287460D01*
X352196Y287366D01*
X352222Y287217D01*
X352239Y287068D01*
X352265Y286977D01*
X352281Y286884D01*
X352331Y286742D01*
X352373Y286597D01*
X352413Y286511D01*
X352444Y286422D01*
X352517Y286290D01*
X352581Y286154D01*
X352635Y286076D01*
X352680Y285994D01*
X352753Y285904D01*
X352859Y285751D01*
X352987Y285617D01*
X353061Y285527D01*
X355148Y283440D01*
X356073Y281208D01*
X356073Y278764D01*
X356092Y278527D01*
X356111Y278285D01*
X356112Y278281D01*
X356113Y278276D01*
X356172Y278038D01*
X356228Y277810D01*
X356230Y277806D01*
X356231Y277801D01*
X356327Y277582D01*
X356421Y277360D01*
X356424Y277356D01*
X356426Y277352D01*
X356556Y277151D01*
X356685Y276948D01*
X356688Y276945D01*
X356691Y276941D01*
X356853Y276762D01*
X357012Y276584D01*
X357016Y276581D01*
X357019Y276578D01*
X357205Y276429D01*
X357394Y276278D01*
X357398Y276276D01*
X357402Y276273D01*
X357829Y276034D01*
X357884Y276014D01*
X357924Y275993D01*
X359964Y275148D01*
X361672Y273440D01*
X362597Y271208D01*
X362597Y268792D01*
X361672Y266560D01*
X360027Y264915D01*
X359936Y264807D01*
X359837Y264706D01*
X359778Y264621D01*
X359711Y264542D01*
X359638Y264421D01*
X359557Y264305D01*
X359512Y264211D01*
X359459Y264122D01*
X359407Y263991D01*
X359346Y263863D01*
X359317Y263763D01*
X359279Y263667D01*
X359249Y263529D01*
X359209Y263393D01*
X359200Y263307D01*
X359175Y263189D01*
X359161Y262917D01*
X359149Y262794D01*
X359149Y175032D01*
X359160Y174891D01*
X359162Y174750D01*
X359180Y174647D01*
X359189Y174544D01*
X359223Y174407D01*
X359248Y174268D01*
X359282Y174170D01*
X359307Y174069D01*
X359364Y173939D01*
X359411Y173806D01*
X359461Y173715D01*
X359502Y173620D01*
X359578Y173501D01*
X359646Y173377D01*
X359701Y173310D01*
X359767Y173209D01*
X359949Y173007D01*
X360027Y172911D01*
X417511Y115427D01*
X417619Y115336D01*
X417720Y115237D01*
X417805Y115177D01*
X417884Y115111D01*
X418005Y115038D01*
X418122Y114957D01*
X418215Y114912D01*
X418304Y114859D01*
X418435Y114807D01*
X418563Y114746D01*
X418663Y114717D01*
X418759Y114679D01*
X418898Y114649D01*
X419033Y114609D01*
X419119Y114600D01*
X419237Y114575D01*
X419509Y114561D01*
X419632Y114549D01*
X429705Y114549D01*
X431377Y113856D01*
X433078Y112155D01*
X439566Y105667D01*
X439673Y105576D01*
X439775Y105477D01*
X439860Y105417D01*
X439939Y105351D01*
X440060Y105278D01*
X440176Y105197D01*
X440270Y105152D01*
X440359Y105099D01*
X440490Y105047D01*
X440618Y104986D01*
X440717Y104957D01*
X440814Y104919D01*
X440952Y104889D01*
X441088Y104849D01*
X441174Y104840D01*
X441292Y104815D01*
X441564Y104801D01*
X441686Y104789D01*
X443403Y104789D01*
X445189Y103003D01*
X445189Y102486D01*
X445200Y102346D01*
X445202Y102204D01*
X445220Y102102D01*
X445229Y101999D01*
X445263Y101862D01*
X445288Y101722D01*
X445322Y101624D01*
X445347Y101524D01*
X445404Y101394D01*
X445451Y101261D01*
X445501Y101170D01*
X445542Y101075D01*
X445618Y100956D01*
X445686Y100832D01*
X445741Y100765D01*
X445807Y100663D01*
X445989Y100462D01*
X446067Y100366D01*
X453856Y92577D01*
X454549Y90905D01*
X454549Y73126D01*
X454560Y72986D01*
X454562Y72844D01*
X454580Y72742D01*
X454589Y72639D01*
X454623Y72502D01*
X454648Y72362D01*
X454682Y72265D01*
X454707Y72164D01*
X454764Y72034D01*
X454811Y71901D01*
X454861Y71810D01*
X454902Y71715D01*
X454978Y71596D01*
X455046Y71472D01*
X455101Y71405D01*
X455167Y71303D01*
X455349Y71102D01*
X455427Y71006D01*
X491406Y35027D01*
X491513Y34936D01*
X491615Y34837D01*
X491700Y34777D01*
X491779Y34711D01*
X491900Y34638D01*
X492016Y34557D01*
X492110Y34512D01*
X492199Y34459D01*
X492330Y34407D01*
X492458Y34346D01*
X492557Y34317D01*
X492654Y34279D01*
X492792Y34249D01*
X492928Y34209D01*
X493014Y34200D01*
X493132Y34175D01*
X493404Y34161D01*
X493526Y34149D01*
X559968Y34149D01*
X560109Y34160D01*
X560250Y34162D01*
X560353Y34180D01*
X560456Y34189D01*
X560593Y34223D01*
X560732Y34248D01*
X560830Y34282D01*
X560931Y34307D01*
X561061Y34364D01*
X561194Y34411D01*
X561285Y34461D01*
X561380Y34502D01*
X561499Y34578D01*
X561623Y34646D01*
X561690Y34701D01*
X561791Y34767D01*
X561993Y34949D01*
X562089Y35027D01*
X592463Y65401D01*
X592493Y65437D01*
X592529Y65469D01*
X592652Y65624D01*
X592780Y65774D01*
X592804Y65815D01*
X592833Y65852D01*
X592930Y66025D01*
X593031Y66194D01*
X593049Y66238D01*
X593072Y66279D01*
X593139Y66465D01*
X593212Y66649D01*
X593222Y66695D01*
X593238Y66740D01*
X593273Y66934D01*
X593315Y67127D01*
X593318Y67175D01*
X593326Y67221D01*
X593330Y67419D01*
X593340Y67616D01*
X593335Y67663D01*
X593335Y67710D01*
X593307Y67906D01*
X593285Y68103D01*
X593272Y68148D01*
X593265Y68195D01*
X593205Y68383D01*
X593151Y68573D01*
X593131Y68616D01*
X593117Y68661D01*
X593027Y68838D01*
X592943Y69016D01*
X592916Y69055D01*
X592894Y69097D01*
X592777Y69257D01*
X592665Y69419D01*
X592632Y69453D01*
X592604Y69491D01*
X592462Y69630D01*
X592326Y69772D01*
X592288Y69800D01*
X592254Y69833D01*
X592091Y69947D01*
X591933Y70064D01*
X591891Y70086D01*
X591853Y70113D01*
X591673Y70199D01*
X591499Y70289D01*
X591454Y70304D01*
X591411Y70324D01*
X591221Y70380D01*
X591033Y70441D01*
X590986Y70448D01*
X590941Y70461D01*
X590818Y70473D01*
X590549Y70514D01*
X590428Y70513D01*
X590342Y70521D01*
X587097Y70521D01*
X579332Y73738D01*
X573388Y79682D01*
X570171Y87447D01*
X570171Y95853D01*
X573388Y103618D01*
X579049Y109279D01*
X579110Y109351D01*
X579178Y109417D01*
X579268Y109537D01*
X579365Y109652D01*
X579414Y109733D01*
X579470Y109809D01*
X579540Y109943D01*
X579617Y110072D01*
X579652Y110160D01*
X579695Y110244D01*
X579742Y110387D01*
X579797Y110527D01*
X579817Y110619D01*
X579846Y110709D01*
X579869Y110858D01*
X579901Y111005D01*
X579906Y111100D01*
X579920Y111193D01*
X579918Y111344D01*
X579926Y111494D01*
X579915Y111588D01*
X579914Y111682D01*
X579887Y111831D01*
X579870Y111981D01*
X579845Y112071D01*
X579828Y112164D01*
X579778Y112306D01*
X579737Y112451D01*
X579697Y112537D01*
X579665Y112626D01*
X579593Y112758D01*
X579528Y112894D01*
X579475Y112972D01*
X579429Y113055D01*
X579356Y113145D01*
X579251Y113297D01*
X579122Y113431D01*
X579049Y113521D01*
X573388Y119182D01*
X570171Y126947D01*
X570171Y135353D01*
X573388Y143118D01*
X579049Y148779D01*
X579110Y148851D01*
X579178Y148917D01*
X579268Y149037D01*
X579365Y149152D01*
X579414Y149233D01*
X579470Y149309D01*
X579540Y149443D01*
X579617Y149572D01*
X579652Y149660D01*
X579695Y149744D01*
X579742Y149887D01*
X579797Y150027D01*
X579817Y150119D01*
X579846Y150209D01*
X579869Y150358D01*
X579901Y150505D01*
X579906Y150600D01*
X579920Y150693D01*
X579918Y150844D01*
X579926Y150994D01*
X579915Y151088D01*
X579914Y151182D01*
X579887Y151331D01*
X579870Y151481D01*
X579845Y151571D01*
X579828Y151664D01*
X579778Y151806D01*
X579737Y151951D01*
X579697Y152037D01*
X579665Y152126D01*
X579593Y152258D01*
X579528Y152394D01*
X579475Y152472D01*
X579429Y152555D01*
X579356Y152645D01*
X579251Y152797D01*
X579122Y152931D01*
X579049Y153021D01*
X573388Y158682D01*
X570171Y166447D01*
X570171Y174853D01*
X573388Y182618D01*
X579049Y188279D01*
X579110Y188351D01*
X579178Y188417D01*
X579268Y188537D01*
X579365Y188652D01*
X579414Y188733D01*
X579470Y188809D01*
X579540Y188943D01*
X579617Y189072D01*
X579652Y189160D01*
X579695Y189244D01*
X579742Y189387D01*
X579797Y189527D01*
X579817Y189619D01*
X579846Y189709D01*
X579869Y189858D01*
X579901Y190005D01*
X579906Y190100D01*
X579920Y190193D01*
X579918Y190344D01*
X579926Y190494D01*
X579915Y190588D01*
X579914Y190682D01*
X579887Y190831D01*
X579870Y190981D01*
X579845Y191071D01*
X579828Y191164D01*
X579778Y191306D01*
X579737Y191451D01*
X579697Y191537D01*
X579665Y191626D01*
X579593Y191758D01*
X579528Y191894D01*
X579475Y191972D01*
X579429Y192055D01*
X579356Y192145D01*
X579251Y192297D01*
X579122Y192431D01*
X579049Y192521D01*
X573388Y198182D01*
X570171Y205947D01*
X570171Y214353D01*
X573388Y222118D01*
X579049Y227779D01*
X579110Y227851D01*
X579178Y227917D01*
X579268Y228037D01*
X579365Y228152D01*
X579414Y228233D01*
X579470Y228309D01*
X579540Y228443D01*
X579617Y228572D01*
X579652Y228660D01*
X579695Y228744D01*
X579742Y228887D01*
X579797Y229027D01*
X579817Y229119D01*
X579846Y229209D01*
X579869Y229358D01*
X579901Y229505D01*
X579906Y229600D01*
X579920Y229693D01*
X579918Y229844D01*
X579926Y229994D01*
X579915Y230088D01*
X579914Y230182D01*
X579887Y230331D01*
X579870Y230481D01*
X579845Y230571D01*
X579828Y230664D01*
X579778Y230806D01*
X579737Y230951D01*
X579697Y231037D01*
X579665Y231126D01*
X579593Y231258D01*
X579528Y231394D01*
X579475Y231472D01*
X579429Y231555D01*
X579356Y231645D01*
X579251Y231797D01*
X579122Y231931D01*
X579049Y232021D01*
X573388Y237682D01*
X570171Y245447D01*
X570171Y253853D01*
X573388Y261618D01*
X579049Y267279D01*
X579110Y267351D01*
X579178Y267417D01*
X579268Y267537D01*
X579365Y267652D01*
X579414Y267733D01*
X579470Y267809D01*
X579540Y267943D01*
X579617Y268072D01*
X579652Y268160D01*
X579695Y268244D01*
X579742Y268387D01*
X579797Y268527D01*
X579817Y268619D01*
X579846Y268709D01*
X579869Y268858D01*
X579901Y269005D01*
X579906Y269100D01*
X579920Y269193D01*
X579918Y269344D01*
X579926Y269494D01*
X579915Y269588D01*
X579914Y269682D01*
X579887Y269831D01*
X579870Y269981D01*
X579845Y270071D01*
X579828Y270164D01*
X579778Y270306D01*
X579737Y270451D01*
X579697Y270537D01*
X579665Y270626D01*
X579593Y270758D01*
X579528Y270894D01*
X579475Y270972D01*
X579429Y271055D01*
X579356Y271145D01*
X579251Y271297D01*
X579122Y271431D01*
X579049Y271521D01*
X573388Y277182D01*
X570171Y284947D01*
X570171Y293353D01*
X572478Y298921D01*
X572549Y299144D01*
X572625Y299378D01*
X572626Y299383D01*
X572627Y299387D01*
X572662Y299622D01*
X572699Y299862D01*
X572699Y299866D01*
X572699Y299871D01*
X572696Y300108D01*
X572693Y300351D01*
X572692Y300356D01*
X572692Y300360D01*
X572650Y300592D01*
X572607Y300833D01*
X572605Y300838D01*
X572605Y300842D01*
X572527Y301061D01*
X572444Y301295D01*
X572442Y301299D01*
X572440Y301303D01*
X572324Y301513D01*
X572208Y301723D01*
X572206Y301727D01*
X572203Y301731D01*
X571900Y302115D01*
X571856Y302154D01*
X571828Y302190D01*
X565864Y308153D01*
X565171Y309825D01*
X565171Y377994D01*
X565223Y378118D01*
X565236Y378159D01*
X565254Y378197D01*
X565311Y378392D01*
X565373Y378584D01*
X565379Y378626D01*
X565391Y378667D01*
X565403Y378788D01*
X565445Y379068D01*
X565443Y379183D01*
X565451Y379266D01*
X565451Y406874D01*
X565440Y407014D01*
X565438Y407156D01*
X565420Y407258D01*
X565411Y407361D01*
X565377Y407498D01*
X565352Y407638D01*
X565318Y407735D01*
X565293Y407836D01*
X565236Y407966D01*
X565189Y408099D01*
X565139Y408190D01*
X565098Y408285D01*
X565022Y408404D01*
X564954Y408528D01*
X564899Y408595D01*
X564833Y408697D01*
X564651Y408898D01*
X564573Y408994D01*
X558994Y414573D01*
X558887Y414664D01*
X558785Y414763D01*
X558700Y414823D01*
X558621Y414889D01*
X558500Y414962D01*
X558384Y415043D01*
X558290Y415088D01*
X558201Y415141D01*
X558070Y415193D01*
X557942Y415254D01*
X557843Y415283D01*
X557746Y415321D01*
X557608Y415351D01*
X557472Y415391D01*
X557386Y415400D01*
X557268Y415425D01*
X556996Y415439D01*
X556874Y415451D01*
X531126Y415451D01*
X530986Y415440D01*
X530844Y415438D01*
X530742Y415420D01*
X530639Y415411D01*
X530502Y415377D01*
X530362Y415352D01*
X530265Y415318D01*
X530164Y415293D01*
X530034Y415236D01*
X529901Y415189D01*
X529810Y415139D01*
X529715Y415098D01*
X529596Y415022D01*
X529472Y414954D01*
X529405Y414899D01*
X529303Y414833D01*
X529102Y414651D01*
X529006Y414573D01*
X508832Y394399D01*
X508801Y394363D01*
X508766Y394331D01*
X508643Y394176D01*
X508515Y394026D01*
X508491Y393985D01*
X508461Y393948D01*
X508365Y393775D01*
X508263Y393606D01*
X508246Y393562D01*
X508223Y393521D01*
X508156Y393335D01*
X508083Y393151D01*
X508073Y393105D01*
X508057Y393060D01*
X508021Y392866D01*
X507979Y392673D01*
X507977Y392625D01*
X507968Y392579D01*
X507965Y392381D01*
X507955Y392184D01*
X507960Y392137D01*
X507959Y392090D01*
X507988Y391894D01*
X508010Y391697D01*
X508023Y391652D01*
X508030Y391605D01*
X508090Y391417D01*
X508143Y391227D01*
X508164Y391184D01*
X508178Y391139D01*
X508268Y390962D01*
X508352Y390784D01*
X508379Y390745D01*
X508400Y390703D01*
X508518Y390543D01*
X508630Y390381D01*
X508662Y390347D01*
X508690Y390309D01*
X508832Y390170D01*
X508969Y390028D01*
X509007Y390000D01*
X509041Y389967D01*
X509203Y389853D01*
X509361Y389736D01*
X509403Y389714D01*
X509442Y389687D01*
X509621Y389601D01*
X509796Y389511D01*
X509841Y389496D01*
X509884Y389476D01*
X510074Y389420D01*
X510262Y389359D01*
X510308Y389352D01*
X510354Y389339D01*
X510476Y389327D01*
X510745Y389286D01*
X510866Y389287D01*
X510952Y389279D01*
X511503Y389279D01*
X519268Y386062D01*
X525212Y380118D01*
X528429Y372353D01*
X528429Y363947D01*
X525212Y356182D01*
X519551Y350521D01*
X519490Y350449D01*
X519422Y350383D01*
X519332Y350263D01*
X519235Y350148D01*
X519186Y350067D01*
X519130Y349991D01*
X519060Y349857D01*
X518983Y349728D01*
X518948Y349640D01*
X518905Y349556D01*
X518858Y349413D01*
X518803Y349273D01*
X518783Y349181D01*
X518754Y349091D01*
X518731Y348942D01*
X518699Y348795D01*
X518694Y348700D01*
X518680Y348607D01*
X518682Y348456D01*
X518674Y348306D01*
X518685Y348212D01*
X518686Y348118D01*
X518713Y347969D01*
X518730Y347819D01*
X518755Y347729D01*
X518772Y347636D01*
X518822Y347494D01*
X518863Y347349D01*
X518903Y347263D01*
X518935Y347174D01*
X519007Y347042D01*
X519072Y346906D01*
X519125Y346828D01*
X519171Y346745D01*
X519244Y346656D01*
X519349Y346503D01*
X519478Y346369D01*
X519551Y346279D01*
X525212Y340618D01*
X528429Y332853D01*
X528429Y324447D01*
X525212Y316682D01*
X519551Y311021D01*
X519490Y310949D01*
X519422Y310883D01*
X519332Y310763D01*
X519235Y310648D01*
X519186Y310567D01*
X519130Y310491D01*
X519060Y310357D01*
X518983Y310228D01*
X518948Y310140D01*
X518905Y310056D01*
X518858Y309913D01*
X518803Y309773D01*
X518783Y309681D01*
X518754Y309591D01*
X518731Y309442D01*
X518699Y309295D01*
X518694Y309200D01*
X518680Y309107D01*
X518682Y308956D01*
X518674Y308806D01*
X518685Y308712D01*
X518686Y308618D01*
X518713Y308469D01*
X518730Y308319D01*
X518755Y308229D01*
X518772Y308136D01*
X518822Y307994D01*
X518863Y307849D01*
X518903Y307763D01*
X518935Y307674D01*
X519007Y307542D01*
X519072Y307406D01*
X519125Y307328D01*
X519171Y307245D01*
X519244Y307156D01*
X519349Y307003D01*
X519478Y306869D01*
X519551Y306779D01*
X525212Y301118D01*
X528429Y293353D01*
X528429Y284947D01*
X525212Y277182D01*
X518995Y270964D01*
X518984Y270951D01*
X518970Y270939D01*
X518824Y270763D01*
X518678Y270591D01*
X518669Y270576D01*
X518658Y270563D01*
X518543Y270366D01*
X518426Y270171D01*
X518420Y270155D01*
X518411Y270140D01*
X518330Y269928D01*
X518246Y269716D01*
X518242Y269699D01*
X518236Y269683D01*
X518191Y269460D01*
X518142Y269238D01*
X518142Y269220D01*
X518138Y269203D01*
X518129Y268977D01*
X518118Y268749D01*
X518120Y268732D01*
X518119Y268714D01*
X518147Y268489D01*
X518173Y268263D01*
X518178Y268246D01*
X518180Y268229D01*
X518244Y268012D01*
X518307Y267792D01*
X518314Y267776D01*
X518319Y267759D01*
X518418Y267555D01*
X518515Y267349D01*
X518525Y267335D01*
X518533Y267319D01*
X518665Y267132D01*
X518793Y266946D01*
X518805Y266934D01*
X518815Y266919D01*
X518878Y266858D01*
X519132Y266594D01*
X519200Y266543D01*
X519246Y266499D01*
X521062Y265050D01*
X522700Y263412D01*
X524144Y261601D01*
X525376Y259640D01*
X526381Y257554D01*
X527047Y255649D01*
X510300Y255649D01*
X510206Y255641D01*
X510112Y255643D01*
X509963Y255622D01*
X509812Y255609D01*
X509721Y255586D01*
X509627Y255573D01*
X509484Y255527D01*
X509338Y255491D01*
X509251Y255453D01*
X509161Y255424D01*
X509027Y255356D01*
X508888Y255296D01*
X508809Y255245D01*
X508725Y255202D01*
X508603Y255113D01*
X508477Y255031D01*
X508407Y254968D01*
X508331Y254912D01*
X508225Y254804D01*
X508114Y254703D01*
X508055Y254629D01*
X507989Y254562D01*
X507903Y254438D01*
X507809Y254320D01*
X507763Y254238D01*
X507709Y254160D01*
X507644Y254024D01*
X507570Y253893D01*
X507539Y253804D01*
X507498Y253719D01*
X507456Y253574D01*
X507405Y253432D01*
X507388Y253339D01*
X507361Y253249D01*
X507350Y253134D01*
X507316Y252951D01*
X507313Y252765D01*
X507301Y252650D01*
X507301Y249649D01*
X507299Y249649D01*
X507299Y252650D01*
X507291Y252744D01*
X507293Y252838D01*
X507271Y252987D01*
X507259Y253138D01*
X507236Y253229D01*
X507223Y253323D01*
X507177Y253466D01*
X507140Y253613D01*
X507103Y253699D01*
X507074Y253789D01*
X507006Y253923D01*
X506946Y254062D01*
X506895Y254141D01*
X506852Y254225D01*
X506763Y254347D01*
X506681Y254473D01*
X506618Y254543D01*
X506562Y254619D01*
X506454Y254725D01*
X506353Y254836D01*
X506279Y254895D01*
X506212Y254961D01*
X506088Y255047D01*
X505970Y255141D01*
X505888Y255187D01*
X505810Y255241D01*
X505674Y255306D01*
X505543Y255380D01*
X505454Y255412D01*
X505369Y255452D01*
X505224Y255494D01*
X505082Y255545D01*
X504989Y255563D01*
X504899Y255589D01*
X504783Y255600D01*
X504601Y255634D01*
X504415Y255638D01*
X504300Y255649D01*
X487553Y255649D01*
X488219Y257554D01*
X489224Y259640D01*
X490456Y261601D01*
X491900Y263412D01*
X493538Y265050D01*
X495354Y266499D01*
X495367Y266511D01*
X495382Y266521D01*
X495545Y266678D01*
X495711Y266834D01*
X495722Y266848D01*
X495734Y266860D01*
X495870Y267042D01*
X496008Y267223D01*
X496016Y267238D01*
X496027Y267252D01*
X496131Y267453D01*
X496238Y267655D01*
X496244Y267672D01*
X496252Y267687D01*
X496322Y267903D01*
X496395Y268119D01*
X496398Y268136D01*
X496403Y268153D01*
X496437Y268378D01*
X496474Y268602D01*
X496474Y268619D01*
X496476Y268636D01*
X496474Y268864D01*
X496473Y269091D01*
X496471Y269108D01*
X496470Y269126D01*
X496430Y269350D01*
X496393Y269574D01*
X496388Y269590D01*
X496385Y269608D01*
X496309Y269823D01*
X496236Y270037D01*
X496228Y270053D01*
X496222Y270069D01*
X496113Y270268D01*
X496005Y270469D01*
X495994Y270483D01*
X495986Y270498D01*
X495931Y270565D01*
X495707Y270857D01*
X495645Y270915D01*
X495605Y270964D01*
X489388Y277182D01*
X486171Y284947D01*
X486171Y293353D01*
X489388Y301118D01*
X495049Y306779D01*
X495110Y306851D01*
X495178Y306917D01*
X495268Y307037D01*
X495365Y307152D01*
X495414Y307233D01*
X495470Y307309D01*
X495540Y307443D01*
X495617Y307572D01*
X495652Y307660D01*
X495695Y307744D01*
X495742Y307887D01*
X495797Y308027D01*
X495817Y308119D01*
X495846Y308209D01*
X495869Y308358D01*
X495901Y308505D01*
X495906Y308600D01*
X495920Y308693D01*
X495918Y308844D01*
X495926Y308994D01*
X495915Y309088D01*
X495914Y309182D01*
X495887Y309331D01*
X495870Y309481D01*
X495845Y309571D01*
X495828Y309664D01*
X495778Y309806D01*
X495737Y309951D01*
X495697Y310037D01*
X495665Y310126D01*
X495593Y310258D01*
X495528Y310394D01*
X495475Y310472D01*
X495429Y310555D01*
X495356Y310645D01*
X495251Y310797D01*
X495122Y310931D01*
X495049Y311021D01*
X489388Y316682D01*
X486171Y324447D01*
X486171Y332853D01*
X489388Y340618D01*
X495049Y346279D01*
X495110Y346351D01*
X495178Y346417D01*
X495268Y346537D01*
X495365Y346652D01*
X495414Y346733D01*
X495470Y346809D01*
X495540Y346943D01*
X495617Y347072D01*
X495652Y347160D01*
X495695Y347244D01*
X495742Y347387D01*
X495797Y347527D01*
X495817Y347619D01*
X495846Y347709D01*
X495869Y347858D01*
X495901Y348005D01*
X495906Y348100D01*
X495920Y348193D01*
X495918Y348344D01*
X495926Y348494D01*
X495915Y348588D01*
X495914Y348682D01*
X495887Y348831D01*
X495870Y348981D01*
X495845Y349071D01*
X495828Y349164D01*
X495778Y349306D01*
X495737Y349451D01*
X495697Y349537D01*
X495665Y349626D01*
X495593Y349758D01*
X495528Y349894D01*
X495475Y349972D01*
X495429Y350055D01*
X495356Y350145D01*
X495251Y350297D01*
X495122Y350431D01*
X495049Y350521D01*
X489388Y356182D01*
X486599Y362914D01*
X486556Y362998D01*
X486522Y363086D01*
X486444Y363216D01*
X486376Y363349D01*
X486320Y363425D01*
X486271Y363506D01*
X486174Y363622D01*
X486084Y363743D01*
X486016Y363808D01*
X485956Y363880D01*
X485841Y363978D01*
X485733Y364083D01*
X485655Y364137D01*
X485583Y364198D01*
X485455Y364276D01*
X485331Y364362D01*
X485245Y364403D01*
X485165Y364451D01*
X485025Y364507D01*
X484888Y364572D01*
X484798Y364598D01*
X484710Y364633D01*
X484563Y364665D01*
X484418Y364707D01*
X484324Y364718D01*
X484232Y364738D01*
X484082Y364746D01*
X483932Y364764D01*
X483838Y364759D01*
X483743Y364764D01*
X483594Y364748D01*
X483443Y364741D01*
X483351Y364721D01*
X483257Y364711D01*
X483146Y364677D01*
X482964Y364638D01*
X482792Y364571D01*
X482681Y364537D01*
X481208Y363927D01*
X478792Y363927D01*
X476560Y364852D01*
X474852Y366560D01*
X473927Y368792D01*
X473927Y371208D01*
X474852Y373440D01*
X476618Y375207D01*
X476709Y375253D01*
X476744Y375279D01*
X476781Y375299D01*
X476875Y375376D01*
X477103Y375545D01*
X477183Y375627D01*
X477247Y375680D01*
X525423Y423856D01*
X527095Y424549D01*
X560905Y424549D01*
X562577Y423856D01*
X573856Y412577D01*
X574549Y410905D01*
X574549Y388520D01*
X574553Y388473D01*
X574550Y388425D01*
X574573Y388229D01*
X574589Y388032D01*
X574600Y387986D01*
X574606Y387939D01*
X574659Y387749D01*
X574707Y387558D01*
X574726Y387514D01*
X574739Y387468D01*
X574823Y387289D01*
X574902Y387108D01*
X574927Y387068D01*
X574948Y387025D01*
X575060Y386862D01*
X575167Y386697D01*
X575198Y386662D01*
X575225Y386622D01*
X575363Y386480D01*
X575495Y386334D01*
X575532Y386304D01*
X575565Y386270D01*
X575723Y386152D01*
X575878Y386029D01*
X575919Y386006D01*
X575957Y385977D01*
X576132Y385887D01*
X576305Y385790D01*
X576350Y385774D01*
X576392Y385753D01*
X576580Y385692D01*
X576766Y385625D01*
X576812Y385616D01*
X576858Y385601D01*
X577053Y385572D01*
X577247Y385536D01*
X577295Y385535D01*
X577342Y385528D01*
X577539Y385531D01*
X577736Y385527D01*
X577783Y385534D01*
X577831Y385534D01*
X578025Y385569D01*
X578221Y385597D01*
X578266Y385612D01*
X578313Y385620D01*
X578499Y385686D01*
X578687Y385746D01*
X578729Y385767D01*
X578774Y385783D01*
X578947Y385878D01*
X579123Y385968D01*
X579148Y385986D01*
X587097Y389279D01*
X595503Y389279D01*
X603268Y386062D01*
X609212Y380118D01*
X612429Y372353D01*
X612429Y363947D01*
X609212Y356182D01*
X603551Y350521D01*
X603490Y350449D01*
X603422Y350383D01*
X603332Y350263D01*
X603235Y350148D01*
X603186Y350067D01*
X603130Y349991D01*
X603060Y349857D01*
X602983Y349728D01*
X602948Y349640D01*
X602905Y349556D01*
X602858Y349413D01*
X602803Y349273D01*
X602783Y349181D01*
X602754Y349091D01*
X602731Y348942D01*
X602699Y348795D01*
X602694Y348700D01*
X602680Y348607D01*
X602682Y348456D01*
X602674Y348306D01*
X602685Y348212D01*
X602686Y348118D01*
X602713Y347969D01*
X602730Y347819D01*
X602755Y347729D01*
X602772Y347636D01*
X602822Y347494D01*
X602863Y347349D01*
X602903Y347263D01*
X602935Y347174D01*
X603007Y347042D01*
X603072Y346906D01*
X603125Y346828D01*
X603171Y346745D01*
X603244Y346656D01*
X603349Y346503D01*
X603478Y346369D01*
X603551Y346279D01*
X609212Y340618D01*
X612429Y332853D01*
X612429Y324447D01*
X609212Y316682D01*
X603551Y311021D01*
X603490Y310949D01*
X603422Y310883D01*
X603332Y310763D01*
X603235Y310648D01*
X603186Y310567D01*
X603130Y310491D01*
X603060Y310357D01*
X602983Y310228D01*
X602948Y310140D01*
X602905Y310056D01*
X602858Y309913D01*
X602803Y309773D01*
X602783Y309681D01*
X602754Y309591D01*
X602731Y309442D01*
X602699Y309295D01*
X602694Y309200D01*
X602680Y309107D01*
X602682Y308956D01*
X602674Y308806D01*
X602685Y308712D01*
X602686Y308618D01*
X602713Y308469D01*
X602730Y308319D01*
X602755Y308229D01*
X602772Y308136D01*
X602822Y307994D01*
X602863Y307849D01*
X602903Y307763D01*
X602935Y307674D01*
X603007Y307542D01*
X603072Y307406D01*
X603125Y307328D01*
X603171Y307245D01*
X603244Y307156D01*
X603349Y307003D01*
X603478Y306869D01*
X603551Y306779D01*
X609212Y301118D01*
X612429Y293353D01*
X612429Y284947D01*
X609212Y277182D01*
X603551Y271521D01*
X603490Y271449D01*
X603422Y271383D01*
X603332Y271263D01*
X603235Y271148D01*
X603186Y271067D01*
X603130Y270991D01*
X603060Y270857D01*
X602983Y270728D01*
X602948Y270640D01*
X602905Y270556D01*
X602858Y270413D01*
X602803Y270273D01*
X602783Y270181D01*
X602754Y270091D01*
X602731Y269942D01*
X602699Y269795D01*
X602694Y269700D01*
X602680Y269607D01*
X602682Y269456D01*
X602674Y269306D01*
X602685Y269212D01*
X602686Y269118D01*
X602713Y268969D01*
X602730Y268819D01*
X602755Y268729D01*
X602772Y268636D01*
X602822Y268494D01*
X602863Y268349D01*
X602903Y268263D01*
X602935Y268174D01*
X603007Y268042D01*
X603072Y267906D01*
X603125Y267828D01*
X603171Y267745D01*
X603244Y267656D01*
X603349Y267503D01*
X603478Y267369D01*
X603551Y267279D01*
X609212Y261618D01*
X612429Y253853D01*
X612429Y245447D01*
X610122Y239879D01*
X610051Y239656D01*
X609975Y239422D01*
X609974Y239417D01*
X609973Y239413D01*
X609937Y239176D01*
X609901Y238938D01*
X609901Y238934D01*
X609901Y238929D01*
X609904Y238692D01*
X609907Y238449D01*
X609908Y238444D01*
X609908Y238440D01*
X609950Y238207D01*
X609993Y237967D01*
X609995Y237962D01*
X609995Y237958D01*
X610075Y237735D01*
X610156Y237505D01*
X610158Y237501D01*
X610160Y237497D01*
X610276Y237287D01*
X610392Y237077D01*
X610394Y237073D01*
X610397Y237069D01*
X610700Y236685D01*
X610744Y236646D01*
X610772Y236610D01*
X622155Y225228D01*
X623856Y223527D01*
X624549Y221855D01*
X624549Y79095D01*
X623856Y77423D01*
X567577Y21144D01*
X565905Y20451D01*
X487024Y20451D01*
X485352Y21144D01*
X415444Y91052D01*
X414750Y92726D01*
X414740Y92856D01*
X414738Y92997D01*
X414720Y93099D01*
X414711Y93203D01*
X414677Y93340D01*
X414652Y93479D01*
X414618Y93577D01*
X414593Y93677D01*
X414536Y93807D01*
X414489Y93941D01*
X414439Y94032D01*
X414398Y94127D01*
X414322Y94245D01*
X414254Y94369D01*
X414199Y94436D01*
X414133Y94538D01*
X413951Y94740D01*
X413873Y94836D01*
X413711Y94997D01*
X413711Y98614D01*
X413700Y98754D01*
X413698Y98896D01*
X413680Y98998D01*
X413671Y99101D01*
X413637Y99238D01*
X413612Y99378D01*
X413578Y99475D01*
X413553Y99576D01*
X413496Y99706D01*
X413449Y99839D01*
X413399Y99930D01*
X413358Y100025D01*
X413282Y100144D01*
X413214Y100268D01*
X413159Y100335D01*
X413093Y100437D01*
X412911Y100638D01*
X412833Y100734D01*
X410701Y102866D01*
X410665Y102897D01*
X410633Y102932D01*
X410479Y103055D01*
X410328Y103183D01*
X410287Y103207D01*
X410250Y103237D01*
X410077Y103333D01*
X409908Y103435D01*
X409864Y103452D01*
X409823Y103475D01*
X409636Y103542D01*
X409453Y103615D01*
X409407Y103625D01*
X409362Y103641D01*
X409168Y103677D01*
X408975Y103719D01*
X408927Y103721D01*
X408881Y103730D01*
X408684Y103733D01*
X408486Y103743D01*
X408439Y103738D01*
X408392Y103739D01*
X408196Y103710D01*
X407999Y103688D01*
X407954Y103675D01*
X407907Y103668D01*
X407719Y103608D01*
X407529Y103555D01*
X407486Y103534D01*
X407441Y103520D01*
X407264Y103430D01*
X407086Y103346D01*
X407047Y103319D01*
X407005Y103298D01*
X406845Y103180D01*
X406683Y103068D01*
X406649Y103036D01*
X406611Y103008D01*
X406473Y102866D01*
X406330Y102729D01*
X406302Y102691D01*
X406269Y102657D01*
X406156Y102495D01*
X406038Y102337D01*
X406016Y102295D01*
X405989Y102256D01*
X405914Y102099D01*
X403499Y102099D01*
X403499Y104509D01*
X403557Y104534D01*
X403597Y104559D01*
X403640Y104579D01*
X403803Y104692D01*
X403969Y104799D01*
X404004Y104830D01*
X404043Y104857D01*
X404185Y104994D01*
X404332Y105127D01*
X404361Y105164D01*
X404395Y105197D01*
X404513Y105355D01*
X404637Y105510D01*
X404660Y105551D01*
X404688Y105589D01*
X404779Y105764D01*
X404875Y105937D01*
X404891Y105982D01*
X404913Y106024D01*
X404974Y106211D01*
X405041Y106398D01*
X405050Y106444D01*
X405064Y106489D01*
X405094Y106684D01*
X405130Y106879D01*
X405131Y106926D01*
X405138Y106973D01*
X405135Y107171D01*
X405139Y107368D01*
X405132Y107415D01*
X405132Y107462D01*
X405097Y107657D01*
X405068Y107853D01*
X405054Y107898D01*
X405046Y107944D01*
X404980Y108131D01*
X404920Y108319D01*
X404899Y108361D01*
X404883Y108406D01*
X404788Y108579D01*
X404698Y108755D01*
X404670Y108793D01*
X404647Y108835D01*
X404569Y108930D01*
X404408Y109149D01*
X404321Y109234D01*
X404266Y109301D01*
X347845Y165722D01*
X346144Y167423D01*
X345451Y169095D01*
X345451Y274718D01*
X345440Y274859D01*
X345438Y275001D01*
X345420Y275103D01*
X345411Y275206D01*
X345377Y275343D01*
X345352Y275482D01*
X345318Y275580D01*
X345293Y275681D01*
X345236Y275811D01*
X345189Y275944D01*
X345139Y276035D01*
X345098Y276130D01*
X345022Y276249D01*
X344954Y276373D01*
X344899Y276440D01*
X344833Y276542D01*
X344651Y276743D01*
X344573Y276839D01*
X344473Y276939D01*
X344401Y277000D01*
X344335Y277068D01*
X344214Y277158D01*
X344099Y277256D01*
X344019Y277304D01*
X343943Y277361D01*
X343809Y277430D01*
X343680Y277508D01*
X343592Y277542D01*
X343508Y277586D01*
X343365Y277632D01*
X343225Y277688D01*
X343132Y277708D01*
X343043Y277737D01*
X342894Y277760D01*
X342746Y277792D01*
X342652Y277796D01*
X342559Y277811D01*
X342408Y277809D01*
X342258Y277816D01*
X342164Y277806D01*
X342069Y277804D01*
X341921Y277778D01*
X341771Y277761D01*
X341680Y277735D01*
X341588Y277719D01*
X341446Y277669D01*
X341300Y277627D01*
X341215Y277587D01*
X341126Y277556D01*
X340994Y277483D01*
X340858Y277419D01*
X340780Y277365D01*
X340697Y277320D01*
X340607Y277247D01*
X340455Y277141D01*
X340321Y277013D01*
X340231Y276939D01*
X328390Y265098D01*
X325324Y262032D01*
X321870Y260601D01*
X258130Y260601D01*
X254676Y262032D01*
X252032Y264676D01*
X250601Y268130D01*
X250601Y271870D01*
X252032Y275324D01*
X254676Y277968D01*
X258130Y279399D01*
X314865Y279399D01*
X315005Y279410D01*
X315147Y279412D01*
X315249Y279430D01*
X315352Y279439D01*
X315490Y279473D01*
X315629Y279498D01*
X315726Y279532D01*
X315827Y279557D01*
X315957Y279614D01*
X316090Y279661D01*
X316181Y279711D01*
X316276Y279752D01*
X316395Y279828D01*
X316519Y279896D01*
X316586Y279951D01*
X316688Y280017D01*
X316890Y280199D01*
X316985Y280277D01*
X371723Y335015D01*
X371814Y335122D01*
X371913Y335224D01*
X371973Y335309D01*
X372039Y335388D01*
X372112Y335509D01*
X372193Y335625D01*
X372238Y335719D01*
X372291Y335807D01*
X372343Y335939D01*
X372404Y336067D01*
X372433Y336166D01*
X372471Y336263D01*
X372501Y336401D01*
X372541Y336537D01*
X372550Y336622D01*
X372575Y336741D01*
X372589Y337013D01*
X372601Y337135D01*
X372601Y352907D01*
X372597Y352954D01*
X372600Y353001D01*
X372577Y353198D01*
X372561Y353395D01*
X372550Y353440D01*
X372545Y353487D01*
X372491Y353678D01*
X372443Y353869D01*
X372424Y353913D01*
X372411Y353958D01*
X372327Y354137D01*
X372248Y354319D01*
X372223Y354358D01*
X372203Y354401D01*
X372090Y354564D01*
X371983Y354730D01*
X371952Y354765D01*
X371925Y354804D01*
X371788Y354947D01*
X371655Y355093D01*
X371618Y355123D01*
X371585Y355157D01*
X371427Y355275D01*
X371272Y355398D01*
X371231Y355421D01*
X371193Y355449D01*
X371018Y355540D01*
X370845Y355636D01*
X370800Y355652D01*
X370758Y355674D01*
X370570Y355735D01*
X370384Y355802D01*
X370338Y355811D01*
X370293Y355825D01*
X370098Y355855D01*
X369903Y355891D01*
X369856Y355892D01*
X369809Y355899D01*
X369611Y355896D01*
X369414Y355900D01*
X369367Y355893D01*
X369320Y355893D01*
X369125Y355858D01*
X368929Y355830D01*
X368884Y355815D01*
X368838Y355807D01*
X368651Y355741D01*
X368463Y355681D01*
X368421Y355660D01*
X368376Y355644D01*
X368203Y355549D01*
X368027Y355459D01*
X367989Y355431D01*
X367947Y355408D01*
X367852Y355330D01*
X367633Y355169D01*
X367548Y355082D01*
X367481Y355028D01*
X355392Y342938D01*
X350596Y340951D01*
X346508Y340951D01*
X346363Y340939D01*
X346217Y340937D01*
X346119Y340919D01*
X346021Y340911D01*
X345879Y340876D01*
X345735Y340850D01*
X345642Y340817D01*
X345546Y340793D01*
X345412Y340735D01*
X345274Y340685D01*
X345187Y340637D01*
X345097Y340598D01*
X344974Y340519D01*
X344846Y340448D01*
X344768Y340387D01*
X344685Y340333D01*
X344577Y340236D01*
X344462Y340145D01*
X344395Y340071D01*
X344322Y340005D01*
X344231Y339891D01*
X344133Y339783D01*
X344079Y339700D01*
X344017Y339622D01*
X343946Y339494D01*
X343866Y339372D01*
X343827Y339281D01*
X343779Y339195D01*
X343729Y339057D01*
X343671Y338923D01*
X343646Y338827D01*
X343613Y338734D01*
X343586Y338591D01*
X343550Y338449D01*
X343542Y338350D01*
X343524Y338253D01*
X343521Y338107D01*
X343509Y337961D01*
X343517Y337862D01*
X343515Y337764D01*
X343536Y337619D01*
X343547Y337473D01*
X343571Y337377D01*
X343585Y337279D01*
X343630Y337140D01*
X343665Y336998D01*
X343704Y336907D01*
X343734Y336813D01*
X343800Y336683D01*
X343858Y336548D01*
X343911Y336465D01*
X343956Y336377D01*
X344043Y336259D01*
X344121Y336136D01*
X344187Y336062D01*
X344246Y335983D01*
X344351Y335881D01*
X344448Y335772D01*
X344526Y335710D01*
X344597Y335641D01*
X344717Y335557D01*
X344830Y335466D01*
X344903Y335427D01*
X344998Y335361D01*
X345254Y335239D01*
X345361Y335181D01*
X345440Y335148D01*
X347148Y333440D01*
X348073Y331208D01*
X348073Y328792D01*
X347148Y326560D01*
X345440Y324852D01*
X343208Y323927D01*
X340792Y323927D01*
X338459Y324894D01*
X338345Y324962D01*
X338229Y325043D01*
X338135Y325088D01*
X338046Y325141D01*
X337915Y325193D01*
X337787Y325254D01*
X337688Y325283D01*
X337591Y325321D01*
X337453Y325351D01*
X337317Y325391D01*
X337231Y325400D01*
X337113Y325425D01*
X336841Y325439D01*
X336718Y325451D01*
X323095Y325451D01*
X321423Y326144D01*
X313494Y334073D01*
X313387Y334164D01*
X313285Y334263D01*
X313200Y334323D01*
X313121Y334389D01*
X313000Y334462D01*
X312884Y334543D01*
X312790Y334588D01*
X312701Y334641D01*
X312570Y334693D01*
X312442Y334754D01*
X312343Y334783D01*
X312246Y334821D01*
X312108Y334851D01*
X311972Y334891D01*
X311886Y334900D01*
X311768Y334925D01*
X311496Y334939D01*
X311374Y334951D01*
X280743Y334951D01*
X280696Y334947D01*
X280649Y334950D01*
X280452Y334927D01*
X280255Y334911D01*
X280210Y334900D01*
X280163Y334895D01*
X279972Y334841D01*
X279781Y334793D01*
X279737Y334774D01*
X279692Y334761D01*
X279512Y334677D01*
X279331Y334598D01*
X279292Y334573D01*
X279249Y334553D01*
X279086Y334440D01*
X278920Y334333D01*
X278885Y334302D01*
X278846Y334275D01*
X278703Y334137D01*
X278557Y334005D01*
X278527Y333968D01*
X278493Y333935D01*
X278375Y333777D01*
X278252Y333622D01*
X278229Y333581D01*
X278201Y333543D01*
X278110Y333368D01*
X278014Y333195D01*
X277998Y333150D01*
X277976Y333108D01*
X277915Y332920D01*
X277848Y332734D01*
X277839Y332688D01*
X277825Y332643D01*
X277795Y332448D01*
X277759Y332253D01*
X277758Y332206D01*
X277751Y332159D01*
X277754Y331961D01*
X277750Y331764D01*
X277757Y331717D01*
X277757Y331670D01*
X277792Y331475D01*
X277820Y331279D01*
X277835Y331234D01*
X277843Y331188D01*
X277909Y331001D01*
X277969Y330813D01*
X277990Y330771D01*
X278006Y330726D01*
X278101Y330553D01*
X278191Y330377D01*
X278219Y330339D01*
X278242Y330297D01*
X278320Y330202D01*
X278481Y329983D01*
X278568Y329898D01*
X278622Y329831D01*
X281062Y327391D01*
X283049Y322596D01*
X283049Y317404D01*
X281062Y312608D01*
X275842Y307388D01*
X275781Y307316D01*
X275713Y307251D01*
X275622Y307130D01*
X275525Y307015D01*
X275477Y306934D01*
X275420Y306858D01*
X275351Y306724D01*
X275273Y306595D01*
X275238Y306507D01*
X275195Y306424D01*
X275149Y306280D01*
X275093Y306140D01*
X275073Y306048D01*
X275044Y305958D01*
X275021Y305809D01*
X274989Y305662D01*
X274985Y305567D01*
X274970Y305474D01*
X274972Y305324D01*
X274965Y305173D01*
X274975Y305079D01*
X274977Y304985D01*
X275003Y304836D01*
X275020Y304687D01*
X275046Y304596D01*
X275062Y304503D01*
X275112Y304361D01*
X275154Y304216D01*
X275194Y304130D01*
X275225Y304041D01*
X275298Y303910D01*
X275362Y303773D01*
X275416Y303695D01*
X275461Y303613D01*
X275534Y303523D01*
X275640Y303370D01*
X275768Y303236D01*
X275842Y303146D01*
X276348Y302640D01*
X277273Y300408D01*
X277273Y297992D01*
X276348Y295760D01*
X274640Y294052D01*
X272408Y293127D01*
X269992Y293127D01*
X267659Y294094D01*
X267545Y294162D01*
X267429Y294243D01*
X267335Y294288D01*
X267246Y294341D01*
X267115Y294393D01*
X266987Y294454D01*
X266888Y294483D01*
X266791Y294521D01*
X266653Y294551D01*
X266517Y294591D01*
X266431Y294600D01*
X266313Y294625D01*
X266041Y294639D01*
X265918Y294651D01*
X263720Y294651D01*
X263483Y294632D01*
X263241Y294613D01*
X263237Y294612D01*
X263232Y294611D01*
X262999Y294553D01*
X262766Y294496D01*
X262762Y294494D01*
X262757Y294493D01*
X262538Y294397D01*
X262316Y294303D01*
X262312Y294300D01*
X262308Y294298D01*
X262110Y294171D01*
X261904Y294039D01*
X261900Y294036D01*
X261897Y294033D01*
X261722Y293876D01*
X261540Y293712D01*
X261537Y293708D01*
X261534Y293705D01*
X261385Y293519D01*
X261234Y293330D01*
X261232Y293326D01*
X261229Y293322D01*
X260990Y292895D01*
X260970Y292840D01*
X260949Y292800D01*
X260285Y291197D01*
X258577Y289489D01*
X256345Y288564D01*
X253929Y288564D01*
X251697Y289489D01*
X251317Y289869D01*
X251245Y289930D01*
X251179Y289998D01*
X251059Y290088D01*
X250944Y290185D01*
X250863Y290234D01*
X250787Y290290D01*
X250653Y290360D01*
X250524Y290437D01*
X250436Y290472D01*
X250352Y290515D01*
X250209Y290562D01*
X250069Y290617D01*
X249977Y290637D01*
X249887Y290667D01*
X249738Y290689D01*
X249591Y290721D01*
X249496Y290726D01*
X249403Y290740D01*
X249253Y290738D01*
X249102Y290746D01*
X249008Y290735D01*
X248914Y290734D01*
X248765Y290707D01*
X248616Y290690D01*
X248525Y290665D01*
X248432Y290648D01*
X248290Y290598D01*
X248145Y290557D01*
X248059Y290517D01*
X247970Y290485D01*
X247838Y290413D01*
X247702Y290348D01*
X247624Y290295D01*
X247541Y290249D01*
X247452Y290176D01*
X247299Y290071D01*
X247165Y289942D01*
X247075Y289869D01*
X236544Y279338D01*
X235400Y278864D01*
X235186Y278754D01*
X234973Y278645D01*
X234969Y278642D01*
X234965Y278640D01*
X234774Y278499D01*
X234579Y278355D01*
X234575Y278352D01*
X234572Y278349D01*
X234407Y278179D01*
X234237Y278005D01*
X234234Y278001D01*
X234231Y277998D01*
X234094Y277800D01*
X233957Y277603D01*
X233955Y277599D01*
X233952Y277595D01*
X233852Y277384D01*
X233746Y277162D01*
X233744Y277157D01*
X233742Y277153D01*
X233677Y276924D01*
X233609Y276692D01*
X233609Y276688D01*
X233607Y276683D01*
X233551Y276197D01*
X233553Y276138D01*
X233549Y276093D01*
X233549Y207904D01*
X231562Y203108D01*
X207392Y178938D01*
X202596Y176951D01*
X197404Y176951D01*
X192608Y178938D01*
X188938Y182608D01*
X186951Y187404D01*
X186951Y192596D01*
X188938Y197392D01*
X206573Y215027D01*
X206664Y215134D01*
X206763Y215236D01*
X206823Y215321D01*
X206889Y215400D01*
X206962Y215521D01*
X207043Y215637D01*
X207088Y215731D01*
X207141Y215819D01*
X207193Y215951D01*
X207254Y216078D01*
X207283Y216178D01*
X207321Y216274D01*
X207351Y216413D01*
X207391Y216548D01*
X207400Y216634D01*
X207425Y216753D01*
X207439Y217024D01*
X207451Y217147D01*
X207451Y277389D01*
X207436Y277582D01*
X207426Y277775D01*
X207416Y277825D01*
X207411Y277877D01*
X207365Y278064D01*
X207324Y278253D01*
X207305Y278302D01*
X207293Y278352D01*
X207216Y278529D01*
X207145Y278709D01*
X207119Y278754D01*
X207098Y278801D01*
X206994Y278963D01*
X206895Y279129D01*
X206861Y279169D01*
X206833Y279213D01*
X206704Y279356D01*
X206579Y279504D01*
X206540Y279537D01*
X206505Y279576D01*
X206354Y279696D01*
X206207Y279821D01*
X206163Y279848D01*
X206122Y279881D01*
X205953Y279975D01*
X205788Y280075D01*
X205740Y280094D01*
X205695Y280119D01*
X205513Y280185D01*
X205334Y280256D01*
X205283Y280267D01*
X205234Y280285D01*
X205044Y280320D01*
X204856Y280361D01*
X204804Y280364D01*
X204753Y280374D01*
X204560Y280377D01*
X204367Y280387D01*
X204315Y280382D01*
X204264Y280383D01*
X204073Y280355D01*
X203881Y280334D01*
X203837Y280321D01*
X203779Y280312D01*
X203313Y280164D01*
X203308Y280162D01*
X203304Y280160D01*
X200747Y279101D01*
X196253Y279101D01*
X192100Y280821D01*
X189621Y283300D01*
X189549Y283361D01*
X189483Y283429D01*
X189363Y283520D01*
X189248Y283617D01*
X189167Y283666D01*
X189091Y283722D01*
X188957Y283791D01*
X188828Y283869D01*
X188740Y283904D01*
X188656Y283947D01*
X188513Y283994D01*
X188373Y284049D01*
X188281Y284069D01*
X188191Y284098D01*
X188042Y284121D01*
X187895Y284153D01*
X187800Y284158D01*
X187707Y284172D01*
X187556Y284170D01*
X187406Y284177D01*
X187312Y284167D01*
X187218Y284166D01*
X187069Y284139D01*
X186919Y284122D01*
X186829Y284096D01*
X186736Y284080D01*
X186594Y284030D01*
X186449Y283989D01*
X186363Y283948D01*
X186274Y283917D01*
X186142Y283844D01*
X186006Y283780D01*
X185928Y283727D01*
X185845Y283681D01*
X185755Y283608D01*
X185603Y283502D01*
X185469Y283374D01*
X185379Y283300D01*
X182900Y280821D01*
X178747Y279101D01*
X174253Y279101D01*
X170100Y280821D01*
X167621Y283300D01*
X167549Y283361D01*
X167483Y283429D01*
X167363Y283520D01*
X167248Y283617D01*
X167167Y283666D01*
X167091Y283722D01*
X166957Y283791D01*
X166828Y283869D01*
X166740Y283904D01*
X166656Y283947D01*
X166513Y283994D01*
X166373Y284049D01*
X166281Y284069D01*
X166191Y284098D01*
X166042Y284121D01*
X165895Y284153D01*
X165800Y284158D01*
X165707Y284172D01*
X165556Y284170D01*
X165406Y284177D01*
X165312Y284167D01*
X165218Y284166D01*
X165069Y284139D01*
X164919Y284122D01*
X164829Y284096D01*
X164736Y284080D01*
X164594Y284030D01*
X164449Y283989D01*
X164363Y283948D01*
X164274Y283917D01*
X164142Y283844D01*
X164006Y283780D01*
X163928Y283727D01*
X163845Y283681D01*
X163755Y283608D01*
X163603Y283502D01*
X163469Y283374D01*
X163379Y283300D01*
X160900Y280821D01*
X156747Y279101D01*
X152253Y279101D01*
X148100Y280821D01*
X145242Y283679D01*
X145177Y283734D01*
X145119Y283796D01*
X144991Y283892D01*
X144869Y283996D01*
X144796Y284039D01*
X144728Y284091D01*
X144586Y284165D01*
X144449Y284247D01*
X144370Y284279D01*
X144295Y284318D01*
X144143Y284369D01*
X143994Y284428D01*
X143911Y284446D01*
X143831Y284472D01*
X143672Y284497D01*
X143516Y284531D01*
X143431Y284536D01*
X143347Y284549D01*
X143187Y284548D01*
X143027Y284556D01*
X142943Y284546D01*
X142858Y284546D01*
X142700Y284519D01*
X142541Y284501D01*
X142459Y284478D01*
X142375Y284463D01*
X142224Y284411D01*
X142070Y284367D01*
X141993Y284331D01*
X141913Y284303D01*
X141772Y284227D01*
X141627Y284159D01*
X141557Y284111D01*
X141482Y284070D01*
X141356Y283972D01*
X141224Y283881D01*
X141163Y283822D01*
X141096Y283770D01*
X141016Y283680D01*
X140872Y283542D01*
X140782Y283422D01*
X139530Y282169D01*
X138156Y281171D01*
X136642Y280400D01*
X135499Y280029D01*
X135499Y290400D01*
X135499Y300771D01*
X136642Y300400D01*
X138156Y299629D01*
X139530Y298631D01*
X140760Y297400D01*
X140799Y297345D01*
X140909Y297229D01*
X141014Y297108D01*
X141079Y297053D01*
X141138Y296992D01*
X141266Y296896D01*
X141389Y296793D01*
X141462Y296750D01*
X141530Y296699D01*
X141672Y296626D01*
X141810Y296544D01*
X141890Y296514D01*
X141965Y296474D01*
X142117Y296425D01*
X142266Y296367D01*
X142350Y296350D01*
X142431Y296323D01*
X142589Y296299D01*
X142745Y296266D01*
X142830Y296262D01*
X142914Y296250D01*
X143074Y296252D01*
X143234Y296245D01*
X143319Y296255D01*
X143404Y296256D01*
X143562Y296284D01*
X143720Y296303D01*
X143802Y296327D01*
X143886Y296342D01*
X144037Y296395D01*
X144190Y296439D01*
X144267Y296476D01*
X144347Y296504D01*
X144487Y296582D01*
X144632Y296651D01*
X144702Y296699D01*
X144776Y296740D01*
X144869Y296816D01*
X145033Y296931D01*
X145156Y297051D01*
X145242Y297121D01*
X148100Y299979D01*
X152253Y301699D01*
X156747Y301699D01*
X160900Y299979D01*
X163379Y297500D01*
X163451Y297438D01*
X163517Y297371D01*
X163637Y297281D01*
X163752Y297183D01*
X163833Y297134D01*
X163909Y297078D01*
X164043Y297009D01*
X164172Y296931D01*
X164260Y296896D01*
X164344Y296853D01*
X164487Y296806D01*
X164627Y296751D01*
X164719Y296731D01*
X164809Y296702D01*
X164958Y296679D01*
X165105Y296647D01*
X165200Y296642D01*
X165293Y296628D01*
X165444Y296630D01*
X165594Y296623D01*
X165688Y296633D01*
X165782Y296634D01*
X165931Y296661D01*
X166081Y296678D01*
X166171Y296704D01*
X166264Y296720D01*
X166406Y296770D01*
X166551Y296811D01*
X166637Y296852D01*
X166726Y296883D01*
X166858Y296956D01*
X166994Y297020D01*
X167072Y297073D01*
X167155Y297119D01*
X167244Y297192D01*
X167397Y297297D01*
X167531Y297426D01*
X167621Y297500D01*
X170100Y299979D01*
X174253Y301699D01*
X178747Y301699D01*
X182900Y299979D01*
X185379Y297500D01*
X185451Y297438D01*
X185517Y297371D01*
X185637Y297281D01*
X185752Y297183D01*
X185833Y297134D01*
X185909Y297078D01*
X186043Y297009D01*
X186172Y296931D01*
X186260Y296896D01*
X186344Y296853D01*
X186487Y296806D01*
X186627Y296751D01*
X186719Y296731D01*
X186809Y296702D01*
X186958Y296679D01*
X187105Y296647D01*
X187200Y296642D01*
X187293Y296628D01*
X187444Y296630D01*
X187594Y296623D01*
X187688Y296633D01*
X187782Y296634D01*
X187931Y296661D01*
X188081Y296678D01*
X188171Y296704D01*
X188264Y296720D01*
X188406Y296770D01*
X188551Y296811D01*
X188637Y296852D01*
X188726Y296883D01*
X188858Y296956D01*
X188994Y297020D01*
X189072Y297073D01*
X189155Y297119D01*
X189244Y297192D01*
X189397Y297297D01*
X189531Y297426D01*
X189621Y297500D01*
X192100Y299979D01*
X196253Y301699D01*
X200747Y301699D01*
X204900Y299979D01*
X206142Y298737D01*
X206214Y298676D01*
X206279Y298608D01*
X206400Y298518D01*
X206515Y298420D01*
X206596Y298372D01*
X206672Y298315D01*
X206805Y298246D01*
X206935Y298169D01*
X207022Y298134D01*
X207106Y298090D01*
X207250Y298044D01*
X207390Y297988D01*
X207482Y297968D01*
X207572Y297939D01*
X207721Y297917D01*
X207868Y297885D01*
X207962Y297880D01*
X208056Y297866D01*
X208206Y297868D01*
X208357Y297860D01*
X208451Y297871D01*
X208545Y297872D01*
X208693Y297898D01*
X208843Y297915D01*
X208934Y297941D01*
X209027Y297958D01*
X209169Y298008D01*
X209314Y298049D01*
X209399Y298089D01*
X209488Y298120D01*
X209621Y298193D01*
X209757Y298257D01*
X209834Y298311D01*
X209917Y298356D01*
X210007Y298430D01*
X210160Y298535D01*
X210293Y298663D01*
X210383Y298737D01*
X213109Y301462D01*
X217904Y303449D01*
X222506Y303449D01*
X222646Y303460D01*
X222788Y303462D01*
X222890Y303480D01*
X222993Y303489D01*
X223130Y303523D01*
X223270Y303548D01*
X223367Y303582D01*
X223468Y303607D01*
X223598Y303664D01*
X223731Y303711D01*
X223822Y303761D01*
X223917Y303802D01*
X224036Y303878D01*
X224160Y303946D01*
X224227Y304001D01*
X224329Y304067D01*
X224530Y304249D01*
X224626Y304327D01*
X242780Y322481D01*
X242811Y322517D01*
X242846Y322549D01*
X242969Y322704D01*
X243097Y322854D01*
X243121Y322895D01*
X243151Y322932D01*
X243247Y323105D01*
X243349Y323274D01*
X243366Y323318D01*
X243389Y323359D01*
X243456Y323545D01*
X243529Y323729D01*
X243539Y323775D01*
X243555Y323820D01*
X243591Y324014D01*
X243633Y324207D01*
X243635Y324255D01*
X243644Y324301D01*
X243647Y324499D01*
X243657Y324696D01*
X243652Y324743D01*
X243653Y324790D01*
X243624Y324986D01*
X243602Y325183D01*
X243589Y325228D01*
X243582Y325275D01*
X243522Y325463D01*
X243469Y325653D01*
X243448Y325696D01*
X243434Y325741D01*
X243344Y325918D01*
X243260Y326096D01*
X243233Y326135D01*
X243212Y326177D01*
X243094Y326337D01*
X242982Y326499D01*
X242950Y326533D01*
X242922Y326571D01*
X242780Y326710D01*
X242643Y326852D01*
X242605Y326880D01*
X242571Y326913D01*
X242409Y327027D01*
X242251Y327144D01*
X242209Y327166D01*
X242170Y327193D01*
X241991Y327279D01*
X241816Y327369D01*
X241771Y327384D01*
X241728Y327404D01*
X241538Y327460D01*
X241350Y327521D01*
X241304Y327528D01*
X241258Y327541D01*
X241136Y327553D01*
X240867Y327594D01*
X240746Y327593D01*
X240660Y327601D01*
X223798Y327601D01*
X223704Y327594D01*
X223610Y327595D01*
X223460Y327574D01*
X223310Y327561D01*
X223219Y327538D01*
X223125Y327525D01*
X222982Y327479D01*
X222835Y327443D01*
X222749Y327405D01*
X222659Y327377D01*
X222524Y327308D01*
X222386Y327248D01*
X222307Y327197D01*
X222223Y327154D01*
X222101Y327065D01*
X221975Y326983D01*
X221905Y326920D01*
X221829Y326864D01*
X221723Y326756D01*
X221612Y326655D01*
X221553Y326581D01*
X221487Y326514D01*
X221401Y326390D01*
X221307Y326272D01*
X221261Y326190D01*
X221207Y326112D01*
X221142Y325976D01*
X221068Y325845D01*
X221036Y325756D01*
X220996Y325671D01*
X220954Y325526D01*
X220903Y325384D01*
X220885Y325291D01*
X220859Y325201D01*
X220848Y325086D01*
X220814Y324903D01*
X220810Y324717D01*
X220799Y324602D01*
X220799Y323153D01*
X219079Y319000D01*
X215900Y315821D01*
X211747Y314101D01*
X207253Y314101D01*
X203100Y315821D01*
X201858Y317063D01*
X201786Y317124D01*
X201721Y317192D01*
X201600Y317282D01*
X201485Y317380D01*
X201404Y317428D01*
X201329Y317485D01*
X201195Y317554D01*
X201065Y317631D01*
X200977Y317666D01*
X200894Y317710D01*
X200751Y317756D01*
X200610Y317812D01*
X200518Y317832D01*
X200428Y317861D01*
X200279Y317883D01*
X200132Y317915D01*
X200038Y317920D01*
X199944Y317934D01*
X199794Y317932D01*
X199643Y317940D01*
X199549Y317929D01*
X199455Y317928D01*
X199307Y317902D01*
X199157Y317885D01*
X199066Y317859D01*
X198973Y317842D01*
X198831Y317792D01*
X198686Y317751D01*
X198601Y317711D01*
X198512Y317680D01*
X198380Y317607D01*
X198243Y317543D01*
X198165Y317489D01*
X198083Y317444D01*
X197993Y317370D01*
X197840Y317265D01*
X197706Y317136D01*
X197617Y317063D01*
X194892Y314338D01*
X190096Y312351D01*
X184904Y312351D01*
X180108Y314338D01*
X177383Y317063D01*
X177312Y317124D01*
X177246Y317192D01*
X177125Y317282D01*
X177010Y317380D01*
X176929Y317428D01*
X176854Y317485D01*
X176720Y317554D01*
X176590Y317631D01*
X176503Y317666D01*
X176419Y317710D01*
X176276Y317756D01*
X176135Y317812D01*
X176043Y317832D01*
X175953Y317861D01*
X175805Y317883D01*
X175657Y317915D01*
X175563Y317920D01*
X175470Y317934D01*
X175319Y317932D01*
X175168Y317940D01*
X175074Y317929D01*
X174980Y317928D01*
X174832Y317902D01*
X174682Y317885D01*
X174591Y317859D01*
X174498Y317842D01*
X174356Y317792D01*
X174211Y317751D01*
X174126Y317711D01*
X174037Y317680D01*
X173904Y317607D01*
X173768Y317543D01*
X173691Y317489D01*
X173608Y317444D01*
X173518Y317370D01*
X173365Y317265D01*
X173232Y317137D01*
X173142Y317063D01*
X171900Y315821D01*
X167747Y314101D01*
X163253Y314101D01*
X159100Y315821D01*
X156621Y318300D01*
X156549Y318361D01*
X156483Y318429D01*
X156363Y318520D01*
X156248Y318617D01*
X156167Y318666D01*
X156091Y318722D01*
X155957Y318791D01*
X155828Y318869D01*
X155740Y318904D01*
X155656Y318947D01*
X155513Y318994D01*
X155373Y319049D01*
X155281Y319069D01*
X155191Y319098D01*
X155042Y319121D01*
X154895Y319153D01*
X154800Y319158D01*
X154707Y319172D01*
X154556Y319170D01*
X154406Y319177D01*
X154312Y319167D01*
X154218Y319166D01*
X154069Y319139D01*
X153919Y319122D01*
X153829Y319096D01*
X153736Y319080D01*
X153594Y319030D01*
X153449Y318989D01*
X153363Y318948D01*
X153274Y318917D01*
X153142Y318844D01*
X153006Y318780D01*
X152928Y318727D01*
X152845Y318681D01*
X152755Y318608D01*
X152603Y318502D01*
X152469Y318374D01*
X152379Y318300D01*
X149900Y315821D01*
X145747Y314101D01*
X141253Y314101D01*
X137100Y315821D01*
X134621Y318300D01*
X134549Y318361D01*
X134483Y318429D01*
X134363Y318520D01*
X134248Y318617D01*
X134167Y318666D01*
X134091Y318722D01*
X133957Y318791D01*
X133828Y318869D01*
X133740Y318904D01*
X133656Y318947D01*
X133513Y318994D01*
X133373Y319049D01*
X133281Y319069D01*
X133191Y319098D01*
X133042Y319121D01*
X132895Y319153D01*
X132800Y319158D01*
X132707Y319172D01*
X132556Y319170D01*
X132406Y319177D01*
X132312Y319167D01*
X132218Y319166D01*
X132069Y319139D01*
X131919Y319122D01*
X131829Y319096D01*
X131736Y319080D01*
X131594Y319030D01*
X131449Y318989D01*
X131363Y318948D01*
X131274Y318917D01*
X131142Y318844D01*
X131006Y318780D01*
X130928Y318727D01*
X130845Y318681D01*
X130755Y318608D01*
X130603Y318502D01*
X130469Y318374D01*
X130379Y318300D01*
X127900Y315821D01*
X123747Y314101D01*
X119253Y314101D01*
X115100Y315821D01*
X112621Y318300D01*
X112549Y318361D01*
X112483Y318429D01*
X112363Y318520D01*
X112248Y318617D01*
X112167Y318666D01*
X112091Y318722D01*
X111957Y318791D01*
X111828Y318869D01*
X111740Y318904D01*
X111656Y318947D01*
X111513Y318994D01*
X111373Y319049D01*
X111281Y319069D01*
X111191Y319098D01*
X111042Y319121D01*
X110895Y319153D01*
X110800Y319158D01*
X110707Y319172D01*
X110556Y319170D01*
X110406Y319177D01*
X110312Y319167D01*
X110218Y319166D01*
X110069Y319139D01*
X109919Y319122D01*
X109829Y319096D01*
X109736Y319080D01*
X109594Y319030D01*
X109449Y318989D01*
X109363Y318948D01*
X109274Y318917D01*
X109142Y318844D01*
X109006Y318780D01*
X108928Y318727D01*
X108845Y318681D01*
X108755Y318608D01*
X108603Y318502D01*
X108469Y318374D01*
X108379Y318300D01*
X105900Y315821D01*
X101747Y314101D01*
X97253Y314101D01*
X93100Y315821D01*
X90621Y318300D01*
X90549Y318361D01*
X90483Y318429D01*
X90363Y318520D01*
X90248Y318617D01*
X90167Y318666D01*
X90091Y318722D01*
X89957Y318791D01*
X89828Y318869D01*
X89740Y318904D01*
X89656Y318947D01*
X89513Y318994D01*
X89373Y319049D01*
X89281Y319069D01*
X89191Y319098D01*
X89042Y319121D01*
X88895Y319153D01*
X88800Y319158D01*
X88707Y319172D01*
X88556Y319170D01*
X88406Y319177D01*
X88312Y319167D01*
X88218Y319166D01*
X88069Y319139D01*
X87919Y319122D01*
X87829Y319096D01*
X87736Y319080D01*
X87594Y319030D01*
X87449Y318989D01*
X87363Y318948D01*
X87274Y318917D01*
X87142Y318844D01*
X87006Y318780D01*
X86928Y318727D01*
X86845Y318681D01*
X86755Y318608D01*
X86603Y318502D01*
X86469Y318374D01*
X86379Y318300D01*
X83900Y315821D01*
X79747Y314101D01*
X75253Y314101D01*
X75024Y314175D01*
X74796Y314249D01*
X74791Y314250D01*
X74787Y314251D01*
X74549Y314286D01*
X74312Y314322D01*
X74307Y314322D01*
X74303Y314323D01*
X74066Y314319D01*
X73822Y314316D01*
X73818Y314315D01*
X73813Y314315D01*
X73579Y314273D01*
X73341Y314231D01*
X73336Y314229D01*
X73332Y314228D01*
X73107Y314148D01*
X72879Y314068D01*
X72875Y314065D01*
X72871Y314064D01*
X72663Y313949D01*
X72450Y313832D01*
X72447Y313829D01*
X72442Y313827D01*
X72059Y313523D01*
X72019Y313480D01*
X71984Y313451D01*
X65352Y306819D01*
X65321Y306783D01*
X65286Y306751D01*
X65163Y306596D01*
X65035Y306446D01*
X65011Y306405D01*
X64981Y306368D01*
X64885Y306195D01*
X64783Y306026D01*
X64766Y305982D01*
X64743Y305941D01*
X64676Y305755D01*
X64603Y305571D01*
X64593Y305525D01*
X64577Y305480D01*
X64541Y305286D01*
X64499Y305093D01*
X64497Y305045D01*
X64488Y304999D01*
X64485Y304801D01*
X64475Y304604D01*
X64480Y304557D01*
X64479Y304510D01*
X64508Y304314D01*
X64530Y304117D01*
X64543Y304072D01*
X64550Y304025D01*
X64610Y303837D01*
X64663Y303647D01*
X64684Y303604D01*
X64698Y303559D01*
X64788Y303382D01*
X64872Y303204D01*
X64899Y303165D01*
X64920Y303123D01*
X65038Y302963D01*
X65150Y302801D01*
X65182Y302767D01*
X65210Y302729D01*
X65352Y302591D01*
X65489Y302448D01*
X65527Y302420D01*
X65561Y302387D01*
X65723Y302274D01*
X65881Y302156D01*
X65923Y302134D01*
X65962Y302107D01*
X66141Y302021D01*
X66316Y301931D01*
X66361Y301916D01*
X66404Y301896D01*
X66593Y301840D01*
X66782Y301779D01*
X66828Y301772D01*
X66874Y301759D01*
X66996Y301747D01*
X67265Y301706D01*
X67386Y301707D01*
X67472Y301699D01*
X68747Y301699D01*
X72900Y299979D01*
X75379Y297500D01*
X75451Y297438D01*
X75517Y297371D01*
X75637Y297281D01*
X75752Y297183D01*
X75833Y297134D01*
X75909Y297078D01*
X76043Y297009D01*
X76172Y296931D01*
X76260Y296896D01*
X76344Y296853D01*
X76487Y296806D01*
X76627Y296751D01*
X76719Y296731D01*
X76809Y296702D01*
X76958Y296679D01*
X77105Y296647D01*
X77200Y296642D01*
X77293Y296628D01*
X77444Y296630D01*
X77594Y296623D01*
X77688Y296633D01*
X77782Y296634D01*
X77931Y296661D01*
X78081Y296678D01*
X78171Y296704D01*
X78264Y296720D01*
X78406Y296770D01*
X78551Y296811D01*
X78637Y296852D01*
X78726Y296883D01*
X78858Y296956D01*
X78994Y297020D01*
X79072Y297073D01*
X79155Y297119D01*
X79244Y297192D01*
X79397Y297297D01*
X79531Y297426D01*
X79621Y297500D01*
X82100Y299979D01*
X86253Y301699D01*
X90747Y301699D01*
X94900Y299979D01*
X97379Y297500D01*
X97451Y297438D01*
X97517Y297371D01*
X97637Y297281D01*
X97752Y297183D01*
X97833Y297134D01*
X97909Y297078D01*
X98043Y297009D01*
X98172Y296931D01*
X98260Y296896D01*
X98344Y296853D01*
X98487Y296806D01*
X98627Y296751D01*
X98719Y296731D01*
X98809Y296702D01*
X98958Y296679D01*
X99105Y296647D01*
X99200Y296642D01*
X99293Y296628D01*
X99444Y296630D01*
X99594Y296623D01*
X99688Y296633D01*
X99782Y296634D01*
X99931Y296661D01*
X100081Y296678D01*
X100171Y296704D01*
X100264Y296720D01*
X100406Y296770D01*
X100551Y296811D01*
X100637Y296852D01*
X100726Y296883D01*
X100858Y296956D01*
X100994Y297020D01*
X101072Y297073D01*
X101155Y297119D01*
X101244Y297192D01*
X101397Y297297D01*
X101531Y297426D01*
X101621Y297500D01*
X104100Y299979D01*
X108253Y301699D01*
X112747Y301699D01*
X116900Y299979D01*
X119758Y297121D01*
X119823Y297066D01*
X119881Y297004D01*
X120009Y296908D01*
X120131Y296804D01*
X120204Y296761D01*
X120272Y296709D01*
X120414Y296635D01*
X120551Y296553D01*
X120630Y296521D01*
X120705Y296482D01*
X120857Y296431D01*
X121006Y296372D01*
X121089Y296354D01*
X121169Y296328D01*
X121328Y296303D01*
X121484Y296269D01*
X121569Y296264D01*
X121653Y296251D01*
X121813Y296252D01*
X121973Y296244D01*
X122057Y296254D01*
X122142Y296254D01*
X122300Y296281D01*
X122459Y296299D01*
X122541Y296322D01*
X122625Y296337D01*
X122776Y296389D01*
X122930Y296433D01*
X123007Y296469D01*
X123087Y296497D01*
X123228Y296573D01*
X123373Y296641D01*
X123443Y296689D01*
X123518Y296730D01*
X123644Y296828D01*
X123776Y296919D01*
X123837Y296978D01*
X123904Y297030D01*
X123984Y297120D01*
X124128Y297258D01*
X124218Y297378D01*
X125470Y298631D01*
X126844Y299629D01*
X128358Y300400D01*
X129501Y300771D01*
X129501Y290400D01*
X129501Y280029D01*
X128358Y280400D01*
X126844Y281171D01*
X125470Y282169D01*
X124240Y283400D01*
X124201Y283455D01*
X124091Y283571D01*
X123986Y283692D01*
X123921Y283747D01*
X123862Y283808D01*
X123734Y283904D01*
X123611Y284007D01*
X123538Y284050D01*
X123470Y284101D01*
X123328Y284174D01*
X123190Y284256D01*
X123110Y284286D01*
X123035Y284326D01*
X122883Y284375D01*
X122734Y284433D01*
X122650Y284450D01*
X122569Y284477D01*
X122411Y284501D01*
X122255Y284534D01*
X122170Y284538D01*
X122086Y284550D01*
X121926Y284548D01*
X121766Y284555D01*
X121681Y284545D01*
X121596Y284544D01*
X121438Y284516D01*
X121280Y284497D01*
X121198Y284473D01*
X121114Y284458D01*
X120963Y284405D01*
X120810Y284361D01*
X120733Y284324D01*
X120653Y284296D01*
X120513Y284218D01*
X120368Y284149D01*
X120298Y284101D01*
X120224Y284060D01*
X120131Y283984D01*
X119967Y283869D01*
X119844Y283749D01*
X119758Y283679D01*
X116900Y280821D01*
X112747Y279101D01*
X108253Y279101D01*
X104100Y280821D01*
X101621Y283300D01*
X101549Y283361D01*
X101483Y283429D01*
X101363Y283520D01*
X101248Y283617D01*
X101167Y283666D01*
X101091Y283722D01*
X100957Y283791D01*
X100828Y283869D01*
X100740Y283904D01*
X100656Y283947D01*
X100513Y283994D01*
X100373Y284049D01*
X100281Y284069D01*
X100191Y284098D01*
X100042Y284121D01*
X99895Y284153D01*
X99800Y284158D01*
X99707Y284172D01*
X99556Y284170D01*
X99406Y284177D01*
X99312Y284167D01*
X99218Y284166D01*
X99069Y284139D01*
X98919Y284122D01*
X98829Y284096D01*
X98736Y284080D01*
X98594Y284030D01*
X98449Y283989D01*
X98363Y283948D01*
X98274Y283917D01*
X98142Y283844D01*
X98006Y283780D01*
X97928Y283727D01*
X97845Y283681D01*
X97755Y283608D01*
X97603Y283502D01*
X97469Y283374D01*
X97379Y283300D01*
X94900Y280821D01*
X90747Y279101D01*
X86253Y279101D01*
X82100Y280821D01*
X79621Y283300D01*
X79549Y283361D01*
X79483Y283429D01*
X79363Y283520D01*
X79248Y283617D01*
X79167Y283666D01*
X79091Y283722D01*
X78957Y283791D01*
X78828Y283869D01*
X78740Y283904D01*
X78656Y283947D01*
X78513Y283994D01*
X78373Y284049D01*
X78281Y284069D01*
X78191Y284098D01*
X78042Y284121D01*
X77895Y284153D01*
X77800Y284158D01*
X77707Y284172D01*
X77556Y284170D01*
X77406Y284177D01*
X77312Y284167D01*
X77218Y284166D01*
X77069Y284139D01*
X76919Y284122D01*
X76829Y284096D01*
X76736Y284080D01*
X76594Y284030D01*
X76449Y283989D01*
X76363Y283948D01*
X76274Y283917D01*
X76142Y283844D01*
X76006Y283780D01*
X75928Y283727D01*
X75845Y283681D01*
X75755Y283608D01*
X75603Y283502D01*
X75469Y283374D01*
X75379Y283300D01*
X72900Y280821D01*
X68747Y279101D01*
X64253Y279101D01*
X60100Y280821D01*
X59318Y281604D01*
X59282Y281634D01*
X59250Y281669D01*
X59095Y281792D01*
X58944Y281920D01*
X58904Y281945D01*
X58867Y281974D01*
X58694Y282070D01*
X58525Y282172D01*
X58481Y282189D01*
X58440Y282212D01*
X58253Y282279D01*
X58070Y282352D01*
X58024Y282362D01*
X57979Y282378D01*
X57784Y282414D01*
X57591Y282456D01*
X57544Y282458D01*
X57498Y282467D01*
X57300Y282471D01*
X57103Y282481D01*
X57055Y282475D01*
X57008Y282476D01*
X56813Y282448D01*
X56616Y282425D01*
X56571Y282412D01*
X56524Y282406D01*
X56335Y282346D01*
X56145Y282292D01*
X56103Y282272D01*
X56058Y282257D01*
X55881Y282168D01*
X55703Y282083D01*
X55664Y282057D01*
X55622Y282035D01*
X55462Y281918D01*
X55300Y281806D01*
X55266Y281773D01*
X55227Y281745D01*
X55089Y281603D01*
X54947Y281466D01*
X54919Y281428D01*
X54886Y281395D01*
X54772Y281232D01*
X54654Y281074D01*
X54633Y281032D01*
X54606Y280993D01*
X54520Y280814D01*
X54429Y280639D01*
X54415Y280594D01*
X54394Y280552D01*
X54339Y280361D01*
X54278Y280174D01*
X54271Y280127D01*
X54258Y280082D01*
X54246Y279959D01*
X54205Y279690D01*
X54206Y279569D01*
X54198Y279483D01*
X54198Y276917D01*
X53273Y274685D01*
X51565Y272977D01*
X49333Y272052D01*
X46917Y272052D01*
X44685Y272977D01*
X42977Y274685D01*
X42052Y276917D01*
X42052Y279333D01*
X42756Y281033D01*
X42800Y281168D01*
X42852Y281299D01*
X42874Y281400D01*
X42906Y281499D01*
X42927Y281639D01*
X42957Y281777D01*
X42963Y281881D01*
X42978Y281983D01*
X42976Y282124D01*
X42984Y282266D01*
X42972Y282369D01*
X42970Y282473D01*
X42945Y282612D01*
X42930Y282752D01*
X42905Y282835D01*
X42883Y282954D01*
X42792Y283211D01*
X42756Y283329D01*
X41975Y285214D01*
X41975Y302400D01*
X42668Y304072D01*
X49686Y311090D01*
X49811Y311237D01*
X49941Y311380D01*
X49969Y311424D01*
X50003Y311463D01*
X50102Y311629D01*
X50207Y311791D01*
X50228Y311838D01*
X50254Y311883D01*
X50326Y312063D01*
X50403Y312240D01*
X50416Y312290D01*
X50435Y312338D01*
X50476Y312527D01*
X50523Y312714D01*
X50527Y312766D01*
X50538Y312816D01*
X50548Y313009D01*
X50564Y313202D01*
X50560Y313253D01*
X50563Y313305D01*
X50541Y313497D01*
X50526Y313690D01*
X50514Y313740D01*
X50508Y313791D01*
X50455Y313977D01*
X50409Y314165D01*
X50388Y314212D01*
X50374Y314262D01*
X50292Y314437D01*
X50216Y314615D01*
X50188Y314658D01*
X50166Y314705D01*
X50056Y314864D01*
X49952Y315027D01*
X49917Y315065D01*
X49888Y315108D01*
X49754Y315247D01*
X49625Y315391D01*
X49584Y315423D01*
X49549Y315461D01*
X49393Y315576D01*
X49243Y315697D01*
X49203Y315718D01*
X49203Y315719D01*
X45921Y319000D01*
X44201Y323153D01*
X44201Y326124D01*
X44190Y326264D01*
X44188Y326406D01*
X44170Y326508D01*
X44161Y326611D01*
X44127Y326748D01*
X44102Y326888D01*
X44068Y326985D01*
X44043Y327086D01*
X43986Y327216D01*
X43939Y327349D01*
X43889Y327440D01*
X43848Y327535D01*
X43772Y327654D01*
X43704Y327778D01*
X43649Y327845D01*
X43583Y327947D01*
X43401Y328148D01*
X43323Y328244D01*
X8931Y362636D01*
X8895Y362667D01*
X8863Y362702D01*
X8708Y362825D01*
X8558Y362953D01*
X8517Y362977D01*
X8480Y363007D01*
X8307Y363103D01*
X8138Y363205D01*
X8094Y363222D01*
X8053Y363245D01*
X7867Y363312D01*
X7683Y363385D01*
X7637Y363395D01*
X7592Y363411D01*
X7398Y363447D01*
X7205Y363489D01*
X7157Y363491D01*
X7111Y363500D01*
X6913Y363503D01*
X6716Y363513D01*
X6669Y363508D01*
X6622Y363509D01*
X6426Y363480D01*
X6229Y363458D01*
X6184Y363445D01*
X6137Y363438D01*
X5949Y363378D01*
X5759Y363325D01*
X5716Y363304D01*
X5671Y363290D01*
X5494Y363200D01*
X5316Y363116D01*
X5277Y363089D01*
X5235Y363068D01*
X5075Y362950D01*
X4913Y362838D01*
X4879Y362806D01*
X4841Y362778D01*
X4702Y362636D01*
X4560Y362499D01*
X4532Y362461D01*
X4499Y362427D01*
X4385Y362265D01*
X4268Y362107D01*
X4246Y362065D01*
X4219Y362026D01*
X4133Y361847D01*
X4043Y361672D01*
X4028Y361627D01*
X4008Y361584D01*
X3952Y361394D01*
X3891Y361206D01*
X3884Y361160D01*
X3871Y361114D01*
X3859Y360992D01*
X3818Y360723D01*
X3819Y360602D01*
X3811Y360516D01*
X3811Y6810D01*
X3818Y6716D01*
X3817Y6622D01*
X3838Y6472D01*
X3851Y6322D01*
X3874Y6231D01*
X3887Y6137D01*
X3933Y5994D01*
X3969Y5847D01*
X4007Y5761D01*
X4035Y5671D01*
X4104Y5536D01*
X4164Y5398D01*
X4215Y5319D01*
X4258Y5235D01*
X4347Y5113D01*
X4429Y4987D01*
X4492Y4917D01*
X4548Y4841D01*
X4656Y4735D01*
X4757Y4624D01*
X4831Y4565D01*
X4898Y4499D01*
X5022Y4413D01*
X5140Y4319D01*
X5222Y4273D01*
X5300Y4219D01*
X5436Y4154D01*
X5567Y4080D01*
X5656Y4048D01*
X5741Y4008D01*
X5886Y3966D01*
X6028Y3915D01*
X6121Y3897D01*
X6211Y3871D01*
X6326Y3860D01*
X6509Y3826D01*
X6695Y3822D01*
X6810Y3811D01*
X643190Y3811D01*
X643284Y3818D01*
G37*
%LPC*%
G36*
X375897Y39311D02*
X375897Y39311D01*
X375636Y39573D01*
X375528Y39664D01*
X375427Y39763D01*
X375341Y39823D01*
X375263Y39889D01*
X375141Y39962D01*
X375025Y40043D01*
X374932Y40088D01*
X374843Y40141D01*
X374711Y40193D01*
X374584Y40254D01*
X374484Y40283D01*
X374388Y40321D01*
X374249Y40351D01*
X374114Y40391D01*
X374028Y40400D01*
X373909Y40425D01*
X373638Y40439D01*
X373515Y40451D01*
X237024Y40451D01*
X235352Y41144D01*
X143702Y132794D01*
X143521Y132948D01*
X143337Y133105D01*
X143333Y133108D01*
X143329Y133111D01*
X143125Y133233D01*
X142918Y133358D01*
X142913Y133360D01*
X142909Y133362D01*
X142685Y133451D01*
X142463Y133540D01*
X142459Y133541D01*
X142454Y133542D01*
X142215Y133594D01*
X141985Y133645D01*
X141981Y133645D01*
X141976Y133646D01*
X141735Y133658D01*
X141496Y133671D01*
X141492Y133671D01*
X141487Y133671D01*
X141248Y133644D01*
X141010Y133617D01*
X141006Y133616D01*
X141001Y133616D01*
X140530Y133482D01*
X140477Y133457D01*
X140434Y133444D01*
X138399Y132601D01*
X134501Y132601D01*
X130899Y134093D01*
X128143Y136849D01*
X126651Y140451D01*
X126651Y144349D01*
X128143Y147951D01*
X131023Y150830D01*
X131114Y150938D01*
X131213Y151039D01*
X131273Y151125D01*
X131339Y151203D01*
X131412Y151325D01*
X131493Y151441D01*
X131538Y151534D01*
X131591Y151623D01*
X131643Y151755D01*
X131704Y151882D01*
X131733Y151982D01*
X131771Y152078D01*
X131801Y152217D01*
X131841Y152352D01*
X131850Y152438D01*
X131875Y152557D01*
X131889Y152828D01*
X131901Y152951D01*
X131901Y156082D01*
X131886Y156274D01*
X131876Y156467D01*
X131866Y156518D01*
X131861Y156569D01*
X131815Y156756D01*
X131774Y156946D01*
X131755Y156994D01*
X131743Y157044D01*
X131666Y157221D01*
X131595Y157401D01*
X131569Y157446D01*
X131548Y157493D01*
X131444Y157655D01*
X131345Y157822D01*
X131311Y157862D01*
X131283Y157905D01*
X131154Y158048D01*
X131029Y158196D01*
X130990Y158230D01*
X130955Y158268D01*
X130804Y158388D01*
X130657Y158514D01*
X130613Y158540D01*
X130572Y158573D01*
X130403Y158667D01*
X130238Y158767D01*
X130190Y158786D01*
X130145Y158811D01*
X129963Y158877D01*
X129784Y158948D01*
X129733Y158959D01*
X129684Y158977D01*
X129494Y159012D01*
X129306Y159054D01*
X129254Y159056D01*
X129203Y159066D01*
X129010Y159069D01*
X128817Y159080D01*
X128765Y159074D01*
X128714Y159075D01*
X128523Y159047D01*
X128331Y159026D01*
X128287Y159013D01*
X128229Y159004D01*
X127763Y158856D01*
X127758Y158854D01*
X127754Y158853D01*
X125699Y158001D01*
X121801Y158001D01*
X118199Y159493D01*
X116424Y161269D01*
X116352Y161330D01*
X116286Y161398D01*
X116165Y161488D01*
X116050Y161586D01*
X115970Y161634D01*
X115894Y161691D01*
X115760Y161760D01*
X115631Y161837D01*
X115543Y161872D01*
X115459Y161916D01*
X115316Y161962D01*
X115176Y162018D01*
X115084Y162038D01*
X114994Y162067D01*
X114845Y162089D01*
X114697Y162121D01*
X114603Y162126D01*
X114510Y162140D01*
X114359Y162138D01*
X114209Y162146D01*
X114115Y162135D01*
X114020Y162134D01*
X113872Y162108D01*
X113722Y162091D01*
X113631Y162065D01*
X113539Y162048D01*
X113396Y161998D01*
X113251Y161957D01*
X113166Y161917D01*
X113077Y161886D01*
X112945Y161813D01*
X112809Y161749D01*
X112731Y161695D01*
X112648Y161650D01*
X112558Y161576D01*
X112405Y161471D01*
X112272Y161342D01*
X112182Y161269D01*
X107679Y156766D01*
X107654Y156737D01*
X107626Y156712D01*
X107496Y156551D01*
X107362Y156393D01*
X107343Y156360D01*
X107319Y156331D01*
X107217Y156150D01*
X107110Y155973D01*
X107096Y155938D01*
X107078Y155905D01*
X107006Y155710D01*
X106930Y155518D01*
X106922Y155481D01*
X106909Y155446D01*
X106870Y155242D01*
X106826Y155040D01*
X106825Y155002D01*
X106817Y154965D01*
X106812Y154759D01*
X106802Y154551D01*
X106806Y154513D01*
X106805Y154476D01*
X106834Y154271D01*
X106857Y154065D01*
X106867Y154028D01*
X106873Y153991D01*
X106934Y153793D01*
X106991Y153594D01*
X107007Y153560D01*
X107018Y153523D01*
X107111Y153338D01*
X107199Y153151D01*
X107221Y153120D01*
X107238Y153086D01*
X107359Y152919D01*
X107477Y152748D01*
X107503Y152721D01*
X107525Y152690D01*
X107672Y152545D01*
X107816Y152395D01*
X107847Y152373D01*
X107873Y152346D01*
X108042Y152227D01*
X108051Y152221D01*
X108051Y145399D01*
X102256Y145399D01*
X102440Y145966D01*
X103104Y147269D01*
X104099Y148639D01*
X104128Y148688D01*
X104164Y148732D01*
X104256Y148896D01*
X104353Y149057D01*
X104375Y149110D01*
X104402Y149159D01*
X104466Y149337D01*
X104536Y149511D01*
X104549Y149566D01*
X104568Y149620D01*
X104602Y149805D01*
X104643Y149989D01*
X104646Y150045D01*
X104657Y150101D01*
X104660Y150289D01*
X104671Y150477D01*
X104665Y150534D01*
X104666Y150590D01*
X104639Y150777D01*
X104619Y150964D01*
X104604Y151019D01*
X104595Y151075D01*
X104538Y151254D01*
X104488Y151436D01*
X104464Y151487D01*
X104447Y151541D01*
X104362Y151709D01*
X104282Y151880D01*
X104251Y151927D01*
X104225Y151977D01*
X104113Y152129D01*
X104007Y152285D01*
X103968Y152326D01*
X103935Y152371D01*
X103800Y152503D01*
X103670Y152639D01*
X103625Y152673D01*
X103584Y152713D01*
X103430Y152821D01*
X103280Y152934D01*
X103230Y152961D01*
X103183Y152993D01*
X103013Y153075D01*
X102846Y153162D01*
X102793Y153180D01*
X102741Y153204D01*
X102561Y153257D01*
X102382Y153316D01*
X102326Y153325D01*
X102271Y153341D01*
X102147Y153353D01*
X101898Y153393D01*
X101765Y153392D01*
X101673Y153401D01*
X95747Y153401D01*
X95700Y153397D01*
X95653Y153400D01*
X95456Y153377D01*
X95259Y153361D01*
X95213Y153350D01*
X95166Y153345D01*
X94977Y153291D01*
X94784Y153243D01*
X94741Y153224D01*
X94696Y153211D01*
X94517Y153127D01*
X94335Y153048D01*
X94296Y153023D01*
X94253Y153003D01*
X94090Y152890D01*
X93924Y152783D01*
X93889Y152752D01*
X93850Y152725D01*
X93707Y152587D01*
X93561Y152455D01*
X93531Y152418D01*
X93497Y152385D01*
X93379Y152227D01*
X93256Y152072D01*
X93233Y152031D01*
X93205Y151993D01*
X93114Y151818D01*
X93017Y151645D01*
X93001Y151600D01*
X92980Y151558D01*
X92919Y151371D01*
X92852Y151184D01*
X92843Y151138D01*
X92828Y151093D01*
X92799Y150898D01*
X92763Y150703D01*
X92762Y150656D01*
X92755Y150609D01*
X92757Y150411D01*
X92754Y150214D01*
X92761Y150167D01*
X92761Y150120D01*
X92796Y149925D01*
X92824Y149729D01*
X92839Y149684D01*
X92847Y149638D01*
X92913Y149451D01*
X92973Y149263D01*
X92994Y149221D01*
X93010Y149176D01*
X93105Y149003D01*
X93195Y148827D01*
X93223Y148789D01*
X93246Y148747D01*
X93324Y148652D01*
X93485Y148433D01*
X93572Y148348D01*
X93626Y148281D01*
X93957Y147950D01*
X95449Y144349D01*
X95449Y140451D01*
X93957Y136849D01*
X91201Y134093D01*
X87599Y132601D01*
X83701Y132601D01*
X80099Y134093D01*
X77343Y136849D01*
X75851Y140451D01*
X75851Y144385D01*
X75873Y144484D01*
X75905Y144582D01*
X75926Y144722D01*
X75956Y144861D01*
X75961Y144964D01*
X75977Y145066D01*
X75975Y145208D01*
X75982Y145349D01*
X75971Y145452D01*
X75969Y145556D01*
X75944Y145695D01*
X75928Y145836D01*
X75903Y145918D01*
X75882Y146037D01*
X75790Y146294D01*
X75755Y146412D01*
X75451Y147145D01*
X75451Y155002D01*
X75444Y155096D01*
X75445Y155190D01*
X75424Y155340D01*
X75411Y155490D01*
X75388Y155581D01*
X75375Y155675D01*
X75329Y155818D01*
X75293Y155965D01*
X75255Y156051D01*
X75227Y156141D01*
X75158Y156276D01*
X75098Y156414D01*
X75047Y156493D01*
X75004Y156577D01*
X74915Y156699D01*
X74833Y156825D01*
X74770Y156895D01*
X74714Y156971D01*
X74606Y157077D01*
X74505Y157188D01*
X74431Y157247D01*
X74364Y157313D01*
X74240Y157399D01*
X74122Y157493D01*
X74040Y157539D01*
X73962Y157593D01*
X73826Y157658D01*
X73695Y157732D01*
X73606Y157764D01*
X73521Y157804D01*
X73376Y157846D01*
X73234Y157897D01*
X73141Y157915D01*
X73051Y157941D01*
X72936Y157952D01*
X72753Y157986D01*
X72567Y157990D01*
X72452Y158001D01*
X71001Y158001D01*
X67399Y159493D01*
X64643Y162249D01*
X63151Y165851D01*
X63151Y169749D01*
X64643Y173351D01*
X67399Y176107D01*
X71001Y177599D01*
X75063Y177599D01*
X75161Y177584D01*
X75351Y177549D01*
X75403Y177548D01*
X75454Y177541D01*
X75647Y177544D01*
X75840Y177540D01*
X75891Y177547D01*
X75943Y177548D01*
X76133Y177583D01*
X76325Y177610D01*
X76374Y177626D01*
X76425Y177635D01*
X76607Y177700D01*
X76791Y177759D01*
X76837Y177782D01*
X76886Y177799D01*
X77055Y177893D01*
X77227Y177981D01*
X77269Y178012D01*
X77314Y178037D01*
X77465Y178156D01*
X77621Y178271D01*
X77657Y178308D01*
X77698Y178340D01*
X77828Y178483D01*
X77963Y178621D01*
X77993Y178664D01*
X78027Y178702D01*
X78132Y178864D01*
X78243Y179023D01*
X78266Y179069D01*
X78294Y179113D01*
X78371Y179290D01*
X78454Y179464D01*
X78469Y179514D01*
X78489Y179561D01*
X78537Y179749D01*
X78591Y179934D01*
X78595Y179979D01*
X78610Y180036D01*
X78651Y180523D01*
X78651Y180529D01*
X78651Y180533D01*
X78651Y216174D01*
X79344Y217845D01*
X81045Y219547D01*
X81372Y219873D01*
X81372Y219874D01*
X86811Y225312D01*
X114014Y252516D01*
X114106Y252624D01*
X114205Y252725D01*
X114264Y252810D01*
X114331Y252889D01*
X114404Y253010D01*
X114485Y253126D01*
X114530Y253220D01*
X114583Y253309D01*
X114635Y253440D01*
X114696Y253568D01*
X114725Y253668D01*
X114763Y253764D01*
X114793Y253902D01*
X114832Y254038D01*
X114840Y254115D01*
X115817Y256474D01*
X117526Y258183D01*
X119758Y259107D01*
X122174Y259107D01*
X124406Y258183D01*
X126114Y256474D01*
X127115Y254056D01*
X127180Y253930D01*
X127236Y253800D01*
X127292Y253713D01*
X127339Y253621D01*
X127423Y253507D01*
X127499Y253388D01*
X127569Y253311D01*
X127630Y253228D01*
X127732Y253129D01*
X127826Y253024D01*
X127907Y252959D01*
X127982Y252887D01*
X128098Y252806D01*
X128208Y252718D01*
X128285Y252677D01*
X128384Y252608D01*
X128630Y252491D01*
X128739Y252433D01*
X129679Y252043D01*
X129748Y251992D01*
X129863Y251895D01*
X129944Y251846D01*
X130019Y251790D01*
X130153Y251721D01*
X130282Y251643D01*
X130370Y251608D01*
X130454Y251565D01*
X130597Y251518D01*
X130737Y251463D01*
X130830Y251443D01*
X130920Y251414D01*
X131069Y251391D01*
X131216Y251359D01*
X131310Y251354D01*
X131403Y251340D01*
X131554Y251342D01*
X131705Y251334D01*
X131798Y251345D01*
X131893Y251346D01*
X132041Y251373D01*
X132191Y251390D01*
X132282Y251415D01*
X132375Y251432D01*
X132517Y251482D01*
X132662Y251523D01*
X132747Y251563D01*
X132836Y251595D01*
X132968Y251667D01*
X133105Y251731D01*
X133183Y251785D01*
X133265Y251831D01*
X133355Y251904D01*
X133508Y252009D01*
X133642Y252138D01*
X133731Y252211D01*
X145500Y263980D01*
X147172Y264673D01*
X154718Y264673D01*
X154859Y264684D01*
X155001Y264686D01*
X155103Y264704D01*
X155206Y264713D01*
X155343Y264747D01*
X155482Y264772D01*
X155580Y264806D01*
X155681Y264831D01*
X155811Y264888D01*
X155944Y264935D01*
X156035Y264985D01*
X156130Y265026D01*
X156249Y265102D01*
X156373Y265170D01*
X156433Y265220D01*
X158792Y266197D01*
X161208Y266197D01*
X163440Y265272D01*
X165148Y263564D01*
X166073Y261332D01*
X166073Y258916D01*
X165148Y256684D01*
X163440Y254976D01*
X161208Y254051D01*
X158792Y254051D01*
X156459Y255018D01*
X156345Y255086D01*
X156229Y255167D01*
X156135Y255212D01*
X156046Y255265D01*
X155915Y255317D01*
X155787Y255378D01*
X155688Y255407D01*
X155591Y255445D01*
X155453Y255475D01*
X155317Y255515D01*
X155231Y255524D01*
X155113Y255549D01*
X154841Y255563D01*
X154718Y255575D01*
X151203Y255575D01*
X151063Y255564D01*
X150921Y255562D01*
X150819Y255544D01*
X150716Y255535D01*
X150578Y255501D01*
X150439Y255476D01*
X150341Y255442D01*
X150241Y255417D01*
X150111Y255360D01*
X149978Y255313D01*
X149887Y255263D01*
X149792Y255222D01*
X149673Y255146D01*
X149549Y255078D01*
X149482Y255023D01*
X149380Y254957D01*
X149178Y254775D01*
X149083Y254697D01*
X129579Y235193D01*
X129548Y235157D01*
X129513Y235125D01*
X129390Y234970D01*
X129262Y234820D01*
X129238Y234779D01*
X129208Y234742D01*
X129112Y234569D01*
X129010Y234400D01*
X128993Y234356D01*
X128970Y234315D01*
X128903Y234128D01*
X128830Y233945D01*
X128820Y233899D01*
X128804Y233854D01*
X128768Y233660D01*
X128726Y233467D01*
X128724Y233419D01*
X128715Y233373D01*
X128711Y233175D01*
X128702Y232978D01*
X128707Y232931D01*
X128706Y232884D01*
X128734Y232688D01*
X128757Y232491D01*
X128770Y232446D01*
X128776Y232399D01*
X128836Y232211D01*
X128890Y232021D01*
X128910Y231978D01*
X128925Y231933D01*
X129015Y231756D01*
X129099Y231578D01*
X129125Y231539D01*
X129147Y231497D01*
X129265Y231337D01*
X129376Y231175D01*
X129409Y231141D01*
X129437Y231103D01*
X129579Y230964D01*
X129716Y230822D01*
X129754Y230794D01*
X129788Y230761D01*
X129950Y230647D01*
X130108Y230530D01*
X130150Y230508D01*
X130189Y230481D01*
X130368Y230395D01*
X130543Y230305D01*
X130588Y230290D01*
X130630Y230270D01*
X130820Y230214D01*
X131008Y230153D01*
X131055Y230146D01*
X131100Y230133D01*
X131223Y230121D01*
X131449Y230087D01*
X133714Y229148D01*
X135422Y227440D01*
X136347Y225208D01*
X136347Y225102D01*
X136358Y224961D01*
X136360Y224820D01*
X136378Y224718D01*
X136387Y224614D01*
X136421Y224477D01*
X136446Y224338D01*
X136480Y224240D01*
X136505Y224139D01*
X136562Y224010D01*
X136609Y223876D01*
X136659Y223785D01*
X136700Y223690D01*
X136776Y223571D01*
X136844Y223447D01*
X136899Y223380D01*
X136965Y223279D01*
X137147Y223077D01*
X137225Y222981D01*
X138374Y221833D01*
X138555Y221679D01*
X138740Y221521D01*
X138744Y221519D01*
X138747Y221516D01*
X138951Y221393D01*
X139158Y221268D01*
X139163Y221266D01*
X139167Y221264D01*
X139392Y221175D01*
X139613Y221087D01*
X139617Y221086D01*
X139622Y221084D01*
X139861Y221032D01*
X140091Y220981D01*
X140096Y220981D01*
X140100Y220980D01*
X140341Y220968D01*
X140580Y220955D01*
X140584Y220956D01*
X140589Y220956D01*
X140828Y220983D01*
X141066Y221009D01*
X141070Y221010D01*
X141075Y221011D01*
X141546Y221144D01*
X141599Y221169D01*
X141643Y221182D01*
X143792Y222073D01*
X146208Y222073D01*
X148440Y221148D01*
X150148Y219440D01*
X151115Y217107D01*
X151147Y216978D01*
X151172Y216838D01*
X151206Y216741D01*
X151231Y216640D01*
X151288Y216510D01*
X151335Y216377D01*
X151385Y216286D01*
X151426Y216191D01*
X151502Y216072D01*
X151570Y215948D01*
X151625Y215881D01*
X151691Y215779D01*
X151873Y215578D01*
X151951Y215482D01*
X153006Y214427D01*
X153699Y212755D01*
X153699Y178351D01*
X153710Y178210D01*
X153712Y178069D01*
X153730Y177966D01*
X153739Y177863D01*
X153773Y177726D01*
X153798Y177587D01*
X153832Y177489D01*
X153857Y177388D01*
X153914Y177259D01*
X153961Y177125D01*
X154011Y177034D01*
X154052Y176939D01*
X154128Y176820D01*
X154196Y176696D01*
X154251Y176629D01*
X154317Y176528D01*
X154499Y176326D01*
X154577Y176230D01*
X157457Y173351D01*
X158949Y169749D01*
X158949Y165851D01*
X157457Y162249D01*
X154577Y159370D01*
X154486Y159262D01*
X154387Y159161D01*
X154328Y159076D01*
X154261Y158997D01*
X154188Y158876D01*
X154107Y158759D01*
X154062Y158666D01*
X154009Y158577D01*
X153957Y158446D01*
X153896Y158318D01*
X153867Y158218D01*
X153829Y158122D01*
X153799Y157984D01*
X153759Y157848D01*
X153750Y157762D01*
X153725Y157644D01*
X153711Y157372D01*
X153699Y157249D01*
X153699Y143976D01*
X153710Y143836D01*
X153712Y143694D01*
X153730Y143592D01*
X153739Y143489D01*
X153773Y143351D01*
X153798Y143212D01*
X153832Y143115D01*
X153857Y143014D01*
X153914Y142884D01*
X153961Y142751D01*
X154011Y142660D01*
X154052Y142565D01*
X154128Y142446D01*
X154196Y142322D01*
X154251Y142255D01*
X154317Y142153D01*
X154499Y141952D01*
X154577Y141856D01*
X241006Y55427D01*
X241113Y55336D01*
X241215Y55237D01*
X241300Y55177D01*
X241379Y55111D01*
X241500Y55038D01*
X241616Y54957D01*
X241710Y54912D01*
X241799Y54859D01*
X241930Y54807D01*
X242058Y54746D01*
X242157Y54717D01*
X242254Y54679D01*
X242392Y54649D01*
X242528Y54609D01*
X242614Y54600D01*
X242732Y54575D01*
X243004Y54561D01*
X243126Y54549D01*
X366974Y54549D01*
X367114Y54560D01*
X367256Y54562D01*
X367358Y54580D01*
X367461Y54589D01*
X367598Y54623D01*
X367738Y54648D01*
X367835Y54682D01*
X367936Y54707D01*
X368066Y54764D01*
X368199Y54811D01*
X368290Y54861D01*
X368385Y54902D01*
X368504Y54978D01*
X368628Y55046D01*
X368695Y55101D01*
X368797Y55167D01*
X368998Y55349D01*
X369094Y55427D01*
X373933Y60266D01*
X374024Y60373D01*
X374123Y60475D01*
X374183Y60560D01*
X374249Y60639D01*
X374322Y60760D01*
X374403Y60876D01*
X374448Y60970D01*
X374501Y61059D01*
X374553Y61190D01*
X374614Y61318D01*
X374643Y61417D01*
X374681Y61514D01*
X374711Y61652D01*
X374751Y61788D01*
X374760Y61874D01*
X374785Y61992D01*
X374799Y62264D01*
X374811Y62386D01*
X374811Y64103D01*
X376597Y65889D01*
X384203Y65889D01*
X384464Y65627D01*
X384572Y65536D01*
X384673Y65437D01*
X384759Y65377D01*
X384838Y65311D01*
X384959Y65238D01*
X385075Y65157D01*
X385168Y65112D01*
X385257Y65059D01*
X385389Y65007D01*
X385516Y64946D01*
X385616Y64917D01*
X385712Y64879D01*
X385851Y64849D01*
X385986Y64809D01*
X386072Y64800D01*
X386191Y64775D01*
X386462Y64761D01*
X386585Y64749D01*
X394418Y64749D01*
X394559Y64760D01*
X394701Y64762D01*
X394803Y64780D01*
X394906Y64789D01*
X395043Y64823D01*
X395182Y64848D01*
X395280Y64882D01*
X395381Y64907D01*
X395511Y64964D01*
X395644Y65011D01*
X395735Y65061D01*
X395830Y65102D01*
X395949Y65178D01*
X396073Y65246D01*
X396133Y65296D01*
X398492Y66273D01*
X400908Y66273D01*
X403140Y65348D01*
X404807Y63681D01*
X404879Y63620D01*
X404944Y63552D01*
X405065Y63462D01*
X405180Y63365D01*
X405261Y63316D01*
X405337Y63260D01*
X405470Y63190D01*
X405600Y63113D01*
X405688Y63078D01*
X405771Y63035D01*
X405914Y62988D01*
X406055Y62933D01*
X406147Y62913D01*
X406237Y62883D01*
X406386Y62861D01*
X406533Y62829D01*
X406627Y62824D01*
X406721Y62810D01*
X406871Y62812D01*
X407022Y62804D01*
X407116Y62815D01*
X407210Y62816D01*
X407358Y62843D01*
X407508Y62860D01*
X407599Y62885D01*
X407692Y62902D01*
X407834Y62952D01*
X407979Y62993D01*
X408064Y63033D01*
X408153Y63065D01*
X408285Y63137D01*
X408422Y63202D01*
X408500Y63255D01*
X408582Y63301D01*
X408672Y63374D01*
X408825Y63479D01*
X408959Y63608D01*
X409048Y63681D01*
X411849Y66482D01*
X411940Y66589D01*
X412039Y66691D01*
X412099Y66776D01*
X412165Y66855D01*
X412238Y66976D01*
X412319Y67092D01*
X412364Y67186D01*
X412417Y67275D01*
X412469Y67406D01*
X412530Y67534D01*
X412559Y67633D01*
X412597Y67730D01*
X412627Y67868D01*
X412667Y68004D01*
X412675Y68081D01*
X413652Y70440D01*
X415360Y72148D01*
X417592Y73073D01*
X420008Y73073D01*
X422240Y72148D01*
X423948Y70440D01*
X424873Y68208D01*
X424873Y65792D01*
X423948Y63560D01*
X422240Y61852D01*
X419907Y60885D01*
X419778Y60853D01*
X419638Y60828D01*
X419541Y60794D01*
X419440Y60769D01*
X419310Y60712D01*
X419177Y60665D01*
X419086Y60615D01*
X418991Y60574D01*
X418872Y60498D01*
X418748Y60430D01*
X418681Y60375D01*
X418579Y60309D01*
X418378Y60127D01*
X418282Y60049D01*
X399277Y41044D01*
X397605Y40351D01*
X385785Y40351D01*
X385644Y40340D01*
X385503Y40338D01*
X385400Y40320D01*
X385297Y40311D01*
X385160Y40277D01*
X385021Y40252D01*
X384923Y40218D01*
X384823Y40193D01*
X384693Y40136D01*
X384559Y40089D01*
X384469Y40039D01*
X384373Y39998D01*
X384254Y39922D01*
X384130Y39854D01*
X384064Y39799D01*
X383962Y39733D01*
X383760Y39551D01*
X383664Y39473D01*
X383503Y39311D01*
X375897Y39311D01*
G37*
%LPD*%
G36*
X110688Y331633D02*
X110688Y331633D01*
X110782Y331634D01*
X110931Y331661D01*
X111081Y331678D01*
X111171Y331704D01*
X111264Y331720D01*
X111406Y331770D01*
X111551Y331811D01*
X111637Y331852D01*
X111726Y331883D01*
X111858Y331956D01*
X111994Y332020D01*
X112072Y332073D01*
X112155Y332119D01*
X112245Y332192D01*
X112397Y332297D01*
X112531Y332426D01*
X112621Y332500D01*
X114868Y334747D01*
X115024Y334931D01*
X115180Y335113D01*
X115182Y335117D01*
X115185Y335120D01*
X115308Y335325D01*
X115433Y335532D01*
X115435Y335536D01*
X115437Y335540D01*
X115524Y335761D01*
X115614Y335986D01*
X115615Y335991D01*
X115617Y335995D01*
X115668Y336231D01*
X115720Y336464D01*
X115720Y336469D01*
X115721Y336473D01*
X115733Y336714D01*
X115746Y336953D01*
X115745Y336958D01*
X115745Y336962D01*
X115718Y337202D01*
X115692Y337439D01*
X115691Y337443D01*
X115690Y337449D01*
X115557Y337919D01*
X115532Y337972D01*
X115519Y338016D01*
X114601Y340230D01*
X114601Y343970D01*
X116032Y347424D01*
X118676Y350068D01*
X122130Y351499D01*
X125959Y351499D01*
X126026Y351477D01*
X126068Y351471D01*
X126109Y351459D01*
X126229Y351447D01*
X126510Y351405D01*
X126625Y351407D01*
X126708Y351399D01*
X149978Y351399D01*
X150119Y351410D01*
X150261Y351412D01*
X150363Y351430D01*
X150466Y351439D01*
X150603Y351473D01*
X150742Y351498D01*
X150840Y351532D01*
X150941Y351557D01*
X151071Y351614D01*
X151204Y351661D01*
X151295Y351711D01*
X151390Y351752D01*
X151509Y351828D01*
X151633Y351896D01*
X151700Y351951D01*
X151802Y352017D01*
X152003Y352199D01*
X152099Y352277D01*
X153073Y353251D01*
X153164Y353359D01*
X153263Y353460D01*
X153323Y353545D01*
X153389Y353624D01*
X153462Y353745D01*
X153543Y353861D01*
X153588Y353955D01*
X153641Y354044D01*
X153693Y354175D01*
X153754Y354303D01*
X153783Y354402D01*
X153821Y354499D01*
X153851Y354637D01*
X153891Y354773D01*
X153900Y354859D01*
X153925Y354977D01*
X153939Y355249D01*
X153951Y355372D01*
X153951Y371203D01*
X154183Y371762D01*
X154196Y371803D01*
X154214Y371841D01*
X154271Y372036D01*
X154333Y372228D01*
X154339Y372271D01*
X154351Y372311D01*
X154363Y372432D01*
X154405Y372713D01*
X154403Y372828D01*
X154411Y372910D01*
X154411Y373803D01*
X156197Y375589D01*
X157090Y375589D01*
X157132Y375592D01*
X157175Y375590D01*
X157376Y375612D01*
X157578Y375629D01*
X157619Y375639D01*
X157661Y375644D01*
X157778Y375679D01*
X158052Y375747D01*
X158158Y375793D01*
X158238Y375817D01*
X158797Y376049D01*
X161203Y376049D01*
X161762Y375817D01*
X161803Y375804D01*
X161841Y375786D01*
X162036Y375729D01*
X162228Y375667D01*
X162271Y375661D01*
X162311Y375649D01*
X162432Y375637D01*
X162713Y375595D01*
X162828Y375597D01*
X162910Y375589D01*
X163803Y375589D01*
X165589Y373803D01*
X165589Y372910D01*
X165592Y372868D01*
X165590Y372825D01*
X165612Y372624D01*
X165629Y372422D01*
X165639Y372381D01*
X165644Y372339D01*
X165679Y372222D01*
X165747Y371948D01*
X165793Y371842D01*
X165817Y371762D01*
X166049Y371203D01*
X166049Y350421D01*
X165128Y348198D01*
X163420Y346490D01*
X163359Y346418D01*
X163291Y346352D01*
X163201Y346231D01*
X163103Y346116D01*
X163055Y346036D01*
X162998Y345960D01*
X162929Y345826D01*
X162851Y345697D01*
X162817Y345609D01*
X162773Y345525D01*
X162727Y345382D01*
X162671Y345242D01*
X162651Y345149D01*
X162622Y345060D01*
X162599Y344911D01*
X162567Y344763D01*
X162563Y344669D01*
X162548Y344576D01*
X162550Y344425D01*
X162543Y344275D01*
X162553Y344181D01*
X162555Y344086D01*
X162581Y343938D01*
X162598Y343788D01*
X162624Y343697D01*
X162640Y343605D01*
X162690Y343463D01*
X162732Y343317D01*
X162772Y343232D01*
X162803Y343143D01*
X162876Y343011D01*
X162940Y342875D01*
X162994Y342797D01*
X163039Y342714D01*
X163112Y342624D01*
X163218Y342472D01*
X163346Y342338D01*
X163420Y342248D01*
X165002Y340666D01*
X168068Y337600D01*
X168109Y337500D01*
X168174Y337374D01*
X168230Y337244D01*
X168286Y337156D01*
X168333Y337064D01*
X168417Y336951D01*
X168493Y336831D01*
X168563Y336754D01*
X168624Y336671D01*
X168726Y336573D01*
X168820Y336467D01*
X168901Y336403D01*
X168976Y336330D01*
X169092Y336250D01*
X169202Y336161D01*
X169279Y336121D01*
X169378Y336052D01*
X169624Y335935D01*
X169733Y335876D01*
X172304Y334811D01*
X172394Y334783D01*
X172480Y334745D01*
X172626Y334708D01*
X172770Y334662D01*
X172863Y334648D01*
X172955Y334625D01*
X173105Y334612D01*
X173254Y334590D01*
X173348Y334591D01*
X173442Y334583D01*
X173593Y334595D01*
X173743Y334597D01*
X173836Y334614D01*
X173930Y334622D01*
X174076Y334658D01*
X174225Y334684D01*
X174314Y334716D01*
X174405Y334739D01*
X174544Y334798D01*
X174686Y334849D01*
X174769Y334895D01*
X174855Y334932D01*
X174982Y335013D01*
X175114Y335086D01*
X175188Y335145D01*
X175267Y335195D01*
X175379Y335296D01*
X175498Y335390D01*
X175561Y335459D01*
X175632Y335522D01*
X175726Y335640D01*
X175827Y335752D01*
X175878Y335831D01*
X175938Y335904D01*
X175993Y336007D01*
X176093Y336162D01*
X176168Y336332D01*
X176222Y336435D01*
X178188Y341179D01*
X182280Y345272D01*
X189628Y352620D01*
X193721Y356712D01*
X198517Y358699D01*
X203647Y358699D01*
X203694Y358703D01*
X203741Y358700D01*
X203938Y358723D01*
X204135Y358739D01*
X204181Y358750D01*
X204228Y358755D01*
X204418Y358809D01*
X204610Y358857D01*
X204653Y358876D01*
X204699Y358889D01*
X204878Y358973D01*
X205059Y359052D01*
X205098Y359077D01*
X205141Y359097D01*
X205305Y359210D01*
X205470Y359317D01*
X205505Y359348D01*
X205544Y359375D01*
X205687Y359513D01*
X205833Y359645D01*
X205863Y359682D01*
X205897Y359715D01*
X206015Y359873D01*
X206138Y360028D01*
X206161Y360069D01*
X206190Y360107D01*
X206280Y360282D01*
X206377Y360455D01*
X206393Y360500D01*
X206414Y360542D01*
X206476Y360730D01*
X206543Y360916D01*
X206551Y360962D01*
X206566Y361007D01*
X206595Y361202D01*
X206631Y361397D01*
X206632Y361444D01*
X206639Y361491D01*
X206637Y361689D01*
X206640Y361886D01*
X206634Y361933D01*
X206633Y361980D01*
X206598Y362175D01*
X206570Y362371D01*
X206556Y362416D01*
X206547Y362462D01*
X206482Y362648D01*
X206422Y362837D01*
X206400Y362879D01*
X206384Y362924D01*
X206289Y363097D01*
X206199Y363273D01*
X206171Y363311D01*
X206149Y363353D01*
X206070Y363448D01*
X205909Y363667D01*
X205823Y363752D01*
X205768Y363819D01*
X203255Y366331D01*
X199596Y372670D01*
X197701Y379740D01*
X197701Y387060D01*
X199596Y394130D01*
X203256Y400469D01*
X208431Y405644D01*
X214770Y409304D01*
X221840Y411199D01*
X224741Y411199D01*
X224788Y411203D01*
X224835Y411200D01*
X225032Y411223D01*
X225229Y411239D01*
X225275Y411250D01*
X225322Y411255D01*
X225512Y411309D01*
X225704Y411357D01*
X225747Y411376D01*
X225792Y411389D01*
X225971Y411473D01*
X226153Y411552D01*
X226192Y411577D01*
X226235Y411597D01*
X226398Y411710D01*
X226564Y411817D01*
X226599Y411848D01*
X226638Y411875D01*
X226781Y412012D01*
X226927Y412145D01*
X226957Y412182D01*
X226991Y412215D01*
X227109Y412373D01*
X227232Y412528D01*
X227255Y412569D01*
X227283Y412607D01*
X227374Y412782D01*
X227471Y412955D01*
X227487Y413000D01*
X227508Y413042D01*
X227569Y413229D01*
X227636Y413416D01*
X227645Y413462D01*
X227660Y413507D01*
X227689Y413702D01*
X227725Y413897D01*
X227726Y413944D01*
X227733Y413991D01*
X227731Y414189D01*
X227734Y414386D01*
X227728Y414433D01*
X227727Y414480D01*
X227692Y414675D01*
X227664Y414871D01*
X227650Y414916D01*
X227641Y414962D01*
X227575Y415149D01*
X227516Y415337D01*
X227494Y415379D01*
X227478Y415424D01*
X227383Y415597D01*
X227293Y415773D01*
X227265Y415811D01*
X227243Y415853D01*
X227165Y415948D01*
X227003Y416167D01*
X226916Y416252D01*
X226862Y416319D01*
X190032Y453148D01*
X188601Y456603D01*
X188601Y467021D01*
X188597Y467068D01*
X188600Y467115D01*
X188577Y467312D01*
X188561Y467509D01*
X188550Y467554D01*
X188545Y467602D01*
X188491Y467791D01*
X188443Y467984D01*
X188424Y468027D01*
X188411Y468072D01*
X188327Y468251D01*
X188248Y468433D01*
X188223Y468472D01*
X188203Y468515D01*
X188090Y468679D01*
X187983Y468844D01*
X187952Y468879D01*
X187925Y468918D01*
X187787Y469061D01*
X187655Y469207D01*
X187618Y469237D01*
X187585Y469271D01*
X187427Y469389D01*
X187272Y469512D01*
X187231Y469535D01*
X187193Y469563D01*
X187018Y469654D01*
X186845Y469751D01*
X186800Y469767D01*
X186758Y469788D01*
X186570Y469849D01*
X186384Y469916D01*
X186338Y469925D01*
X186293Y469940D01*
X186098Y469969D01*
X185903Y470005D01*
X185856Y470006D01*
X185809Y470013D01*
X185611Y470011D01*
X185414Y470014D01*
X185367Y470007D01*
X185320Y470007D01*
X185125Y469972D01*
X184929Y469944D01*
X184884Y469929D01*
X184838Y469921D01*
X184651Y469855D01*
X184463Y469795D01*
X184421Y469774D01*
X184376Y469758D01*
X184203Y469663D01*
X184027Y469573D01*
X183989Y469545D01*
X183947Y469522D01*
X183852Y469444D01*
X183633Y469283D01*
X183548Y469196D01*
X183481Y469142D01*
X182825Y468486D01*
X180887Y467683D01*
X180762Y467618D01*
X180631Y467562D01*
X180544Y467507D01*
X180452Y467459D01*
X180338Y467375D01*
X180219Y467299D01*
X180142Y467230D01*
X180059Y467168D01*
X179960Y467066D01*
X179855Y466972D01*
X179790Y466891D01*
X179718Y466817D01*
X179637Y466700D01*
X179549Y466590D01*
X179508Y466514D01*
X179439Y466414D01*
X179346Y466217D01*
X100277Y387149D01*
X100186Y387041D01*
X100087Y386940D01*
X100027Y386855D01*
X99961Y386776D01*
X99888Y386655D01*
X99807Y386538D01*
X99762Y386445D01*
X99709Y386356D01*
X99657Y386225D01*
X99596Y386097D01*
X99567Y385997D01*
X99529Y385901D01*
X99499Y385762D01*
X99459Y385627D01*
X99450Y385541D01*
X99425Y385423D01*
X99411Y385151D01*
X99399Y385028D01*
X99399Y378130D01*
X97968Y374676D01*
X95324Y372032D01*
X91870Y370601D01*
X88130Y370601D01*
X84676Y372032D01*
X81691Y375017D01*
X81580Y375111D01*
X81477Y375212D01*
X81394Y375269D01*
X81318Y375334D01*
X81194Y375409D01*
X81075Y375491D01*
X80984Y375534D01*
X80898Y375586D01*
X80764Y375639D01*
X80633Y375701D01*
X80536Y375729D01*
X80443Y375766D01*
X80302Y375797D01*
X80163Y375837D01*
X80063Y375848D01*
X79965Y375870D01*
X79820Y375877D01*
X79677Y375894D01*
X79576Y375889D01*
X79476Y375894D01*
X79332Y375878D01*
X79188Y375871D01*
X79090Y375851D01*
X78989Y375839D01*
X78850Y375800D01*
X78709Y375770D01*
X78616Y375733D01*
X78519Y375706D01*
X78388Y375644D01*
X78253Y375591D01*
X78167Y375540D01*
X78076Y375497D01*
X77957Y375415D01*
X77832Y375341D01*
X77756Y375277D01*
X77673Y375220D01*
X77569Y375119D01*
X77458Y375026D01*
X77393Y374950D01*
X77320Y374880D01*
X77234Y374764D01*
X77140Y374654D01*
X77088Y374568D01*
X77028Y374488D01*
X76961Y374359D01*
X76886Y374236D01*
X76856Y374157D01*
X76803Y374053D01*
X76716Y373787D01*
X76673Y373673D01*
X76627Y373501D01*
X76627Y373500D01*
X76404Y372670D01*
X72744Y366331D01*
X67569Y361156D01*
X61230Y357496D01*
X54160Y355601D01*
X46840Y355601D01*
X42711Y356708D01*
X42520Y356742D01*
X42330Y356784D01*
X42279Y356786D01*
X42230Y356795D01*
X42036Y356799D01*
X41841Y356808D01*
X41791Y356803D01*
X41740Y356804D01*
X41548Y356775D01*
X41354Y356753D01*
X41306Y356739D01*
X41256Y356732D01*
X41071Y356673D01*
X40884Y356620D01*
X40838Y356598D01*
X40790Y356583D01*
X40617Y356494D01*
X40441Y356411D01*
X40399Y356383D01*
X40355Y356360D01*
X40198Y356244D01*
X40038Y356133D01*
X40002Y356099D01*
X39961Y356069D01*
X39825Y355929D01*
X39685Y355794D01*
X39655Y355754D01*
X39620Y355718D01*
X39509Y355558D01*
X39393Y355402D01*
X39369Y355357D01*
X39341Y355316D01*
X39257Y355140D01*
X39168Y354967D01*
X39152Y354919D01*
X39130Y354874D01*
X39076Y354686D01*
X39016Y354502D01*
X39009Y354452D01*
X38995Y354403D01*
X38972Y354210D01*
X38943Y354018D01*
X38944Y353967D01*
X38938Y353917D01*
X38947Y353723D01*
X38949Y353528D01*
X38958Y353479D01*
X38960Y353428D01*
X39001Y353238D01*
X39035Y353046D01*
X39051Y352999D01*
X39062Y352950D01*
X39133Y352768D01*
X39198Y352585D01*
X39222Y352541D01*
X39240Y352494D01*
X39340Y352327D01*
X39433Y352156D01*
X39461Y352122D01*
X39490Y352073D01*
X39805Y351699D01*
X39811Y351694D01*
X39814Y351690D01*
X48927Y342577D01*
X49034Y342486D01*
X49136Y342387D01*
X49221Y342327D01*
X49300Y342261D01*
X49421Y342188D01*
X49537Y342107D01*
X49631Y342062D01*
X49720Y342009D01*
X49851Y341957D01*
X49979Y341896D01*
X50078Y341867D01*
X50175Y341829D01*
X50313Y341799D01*
X50449Y341759D01*
X50535Y341750D01*
X50653Y341725D01*
X50925Y341711D01*
X51048Y341699D01*
X70394Y341699D01*
X75741Y339484D01*
X77648Y337577D01*
X77755Y337486D01*
X77857Y337387D01*
X77942Y337327D01*
X78021Y337261D01*
X78142Y337188D01*
X78258Y337107D01*
X78352Y337062D01*
X78441Y337009D01*
X78572Y336957D01*
X78700Y336896D01*
X78799Y336867D01*
X78896Y336829D01*
X79034Y336799D01*
X79170Y336759D01*
X79256Y336750D01*
X79374Y336725D01*
X79646Y336711D01*
X79741Y336702D01*
X83900Y334979D01*
X86379Y332500D01*
X86451Y332438D01*
X86517Y332371D01*
X86637Y332281D01*
X86752Y332183D01*
X86833Y332134D01*
X86909Y332078D01*
X87043Y332009D01*
X87172Y331931D01*
X87260Y331896D01*
X87344Y331853D01*
X87487Y331806D01*
X87627Y331751D01*
X87719Y331731D01*
X87809Y331702D01*
X87958Y331679D01*
X88105Y331647D01*
X88200Y331642D01*
X88293Y331628D01*
X88444Y331630D01*
X88594Y331623D01*
X88688Y331633D01*
X88782Y331634D01*
X88931Y331661D01*
X89081Y331678D01*
X89171Y331704D01*
X89264Y331720D01*
X89406Y331770D01*
X89551Y331811D01*
X89637Y331852D01*
X89726Y331883D01*
X89858Y331956D01*
X89994Y332020D01*
X90072Y332073D01*
X90155Y332119D01*
X90244Y332192D01*
X90397Y332297D01*
X90531Y332426D01*
X90621Y332500D01*
X93100Y334979D01*
X97253Y336699D01*
X101747Y336699D01*
X105900Y334979D01*
X108379Y332500D01*
X108451Y332439D01*
X108517Y332371D01*
X108637Y332280D01*
X108752Y332183D01*
X108833Y332134D01*
X108909Y332078D01*
X109043Y332009D01*
X109172Y331931D01*
X109260Y331896D01*
X109344Y331853D01*
X109487Y331806D01*
X109627Y331751D01*
X109719Y331731D01*
X109809Y331702D01*
X109958Y331679D01*
X110105Y331647D01*
X110200Y331642D01*
X110293Y331628D01*
X110444Y331630D01*
X110594Y331623D01*
X110688Y331633D01*
G37*
%LPC*%
G36*
X503097Y70521D02*
X503097Y70521D01*
X495332Y73738D01*
X489388Y79682D01*
X486171Y87447D01*
X486171Y95853D01*
X489388Y103618D01*
X495049Y109279D01*
X495110Y109351D01*
X495178Y109417D01*
X495268Y109537D01*
X495365Y109652D01*
X495414Y109733D01*
X495470Y109809D01*
X495540Y109943D01*
X495617Y110072D01*
X495652Y110160D01*
X495695Y110244D01*
X495742Y110387D01*
X495797Y110527D01*
X495817Y110619D01*
X495846Y110709D01*
X495869Y110858D01*
X495901Y111005D01*
X495906Y111100D01*
X495920Y111193D01*
X495918Y111344D01*
X495926Y111494D01*
X495915Y111588D01*
X495914Y111682D01*
X495887Y111831D01*
X495870Y111981D01*
X495845Y112071D01*
X495828Y112164D01*
X495778Y112306D01*
X495737Y112451D01*
X495697Y112537D01*
X495665Y112626D01*
X495593Y112758D01*
X495528Y112894D01*
X495475Y112972D01*
X495429Y113055D01*
X495356Y113145D01*
X495251Y113297D01*
X495122Y113431D01*
X495049Y113521D01*
X489388Y119182D01*
X486171Y126947D01*
X486171Y135353D01*
X489388Y143118D01*
X495049Y148779D01*
X495110Y148851D01*
X495178Y148917D01*
X495268Y149037D01*
X495365Y149152D01*
X495414Y149233D01*
X495470Y149309D01*
X495540Y149443D01*
X495617Y149572D01*
X495652Y149660D01*
X495695Y149744D01*
X495742Y149887D01*
X495797Y150027D01*
X495817Y150119D01*
X495846Y150209D01*
X495869Y150358D01*
X495901Y150505D01*
X495906Y150600D01*
X495920Y150693D01*
X495918Y150844D01*
X495926Y150994D01*
X495915Y151088D01*
X495914Y151182D01*
X495887Y151331D01*
X495870Y151481D01*
X495845Y151571D01*
X495828Y151664D01*
X495778Y151806D01*
X495737Y151951D01*
X495697Y152037D01*
X495665Y152126D01*
X495593Y152258D01*
X495528Y152394D01*
X495475Y152472D01*
X495429Y152555D01*
X495356Y152645D01*
X495251Y152797D01*
X495122Y152931D01*
X495049Y153021D01*
X489388Y158682D01*
X486171Y166447D01*
X486171Y174853D01*
X489388Y182618D01*
X495605Y188836D01*
X495616Y188849D01*
X495630Y188861D01*
X495776Y189037D01*
X495922Y189209D01*
X495931Y189224D01*
X495942Y189237D01*
X496057Y189434D01*
X496174Y189629D01*
X496180Y189645D01*
X496189Y189660D01*
X496270Y189872D01*
X496354Y190084D01*
X496358Y190101D01*
X496364Y190117D01*
X496409Y190340D01*
X496458Y190562D01*
X496458Y190580D01*
X496462Y190597D01*
X496471Y190823D01*
X496482Y191051D01*
X496480Y191068D01*
X496481Y191086D01*
X496453Y191311D01*
X496427Y191537D01*
X496422Y191554D01*
X496420Y191571D01*
X496356Y191788D01*
X496293Y192008D01*
X496286Y192024D01*
X496281Y192041D01*
X496182Y192245D01*
X496085Y192451D01*
X496075Y192465D01*
X496067Y192481D01*
X495935Y192668D01*
X495807Y192854D01*
X495795Y192866D01*
X495785Y192881D01*
X495722Y192942D01*
X495468Y193206D01*
X495400Y193257D01*
X495354Y193301D01*
X493538Y194750D01*
X491900Y196388D01*
X490456Y198199D01*
X489224Y200160D01*
X488219Y202246D01*
X487553Y204151D01*
X504300Y204151D01*
X504394Y204158D01*
X504488Y204157D01*
X504637Y204178D01*
X504788Y204191D01*
X504879Y204214D01*
X504973Y204227D01*
X505116Y204273D01*
X505262Y204309D01*
X505349Y204347D01*
X505439Y204376D01*
X505573Y204444D01*
X505712Y204504D01*
X505791Y204555D01*
X505875Y204598D01*
X505997Y204687D01*
X506123Y204769D01*
X506193Y204832D01*
X506269Y204888D01*
X506375Y204996D01*
X506486Y205097D01*
X506545Y205171D01*
X506611Y205238D01*
X506697Y205362D01*
X506791Y205480D01*
X506837Y205562D01*
X506891Y205640D01*
X506956Y205776D01*
X507030Y205907D01*
X507061Y205996D01*
X507102Y206081D01*
X507144Y206226D01*
X507195Y206368D01*
X507212Y206461D01*
X507239Y206551D01*
X507250Y206666D01*
X507284Y206849D01*
X507287Y207035D01*
X507299Y207150D01*
X507299Y210151D01*
X507301Y210151D01*
X507301Y207150D01*
X507309Y207056D01*
X507307Y206962D01*
X507329Y206812D01*
X507341Y206662D01*
X507364Y206571D01*
X507377Y206477D01*
X507423Y206334D01*
X507460Y206187D01*
X507497Y206101D01*
X507526Y206011D01*
X507594Y205876D01*
X507654Y205738D01*
X507705Y205659D01*
X507748Y205575D01*
X507837Y205453D01*
X507919Y205327D01*
X507982Y205257D01*
X508038Y205181D01*
X508146Y205075D01*
X508247Y204964D01*
X508321Y204905D01*
X508388Y204839D01*
X508512Y204753D01*
X508630Y204659D01*
X508712Y204613D01*
X508790Y204559D01*
X508926Y204494D01*
X509057Y204420D01*
X509146Y204388D01*
X509231Y204348D01*
X509376Y204306D01*
X509518Y204255D01*
X509611Y204237D01*
X509701Y204211D01*
X509817Y204200D01*
X509999Y204166D01*
X510185Y204162D01*
X510300Y204151D01*
X527047Y204151D01*
X526381Y202246D01*
X525376Y200160D01*
X524144Y198199D01*
X522700Y196388D01*
X521062Y194750D01*
X519246Y193301D01*
X519233Y193289D01*
X519218Y193279D01*
X519055Y193122D01*
X518889Y192966D01*
X518878Y192952D01*
X518866Y192940D01*
X518730Y192758D01*
X518592Y192577D01*
X518584Y192562D01*
X518573Y192548D01*
X518469Y192346D01*
X518362Y192145D01*
X518356Y192129D01*
X518348Y192113D01*
X518278Y191897D01*
X518205Y191682D01*
X518202Y191664D01*
X518197Y191647D01*
X518163Y191423D01*
X518126Y191199D01*
X518126Y191181D01*
X518124Y191164D01*
X518126Y190936D01*
X518127Y190709D01*
X518129Y190692D01*
X518130Y190674D01*
X518169Y190450D01*
X518207Y190226D01*
X518212Y190210D01*
X518215Y190192D01*
X518291Y189978D01*
X518364Y189763D01*
X518372Y189747D01*
X518378Y189731D01*
X518488Y189532D01*
X518595Y189331D01*
X518606Y189317D01*
X518614Y189302D01*
X518669Y189235D01*
X518893Y188943D01*
X518955Y188885D01*
X518995Y188836D01*
X525212Y182618D01*
X528429Y174853D01*
X528429Y166447D01*
X525212Y158682D01*
X519551Y153021D01*
X519490Y152949D01*
X519422Y152883D01*
X519332Y152763D01*
X519235Y152648D01*
X519186Y152567D01*
X519130Y152491D01*
X519060Y152357D01*
X518983Y152228D01*
X518948Y152140D01*
X518905Y152056D01*
X518858Y151913D01*
X518803Y151773D01*
X518783Y151681D01*
X518754Y151591D01*
X518731Y151442D01*
X518699Y151295D01*
X518694Y151200D01*
X518680Y151107D01*
X518682Y150956D01*
X518674Y150806D01*
X518685Y150712D01*
X518686Y150618D01*
X518713Y150469D01*
X518730Y150319D01*
X518755Y150229D01*
X518772Y150136D01*
X518822Y149994D01*
X518863Y149849D01*
X518903Y149763D01*
X518935Y149674D01*
X519007Y149542D01*
X519072Y149406D01*
X519125Y149328D01*
X519171Y149245D01*
X519244Y149156D01*
X519349Y149003D01*
X519478Y148869D01*
X519551Y148779D01*
X525212Y143118D01*
X528429Y135353D01*
X528429Y126947D01*
X525212Y119182D01*
X519551Y113521D01*
X519490Y113449D01*
X519422Y113383D01*
X519332Y113263D01*
X519235Y113148D01*
X519186Y113067D01*
X519130Y112991D01*
X519060Y112857D01*
X518983Y112728D01*
X518948Y112640D01*
X518905Y112556D01*
X518858Y112413D01*
X518803Y112273D01*
X518783Y112181D01*
X518754Y112091D01*
X518731Y111942D01*
X518699Y111795D01*
X518694Y111700D01*
X518680Y111607D01*
X518682Y111456D01*
X518674Y111306D01*
X518685Y111212D01*
X518686Y111118D01*
X518713Y110969D01*
X518730Y110819D01*
X518755Y110729D01*
X518772Y110636D01*
X518822Y110494D01*
X518863Y110349D01*
X518903Y110263D01*
X518935Y110174D01*
X519007Y110042D01*
X519072Y109906D01*
X519125Y109828D01*
X519171Y109745D01*
X519244Y109656D01*
X519349Y109503D01*
X519478Y109369D01*
X519551Y109279D01*
X525212Y103618D01*
X528429Y95853D01*
X528429Y87447D01*
X525212Y79682D01*
X519268Y73738D01*
X511503Y70521D01*
X503097Y70521D01*
G37*
%LPD*%
%LPC*%
G36*
X24207Y33351D02*
X24207Y33351D01*
X18676Y35642D01*
X14442Y39876D01*
X12151Y45407D01*
X12151Y51393D01*
X14442Y56924D01*
X18676Y61158D01*
X24207Y63449D01*
X28843Y63449D01*
X29035Y63464D01*
X29229Y63474D01*
X29279Y63484D01*
X29331Y63489D01*
X29518Y63535D01*
X29707Y63576D01*
X29755Y63595D01*
X29806Y63607D01*
X29983Y63684D01*
X30163Y63755D01*
X30207Y63781D01*
X30255Y63802D01*
X30417Y63906D01*
X30583Y64005D01*
X30623Y64039D01*
X30667Y64067D01*
X30809Y64196D01*
X30957Y64321D01*
X30991Y64360D01*
X31030Y64395D01*
X31150Y64546D01*
X31275Y64693D01*
X31302Y64737D01*
X31334Y64778D01*
X31428Y64946D01*
X31528Y65112D01*
X31548Y65160D01*
X31573Y65205D01*
X31638Y65387D01*
X31710Y65566D01*
X31721Y65617D01*
X31739Y65666D01*
X31774Y65856D01*
X31815Y66044D01*
X31818Y66096D01*
X31827Y66147D01*
X31831Y66340D01*
X31841Y66533D01*
X31836Y66585D01*
X31837Y66636D01*
X31809Y66827D01*
X31788Y67019D01*
X31775Y67063D01*
X31766Y67121D01*
X31618Y67587D01*
X31615Y67592D01*
X31614Y67596D01*
X28501Y75111D01*
X28501Y82689D01*
X31401Y89690D01*
X36760Y95049D01*
X43761Y97949D01*
X51339Y97949D01*
X58340Y95049D01*
X63699Y89690D01*
X66599Y82689D01*
X66599Y75111D01*
X63699Y68110D01*
X58340Y62751D01*
X51339Y59851D01*
X43234Y59851D01*
X43042Y59836D01*
X42849Y59826D01*
X42798Y59816D01*
X42746Y59811D01*
X42559Y59765D01*
X42370Y59724D01*
X42322Y59705D01*
X42271Y59693D01*
X42094Y59616D01*
X41914Y59545D01*
X41870Y59519D01*
X41822Y59498D01*
X41660Y59394D01*
X41494Y59295D01*
X41454Y59261D01*
X41411Y59233D01*
X41268Y59104D01*
X41120Y58979D01*
X41086Y58940D01*
X41048Y58905D01*
X40927Y58754D01*
X40802Y58607D01*
X40775Y58563D01*
X40743Y58522D01*
X40649Y58353D01*
X40549Y58188D01*
X40530Y58140D01*
X40504Y58095D01*
X40439Y57913D01*
X40367Y57734D01*
X40356Y57683D01*
X40339Y57634D01*
X40304Y57444D01*
X40262Y57256D01*
X40259Y57204D01*
X40250Y57153D01*
X40246Y56960D01*
X40236Y56767D01*
X40242Y56715D01*
X40241Y56664D01*
X40269Y56473D01*
X40290Y56281D01*
X40303Y56237D01*
X40311Y56179D01*
X40460Y55713D01*
X40462Y55708D01*
X40463Y55704D01*
X42249Y51393D01*
X42249Y45407D01*
X39958Y39876D01*
X35724Y35642D01*
X30193Y33351D01*
X24207Y33351D01*
G37*
%LPD*%
%LPC*%
G36*
X179207Y33351D02*
X179207Y33351D01*
X173676Y35642D01*
X169442Y39876D01*
X167151Y45407D01*
X167151Y51393D01*
X168937Y55704D01*
X168996Y55888D01*
X169061Y56070D01*
X169071Y56121D01*
X169087Y56170D01*
X169115Y56361D01*
X169150Y56551D01*
X169151Y56603D01*
X169159Y56654D01*
X169156Y56847D01*
X169159Y57040D01*
X169152Y57092D01*
X169151Y57144D01*
X169117Y57334D01*
X169089Y57525D01*
X169073Y57574D01*
X169064Y57625D01*
X168999Y57808D01*
X168940Y57991D01*
X168917Y58037D01*
X168899Y58086D01*
X168806Y58255D01*
X168718Y58427D01*
X168687Y58469D01*
X168662Y58514D01*
X168543Y58666D01*
X168428Y58821D01*
X168391Y58858D01*
X168359Y58898D01*
X168216Y59028D01*
X168078Y59163D01*
X168035Y59193D01*
X167997Y59228D01*
X167835Y59333D01*
X167676Y59443D01*
X167629Y59466D01*
X167586Y59494D01*
X167409Y59571D01*
X167235Y59654D01*
X167185Y59669D01*
X167137Y59690D01*
X166950Y59737D01*
X166765Y59791D01*
X166720Y59795D01*
X166663Y59810D01*
X166175Y59851D01*
X166170Y59851D01*
X166166Y59851D01*
X158061Y59851D01*
X151060Y62751D01*
X145701Y68110D01*
X142801Y75111D01*
X142801Y82689D01*
X145701Y89690D01*
X151060Y95049D01*
X158061Y97949D01*
X165639Y97949D01*
X172640Y95049D01*
X177999Y89690D01*
X180899Y82689D01*
X180899Y75111D01*
X177786Y67596D01*
X177727Y67412D01*
X177661Y67230D01*
X177652Y67179D01*
X177636Y67130D01*
X177608Y66939D01*
X177573Y66749D01*
X177572Y66697D01*
X177564Y66646D01*
X177567Y66453D01*
X177563Y66260D01*
X177571Y66208D01*
X177572Y66156D01*
X177606Y65967D01*
X177634Y65775D01*
X177650Y65726D01*
X177659Y65675D01*
X177724Y65493D01*
X177782Y65309D01*
X177806Y65263D01*
X177823Y65214D01*
X177917Y65045D01*
X178004Y64873D01*
X178035Y64831D01*
X178060Y64786D01*
X178180Y64634D01*
X178295Y64479D01*
X178332Y64442D01*
X178364Y64402D01*
X178507Y64272D01*
X178645Y64137D01*
X178688Y64107D01*
X178726Y64072D01*
X178888Y63968D01*
X179046Y63857D01*
X179093Y63834D01*
X179137Y63806D01*
X179313Y63729D01*
X179488Y63646D01*
X179538Y63631D01*
X179585Y63610D01*
X179772Y63563D01*
X179958Y63509D01*
X180003Y63505D01*
X180060Y63490D01*
X180547Y63449D01*
X180553Y63449D01*
X180557Y63449D01*
X185193Y63449D01*
X190724Y61158D01*
X194958Y56924D01*
X197249Y51393D01*
X197249Y45407D01*
X194958Y39876D01*
X190724Y35642D01*
X185193Y33351D01*
X179207Y33351D01*
G37*
%LPD*%
%LPC*%
G36*
X303204Y124951D02*
X303204Y124951D01*
X298408Y126938D01*
X294738Y130608D01*
X292751Y135404D01*
X292751Y140596D01*
X294738Y145392D01*
X298408Y149062D01*
X303204Y151049D01*
X328396Y151049D01*
X333192Y149062D01*
X336862Y145392D01*
X338849Y140596D01*
X338849Y135404D01*
X336862Y130608D01*
X333192Y126938D01*
X328396Y124951D01*
X303204Y124951D01*
G37*
%LPD*%
%LPC*%
G36*
X513299Y216149D02*
X513299Y216149D01*
X513299Y243651D01*
X527047Y243651D01*
X526381Y241746D01*
X525376Y239660D01*
X524144Y237699D01*
X522700Y235888D01*
X521062Y234250D01*
X519251Y232806D01*
X518668Y232440D01*
X518642Y232420D01*
X518614Y232405D01*
X518446Y232273D01*
X518276Y232146D01*
X518254Y232123D01*
X518228Y232103D01*
X518084Y231946D01*
X517938Y231793D01*
X517919Y231766D01*
X517897Y231742D01*
X517781Y231564D01*
X517661Y231390D01*
X517647Y231360D01*
X517629Y231333D01*
X517543Y231138D01*
X517453Y230946D01*
X517444Y230915D01*
X517431Y230885D01*
X517378Y230679D01*
X517320Y230475D01*
X517317Y230443D01*
X517309Y230412D01*
X517289Y230200D01*
X517266Y229989D01*
X517268Y229956D01*
X517265Y229924D01*
X517280Y229712D01*
X517291Y229500D01*
X517298Y229469D01*
X517301Y229436D01*
X517351Y229229D01*
X517396Y229022D01*
X517408Y228992D01*
X517416Y228960D01*
X517498Y228765D01*
X517577Y228567D01*
X517594Y228539D01*
X517606Y228510D01*
X517720Y228330D01*
X517829Y228148D01*
X517851Y228123D01*
X517868Y228096D01*
X518009Y227937D01*
X518147Y227775D01*
X518172Y227754D01*
X518193Y227730D01*
X518283Y227661D01*
X518521Y227459D01*
X518609Y227407D01*
X518668Y227360D01*
X519252Y226994D01*
X521062Y225550D01*
X522700Y223912D01*
X524144Y222101D01*
X525376Y220140D01*
X526381Y218054D01*
X527047Y216149D01*
X513299Y216149D01*
G37*
%LPD*%
%LPC*%
G36*
X487553Y216149D02*
X487553Y216149D01*
X488219Y218054D01*
X489224Y220140D01*
X490456Y222101D01*
X491900Y223912D01*
X493538Y225550D01*
X495348Y226994D01*
X495932Y227360D01*
X495958Y227380D01*
X495986Y227396D01*
X496153Y227526D01*
X496324Y227654D01*
X496346Y227677D01*
X496372Y227697D01*
X496515Y227854D01*
X496662Y228007D01*
X496681Y228034D01*
X496703Y228058D01*
X496819Y228235D01*
X496939Y228410D01*
X496953Y228440D01*
X496971Y228467D01*
X497057Y228662D01*
X497147Y228854D01*
X497156Y228885D01*
X497169Y228915D01*
X497222Y229121D01*
X497280Y229325D01*
X497283Y229357D01*
X497291Y229389D01*
X497311Y229600D01*
X497334Y229811D01*
X497332Y229844D01*
X497335Y229876D01*
X497320Y230088D01*
X497309Y230300D01*
X497302Y230332D01*
X497299Y230364D01*
X497249Y230570D01*
X497204Y230778D01*
X497192Y230808D01*
X497184Y230840D01*
X497102Y231035D01*
X497023Y231233D01*
X497006Y231261D01*
X496994Y231291D01*
X496880Y231470D01*
X496770Y231652D01*
X496749Y231677D01*
X496732Y231704D01*
X496591Y231863D01*
X496453Y232025D01*
X496428Y232046D01*
X496407Y232070D01*
X496317Y232140D01*
X496079Y232341D01*
X495991Y232393D01*
X495932Y232440D01*
X495349Y232806D01*
X493538Y234250D01*
X491900Y235888D01*
X490456Y237699D01*
X489224Y239660D01*
X488219Y241746D01*
X487553Y243651D01*
X501301Y243651D01*
X501301Y216149D01*
X487553Y216149D01*
G37*
%LPD*%
%LPC*%
G36*
X368799Y110999D02*
X368799Y110999D01*
X368799Y130212D01*
X370614Y129622D01*
X372373Y128726D01*
X373970Y127566D01*
X375366Y126170D01*
X376526Y124573D01*
X377422Y122814D01*
X378032Y120937D01*
X378341Y118987D01*
X378341Y110999D01*
X368799Y110999D01*
G37*
%LPD*%
%LPC*%
G36*
X318799Y77999D02*
X318799Y77999D01*
X318799Y87541D01*
X326787Y87541D01*
X328737Y87232D01*
X330614Y86622D01*
X332373Y85726D01*
X333970Y84566D01*
X335366Y83170D01*
X336526Y81573D01*
X337422Y79814D01*
X338012Y77999D01*
X318799Y77999D01*
G37*
%LPD*%
%LPC*%
G36*
X368799Y105001D02*
X368799Y105001D01*
X378341Y105001D01*
X378341Y97013D01*
X378032Y95063D01*
X377422Y93186D01*
X376526Y91427D01*
X375366Y89830D01*
X373970Y88434D01*
X372373Y87274D01*
X370614Y86378D01*
X368799Y85788D01*
X368799Y105001D01*
G37*
%LPD*%
%LPC*%
G36*
X293588Y77999D02*
X293588Y77999D01*
X294178Y79814D01*
X295074Y81573D01*
X296234Y83170D01*
X297630Y84566D01*
X299227Y85726D01*
X300986Y86622D01*
X302863Y87232D01*
X304813Y87541D01*
X312801Y87541D01*
X312801Y77999D01*
X293588Y77999D01*
G37*
%LPD*%
%LPC*%
G36*
X353259Y110999D02*
X353259Y110999D01*
X353259Y118987D01*
X353568Y120937D01*
X354178Y122814D01*
X355074Y124573D01*
X356234Y126170D01*
X357630Y127566D01*
X359227Y128726D01*
X360986Y129622D01*
X362801Y130212D01*
X362801Y110999D01*
X353259Y110999D01*
G37*
%LPD*%
%LPC*%
G36*
X318799Y62459D02*
X318799Y62459D01*
X318799Y72001D01*
X338012Y72001D01*
X337422Y70186D01*
X336526Y68427D01*
X335366Y66830D01*
X333970Y65434D01*
X332373Y64274D01*
X330614Y63378D01*
X328737Y62768D01*
X326787Y62459D01*
X318799Y62459D01*
G37*
%LPD*%
%LPC*%
G36*
X304813Y62459D02*
X304813Y62459D01*
X302863Y62768D01*
X300986Y63378D01*
X299227Y64274D01*
X297630Y65434D01*
X296234Y66830D01*
X295074Y68427D01*
X294178Y70186D01*
X293588Y72001D01*
X312801Y72001D01*
X312801Y62459D01*
X304813Y62459D01*
G37*
%LPD*%
%LPC*%
G36*
X360986Y86378D02*
X360986Y86378D01*
X359227Y87274D01*
X357630Y88434D01*
X356234Y89830D01*
X355074Y91427D01*
X354178Y93186D01*
X353568Y95063D01*
X353259Y97013D01*
X353259Y105001D01*
X362801Y105001D01*
X362801Y85788D01*
X360986Y86378D01*
G37*
%LPD*%
%LPC*%
G36*
X402792Y271327D02*
X402792Y271327D01*
X400560Y272252D01*
X398852Y273960D01*
X397927Y276192D01*
X397927Y278608D01*
X398852Y280840D01*
X400560Y282548D01*
X402792Y283473D01*
X405208Y283473D01*
X407440Y282548D01*
X409148Y280840D01*
X410073Y278608D01*
X410073Y276192D01*
X409148Y273960D01*
X407440Y272252D01*
X405208Y271327D01*
X402792Y271327D01*
G37*
%LPD*%
%LPC*%
G36*
X114049Y145399D02*
X114049Y145399D01*
X114049Y151194D01*
X114616Y151010D01*
X115919Y150346D01*
X117103Y149487D01*
X118137Y148453D01*
X118996Y147269D01*
X119660Y145966D01*
X119844Y145399D01*
X114049Y145399D01*
G37*
%LPD*%
%LPC*%
G36*
X63249Y145399D02*
X63249Y145399D01*
X63249Y151194D01*
X63816Y151010D01*
X65119Y150346D01*
X66303Y149487D01*
X67337Y148453D01*
X68196Y147269D01*
X68860Y145966D01*
X69044Y145399D01*
X63249Y145399D01*
G37*
%LPD*%
%LPC*%
G36*
X51456Y145399D02*
X51456Y145399D01*
X51640Y145966D01*
X52304Y147269D01*
X53163Y148453D01*
X54197Y149487D01*
X55381Y150346D01*
X56684Y151010D01*
X57251Y151194D01*
X57251Y145399D01*
X51456Y145399D01*
G37*
%LPD*%
%LPC*%
G36*
X63249Y139401D02*
X63249Y139401D01*
X69044Y139401D01*
X68860Y138833D01*
X68196Y137531D01*
X67337Y136347D01*
X66303Y135313D01*
X65119Y134454D01*
X63816Y133790D01*
X63249Y133606D01*
X63249Y139401D01*
G37*
%LPD*%
%LPC*%
G36*
X114049Y139401D02*
X114049Y139401D01*
X119844Y139401D01*
X119660Y138833D01*
X118996Y137531D01*
X118137Y136347D01*
X117103Y135313D01*
X115919Y134454D01*
X114616Y133790D01*
X114049Y133606D01*
X114049Y139401D01*
G37*
%LPD*%
%LPC*%
G36*
X56684Y133790D02*
X56684Y133790D01*
X55381Y134454D01*
X54197Y135313D01*
X53163Y136347D01*
X52304Y137531D01*
X51640Y138833D01*
X51456Y139401D01*
X57251Y139401D01*
X57251Y133606D01*
X56684Y133790D01*
G37*
%LPD*%
%LPC*%
G36*
X107484Y133790D02*
X107484Y133790D01*
X106181Y134454D01*
X104997Y135313D01*
X103963Y136347D01*
X103104Y137531D01*
X102440Y138833D01*
X102256Y139401D01*
X108051Y139401D01*
X108051Y133606D01*
X107484Y133790D01*
G37*
%LPD*%
%LPC*%
G36*
X395453Y102099D02*
X395453Y102099D01*
X395592Y102621D01*
X395927Y103200D01*
X396400Y103673D01*
X396979Y104008D01*
X397501Y104147D01*
X397501Y102099D01*
X395453Y102099D01*
G37*
%LPD*%
%LPC*%
G36*
X403499Y96101D02*
X403499Y96101D01*
X405547Y96101D01*
X405408Y95579D01*
X405073Y95000D01*
X404600Y94527D01*
X404021Y94192D01*
X403499Y94053D01*
X403499Y96101D01*
G37*
%LPD*%
%LPC*%
G36*
X396979Y94192D02*
X396979Y94192D01*
X396400Y94527D01*
X395927Y95000D01*
X395592Y95579D01*
X395453Y96101D01*
X397501Y96101D01*
X397501Y94053D01*
X396979Y94192D01*
G37*
%LPD*%
D10*
X149150Y167800D03*
X123750Y167800D03*
X98350Y167800D03*
X72950Y167800D03*
X85650Y142400D03*
X111050Y142400D03*
X136450Y142400D03*
X60250Y142400D03*
D11*
X27200Y48400D03*
X182200Y48400D03*
D12*
X591300Y368150D03*
X591300Y328650D03*
X591300Y289150D03*
X591300Y249650D03*
X591300Y210150D03*
X591300Y170650D03*
X591300Y131150D03*
X591300Y91650D03*
X507300Y368150D03*
X507300Y328650D03*
X507300Y289150D03*
X507300Y249650D03*
X507300Y210150D03*
X507300Y170650D03*
X507300Y131150D03*
X507300Y91650D03*
D13*
X400500Y99100D03*
X110000Y210000D03*
X329000Y354000D03*
X160000Y370000D03*
X379700Y44900D03*
X380400Y60300D03*
X439600Y99200D03*
X419300Y98800D03*
D14*
X66500Y290400D03*
X88500Y290400D03*
X110500Y290400D03*
X132500Y290400D03*
X154500Y290400D03*
X176500Y290400D03*
X198500Y290400D03*
X220500Y290400D03*
X55500Y325400D03*
X77500Y325400D03*
X99500Y325400D03*
X121500Y325400D03*
X143500Y325400D03*
X165500Y325400D03*
X187500Y325400D03*
X209500Y325400D03*
D15*
X225500Y383400D03*
X50500Y383400D03*
D16*
X66000Y478700D03*
X88000Y478700D03*
X110000Y478700D03*
X132000Y478700D03*
X154000Y478700D03*
X176000Y478700D03*
X198000Y478700D03*
X220000Y478700D03*
X55000Y508700D03*
X77000Y508700D03*
X99000Y508700D03*
X121000Y508700D03*
X143000Y508700D03*
X165000Y508700D03*
X187000Y508700D03*
X209000Y508700D03*
D17*
X305800Y138000D02*
X325800Y138000D01*
X325800Y75000D02*
X305800Y75000D01*
X365800Y98000D02*
X365800Y118000D01*
D18*
X90000Y380000D03*
D19*
X171350Y474050D02*
X176000Y478700D01*
X171350Y474050D02*
X171350Y471513D01*
X90000Y390163D02*
X90000Y380000D01*
X90000Y390163D02*
X171350Y471513D01*
X198000Y478700D02*
X198000Y458472D01*
X342000Y395376D02*
X342967Y395364D01*
X343933Y395329D01*
X344897Y395271D01*
X345861Y395189D01*
X346821Y395084D01*
X347780Y394956D01*
X348734Y394805D01*
X349685Y394631D01*
X350631Y394434D01*
X351573Y394214D01*
X352508Y393971D01*
X353438Y393706D01*
X354361Y393418D01*
X355276Y393108D01*
X356184Y392777D01*
X357084Y392423D01*
X357975Y392048D01*
X358856Y391651D01*
X359728Y391233D01*
X360589Y390794D01*
X361439Y390335D01*
X362278Y389855D01*
X363106Y389355D01*
X363921Y388835D01*
X364723Y388295D01*
X365511Y387737D01*
X366287Y387159D01*
X367047Y386563D01*
X367794Y385949D01*
X368525Y385316D01*
X369241Y384667D01*
X369940Y384000D01*
X370624Y383316D01*
X371291Y382617D01*
X371940Y381901D01*
X372573Y381170D01*
X373187Y380423D01*
X373783Y379663D01*
X374361Y378887D01*
X374919Y378099D01*
X375459Y377297D01*
X375979Y376482D01*
X376479Y375654D01*
X376959Y374815D01*
X377418Y373965D01*
X377857Y373104D01*
X378275Y372232D01*
X378672Y371351D01*
X379047Y370460D01*
X379401Y369560D01*
X379732Y368652D01*
X380042Y367737D01*
X380330Y366814D01*
X380595Y365884D01*
X380838Y364949D01*
X381058Y364007D01*
X381255Y363061D01*
X381429Y362110D01*
X381580Y361156D01*
X381708Y360197D01*
X381813Y359237D01*
X381895Y358273D01*
X381953Y357309D01*
X381988Y356343D01*
X382000Y355376D01*
X261096Y395376D02*
X198000Y458472D01*
X261096Y395376D02*
X342000Y395376D01*
X382000Y355376D02*
X382000Y332000D01*
X320000Y270000D01*
X260000Y270000D01*
D18*
X260000Y270000D03*
D20*
X270000Y320000D03*
D17*
X263500Y313500D01*
X229153Y290400D02*
X220500Y290400D01*
X252253Y313500D02*
X263500Y313500D01*
X252253Y313500D02*
X229153Y290400D01*
X220500Y210500D02*
X200000Y190000D01*
D20*
X200000Y190000D03*
D17*
X220500Y210500D02*
X220500Y290400D01*
D20*
X124000Y342100D03*
D19*
X150376Y342000D02*
X160100Y332276D01*
X124100Y342000D02*
X124000Y342100D01*
X160100Y330800D02*
X165500Y325400D01*
X160100Y330800D02*
X160100Y332276D01*
X150376Y342000D02*
X124100Y342000D01*
D21*
X160000Y351624D02*
X160000Y370000D01*
X160000Y351624D02*
X150376Y342000D01*
D20*
X358000Y364000D03*
D17*
X348000Y354000D02*
X329000Y354000D01*
X348000Y354000D02*
X358000Y364000D01*
X329000Y354000D02*
X319092Y354000D01*
X318592Y354500D01*
X201112Y345650D02*
X189250Y333788D01*
X189250Y327150D01*
X187500Y325400D01*
X239722Y345650D02*
X248572Y354500D01*
X239722Y345650D02*
X201112Y345650D01*
X248572Y354500D02*
X318592Y354500D01*
D20*
X280000Y520000D03*
X180000Y440000D03*
X143400Y394500D03*
X450000Y370000D03*
X340000Y250000D03*
X250000Y250000D03*
X380000Y290000D03*
D22*
X102430Y157950D02*
X94270Y157950D01*
X112280Y167800D02*
X123750Y167800D01*
X112280Y167800D02*
X102430Y157950D01*
X94270Y157950D02*
X87800Y164420D01*
X87800Y213363D01*
X121347Y246910D01*
X126203Y246910D01*
D18*
X126203Y246910D03*
D22*
X560000Y420000D02*
X570000Y410000D01*
X570000Y377369D01*
X569720Y377089D01*
X569720Y310730D01*
X591300Y289150D01*
X560000Y420000D02*
X528000Y420000D01*
D18*
X480000Y370000D03*
D22*
X480000Y372000D01*
X528000Y420000D01*
X88966Y221034D02*
X85650Y217719D01*
D18*
X120966Y253034D03*
D22*
X88966Y221034D01*
X83200Y163554D02*
X80000Y160354D01*
X83200Y215269D02*
X85650Y217719D01*
X83200Y215269D02*
X83200Y163554D01*
X80000Y148050D02*
X85650Y142400D01*
X80000Y148050D02*
X80000Y160354D01*
X591300Y208700D02*
X591300Y210150D01*
X591300Y208700D02*
X615000Y185000D01*
D18*
X404000Y277400D03*
X356524Y270000D03*
D22*
X450000Y90000D02*
X450000Y70000D01*
X450000Y90000D02*
X440800Y99200D01*
X439600Y99200D01*
X428800Y110000D01*
X615000Y81505D02*
X615000Y185000D01*
X615000Y81505D02*
X563095Y29600D01*
X490400Y29600D01*
X450000Y70000D01*
X428800Y110000D02*
X416505Y110000D01*
X354600Y268076D02*
X356524Y270000D01*
X354600Y171905D02*
X416505Y110000D01*
X354600Y171905D02*
X354600Y268076D01*
X591300Y249650D02*
X620000Y220950D01*
X620000Y80000D02*
X565000Y25000D01*
X620000Y80000D02*
X620000Y220950D01*
X565000Y25000D02*
X487929Y25000D01*
X419300Y93629D01*
X419300Y98800D01*
X419300Y100700D01*
X350000Y170000D01*
X350000Y280000D01*
D18*
X350000Y280000D03*
X145000Y216000D03*
D22*
X149150Y211850D01*
X149150Y167800D01*
X45700Y498000D02*
X15000Y498000D01*
X8000Y491000D01*
D18*
X48125Y278125D03*
D22*
X45700Y498000D02*
X55000Y507300D01*
X55000Y508700D01*
X8000Y491000D02*
X8000Y370000D01*
X55500Y325400D02*
X55500Y310471D01*
X46524Y286119D02*
X48125Y284518D01*
X48125Y278125D01*
X46524Y301495D02*
X55500Y310471D01*
X46524Y301495D02*
X46524Y286119D01*
X52600Y325400D02*
X55500Y325400D01*
X52600Y325400D02*
X8000Y370000D01*
X149150Y167800D02*
X149150Y140850D01*
X240000Y50000D01*
D18*
X399700Y60200D03*
D22*
X380400Y60300D02*
X370100Y50000D01*
X240000Y50000D01*
X380500Y60200D02*
X399700Y60200D01*
X380500Y60200D02*
X380400Y60300D01*
D18*
X342000Y330000D03*
D22*
X324000Y330000D01*
X314500Y339500D01*
X118750Y188200D02*
X98350Y167800D01*
X118750Y188200D02*
X118750Y210000D01*
X118750Y230797D01*
X118750Y210000D02*
X110000Y210000D01*
X252664Y339500D02*
X314500Y339500D01*
X252664Y339500D02*
X245314Y332150D01*
X216250Y332150D02*
X209500Y325400D01*
X216250Y332150D02*
X245314Y332150D01*
D18*
X160000Y260124D03*
D22*
X148077Y260124D02*
X118750Y230797D01*
X148077Y260124D02*
X160000Y260124D01*
D18*
X53048Y288822D03*
X130274Y224000D03*
D22*
X130274Y223500D01*
X136450Y217324D02*
X136450Y142400D01*
X136450Y217324D02*
X130274Y223500D01*
X62700Y493000D02*
X17071Y493000D01*
X13000Y488929D02*
X13000Y372071D01*
X13000Y488929D02*
X17071Y493000D01*
X53048Y300948D02*
X53048Y288822D01*
X77000Y507300D02*
X77000Y508700D01*
X77000Y507300D02*
X62700Y493000D01*
X13000Y372071D02*
X47921Y337150D01*
X67500Y337150D01*
X77500Y327150D02*
X77500Y325400D01*
X77500Y327150D02*
X77497Y327392D01*
X77488Y327633D01*
X77474Y327874D01*
X77453Y328115D01*
X77427Y328355D01*
X77395Y328595D01*
X77357Y328834D01*
X77314Y329071D01*
X77264Y329308D01*
X77209Y329543D01*
X77149Y329777D01*
X77082Y330009D01*
X77011Y330240D01*
X76933Y330469D01*
X76850Y330696D01*
X76762Y330921D01*
X76668Y331144D01*
X76569Y331364D01*
X76464Y331582D01*
X76355Y331797D01*
X76240Y332010D01*
X76120Y332220D01*
X75995Y332426D01*
X75865Y332630D01*
X75730Y332831D01*
X75590Y333028D01*
X75446Y333222D01*
X75297Y333412D01*
X75143Y333598D01*
X74985Y333781D01*
X74823Y333960D01*
X74656Y334135D01*
X74485Y334306D01*
X74310Y334473D01*
X74131Y334635D01*
X73948Y334793D01*
X73762Y334947D01*
X73572Y335096D01*
X73378Y335240D01*
X73181Y335380D01*
X72980Y335515D01*
X72776Y335645D01*
X72570Y335770D01*
X72360Y335890D01*
X72147Y336005D01*
X71932Y336114D01*
X71714Y336219D01*
X71494Y336318D01*
X71271Y336412D01*
X71046Y336500D01*
X70819Y336583D01*
X70590Y336661D01*
X70359Y336732D01*
X70127Y336799D01*
X69893Y336859D01*
X69658Y336914D01*
X69421Y336964D01*
X69184Y337007D01*
X68945Y337045D01*
X68705Y337077D01*
X68465Y337103D01*
X68224Y337124D01*
X67983Y337138D01*
X67742Y337147D01*
X67500Y337150D01*
X77500Y325400D02*
X53048Y300948D01*
X136450Y142400D02*
X138037Y140813D01*
X138112Y140741D01*
X138189Y140672D01*
X138269Y140606D01*
X138352Y140542D01*
X138436Y140482D01*
X138523Y140425D01*
X138612Y140372D01*
X138703Y140322D01*
X138796Y140275D01*
X138890Y140232D01*
X138986Y140192D01*
X139083Y140156D01*
X139182Y140123D01*
X139282Y140095D01*
X139382Y140070D01*
X139484Y140048D01*
X139586Y140031D01*
X139689Y140017D01*
X139793Y140008D01*
X139896Y140002D01*
X140000Y140000D01*
X140168Y139998D01*
X140336Y139992D01*
X140504Y139982D01*
X140672Y139968D01*
X140839Y139950D01*
X141006Y139928D01*
X141173Y139902D01*
X141338Y139872D01*
X141503Y139838D01*
X141667Y139801D01*
X141830Y139759D01*
X141992Y139714D01*
X142153Y139664D01*
X142313Y139611D01*
X142471Y139554D01*
X142628Y139493D01*
X142784Y139429D01*
X142937Y139361D01*
X143090Y139289D01*
X143240Y139214D01*
X143389Y139135D01*
X143536Y139053D01*
X143680Y138967D01*
X143823Y138878D01*
X143963Y138785D01*
X144102Y138689D01*
X144237Y138590D01*
X144371Y138487D01*
X144502Y138382D01*
X144631Y138273D01*
X144756Y138161D01*
X144880Y138047D01*
X145000Y137929D01*
X237929Y45000D01*
X379700Y45000D02*
X379700Y44900D01*
X379700Y45000D02*
X237929Y45000D01*
X379700Y44900D02*
X396700Y44900D01*
X418800Y67000D01*
D18*
X418800Y67000D03*
D22*
X236500Y506500D02*
X235600Y507400D01*
D18*
X306000Y437000D03*
D22*
X236500Y506500D01*
X235600Y507400D02*
X234300Y508700D01*
X209000Y508700D01*
D18*
X255137Y294637D03*
D22*
X259700Y299200D01*
X271200Y299200D01*
D18*
X271200Y299200D03*
M02*
