G04 EAGLE Gerber RS-274X export*
G75*
%MOMM*%
%FSLAX34Y34*%
%LPD*%
%INSilkscreen Bottom*%
%IPPOS*%
%AMOC8*
5,1,8,0,0,1.08239X$1,22.5*%
G01*
%ADD10C,0.076200*%
%ADD11C,0.050800*%
%ADD12C,0.152400*%
%ADD13C,0.127000*%
%ADD14C,0.101600*%


D10*
X447042Y81081D02*
X449131Y81081D01*
X449220Y81083D01*
X449308Y81089D01*
X449396Y81098D01*
X449484Y81111D01*
X449571Y81128D01*
X449657Y81148D01*
X449742Y81173D01*
X449827Y81200D01*
X449910Y81232D01*
X449991Y81266D01*
X450071Y81305D01*
X450149Y81346D01*
X450226Y81391D01*
X450300Y81439D01*
X450373Y81490D01*
X450443Y81544D01*
X450510Y81602D01*
X450576Y81662D01*
X450638Y81724D01*
X450698Y81790D01*
X450756Y81857D01*
X450810Y81927D01*
X450861Y82000D01*
X450909Y82074D01*
X450954Y82151D01*
X450995Y82229D01*
X451034Y82309D01*
X451068Y82390D01*
X451100Y82473D01*
X451127Y82558D01*
X451152Y82643D01*
X451172Y82729D01*
X451189Y82816D01*
X451202Y82904D01*
X451211Y82992D01*
X451217Y83080D01*
X451219Y83169D01*
X451219Y88391D01*
X451217Y88480D01*
X451211Y88568D01*
X451202Y88656D01*
X451189Y88744D01*
X451172Y88831D01*
X451152Y88917D01*
X451127Y89002D01*
X451100Y89087D01*
X451068Y89170D01*
X451034Y89251D01*
X450995Y89331D01*
X450954Y89409D01*
X450909Y89486D01*
X450861Y89560D01*
X450810Y89633D01*
X450756Y89703D01*
X450698Y89770D01*
X450638Y89836D01*
X450576Y89898D01*
X450510Y89958D01*
X450443Y90016D01*
X450373Y90070D01*
X450300Y90121D01*
X450226Y90169D01*
X450149Y90214D01*
X450071Y90255D01*
X449991Y90294D01*
X449910Y90328D01*
X449827Y90360D01*
X449742Y90387D01*
X449657Y90412D01*
X449571Y90432D01*
X449484Y90449D01*
X449396Y90462D01*
X449308Y90471D01*
X449220Y90477D01*
X449131Y90479D01*
X447042Y90479D01*
X440963Y90479D02*
X444095Y81081D01*
X437830Y81081D02*
X440963Y90479D01*
X438613Y83431D02*
X443312Y83431D01*
X434125Y81081D02*
X434125Y90479D01*
X428903Y81081D01*
X428903Y90479D01*
X424676Y81081D02*
X422065Y81081D01*
X421964Y81083D01*
X421863Y81089D01*
X421762Y81099D01*
X421662Y81112D01*
X421562Y81130D01*
X421463Y81151D01*
X421365Y81177D01*
X421268Y81206D01*
X421172Y81238D01*
X421078Y81275D01*
X420985Y81315D01*
X420893Y81359D01*
X420804Y81406D01*
X420716Y81457D01*
X420630Y81511D01*
X420547Y81568D01*
X420465Y81628D01*
X420387Y81692D01*
X420310Y81758D01*
X420237Y81828D01*
X420166Y81900D01*
X420098Y81975D01*
X420033Y82053D01*
X419971Y82133D01*
X419912Y82215D01*
X419856Y82300D01*
X419804Y82387D01*
X419755Y82475D01*
X419709Y82566D01*
X419668Y82658D01*
X419629Y82752D01*
X419595Y82847D01*
X419564Y82943D01*
X419537Y83041D01*
X419513Y83139D01*
X419494Y83239D01*
X419478Y83339D01*
X419466Y83439D01*
X419458Y83540D01*
X419454Y83641D01*
X419454Y83743D01*
X419458Y83844D01*
X419466Y83945D01*
X419478Y84045D01*
X419494Y84145D01*
X419513Y84245D01*
X419537Y84343D01*
X419564Y84441D01*
X419595Y84537D01*
X419629Y84632D01*
X419668Y84726D01*
X419709Y84818D01*
X419755Y84909D01*
X419804Y84998D01*
X419856Y85084D01*
X419912Y85169D01*
X419971Y85251D01*
X420033Y85331D01*
X420098Y85409D01*
X420166Y85484D01*
X420237Y85556D01*
X420310Y85626D01*
X420387Y85692D01*
X420465Y85756D01*
X420547Y85816D01*
X420630Y85873D01*
X420716Y85927D01*
X420804Y85978D01*
X420893Y86025D01*
X420985Y86069D01*
X421078Y86109D01*
X421172Y86146D01*
X421268Y86178D01*
X421365Y86207D01*
X421463Y86233D01*
X421562Y86254D01*
X421662Y86272D01*
X421762Y86285D01*
X421863Y86295D01*
X421964Y86301D01*
X422065Y86303D01*
X421543Y90479D02*
X424676Y90479D01*
X421543Y90479D02*
X421453Y90477D01*
X421364Y90471D01*
X421274Y90462D01*
X421185Y90448D01*
X421097Y90431D01*
X421010Y90410D01*
X420923Y90385D01*
X420838Y90356D01*
X420754Y90324D01*
X420672Y90289D01*
X420591Y90249D01*
X420512Y90207D01*
X420435Y90161D01*
X420360Y90111D01*
X420287Y90059D01*
X420216Y90003D01*
X420148Y89945D01*
X420083Y89883D01*
X420020Y89819D01*
X419960Y89752D01*
X419903Y89683D01*
X419849Y89611D01*
X419798Y89537D01*
X419750Y89461D01*
X419706Y89383D01*
X419665Y89303D01*
X419627Y89221D01*
X419593Y89138D01*
X419563Y89053D01*
X419536Y88967D01*
X419513Y88881D01*
X419494Y88793D01*
X419479Y88704D01*
X419467Y88615D01*
X419459Y88526D01*
X419455Y88436D01*
X419455Y88346D01*
X419459Y88256D01*
X419467Y88167D01*
X419479Y88078D01*
X419494Y87989D01*
X419513Y87901D01*
X419536Y87815D01*
X419563Y87729D01*
X419593Y87644D01*
X419627Y87561D01*
X419665Y87479D01*
X419706Y87399D01*
X419750Y87321D01*
X419798Y87245D01*
X419849Y87171D01*
X419903Y87099D01*
X419960Y87030D01*
X420020Y86963D01*
X420083Y86899D01*
X420148Y86837D01*
X420216Y86779D01*
X420287Y86723D01*
X420360Y86671D01*
X420435Y86621D01*
X420512Y86575D01*
X420591Y86533D01*
X420672Y86493D01*
X420754Y86458D01*
X420838Y86426D01*
X420923Y86397D01*
X421010Y86372D01*
X421097Y86351D01*
X421185Y86334D01*
X421274Y86320D01*
X421364Y86311D01*
X421453Y86305D01*
X421543Y86303D01*
X421543Y86302D02*
X423632Y86302D01*
X452819Y97481D02*
X452819Y106879D01*
X452819Y102702D02*
X447598Y102702D01*
X447598Y106879D02*
X447598Y97481D01*
X428119Y97781D02*
X428119Y107179D01*
X428119Y97781D02*
X423942Y97781D01*
X368557Y48249D02*
X366468Y48249D01*
X368557Y48250D02*
X368646Y48252D01*
X368734Y48258D01*
X368822Y48267D01*
X368910Y48280D01*
X368997Y48297D01*
X369083Y48317D01*
X369168Y48342D01*
X369253Y48369D01*
X369336Y48401D01*
X369417Y48435D01*
X369497Y48474D01*
X369575Y48515D01*
X369652Y48560D01*
X369726Y48608D01*
X369799Y48659D01*
X369869Y48713D01*
X369936Y48771D01*
X370002Y48831D01*
X370064Y48893D01*
X370124Y48959D01*
X370182Y49026D01*
X370236Y49096D01*
X370287Y49169D01*
X370335Y49243D01*
X370380Y49320D01*
X370421Y49398D01*
X370460Y49478D01*
X370494Y49559D01*
X370526Y49642D01*
X370553Y49727D01*
X370578Y49812D01*
X370598Y49898D01*
X370615Y49985D01*
X370628Y50073D01*
X370637Y50161D01*
X370643Y50249D01*
X370645Y50338D01*
X370645Y55559D01*
X370643Y55648D01*
X370637Y55736D01*
X370628Y55824D01*
X370615Y55912D01*
X370598Y55999D01*
X370578Y56085D01*
X370553Y56170D01*
X370526Y56255D01*
X370494Y56338D01*
X370460Y56419D01*
X370421Y56499D01*
X370380Y56577D01*
X370335Y56654D01*
X370287Y56728D01*
X370236Y56801D01*
X370182Y56871D01*
X370124Y56938D01*
X370064Y57004D01*
X370002Y57066D01*
X369936Y57126D01*
X369869Y57184D01*
X369799Y57238D01*
X369726Y57289D01*
X369652Y57337D01*
X369575Y57382D01*
X369497Y57423D01*
X369417Y57462D01*
X369336Y57496D01*
X369253Y57528D01*
X369168Y57555D01*
X369083Y57580D01*
X368997Y57600D01*
X368910Y57617D01*
X368822Y57630D01*
X368734Y57639D01*
X368646Y57645D01*
X368557Y57647D01*
X366468Y57647D01*
X360389Y57647D02*
X363522Y48249D01*
X357256Y48249D02*
X360389Y57647D01*
X358040Y50599D02*
X362739Y50599D01*
X353551Y48249D02*
X353551Y57647D01*
X348330Y48249D01*
X348330Y57647D01*
X341231Y57648D02*
X341136Y57646D01*
X341042Y57640D01*
X340948Y57631D01*
X340854Y57618D01*
X340761Y57601D01*
X340669Y57580D01*
X340577Y57555D01*
X340487Y57527D01*
X340398Y57495D01*
X340310Y57460D01*
X340224Y57421D01*
X340139Y57379D01*
X340056Y57333D01*
X339975Y57284D01*
X339896Y57232D01*
X339819Y57177D01*
X339745Y57118D01*
X339673Y57057D01*
X339603Y56993D01*
X339536Y56926D01*
X339472Y56856D01*
X339411Y56784D01*
X339352Y56710D01*
X339297Y56633D01*
X339245Y56554D01*
X339196Y56473D01*
X339150Y56390D01*
X339108Y56305D01*
X339069Y56219D01*
X339034Y56131D01*
X339002Y56042D01*
X338974Y55952D01*
X338949Y55860D01*
X338928Y55768D01*
X338911Y55675D01*
X338898Y55581D01*
X338889Y55487D01*
X338883Y55393D01*
X338881Y55298D01*
X341231Y57647D02*
X341339Y57645D01*
X341448Y57639D01*
X341556Y57629D01*
X341663Y57616D01*
X341770Y57598D01*
X341877Y57577D01*
X341982Y57552D01*
X342087Y57523D01*
X342190Y57491D01*
X342292Y57454D01*
X342393Y57414D01*
X342492Y57371D01*
X342590Y57324D01*
X342686Y57273D01*
X342780Y57219D01*
X342872Y57162D01*
X342962Y57101D01*
X343050Y57037D01*
X343135Y56971D01*
X343218Y56901D01*
X343298Y56828D01*
X343376Y56752D01*
X343451Y56674D01*
X343523Y56593D01*
X343592Y56509D01*
X343658Y56423D01*
X343721Y56335D01*
X343780Y56244D01*
X343837Y56152D01*
X343890Y56057D01*
X343939Y55960D01*
X343985Y55862D01*
X344028Y55763D01*
X344067Y55661D01*
X344102Y55559D01*
X339664Y53470D02*
X339595Y53539D01*
X339529Y53610D01*
X339465Y53683D01*
X339404Y53759D01*
X339346Y53838D01*
X339292Y53918D01*
X339240Y54001D01*
X339192Y54085D01*
X339146Y54171D01*
X339105Y54259D01*
X339066Y54349D01*
X339031Y54440D01*
X339000Y54532D01*
X338972Y54625D01*
X338948Y54719D01*
X338928Y54814D01*
X338911Y54910D01*
X338898Y55007D01*
X338889Y55104D01*
X338883Y55201D01*
X338881Y55298D01*
X339664Y53471D02*
X344102Y48249D01*
X338881Y48249D01*
X382519Y41079D02*
X382519Y31681D01*
X382519Y36902D02*
X377298Y36902D01*
X377298Y41079D02*
X377298Y31681D01*
X382619Y66981D02*
X382619Y76379D01*
X382619Y66981D02*
X378442Y66981D01*
X101326Y207253D02*
X101326Y214619D01*
X102144Y207253D02*
X100508Y207253D01*
X100508Y214619D02*
X102144Y214619D01*
X94412Y211345D02*
X93184Y211345D01*
X93184Y207253D01*
X95639Y207253D01*
X95717Y207255D01*
X95795Y207260D01*
X95872Y207270D01*
X95949Y207283D01*
X96025Y207299D01*
X96100Y207319D01*
X96174Y207343D01*
X96247Y207370D01*
X96319Y207401D01*
X96389Y207435D01*
X96458Y207472D01*
X96524Y207513D01*
X96589Y207557D01*
X96651Y207603D01*
X96711Y207653D01*
X96769Y207705D01*
X96824Y207760D01*
X96876Y207818D01*
X96926Y207878D01*
X96972Y207940D01*
X97016Y208005D01*
X97057Y208072D01*
X97094Y208140D01*
X97128Y208210D01*
X97159Y208282D01*
X97186Y208355D01*
X97210Y208429D01*
X97230Y208504D01*
X97246Y208580D01*
X97259Y208657D01*
X97269Y208734D01*
X97274Y208812D01*
X97276Y208890D01*
X97276Y212982D01*
X97274Y213060D01*
X97269Y213138D01*
X97259Y213215D01*
X97246Y213292D01*
X97230Y213368D01*
X97210Y213443D01*
X97186Y213517D01*
X97159Y213590D01*
X97128Y213662D01*
X97094Y213732D01*
X97057Y213801D01*
X97016Y213867D01*
X96972Y213932D01*
X96926Y213994D01*
X96876Y214054D01*
X96824Y214112D01*
X96769Y214167D01*
X96711Y214219D01*
X96651Y214269D01*
X96589Y214315D01*
X96524Y214359D01*
X96458Y214400D01*
X96389Y214437D01*
X96319Y214471D01*
X96247Y214502D01*
X96174Y214529D01*
X96100Y214553D01*
X96025Y214573D01*
X95949Y214589D01*
X95872Y214602D01*
X95795Y214612D01*
X95717Y214617D01*
X95639Y214619D01*
X93184Y214619D01*
X89473Y214619D02*
X89473Y207253D01*
X85381Y207253D02*
X89473Y214619D01*
X85381Y214619D02*
X85381Y207253D01*
X329619Y360381D02*
X329619Y367747D01*
X329619Y364473D02*
X325527Y364473D01*
X325527Y367747D02*
X325527Y360381D01*
X320502Y360381D02*
X320502Y367747D01*
X322548Y367747D02*
X318455Y367747D01*
X315425Y367747D02*
X315425Y360381D01*
X315425Y367747D02*
X313379Y367747D01*
X313290Y367745D01*
X313201Y367739D01*
X313112Y367729D01*
X313024Y367716D01*
X312936Y367699D01*
X312849Y367677D01*
X312764Y367652D01*
X312679Y367624D01*
X312596Y367591D01*
X312514Y367555D01*
X312434Y367516D01*
X312356Y367473D01*
X312280Y367427D01*
X312205Y367377D01*
X312133Y367324D01*
X312064Y367268D01*
X311997Y367209D01*
X311932Y367148D01*
X311871Y367083D01*
X311812Y367016D01*
X311756Y366947D01*
X311703Y366875D01*
X311653Y366800D01*
X311607Y366724D01*
X311564Y366646D01*
X311525Y366566D01*
X311489Y366484D01*
X311456Y366401D01*
X311428Y366316D01*
X311403Y366231D01*
X311381Y366144D01*
X311364Y366056D01*
X311351Y365968D01*
X311341Y365879D01*
X311335Y365790D01*
X311333Y365701D01*
X311335Y365612D01*
X311341Y365523D01*
X311351Y365434D01*
X311364Y365346D01*
X311381Y365258D01*
X311403Y365171D01*
X311428Y365086D01*
X311456Y365001D01*
X311489Y364918D01*
X311525Y364836D01*
X311564Y364756D01*
X311607Y364678D01*
X311653Y364602D01*
X311703Y364527D01*
X311756Y364455D01*
X311812Y364386D01*
X311871Y364319D01*
X311932Y364254D01*
X311997Y364193D01*
X312064Y364134D01*
X312133Y364078D01*
X312205Y364025D01*
X312280Y363975D01*
X312356Y363929D01*
X312434Y363886D01*
X312514Y363847D01*
X312596Y363811D01*
X312679Y363778D01*
X312764Y363750D01*
X312849Y363725D01*
X312936Y363703D01*
X313024Y363686D01*
X313112Y363673D01*
X313201Y363663D01*
X313290Y363657D01*
X313379Y363655D01*
X315425Y363655D01*
X312970Y363655D02*
X311333Y360381D01*
X387987Y100745D02*
X389214Y100745D01*
X387987Y100745D02*
X387987Y96653D01*
X390442Y96653D01*
X390520Y96655D01*
X390598Y96660D01*
X390675Y96670D01*
X390752Y96683D01*
X390828Y96699D01*
X390903Y96719D01*
X390977Y96743D01*
X391050Y96770D01*
X391122Y96801D01*
X391192Y96835D01*
X391261Y96872D01*
X391327Y96913D01*
X391392Y96957D01*
X391454Y97003D01*
X391514Y97053D01*
X391572Y97105D01*
X391627Y97160D01*
X391679Y97218D01*
X391729Y97278D01*
X391775Y97340D01*
X391819Y97405D01*
X391860Y97472D01*
X391897Y97540D01*
X391931Y97610D01*
X391962Y97682D01*
X391989Y97755D01*
X392013Y97829D01*
X392033Y97904D01*
X392049Y97980D01*
X392062Y98057D01*
X392072Y98134D01*
X392077Y98212D01*
X392079Y98290D01*
X392079Y102382D01*
X392077Y102460D01*
X392072Y102538D01*
X392062Y102615D01*
X392049Y102692D01*
X392033Y102768D01*
X392013Y102843D01*
X391989Y102917D01*
X391962Y102990D01*
X391931Y103062D01*
X391897Y103132D01*
X391860Y103201D01*
X391819Y103267D01*
X391775Y103332D01*
X391729Y103394D01*
X391679Y103454D01*
X391627Y103512D01*
X391572Y103567D01*
X391514Y103619D01*
X391454Y103669D01*
X391392Y103715D01*
X391327Y103759D01*
X391261Y103800D01*
X391192Y103837D01*
X391122Y103871D01*
X391050Y103902D01*
X390977Y103929D01*
X390903Y103953D01*
X390828Y103973D01*
X390752Y103989D01*
X390675Y104002D01*
X390598Y104012D01*
X390520Y104017D01*
X390442Y104019D01*
X387987Y104019D01*
X384276Y104019D02*
X384276Y96653D01*
X380184Y96653D02*
X384276Y104019D01*
X380184Y104019D02*
X380184Y96653D01*
X376473Y96653D02*
X376473Y104019D01*
X374427Y104019D01*
X374338Y104017D01*
X374249Y104011D01*
X374160Y104001D01*
X374072Y103988D01*
X373984Y103971D01*
X373897Y103949D01*
X373812Y103924D01*
X373727Y103896D01*
X373644Y103863D01*
X373562Y103827D01*
X373482Y103788D01*
X373404Y103745D01*
X373328Y103699D01*
X373253Y103649D01*
X373181Y103596D01*
X373112Y103540D01*
X373045Y103481D01*
X372980Y103420D01*
X372919Y103355D01*
X372860Y103288D01*
X372804Y103219D01*
X372751Y103147D01*
X372701Y103072D01*
X372655Y102996D01*
X372612Y102918D01*
X372573Y102838D01*
X372537Y102756D01*
X372504Y102673D01*
X372476Y102588D01*
X372451Y102503D01*
X372429Y102416D01*
X372412Y102328D01*
X372399Y102240D01*
X372389Y102151D01*
X372383Y102062D01*
X372381Y101973D01*
X372381Y98699D01*
X372383Y98610D01*
X372389Y98521D01*
X372399Y98432D01*
X372412Y98344D01*
X372429Y98256D01*
X372451Y98169D01*
X372476Y98084D01*
X372504Y97999D01*
X372537Y97916D01*
X372573Y97834D01*
X372612Y97754D01*
X372655Y97676D01*
X372701Y97600D01*
X372751Y97525D01*
X372804Y97453D01*
X372860Y97384D01*
X372919Y97317D01*
X372980Y97252D01*
X373045Y97191D01*
X373112Y97132D01*
X373181Y97076D01*
X373253Y97023D01*
X373328Y96973D01*
X373404Y96927D01*
X373482Y96884D01*
X373562Y96845D01*
X373644Y96809D01*
X373727Y96776D01*
X373812Y96748D01*
X373897Y96723D01*
X373984Y96701D01*
X374072Y96684D01*
X374160Y96671D01*
X374249Y96661D01*
X374338Y96655D01*
X374427Y96653D01*
X376473Y96653D01*
D11*
X179746Y380254D02*
X179746Y385842D01*
X179746Y383358D02*
X176642Y383358D01*
X176642Y385842D02*
X176642Y380254D01*
X172890Y380254D02*
X172890Y385842D01*
X171338Y385842D02*
X174443Y385842D01*
X169103Y385842D02*
X169103Y380254D01*
X169103Y385842D02*
X167551Y385842D01*
X167474Y385840D01*
X167396Y385834D01*
X167320Y385825D01*
X167243Y385811D01*
X167168Y385794D01*
X167094Y385773D01*
X167020Y385748D01*
X166948Y385720D01*
X166878Y385688D01*
X166809Y385653D01*
X166742Y385614D01*
X166677Y385572D01*
X166614Y385527D01*
X166553Y385479D01*
X166495Y385428D01*
X166440Y385374D01*
X166387Y385317D01*
X166338Y385258D01*
X166291Y385196D01*
X166247Y385132D01*
X166207Y385066D01*
X166170Y384998D01*
X166136Y384928D01*
X166106Y384857D01*
X166080Y384784D01*
X166057Y384710D01*
X166038Y384635D01*
X166023Y384560D01*
X166011Y384483D01*
X166003Y384406D01*
X165999Y384329D01*
X165999Y384251D01*
X166003Y384174D01*
X166011Y384097D01*
X166023Y384020D01*
X166038Y383945D01*
X166057Y383870D01*
X166080Y383796D01*
X166106Y383723D01*
X166136Y383652D01*
X166170Y383582D01*
X166207Y383514D01*
X166247Y383448D01*
X166291Y383384D01*
X166338Y383322D01*
X166387Y383263D01*
X166440Y383206D01*
X166495Y383152D01*
X166553Y383101D01*
X166614Y383053D01*
X166677Y383008D01*
X166742Y382966D01*
X166809Y382927D01*
X166878Y382892D01*
X166948Y382860D01*
X167020Y382832D01*
X167094Y382807D01*
X167168Y382786D01*
X167243Y382769D01*
X167320Y382755D01*
X167396Y382746D01*
X167474Y382740D01*
X167551Y382738D01*
X169103Y382738D01*
X167240Y382738D02*
X165998Y380254D01*
X163891Y379633D02*
X161407Y379633D01*
X156908Y383358D02*
X155976Y383358D01*
X155976Y380254D01*
X157839Y380254D01*
X157909Y380256D01*
X157978Y380262D01*
X158047Y380272D01*
X158115Y380285D01*
X158183Y380303D01*
X158249Y380324D01*
X158314Y380349D01*
X158378Y380377D01*
X158440Y380409D01*
X158500Y380444D01*
X158558Y380483D01*
X158613Y380525D01*
X158667Y380570D01*
X158717Y380618D01*
X158765Y380668D01*
X158810Y380722D01*
X158852Y380777D01*
X158891Y380835D01*
X158926Y380895D01*
X158958Y380957D01*
X158986Y381021D01*
X159011Y381086D01*
X159032Y381152D01*
X159050Y381220D01*
X159063Y381288D01*
X159073Y381357D01*
X159079Y381426D01*
X159081Y381496D01*
X159081Y384600D01*
X159079Y384670D01*
X159073Y384739D01*
X159063Y384808D01*
X159050Y384876D01*
X159032Y384944D01*
X159011Y385010D01*
X158986Y385075D01*
X158958Y385139D01*
X158926Y385201D01*
X158891Y385261D01*
X158852Y385319D01*
X158810Y385374D01*
X158765Y385428D01*
X158717Y385478D01*
X158667Y385526D01*
X158613Y385571D01*
X158558Y385613D01*
X158500Y385652D01*
X158440Y385687D01*
X158378Y385719D01*
X158314Y385747D01*
X158249Y385772D01*
X158183Y385793D01*
X158115Y385811D01*
X158047Y385824D01*
X157978Y385834D01*
X157909Y385840D01*
X157839Y385842D01*
X155976Y385842D01*
X153229Y385842D02*
X153229Y380254D01*
X150124Y380254D02*
X153229Y385842D01*
X150124Y385842D02*
X150124Y380254D01*
X147376Y380254D02*
X147376Y385842D01*
X145824Y385842D01*
X145748Y385840D01*
X145672Y385835D01*
X145596Y385825D01*
X145521Y385812D01*
X145447Y385795D01*
X145373Y385775D01*
X145301Y385751D01*
X145230Y385724D01*
X145160Y385693D01*
X145092Y385659D01*
X145026Y385621D01*
X144962Y385580D01*
X144899Y385537D01*
X144839Y385490D01*
X144782Y385440D01*
X144727Y385387D01*
X144674Y385332D01*
X144624Y385275D01*
X144577Y385215D01*
X144534Y385152D01*
X144493Y385088D01*
X144455Y385022D01*
X144421Y384954D01*
X144390Y384884D01*
X144363Y384813D01*
X144339Y384741D01*
X144319Y384667D01*
X144302Y384593D01*
X144289Y384518D01*
X144279Y384442D01*
X144274Y384366D01*
X144272Y384290D01*
X144272Y381806D01*
X144274Y381730D01*
X144279Y381654D01*
X144289Y381578D01*
X144302Y381503D01*
X144319Y381429D01*
X144339Y381355D01*
X144363Y381283D01*
X144390Y381212D01*
X144421Y381142D01*
X144455Y381074D01*
X144493Y381008D01*
X144534Y380944D01*
X144577Y380881D01*
X144624Y380821D01*
X144674Y380764D01*
X144727Y380709D01*
X144782Y380656D01*
X144839Y380606D01*
X144899Y380559D01*
X144962Y380516D01*
X145026Y380475D01*
X145092Y380437D01*
X145160Y380403D01*
X145230Y380372D01*
X145301Y380345D01*
X145373Y380321D01*
X145447Y380301D01*
X145521Y380284D01*
X145596Y380271D01*
X145672Y380261D01*
X145748Y380256D01*
X145824Y380254D01*
X147376Y380254D01*
D12*
X529238Y64722D02*
X525626Y60207D01*
X529238Y64722D02*
X512982Y64722D01*
X512982Y60207D02*
X512982Y69238D01*
X625626Y354576D02*
X629238Y359091D01*
X612982Y359091D01*
X612982Y354576D02*
X612982Y363607D01*
X622013Y370207D02*
X622013Y375626D01*
X622011Y375744D01*
X622005Y375862D01*
X621996Y375980D01*
X621982Y376097D01*
X621965Y376214D01*
X621944Y376331D01*
X621919Y376446D01*
X621890Y376561D01*
X621857Y376675D01*
X621821Y376787D01*
X621781Y376898D01*
X621738Y377008D01*
X621691Y377117D01*
X621641Y377224D01*
X621586Y377329D01*
X621529Y377432D01*
X621468Y377533D01*
X621404Y377633D01*
X621337Y377730D01*
X621267Y377825D01*
X621193Y377917D01*
X621117Y378008D01*
X621037Y378095D01*
X620955Y378180D01*
X620870Y378262D01*
X620783Y378342D01*
X620692Y378418D01*
X620600Y378492D01*
X620505Y378562D01*
X620408Y378629D01*
X620308Y378693D01*
X620207Y378754D01*
X620104Y378811D01*
X619999Y378866D01*
X619892Y378916D01*
X619783Y378963D01*
X619673Y379006D01*
X619562Y379046D01*
X619450Y379082D01*
X619336Y379115D01*
X619221Y379144D01*
X619106Y379169D01*
X618989Y379190D01*
X618872Y379207D01*
X618755Y379221D01*
X618637Y379230D01*
X618519Y379236D01*
X618401Y379238D01*
X617498Y379238D01*
X617365Y379236D01*
X617233Y379230D01*
X617101Y379220D01*
X616969Y379207D01*
X616837Y379189D01*
X616707Y379168D01*
X616576Y379143D01*
X616447Y379114D01*
X616319Y379081D01*
X616191Y379045D01*
X616065Y379005D01*
X615940Y378961D01*
X615816Y378913D01*
X615694Y378862D01*
X615573Y378807D01*
X615454Y378749D01*
X615336Y378687D01*
X615221Y378622D01*
X615107Y378553D01*
X614996Y378482D01*
X614887Y378406D01*
X614780Y378328D01*
X614675Y378247D01*
X614573Y378162D01*
X614473Y378075D01*
X614376Y377985D01*
X614281Y377892D01*
X614190Y377796D01*
X614101Y377698D01*
X614015Y377597D01*
X613932Y377493D01*
X613852Y377387D01*
X613776Y377279D01*
X613702Y377169D01*
X613632Y377056D01*
X613565Y376942D01*
X613502Y376825D01*
X613442Y376707D01*
X613385Y376587D01*
X613332Y376465D01*
X613283Y376342D01*
X613237Y376218D01*
X613195Y376092D01*
X613157Y375965D01*
X613122Y375837D01*
X613091Y375708D01*
X613064Y375579D01*
X613041Y375448D01*
X613021Y375317D01*
X613006Y375185D01*
X612994Y375053D01*
X612986Y374921D01*
X612982Y374788D01*
X612982Y374656D01*
X612986Y374523D01*
X612994Y374391D01*
X613006Y374259D01*
X613021Y374127D01*
X613041Y373996D01*
X613064Y373865D01*
X613091Y373736D01*
X613122Y373607D01*
X613157Y373479D01*
X613195Y373352D01*
X613237Y373226D01*
X613283Y373102D01*
X613332Y372979D01*
X613385Y372857D01*
X613442Y372737D01*
X613502Y372619D01*
X613565Y372502D01*
X613632Y372388D01*
X613702Y372275D01*
X613776Y372165D01*
X613852Y372057D01*
X613932Y371951D01*
X614015Y371847D01*
X614101Y371746D01*
X614190Y371648D01*
X614281Y371552D01*
X614376Y371459D01*
X614473Y371369D01*
X614573Y371282D01*
X614675Y371197D01*
X614780Y371116D01*
X614887Y371038D01*
X614996Y370962D01*
X615107Y370891D01*
X615221Y370822D01*
X615336Y370757D01*
X615454Y370695D01*
X615573Y370637D01*
X615694Y370582D01*
X615816Y370531D01*
X615940Y370483D01*
X616065Y370439D01*
X616191Y370399D01*
X616319Y370363D01*
X616447Y370330D01*
X616576Y370301D01*
X616707Y370276D01*
X616837Y370255D01*
X616969Y370237D01*
X617101Y370224D01*
X617233Y370214D01*
X617365Y370208D01*
X617498Y370206D01*
X617498Y370207D02*
X622013Y370207D01*
X622188Y370209D01*
X622362Y370215D01*
X622536Y370226D01*
X622710Y370241D01*
X622884Y370260D01*
X623057Y370283D01*
X623229Y370310D01*
X623401Y370342D01*
X623572Y370377D01*
X623742Y370417D01*
X623911Y370461D01*
X624079Y370509D01*
X624246Y370561D01*
X624411Y370617D01*
X624575Y370677D01*
X624738Y370740D01*
X624898Y370808D01*
X625058Y370880D01*
X625215Y370955D01*
X625371Y371035D01*
X625524Y371118D01*
X625676Y371204D01*
X625825Y371295D01*
X625972Y371389D01*
X626117Y371486D01*
X626260Y371587D01*
X626400Y371691D01*
X626537Y371799D01*
X626672Y371910D01*
X626804Y372024D01*
X626933Y372141D01*
X627060Y372262D01*
X627183Y372385D01*
X627304Y372512D01*
X627421Y372641D01*
X627535Y372773D01*
X627646Y372908D01*
X627754Y373045D01*
X627858Y373185D01*
X627959Y373328D01*
X628056Y373473D01*
X628150Y373620D01*
X628241Y373769D01*
X628327Y373921D01*
X628410Y374074D01*
X628490Y374230D01*
X628565Y374387D01*
X628637Y374547D01*
X628705Y374707D01*
X628768Y374870D01*
X628828Y375034D01*
X628884Y375199D01*
X628936Y375366D01*
X628984Y375534D01*
X629028Y375703D01*
X629068Y375873D01*
X629103Y376044D01*
X629135Y376216D01*
X629162Y376388D01*
X629185Y376561D01*
X629204Y376735D01*
X629219Y376909D01*
X629230Y377083D01*
X629236Y377257D01*
X629238Y377432D01*
D13*
X429365Y201275D02*
X424200Y185781D01*
X419036Y201275D01*
X413769Y192667D02*
X413769Y189224D01*
X413769Y192667D02*
X413767Y192783D01*
X413761Y192899D01*
X413751Y193015D01*
X413738Y193131D01*
X413720Y193246D01*
X413699Y193360D01*
X413673Y193474D01*
X413644Y193586D01*
X413611Y193698D01*
X413574Y193808D01*
X413534Y193917D01*
X413490Y194025D01*
X413442Y194131D01*
X413391Y194235D01*
X413336Y194338D01*
X413278Y194439D01*
X413217Y194537D01*
X413152Y194634D01*
X413084Y194728D01*
X413013Y194820D01*
X412938Y194910D01*
X412861Y194997D01*
X412781Y195081D01*
X412698Y195162D01*
X412612Y195241D01*
X412524Y195317D01*
X412433Y195390D01*
X412340Y195459D01*
X412245Y195526D01*
X412147Y195589D01*
X412048Y195649D01*
X411946Y195705D01*
X411842Y195758D01*
X411737Y195808D01*
X411630Y195853D01*
X411522Y195896D01*
X411412Y195934D01*
X411301Y195969D01*
X411189Y196000D01*
X411076Y196027D01*
X410962Y196051D01*
X410847Y196070D01*
X410732Y196086D01*
X410616Y196098D01*
X410500Y196106D01*
X410384Y196110D01*
X410268Y196110D01*
X410152Y196106D01*
X410036Y196098D01*
X409920Y196086D01*
X409805Y196070D01*
X409690Y196051D01*
X409576Y196027D01*
X409463Y196000D01*
X409351Y195969D01*
X409240Y195934D01*
X409130Y195896D01*
X409022Y195853D01*
X408915Y195808D01*
X408810Y195758D01*
X408706Y195705D01*
X408605Y195649D01*
X408505Y195589D01*
X408407Y195526D01*
X408312Y195459D01*
X408219Y195390D01*
X408128Y195317D01*
X408040Y195241D01*
X407954Y195162D01*
X407871Y195081D01*
X407791Y194997D01*
X407714Y194910D01*
X407639Y194820D01*
X407568Y194728D01*
X407500Y194634D01*
X407435Y194537D01*
X407374Y194439D01*
X407316Y194338D01*
X407261Y194235D01*
X407210Y194131D01*
X407162Y194025D01*
X407118Y193917D01*
X407078Y193808D01*
X407041Y193698D01*
X407008Y193586D01*
X406979Y193474D01*
X406953Y193360D01*
X406932Y193246D01*
X406914Y193131D01*
X406901Y193015D01*
X406891Y192899D01*
X406885Y192783D01*
X406883Y192667D01*
X406883Y189224D01*
X406885Y189108D01*
X406891Y188992D01*
X406901Y188876D01*
X406914Y188760D01*
X406932Y188645D01*
X406953Y188531D01*
X406979Y188417D01*
X407008Y188305D01*
X407041Y188193D01*
X407078Y188083D01*
X407118Y187974D01*
X407162Y187866D01*
X407210Y187760D01*
X407261Y187656D01*
X407316Y187553D01*
X407374Y187452D01*
X407435Y187354D01*
X407500Y187257D01*
X407568Y187163D01*
X407639Y187071D01*
X407714Y186981D01*
X407791Y186894D01*
X407871Y186810D01*
X407954Y186729D01*
X408040Y186650D01*
X408128Y186574D01*
X408219Y186501D01*
X408312Y186432D01*
X408407Y186365D01*
X408505Y186302D01*
X408605Y186242D01*
X408706Y186186D01*
X408810Y186133D01*
X408915Y186083D01*
X409022Y186038D01*
X409130Y185995D01*
X409240Y185957D01*
X409351Y185922D01*
X409463Y185891D01*
X409576Y185864D01*
X409690Y185840D01*
X409805Y185821D01*
X409920Y185805D01*
X410036Y185793D01*
X410152Y185785D01*
X410268Y185781D01*
X410384Y185781D01*
X410500Y185785D01*
X410616Y185793D01*
X410732Y185805D01*
X410847Y185821D01*
X410962Y185840D01*
X411076Y185864D01*
X411189Y185891D01*
X411301Y185922D01*
X411412Y185957D01*
X411522Y185995D01*
X411630Y186038D01*
X411737Y186083D01*
X411842Y186133D01*
X411946Y186186D01*
X412048Y186242D01*
X412147Y186302D01*
X412245Y186365D01*
X412340Y186432D01*
X412433Y186501D01*
X412524Y186574D01*
X412612Y186650D01*
X412698Y186729D01*
X412781Y186810D01*
X412861Y186894D01*
X412938Y186981D01*
X413013Y187071D01*
X413084Y187163D01*
X413152Y187257D01*
X413217Y187354D01*
X413278Y187452D01*
X413336Y187553D01*
X413391Y187656D01*
X413442Y187760D01*
X413490Y187866D01*
X413534Y187974D01*
X413574Y188083D01*
X413611Y188193D01*
X413644Y188305D01*
X413673Y188417D01*
X413699Y188531D01*
X413720Y188645D01*
X413738Y188760D01*
X413751Y188876D01*
X413761Y188992D01*
X413767Y189108D01*
X413769Y189224D01*
X400656Y188363D02*
X400656Y201275D01*
X400656Y188363D02*
X400654Y188264D01*
X400648Y188165D01*
X400639Y188067D01*
X400626Y187969D01*
X400609Y187871D01*
X400588Y187775D01*
X400564Y187679D01*
X400536Y187584D01*
X400504Y187490D01*
X400469Y187398D01*
X400430Y187307D01*
X400388Y187217D01*
X400342Y187130D01*
X400293Y187044D01*
X400241Y186960D01*
X400186Y186878D01*
X400127Y186798D01*
X400066Y186720D01*
X400002Y186645D01*
X399934Y186573D01*
X399864Y186503D01*
X399792Y186435D01*
X399717Y186371D01*
X399639Y186310D01*
X399559Y186251D01*
X399477Y186196D01*
X399393Y186144D01*
X399307Y186095D01*
X399220Y186049D01*
X399130Y186007D01*
X399039Y185968D01*
X398947Y185933D01*
X398853Y185901D01*
X398758Y185873D01*
X398662Y185849D01*
X398566Y185828D01*
X398468Y185811D01*
X398370Y185798D01*
X398272Y185789D01*
X398173Y185783D01*
X398074Y185781D01*
X390009Y185781D02*
X393452Y196110D01*
X386566Y196110D02*
X390009Y185781D01*
X381064Y189224D02*
X381064Y192667D01*
X381062Y192783D01*
X381056Y192899D01*
X381046Y193015D01*
X381033Y193131D01*
X381015Y193246D01*
X380994Y193360D01*
X380968Y193474D01*
X380939Y193586D01*
X380906Y193698D01*
X380869Y193808D01*
X380829Y193917D01*
X380785Y194025D01*
X380737Y194131D01*
X380686Y194235D01*
X380631Y194338D01*
X380573Y194439D01*
X380512Y194537D01*
X380447Y194634D01*
X380379Y194728D01*
X380308Y194820D01*
X380233Y194910D01*
X380156Y194997D01*
X380076Y195081D01*
X379993Y195162D01*
X379907Y195241D01*
X379819Y195317D01*
X379728Y195390D01*
X379635Y195459D01*
X379540Y195526D01*
X379442Y195589D01*
X379343Y195649D01*
X379241Y195705D01*
X379137Y195758D01*
X379032Y195808D01*
X378925Y195853D01*
X378817Y195896D01*
X378707Y195934D01*
X378596Y195969D01*
X378484Y196000D01*
X378371Y196027D01*
X378257Y196051D01*
X378142Y196070D01*
X378027Y196086D01*
X377911Y196098D01*
X377795Y196106D01*
X377679Y196110D01*
X377563Y196110D01*
X377447Y196106D01*
X377331Y196098D01*
X377215Y196086D01*
X377100Y196070D01*
X376985Y196051D01*
X376871Y196027D01*
X376758Y196000D01*
X376646Y195969D01*
X376535Y195934D01*
X376425Y195896D01*
X376317Y195853D01*
X376210Y195808D01*
X376105Y195758D01*
X376001Y195705D01*
X375900Y195649D01*
X375800Y195589D01*
X375702Y195526D01*
X375607Y195459D01*
X375514Y195390D01*
X375423Y195317D01*
X375335Y195241D01*
X375249Y195162D01*
X375166Y195081D01*
X375086Y194997D01*
X375009Y194910D01*
X374934Y194820D01*
X374863Y194728D01*
X374795Y194634D01*
X374730Y194537D01*
X374669Y194439D01*
X374611Y194338D01*
X374556Y194235D01*
X374505Y194131D01*
X374457Y194025D01*
X374413Y193917D01*
X374373Y193808D01*
X374336Y193698D01*
X374303Y193586D01*
X374274Y193474D01*
X374248Y193360D01*
X374227Y193246D01*
X374209Y193131D01*
X374196Y193015D01*
X374186Y192899D01*
X374180Y192783D01*
X374178Y192667D01*
X374178Y189224D01*
X374180Y189108D01*
X374186Y188992D01*
X374196Y188876D01*
X374209Y188760D01*
X374227Y188645D01*
X374248Y188531D01*
X374274Y188417D01*
X374303Y188305D01*
X374336Y188193D01*
X374373Y188083D01*
X374413Y187974D01*
X374457Y187866D01*
X374505Y187760D01*
X374556Y187656D01*
X374611Y187553D01*
X374669Y187452D01*
X374730Y187354D01*
X374795Y187257D01*
X374863Y187163D01*
X374934Y187071D01*
X375009Y186981D01*
X375086Y186894D01*
X375166Y186810D01*
X375249Y186729D01*
X375335Y186650D01*
X375423Y186574D01*
X375514Y186501D01*
X375607Y186432D01*
X375702Y186365D01*
X375800Y186302D01*
X375900Y186242D01*
X376001Y186186D01*
X376105Y186133D01*
X376210Y186083D01*
X376317Y186038D01*
X376425Y185995D01*
X376535Y185957D01*
X376646Y185922D01*
X376758Y185891D01*
X376871Y185864D01*
X376985Y185840D01*
X377100Y185821D01*
X377215Y185805D01*
X377331Y185793D01*
X377447Y185785D01*
X377563Y185781D01*
X377679Y185781D01*
X377795Y185785D01*
X377911Y185793D01*
X378027Y185805D01*
X378142Y185821D01*
X378257Y185840D01*
X378371Y185864D01*
X378484Y185891D01*
X378596Y185922D01*
X378707Y185957D01*
X378817Y185995D01*
X378925Y186038D01*
X379032Y186083D01*
X379137Y186133D01*
X379241Y186186D01*
X379343Y186242D01*
X379442Y186302D01*
X379540Y186365D01*
X379635Y186432D01*
X379728Y186501D01*
X379819Y186574D01*
X379907Y186650D01*
X379993Y186729D01*
X380076Y186810D01*
X380156Y186894D01*
X380233Y186981D01*
X380308Y187071D01*
X380379Y187163D01*
X380447Y187257D01*
X380512Y187354D01*
X380573Y187452D01*
X380631Y187553D01*
X380686Y187656D01*
X380737Y187760D01*
X380785Y187866D01*
X380829Y187974D01*
X380869Y188083D01*
X380906Y188193D01*
X380939Y188305D01*
X380968Y188417D01*
X380994Y188531D01*
X381015Y188645D01*
X381033Y188760D01*
X381046Y188876D01*
X381056Y188992D01*
X381062Y189108D01*
X381064Y189224D01*
X357738Y185781D02*
X353434Y185781D01*
X357738Y185781D02*
X357837Y185783D01*
X357936Y185789D01*
X358034Y185798D01*
X358132Y185811D01*
X358230Y185828D01*
X358326Y185849D01*
X358422Y185873D01*
X358517Y185901D01*
X358611Y185933D01*
X358703Y185968D01*
X358794Y186007D01*
X358884Y186049D01*
X358971Y186095D01*
X359057Y186144D01*
X359141Y186196D01*
X359223Y186251D01*
X359303Y186310D01*
X359381Y186371D01*
X359456Y186435D01*
X359528Y186503D01*
X359598Y186573D01*
X359666Y186645D01*
X359730Y186720D01*
X359791Y186798D01*
X359850Y186878D01*
X359905Y186960D01*
X359957Y187044D01*
X360006Y187130D01*
X360052Y187217D01*
X360094Y187307D01*
X360133Y187398D01*
X360168Y187490D01*
X360200Y187584D01*
X360228Y187679D01*
X360252Y187775D01*
X360273Y187871D01*
X360290Y187969D01*
X360303Y188067D01*
X360312Y188165D01*
X360318Y188264D01*
X360320Y188363D01*
X360320Y193528D01*
X360318Y193627D01*
X360312Y193726D01*
X360303Y193824D01*
X360290Y193922D01*
X360273Y194020D01*
X360252Y194116D01*
X360228Y194212D01*
X360200Y194307D01*
X360168Y194401D01*
X360133Y194493D01*
X360094Y194584D01*
X360052Y194674D01*
X360006Y194761D01*
X359957Y194847D01*
X359905Y194931D01*
X359850Y195013D01*
X359791Y195093D01*
X359730Y195171D01*
X359666Y195246D01*
X359598Y195318D01*
X359528Y195388D01*
X359456Y195456D01*
X359381Y195520D01*
X359303Y195581D01*
X359223Y195640D01*
X359141Y195695D01*
X359057Y195747D01*
X358971Y195796D01*
X358884Y195842D01*
X358794Y195884D01*
X358703Y195923D01*
X358611Y195958D01*
X358517Y195990D01*
X358422Y196018D01*
X358326Y196042D01*
X358230Y196063D01*
X358132Y196080D01*
X358034Y196093D01*
X357936Y196102D01*
X357837Y196108D01*
X357738Y196110D01*
X353434Y196110D01*
X353434Y183199D01*
X353436Y183100D01*
X353442Y183001D01*
X353451Y182903D01*
X353464Y182805D01*
X353481Y182707D01*
X353502Y182611D01*
X353526Y182515D01*
X353554Y182420D01*
X353586Y182326D01*
X353621Y182234D01*
X353660Y182143D01*
X353702Y182053D01*
X353748Y181966D01*
X353797Y181880D01*
X353849Y181796D01*
X353904Y181714D01*
X353963Y181634D01*
X354024Y181556D01*
X354088Y181481D01*
X354156Y181409D01*
X354226Y181339D01*
X354298Y181271D01*
X354373Y181207D01*
X354451Y181146D01*
X354531Y181087D01*
X354613Y181032D01*
X354697Y180980D01*
X354783Y180931D01*
X354870Y180885D01*
X354960Y180843D01*
X355051Y180804D01*
X355143Y180769D01*
X355237Y180737D01*
X355332Y180709D01*
X355428Y180685D01*
X355524Y180664D01*
X355622Y180647D01*
X355720Y180634D01*
X355818Y180625D01*
X355917Y180619D01*
X356016Y180617D01*
X356016Y180616D02*
X359460Y180616D01*
X346898Y185781D02*
X346898Y196110D01*
X347329Y200414D02*
X347329Y201275D01*
X346468Y201275D01*
X346468Y200414D01*
X347329Y200414D01*
X340352Y196110D02*
X340352Y185781D01*
X340352Y196110D02*
X335188Y196110D01*
X335188Y194389D01*
X327576Y191806D02*
X323703Y191806D01*
X327576Y191807D02*
X327685Y191805D01*
X327793Y191799D01*
X327902Y191789D01*
X328010Y191776D01*
X328117Y191758D01*
X328224Y191737D01*
X328330Y191711D01*
X328434Y191682D01*
X328538Y191649D01*
X328641Y191613D01*
X328742Y191572D01*
X328841Y191529D01*
X328939Y191481D01*
X329035Y191430D01*
X329129Y191376D01*
X329222Y191318D01*
X329312Y191257D01*
X329399Y191193D01*
X329485Y191125D01*
X329568Y191055D01*
X329648Y190981D01*
X329726Y190905D01*
X329800Y190826D01*
X329872Y190745D01*
X329941Y190660D01*
X330007Y190574D01*
X330070Y190485D01*
X330129Y190394D01*
X330185Y190300D01*
X330238Y190205D01*
X330287Y190108D01*
X330333Y190010D01*
X330375Y189909D01*
X330413Y189807D01*
X330448Y189704D01*
X330479Y189600D01*
X330506Y189495D01*
X330530Y189388D01*
X330549Y189281D01*
X330565Y189174D01*
X330577Y189066D01*
X330585Y188957D01*
X330589Y188848D01*
X330589Y188740D01*
X330585Y188631D01*
X330577Y188522D01*
X330565Y188414D01*
X330549Y188307D01*
X330530Y188200D01*
X330506Y188093D01*
X330479Y187988D01*
X330448Y187884D01*
X330413Y187781D01*
X330375Y187679D01*
X330333Y187578D01*
X330287Y187480D01*
X330238Y187383D01*
X330185Y187288D01*
X330129Y187194D01*
X330070Y187103D01*
X330007Y187014D01*
X329941Y186928D01*
X329872Y186843D01*
X329800Y186762D01*
X329726Y186683D01*
X329648Y186607D01*
X329568Y186533D01*
X329485Y186463D01*
X329399Y186395D01*
X329312Y186331D01*
X329222Y186270D01*
X329129Y186212D01*
X329035Y186158D01*
X328939Y186107D01*
X328841Y186059D01*
X328742Y186016D01*
X328641Y185975D01*
X328538Y185939D01*
X328434Y185906D01*
X328330Y185877D01*
X328224Y185851D01*
X328117Y185830D01*
X328010Y185812D01*
X327902Y185799D01*
X327793Y185789D01*
X327685Y185783D01*
X327576Y185781D01*
X323703Y185781D01*
X323703Y193528D01*
X323705Y193627D01*
X323711Y193726D01*
X323720Y193824D01*
X323733Y193922D01*
X323750Y194020D01*
X323771Y194116D01*
X323795Y194212D01*
X323823Y194307D01*
X323855Y194401D01*
X323890Y194493D01*
X323929Y194584D01*
X323971Y194674D01*
X324017Y194761D01*
X324066Y194847D01*
X324118Y194932D01*
X324173Y195013D01*
X324232Y195093D01*
X324293Y195171D01*
X324357Y195246D01*
X324425Y195318D01*
X324495Y195388D01*
X324567Y195456D01*
X324642Y195520D01*
X324720Y195581D01*
X324800Y195640D01*
X324882Y195695D01*
X324966Y195747D01*
X325052Y195796D01*
X325139Y195842D01*
X325229Y195884D01*
X325320Y195923D01*
X325412Y195958D01*
X325506Y195990D01*
X325601Y196018D01*
X325697Y196042D01*
X325793Y196063D01*
X325891Y196080D01*
X325989Y196093D01*
X326087Y196102D01*
X326186Y196108D01*
X326285Y196110D01*
X329728Y196110D01*
X316299Y198693D02*
X316299Y185781D01*
X316299Y198693D02*
X316297Y198792D01*
X316291Y198891D01*
X316282Y198989D01*
X316269Y199087D01*
X316252Y199185D01*
X316231Y199281D01*
X316207Y199377D01*
X316179Y199472D01*
X316147Y199566D01*
X316112Y199658D01*
X316073Y199749D01*
X316031Y199839D01*
X315985Y199926D01*
X315936Y200012D01*
X315884Y200096D01*
X315829Y200178D01*
X315770Y200258D01*
X315709Y200336D01*
X315645Y200411D01*
X315577Y200483D01*
X315507Y200553D01*
X315435Y200621D01*
X315360Y200685D01*
X315282Y200746D01*
X315202Y200805D01*
X315120Y200860D01*
X315036Y200912D01*
X314950Y200961D01*
X314863Y201007D01*
X314773Y201049D01*
X314682Y201088D01*
X314590Y201123D01*
X314496Y201155D01*
X314401Y201183D01*
X314305Y201207D01*
X314209Y201228D01*
X314111Y201245D01*
X314013Y201258D01*
X313915Y201267D01*
X313816Y201273D01*
X313717Y201275D01*
X312856Y201275D01*
X312856Y196110D02*
X318021Y196110D01*
X307875Y198693D02*
X307875Y185781D01*
X307875Y198693D02*
X307873Y198792D01*
X307867Y198891D01*
X307858Y198989D01*
X307845Y199087D01*
X307828Y199185D01*
X307807Y199281D01*
X307783Y199377D01*
X307755Y199472D01*
X307723Y199566D01*
X307688Y199658D01*
X307649Y199749D01*
X307607Y199839D01*
X307561Y199926D01*
X307512Y200012D01*
X307460Y200096D01*
X307405Y200178D01*
X307346Y200258D01*
X307285Y200336D01*
X307221Y200411D01*
X307153Y200483D01*
X307083Y200553D01*
X307011Y200621D01*
X306936Y200685D01*
X306858Y200746D01*
X306778Y200805D01*
X306696Y200860D01*
X306612Y200912D01*
X306526Y200961D01*
X306439Y201007D01*
X306349Y201049D01*
X306258Y201088D01*
X306166Y201123D01*
X306072Y201155D01*
X305977Y201183D01*
X305881Y201207D01*
X305785Y201228D01*
X305687Y201245D01*
X305589Y201258D01*
X305491Y201267D01*
X305392Y201273D01*
X305293Y201275D01*
X304432Y201275D01*
X304432Y196110D02*
X309597Y196110D01*
X297711Y185781D02*
X293407Y185781D01*
X297711Y185781D02*
X297810Y185783D01*
X297909Y185789D01*
X298007Y185798D01*
X298105Y185811D01*
X298203Y185828D01*
X298299Y185849D01*
X298395Y185873D01*
X298490Y185901D01*
X298584Y185933D01*
X298676Y185968D01*
X298767Y186007D01*
X298857Y186049D01*
X298944Y186095D01*
X299030Y186144D01*
X299114Y186196D01*
X299196Y186251D01*
X299276Y186310D01*
X299354Y186371D01*
X299429Y186435D01*
X299501Y186503D01*
X299571Y186573D01*
X299639Y186645D01*
X299703Y186720D01*
X299764Y186798D01*
X299823Y186878D01*
X299878Y186960D01*
X299930Y187044D01*
X299979Y187130D01*
X300025Y187217D01*
X300067Y187307D01*
X300106Y187398D01*
X300141Y187490D01*
X300173Y187584D01*
X300201Y187679D01*
X300225Y187775D01*
X300246Y187871D01*
X300263Y187969D01*
X300276Y188067D01*
X300285Y188165D01*
X300291Y188264D01*
X300293Y188363D01*
X300293Y192667D01*
X300291Y192783D01*
X300285Y192899D01*
X300275Y193015D01*
X300262Y193131D01*
X300244Y193246D01*
X300223Y193360D01*
X300197Y193474D01*
X300168Y193586D01*
X300135Y193698D01*
X300098Y193808D01*
X300058Y193917D01*
X300014Y194025D01*
X299966Y194131D01*
X299915Y194235D01*
X299860Y194338D01*
X299802Y194439D01*
X299741Y194537D01*
X299676Y194634D01*
X299608Y194728D01*
X299537Y194820D01*
X299462Y194910D01*
X299385Y194997D01*
X299305Y195081D01*
X299222Y195162D01*
X299136Y195241D01*
X299048Y195317D01*
X298957Y195390D01*
X298864Y195459D01*
X298769Y195526D01*
X298671Y195589D01*
X298572Y195649D01*
X298470Y195705D01*
X298366Y195758D01*
X298261Y195808D01*
X298154Y195853D01*
X298046Y195896D01*
X297936Y195934D01*
X297825Y195969D01*
X297713Y196000D01*
X297600Y196027D01*
X297486Y196051D01*
X297371Y196070D01*
X297256Y196086D01*
X297140Y196098D01*
X297024Y196106D01*
X296908Y196110D01*
X296792Y196110D01*
X296676Y196106D01*
X296560Y196098D01*
X296444Y196086D01*
X296329Y196070D01*
X296214Y196051D01*
X296100Y196027D01*
X295987Y196000D01*
X295875Y195969D01*
X295764Y195934D01*
X295654Y195896D01*
X295546Y195853D01*
X295439Y195808D01*
X295334Y195758D01*
X295230Y195705D01*
X295129Y195649D01*
X295029Y195589D01*
X294931Y195526D01*
X294836Y195459D01*
X294743Y195390D01*
X294652Y195317D01*
X294564Y195241D01*
X294478Y195162D01*
X294395Y195081D01*
X294315Y194997D01*
X294238Y194910D01*
X294163Y194820D01*
X294092Y194728D01*
X294024Y194634D01*
X293959Y194537D01*
X293898Y194439D01*
X293840Y194338D01*
X293785Y194235D01*
X293734Y194131D01*
X293686Y194025D01*
X293642Y193917D01*
X293602Y193808D01*
X293565Y193698D01*
X293532Y193586D01*
X293503Y193474D01*
X293477Y193360D01*
X293456Y193246D01*
X293438Y193131D01*
X293425Y193015D01*
X293415Y192899D01*
X293409Y192783D01*
X293407Y192667D01*
X293407Y190946D01*
X300293Y190946D01*
X279977Y196110D02*
X276534Y185781D01*
X273091Y196110D01*
X259530Y193528D02*
X259526Y193833D01*
X259515Y194137D01*
X259497Y194442D01*
X259472Y194745D01*
X259439Y195048D01*
X259399Y195351D01*
X259352Y195652D01*
X259298Y195952D01*
X259236Y196250D01*
X259168Y196547D01*
X259092Y196843D01*
X259010Y197136D01*
X258920Y197427D01*
X258823Y197716D01*
X258720Y198003D01*
X258610Y198287D01*
X258493Y198569D01*
X258369Y198847D01*
X258239Y199123D01*
X258201Y199226D01*
X258161Y199328D01*
X258116Y199428D01*
X258068Y199527D01*
X258017Y199624D01*
X257963Y199719D01*
X257905Y199813D01*
X257844Y199904D01*
X257780Y199993D01*
X257713Y200080D01*
X257643Y200164D01*
X257570Y200246D01*
X257494Y200326D01*
X257416Y200403D01*
X257335Y200477D01*
X257251Y200548D01*
X257165Y200616D01*
X257077Y200682D01*
X256987Y200744D01*
X256894Y200803D01*
X256800Y200859D01*
X256704Y200912D01*
X256606Y200961D01*
X256506Y201007D01*
X256405Y201049D01*
X256302Y201088D01*
X256198Y201123D01*
X256093Y201155D01*
X255987Y201183D01*
X255880Y201207D01*
X255772Y201228D01*
X255664Y201245D01*
X255555Y201258D01*
X255445Y201267D01*
X255336Y201273D01*
X255226Y201275D01*
X255116Y201273D01*
X255007Y201267D01*
X254897Y201258D01*
X254788Y201245D01*
X254680Y201228D01*
X254572Y201207D01*
X254465Y201183D01*
X254359Y201155D01*
X254254Y201123D01*
X254150Y201088D01*
X254047Y201049D01*
X253946Y201007D01*
X253846Y200961D01*
X253748Y200912D01*
X253652Y200859D01*
X253558Y200803D01*
X253465Y200744D01*
X253375Y200682D01*
X253287Y200616D01*
X253201Y200548D01*
X253117Y200477D01*
X253036Y200403D01*
X252958Y200326D01*
X252882Y200247D01*
X252809Y200164D01*
X252739Y200080D01*
X252672Y199993D01*
X252608Y199904D01*
X252547Y199813D01*
X252489Y199719D01*
X252435Y199624D01*
X252384Y199527D01*
X252336Y199428D01*
X252291Y199328D01*
X252251Y199226D01*
X252213Y199123D01*
X252083Y198847D01*
X251959Y198569D01*
X251842Y198287D01*
X251732Y198003D01*
X251629Y197716D01*
X251532Y197427D01*
X251442Y197136D01*
X251360Y196843D01*
X251284Y196547D01*
X251216Y196250D01*
X251154Y195952D01*
X251100Y195652D01*
X251053Y195351D01*
X251013Y195048D01*
X250980Y194745D01*
X250955Y194442D01*
X250937Y194137D01*
X250926Y193833D01*
X250922Y193528D01*
X259530Y193528D02*
X259526Y193223D01*
X259515Y192919D01*
X259497Y192614D01*
X259472Y192311D01*
X259439Y192008D01*
X259399Y191705D01*
X259352Y191404D01*
X259298Y191104D01*
X259236Y190806D01*
X259168Y190509D01*
X259092Y190213D01*
X259010Y189920D01*
X258920Y189629D01*
X258823Y189340D01*
X258720Y189053D01*
X258610Y188769D01*
X258493Y188487D01*
X258369Y188209D01*
X258239Y187933D01*
X258201Y187830D01*
X258161Y187728D01*
X258116Y187628D01*
X258068Y187529D01*
X258017Y187432D01*
X257963Y187337D01*
X257905Y187243D01*
X257844Y187152D01*
X257780Y187063D01*
X257713Y186976D01*
X257643Y186892D01*
X257570Y186809D01*
X257494Y186730D01*
X257416Y186653D01*
X257335Y186579D01*
X257251Y186508D01*
X257165Y186440D01*
X257077Y186374D01*
X256987Y186312D01*
X256894Y186253D01*
X256800Y186197D01*
X256704Y186144D01*
X256606Y186095D01*
X256506Y186049D01*
X256405Y186007D01*
X256302Y185968D01*
X256198Y185933D01*
X256093Y185901D01*
X255987Y185873D01*
X255880Y185849D01*
X255772Y185828D01*
X255664Y185811D01*
X255555Y185798D01*
X255445Y185789D01*
X255336Y185783D01*
X255226Y185781D01*
X252214Y187933D02*
X252084Y188209D01*
X251960Y188487D01*
X251843Y188769D01*
X251733Y189053D01*
X251630Y189340D01*
X251533Y189629D01*
X251443Y189920D01*
X251361Y190213D01*
X251285Y190509D01*
X251217Y190806D01*
X251155Y191104D01*
X251101Y191404D01*
X251054Y191705D01*
X251014Y192008D01*
X250981Y192311D01*
X250956Y192614D01*
X250938Y192919D01*
X250927Y193223D01*
X250923Y193528D01*
X252213Y187933D02*
X252251Y187830D01*
X252291Y187728D01*
X252336Y187628D01*
X252384Y187529D01*
X252435Y187432D01*
X252489Y187337D01*
X252547Y187243D01*
X252608Y187152D01*
X252672Y187063D01*
X252739Y186976D01*
X252809Y186891D01*
X252882Y186809D01*
X252958Y186730D01*
X253036Y186653D01*
X253117Y186579D01*
X253201Y186508D01*
X253287Y186440D01*
X253375Y186374D01*
X253465Y186312D01*
X253558Y186253D01*
X253652Y186197D01*
X253748Y186144D01*
X253847Y186095D01*
X253946Y186049D01*
X254047Y186007D01*
X254150Y185968D01*
X254254Y185933D01*
X254359Y185901D01*
X254465Y185873D01*
X254572Y185849D01*
X254680Y185828D01*
X254788Y185811D01*
X254897Y185798D01*
X255007Y185789D01*
X255116Y185783D01*
X255226Y185781D01*
X258669Y189224D02*
X251783Y197832D01*
X245250Y186642D02*
X245250Y185781D01*
X245250Y186642D02*
X244390Y186642D01*
X244390Y185781D01*
X245250Y185781D01*
X238718Y197832D02*
X234414Y201275D01*
X234414Y185781D01*
X238718Y185781D02*
X230110Y185781D01*
X420757Y172256D02*
X420759Y172378D01*
X420765Y172499D01*
X420774Y172621D01*
X420788Y172742D01*
X420805Y172862D01*
X420826Y172982D01*
X420850Y173101D01*
X420879Y173219D01*
X420911Y173337D01*
X420947Y173453D01*
X420986Y173568D01*
X421029Y173682D01*
X421076Y173795D01*
X421126Y173905D01*
X421179Y174015D01*
X421236Y174122D01*
X421296Y174228D01*
X421360Y174332D01*
X421427Y174434D01*
X421497Y174533D01*
X421570Y174630D01*
X421646Y174725D01*
X421725Y174818D01*
X421807Y174908D01*
X421892Y174995D01*
X421979Y175080D01*
X422069Y175162D01*
X422162Y175241D01*
X422257Y175317D01*
X422354Y175390D01*
X422453Y175460D01*
X422555Y175527D01*
X422659Y175591D01*
X422765Y175651D01*
X422872Y175708D01*
X422982Y175761D01*
X423092Y175811D01*
X423205Y175858D01*
X423319Y175901D01*
X423434Y175940D01*
X423550Y175976D01*
X423668Y176008D01*
X423786Y176037D01*
X423905Y176061D01*
X424025Y176082D01*
X424145Y176099D01*
X424266Y176113D01*
X424388Y176122D01*
X424509Y176128D01*
X424631Y176130D01*
X424631Y176129D02*
X424770Y176127D01*
X424909Y176121D01*
X425048Y176112D01*
X425186Y176098D01*
X425324Y176080D01*
X425461Y176059D01*
X425598Y176034D01*
X425734Y176005D01*
X425869Y175972D01*
X426004Y175936D01*
X426137Y175896D01*
X426269Y175852D01*
X426399Y175804D01*
X426529Y175753D01*
X426656Y175698D01*
X426783Y175640D01*
X426907Y175578D01*
X427030Y175513D01*
X427151Y175444D01*
X427270Y175372D01*
X427387Y175296D01*
X427501Y175218D01*
X427614Y175136D01*
X427724Y175051D01*
X427832Y174963D01*
X427937Y174872D01*
X428039Y174778D01*
X428139Y174682D01*
X428237Y174582D01*
X428331Y174480D01*
X428423Y174376D01*
X428511Y174268D01*
X428597Y174159D01*
X428679Y174047D01*
X428758Y173932D01*
X428834Y173816D01*
X428907Y173698D01*
X428977Y173577D01*
X429043Y173455D01*
X429105Y173330D01*
X429164Y173205D01*
X429220Y173077D01*
X429272Y172948D01*
X429320Y172818D01*
X429365Y172686D01*
X422048Y169243D02*
X421959Y169330D01*
X421873Y169420D01*
X421789Y169513D01*
X421708Y169608D01*
X421630Y169705D01*
X421555Y169805D01*
X421483Y169907D01*
X421414Y170011D01*
X421349Y170117D01*
X421286Y170225D01*
X421227Y170335D01*
X421171Y170447D01*
X421118Y170560D01*
X421069Y170674D01*
X421024Y170791D01*
X420981Y170908D01*
X420943Y171027D01*
X420908Y171146D01*
X420876Y171267D01*
X420848Y171389D01*
X420824Y171511D01*
X420804Y171634D01*
X420787Y171758D01*
X420774Y171882D01*
X420764Y172007D01*
X420759Y172131D01*
X420757Y172256D01*
X422048Y169243D02*
X429365Y160635D01*
X420757Y160635D01*
X414499Y168382D02*
X414495Y168687D01*
X414484Y168991D01*
X414466Y169296D01*
X414441Y169599D01*
X414408Y169902D01*
X414368Y170205D01*
X414321Y170506D01*
X414267Y170806D01*
X414205Y171104D01*
X414137Y171401D01*
X414061Y171697D01*
X413979Y171990D01*
X413889Y172281D01*
X413792Y172570D01*
X413689Y172857D01*
X413579Y173141D01*
X413462Y173423D01*
X413338Y173701D01*
X413208Y173977D01*
X413170Y174080D01*
X413130Y174182D01*
X413085Y174282D01*
X413037Y174381D01*
X412986Y174478D01*
X412932Y174573D01*
X412874Y174667D01*
X412813Y174758D01*
X412749Y174847D01*
X412682Y174934D01*
X412612Y175018D01*
X412539Y175100D01*
X412463Y175180D01*
X412385Y175257D01*
X412304Y175331D01*
X412220Y175402D01*
X412134Y175470D01*
X412046Y175536D01*
X411956Y175598D01*
X411863Y175657D01*
X411769Y175713D01*
X411673Y175766D01*
X411575Y175815D01*
X411475Y175861D01*
X411374Y175903D01*
X411271Y175942D01*
X411167Y175977D01*
X411062Y176009D01*
X410956Y176037D01*
X410849Y176061D01*
X410741Y176082D01*
X410633Y176099D01*
X410524Y176112D01*
X410414Y176121D01*
X410305Y176127D01*
X410195Y176129D01*
X410085Y176127D01*
X409976Y176121D01*
X409866Y176112D01*
X409757Y176099D01*
X409649Y176082D01*
X409541Y176061D01*
X409434Y176037D01*
X409328Y176009D01*
X409223Y175977D01*
X409119Y175942D01*
X409016Y175903D01*
X408915Y175861D01*
X408815Y175815D01*
X408717Y175766D01*
X408621Y175713D01*
X408527Y175657D01*
X408434Y175598D01*
X408344Y175536D01*
X408256Y175470D01*
X408170Y175402D01*
X408086Y175331D01*
X408005Y175257D01*
X407927Y175180D01*
X407851Y175101D01*
X407778Y175018D01*
X407708Y174934D01*
X407641Y174847D01*
X407577Y174758D01*
X407516Y174667D01*
X407458Y174573D01*
X407404Y174478D01*
X407353Y174381D01*
X407305Y174282D01*
X407260Y174182D01*
X407220Y174080D01*
X407182Y173977D01*
X407183Y173977D02*
X407053Y173701D01*
X406929Y173423D01*
X406812Y173141D01*
X406702Y172857D01*
X406599Y172570D01*
X406502Y172281D01*
X406412Y171990D01*
X406330Y171697D01*
X406254Y171401D01*
X406186Y171104D01*
X406124Y170806D01*
X406070Y170506D01*
X406023Y170205D01*
X405983Y169902D01*
X405950Y169599D01*
X405925Y169296D01*
X405907Y168991D01*
X405896Y168687D01*
X405892Y168382D01*
X414499Y168382D02*
X414495Y168077D01*
X414484Y167773D01*
X414466Y167468D01*
X414441Y167165D01*
X414408Y166862D01*
X414368Y166559D01*
X414321Y166258D01*
X414267Y165958D01*
X414205Y165660D01*
X414137Y165363D01*
X414061Y165067D01*
X413979Y164774D01*
X413889Y164483D01*
X413792Y164194D01*
X413689Y163907D01*
X413579Y163623D01*
X413462Y163341D01*
X413338Y163063D01*
X413208Y162787D01*
X413170Y162684D01*
X413130Y162582D01*
X413085Y162482D01*
X413037Y162383D01*
X412986Y162286D01*
X412932Y162191D01*
X412874Y162097D01*
X412813Y162006D01*
X412749Y161917D01*
X412682Y161830D01*
X412612Y161746D01*
X412539Y161663D01*
X412463Y161584D01*
X412385Y161507D01*
X412304Y161433D01*
X412220Y161362D01*
X412134Y161294D01*
X412046Y161228D01*
X411956Y161166D01*
X411863Y161107D01*
X411769Y161051D01*
X411673Y160998D01*
X411575Y160949D01*
X411475Y160903D01*
X411374Y160861D01*
X411271Y160822D01*
X411167Y160787D01*
X411062Y160755D01*
X410956Y160727D01*
X410849Y160703D01*
X410741Y160682D01*
X410633Y160665D01*
X410524Y160652D01*
X410414Y160643D01*
X410305Y160637D01*
X410195Y160635D01*
X407183Y162787D02*
X407053Y163063D01*
X406929Y163341D01*
X406812Y163623D01*
X406702Y163907D01*
X406599Y164194D01*
X406502Y164483D01*
X406412Y164774D01*
X406330Y165067D01*
X406254Y165363D01*
X406186Y165660D01*
X406124Y165958D01*
X406070Y166258D01*
X406023Y166559D01*
X405983Y166862D01*
X405950Y167165D01*
X405925Y167468D01*
X405907Y167773D01*
X405896Y168077D01*
X405892Y168382D01*
X407182Y162787D02*
X407220Y162684D01*
X407260Y162582D01*
X407305Y162482D01*
X407353Y162383D01*
X407404Y162286D01*
X407458Y162191D01*
X407516Y162097D01*
X407577Y162006D01*
X407641Y161917D01*
X407708Y161830D01*
X407778Y161745D01*
X407851Y161663D01*
X407927Y161584D01*
X408005Y161507D01*
X408086Y161433D01*
X408170Y161362D01*
X408256Y161294D01*
X408344Y161228D01*
X408434Y161166D01*
X408527Y161107D01*
X408621Y161051D01*
X408717Y160998D01*
X408816Y160949D01*
X408915Y160903D01*
X409016Y160861D01*
X409119Y160822D01*
X409223Y160787D01*
X409328Y160755D01*
X409434Y160727D01*
X409541Y160703D01*
X409649Y160682D01*
X409757Y160665D01*
X409866Y160652D01*
X409976Y160643D01*
X410085Y160637D01*
X410195Y160635D01*
X413639Y164078D02*
X406752Y172686D01*
X399634Y172686D02*
X395330Y176129D01*
X395330Y160635D01*
X399634Y160635D02*
X391026Y160635D01*
X381325Y167521D02*
X376160Y167521D01*
X381325Y167521D02*
X381440Y167523D01*
X381555Y167529D01*
X381670Y167538D01*
X381784Y167552D01*
X381898Y167569D01*
X382011Y167590D01*
X382123Y167615D01*
X382235Y167643D01*
X382345Y167676D01*
X382454Y167712D01*
X382562Y167751D01*
X382669Y167794D01*
X382774Y167841D01*
X382878Y167891D01*
X382980Y167945D01*
X383080Y168002D01*
X383178Y168062D01*
X383274Y168125D01*
X383367Y168192D01*
X383459Y168262D01*
X383548Y168335D01*
X383635Y168411D01*
X383719Y168489D01*
X383800Y168570D01*
X383879Y168655D01*
X383954Y168741D01*
X384027Y168830D01*
X384097Y168922D01*
X384164Y169015D01*
X384227Y169111D01*
X384287Y169209D01*
X384344Y169309D01*
X384398Y169411D01*
X384448Y169515D01*
X384495Y169620D01*
X384538Y169727D01*
X384578Y169835D01*
X384613Y169944D01*
X384646Y170054D01*
X384674Y170166D01*
X384699Y170278D01*
X384720Y170391D01*
X384737Y170505D01*
X384751Y170619D01*
X384760Y170734D01*
X384766Y170849D01*
X384768Y170964D01*
X384768Y171825D01*
X384766Y171955D01*
X384760Y172085D01*
X384750Y172215D01*
X384737Y172344D01*
X384719Y172473D01*
X384698Y172601D01*
X384672Y172728D01*
X384643Y172855D01*
X384610Y172981D01*
X384573Y173105D01*
X384533Y173229D01*
X384488Y173351D01*
X384440Y173472D01*
X384389Y173591D01*
X384334Y173709D01*
X384275Y173825D01*
X384213Y173939D01*
X384147Y174052D01*
X384078Y174162D01*
X384006Y174270D01*
X383931Y174376D01*
X383852Y174479D01*
X383770Y174580D01*
X383686Y174679D01*
X383598Y174775D01*
X383507Y174868D01*
X383414Y174959D01*
X383318Y175047D01*
X383219Y175131D01*
X383118Y175213D01*
X383015Y175292D01*
X382909Y175367D01*
X382801Y175439D01*
X382691Y175508D01*
X382578Y175574D01*
X382464Y175636D01*
X382348Y175695D01*
X382230Y175750D01*
X382111Y175801D01*
X381990Y175849D01*
X381868Y175894D01*
X381744Y175934D01*
X381620Y175971D01*
X381494Y176004D01*
X381367Y176033D01*
X381240Y176059D01*
X381112Y176080D01*
X380983Y176098D01*
X380854Y176111D01*
X380724Y176121D01*
X380594Y176127D01*
X380464Y176129D01*
X380334Y176127D01*
X380204Y176121D01*
X380074Y176111D01*
X379945Y176098D01*
X379816Y176080D01*
X379688Y176059D01*
X379561Y176033D01*
X379434Y176004D01*
X379308Y175971D01*
X379184Y175934D01*
X379060Y175894D01*
X378938Y175849D01*
X378817Y175801D01*
X378698Y175750D01*
X378580Y175695D01*
X378464Y175636D01*
X378350Y175574D01*
X378237Y175508D01*
X378127Y175439D01*
X378019Y175367D01*
X377913Y175292D01*
X377810Y175213D01*
X377709Y175131D01*
X377610Y175047D01*
X377514Y174959D01*
X377421Y174868D01*
X377330Y174775D01*
X377242Y174679D01*
X377158Y174580D01*
X377076Y174479D01*
X376997Y174376D01*
X376922Y174270D01*
X376850Y174162D01*
X376781Y174052D01*
X376715Y173939D01*
X376653Y173825D01*
X376594Y173709D01*
X376539Y173591D01*
X376488Y173472D01*
X376440Y173351D01*
X376395Y173229D01*
X376355Y173105D01*
X376318Y172981D01*
X376285Y172855D01*
X376256Y172728D01*
X376230Y172601D01*
X376209Y172473D01*
X376191Y172344D01*
X376178Y172215D01*
X376168Y172085D01*
X376162Y171955D01*
X376160Y171825D01*
X376160Y167521D01*
X376162Y167355D01*
X376168Y167188D01*
X376178Y167022D01*
X376192Y166856D01*
X376210Y166691D01*
X376232Y166526D01*
X376258Y166362D01*
X376288Y166198D01*
X376322Y166035D01*
X376360Y165873D01*
X376402Y165712D01*
X376448Y165552D01*
X376497Y165393D01*
X376550Y165235D01*
X376607Y165079D01*
X376668Y164924D01*
X376733Y164771D01*
X376801Y164619D01*
X376873Y164469D01*
X376949Y164321D01*
X377028Y164175D01*
X377110Y164030D01*
X377197Y163888D01*
X377286Y163747D01*
X377379Y163609D01*
X377475Y163474D01*
X377575Y163340D01*
X377677Y163209D01*
X377783Y163081D01*
X377892Y162955D01*
X378004Y162832D01*
X378118Y162711D01*
X378236Y162593D01*
X378357Y162479D01*
X378480Y162367D01*
X378606Y162258D01*
X378734Y162152D01*
X378865Y162050D01*
X378999Y161950D01*
X379134Y161854D01*
X379272Y161761D01*
X379413Y161672D01*
X379555Y161585D01*
X379700Y161503D01*
X379846Y161424D01*
X379994Y161348D01*
X380144Y161276D01*
X380296Y161208D01*
X380449Y161143D01*
X380604Y161082D01*
X380760Y161025D01*
X380918Y160972D01*
X381077Y160923D01*
X381237Y160877D01*
X381398Y160835D01*
X381560Y160797D01*
X381723Y160763D01*
X381887Y160733D01*
X382051Y160707D01*
X382216Y160685D01*
X382381Y160667D01*
X382547Y160653D01*
X382713Y160643D01*
X382880Y160637D01*
X383046Y160635D01*
X369772Y166660D02*
X359442Y166660D01*
X353054Y168382D02*
X353050Y168687D01*
X353039Y168991D01*
X353021Y169296D01*
X352996Y169599D01*
X352963Y169902D01*
X352923Y170205D01*
X352876Y170506D01*
X352822Y170806D01*
X352760Y171104D01*
X352692Y171401D01*
X352616Y171697D01*
X352534Y171990D01*
X352444Y172281D01*
X352347Y172570D01*
X352244Y172857D01*
X352134Y173141D01*
X352017Y173423D01*
X351893Y173701D01*
X351763Y173977D01*
X351725Y174080D01*
X351685Y174182D01*
X351640Y174282D01*
X351592Y174381D01*
X351541Y174478D01*
X351487Y174573D01*
X351429Y174667D01*
X351368Y174758D01*
X351304Y174847D01*
X351237Y174934D01*
X351167Y175018D01*
X351094Y175100D01*
X351018Y175180D01*
X350940Y175257D01*
X350859Y175331D01*
X350775Y175402D01*
X350689Y175470D01*
X350601Y175536D01*
X350511Y175598D01*
X350418Y175657D01*
X350324Y175713D01*
X350228Y175766D01*
X350130Y175815D01*
X350030Y175861D01*
X349929Y175903D01*
X349826Y175942D01*
X349722Y175977D01*
X349617Y176009D01*
X349511Y176037D01*
X349404Y176061D01*
X349296Y176082D01*
X349188Y176099D01*
X349079Y176112D01*
X348969Y176121D01*
X348860Y176127D01*
X348750Y176129D01*
X348640Y176127D01*
X348531Y176121D01*
X348421Y176112D01*
X348312Y176099D01*
X348204Y176082D01*
X348096Y176061D01*
X347989Y176037D01*
X347883Y176009D01*
X347778Y175977D01*
X347674Y175942D01*
X347571Y175903D01*
X347470Y175861D01*
X347370Y175815D01*
X347272Y175766D01*
X347176Y175713D01*
X347082Y175657D01*
X346989Y175598D01*
X346899Y175536D01*
X346811Y175470D01*
X346725Y175402D01*
X346641Y175331D01*
X346560Y175257D01*
X346482Y175180D01*
X346406Y175101D01*
X346333Y175018D01*
X346263Y174934D01*
X346196Y174847D01*
X346132Y174758D01*
X346071Y174667D01*
X346013Y174573D01*
X345959Y174478D01*
X345908Y174381D01*
X345860Y174282D01*
X345815Y174182D01*
X345775Y174080D01*
X345737Y173977D01*
X345607Y173701D01*
X345483Y173423D01*
X345366Y173141D01*
X345256Y172857D01*
X345153Y172570D01*
X345056Y172281D01*
X344966Y171990D01*
X344884Y171697D01*
X344808Y171401D01*
X344740Y171104D01*
X344678Y170806D01*
X344624Y170506D01*
X344577Y170205D01*
X344537Y169902D01*
X344504Y169599D01*
X344479Y169296D01*
X344461Y168991D01*
X344450Y168687D01*
X344446Y168382D01*
X353054Y168382D02*
X353050Y168077D01*
X353039Y167773D01*
X353021Y167468D01*
X352996Y167165D01*
X352963Y166862D01*
X352923Y166559D01*
X352876Y166258D01*
X352822Y165958D01*
X352760Y165660D01*
X352692Y165363D01*
X352616Y165067D01*
X352534Y164774D01*
X352444Y164483D01*
X352347Y164194D01*
X352244Y163907D01*
X352134Y163623D01*
X352017Y163341D01*
X351893Y163063D01*
X351763Y162787D01*
X351725Y162684D01*
X351685Y162582D01*
X351640Y162482D01*
X351592Y162383D01*
X351541Y162286D01*
X351487Y162191D01*
X351429Y162097D01*
X351368Y162006D01*
X351304Y161917D01*
X351237Y161830D01*
X351167Y161746D01*
X351094Y161663D01*
X351018Y161584D01*
X350940Y161507D01*
X350859Y161433D01*
X350775Y161362D01*
X350689Y161294D01*
X350601Y161228D01*
X350511Y161166D01*
X350418Y161107D01*
X350324Y161051D01*
X350228Y160998D01*
X350130Y160949D01*
X350030Y160903D01*
X349929Y160861D01*
X349826Y160822D01*
X349722Y160787D01*
X349617Y160755D01*
X349511Y160727D01*
X349404Y160703D01*
X349296Y160682D01*
X349188Y160665D01*
X349079Y160652D01*
X348969Y160643D01*
X348860Y160637D01*
X348750Y160635D01*
X345738Y162787D02*
X345608Y163063D01*
X345484Y163341D01*
X345367Y163623D01*
X345257Y163907D01*
X345154Y164194D01*
X345057Y164483D01*
X344967Y164774D01*
X344885Y165067D01*
X344809Y165363D01*
X344741Y165660D01*
X344679Y165958D01*
X344625Y166258D01*
X344578Y166559D01*
X344538Y166862D01*
X344505Y167165D01*
X344480Y167468D01*
X344462Y167773D01*
X344451Y168077D01*
X344447Y168382D01*
X345737Y162787D02*
X345775Y162684D01*
X345815Y162582D01*
X345860Y162482D01*
X345908Y162383D01*
X345959Y162286D01*
X346013Y162191D01*
X346071Y162097D01*
X346132Y162006D01*
X346196Y161917D01*
X346263Y161830D01*
X346333Y161745D01*
X346406Y161663D01*
X346482Y161584D01*
X346560Y161507D01*
X346641Y161433D01*
X346725Y161362D01*
X346811Y161294D01*
X346899Y161228D01*
X346989Y161166D01*
X347082Y161107D01*
X347176Y161051D01*
X347272Y160998D01*
X347371Y160949D01*
X347470Y160903D01*
X347571Y160861D01*
X347674Y160822D01*
X347778Y160787D01*
X347883Y160755D01*
X347989Y160727D01*
X348096Y160703D01*
X348204Y160682D01*
X348312Y160665D01*
X348421Y160652D01*
X348531Y160643D01*
X348640Y160637D01*
X348750Y160635D01*
X352193Y164078D02*
X345307Y172686D01*
X334745Y167521D02*
X329581Y167521D01*
X334745Y167521D02*
X334860Y167523D01*
X334975Y167529D01*
X335090Y167538D01*
X335204Y167552D01*
X335318Y167569D01*
X335431Y167590D01*
X335543Y167615D01*
X335655Y167643D01*
X335765Y167676D01*
X335874Y167712D01*
X335982Y167751D01*
X336089Y167794D01*
X336194Y167841D01*
X336298Y167891D01*
X336400Y167945D01*
X336500Y168002D01*
X336598Y168062D01*
X336694Y168125D01*
X336787Y168192D01*
X336879Y168262D01*
X336968Y168335D01*
X337055Y168411D01*
X337139Y168489D01*
X337220Y168570D01*
X337299Y168655D01*
X337374Y168741D01*
X337447Y168830D01*
X337517Y168922D01*
X337584Y169015D01*
X337647Y169111D01*
X337707Y169209D01*
X337764Y169309D01*
X337818Y169411D01*
X337868Y169515D01*
X337915Y169620D01*
X337958Y169727D01*
X337998Y169835D01*
X338033Y169944D01*
X338066Y170054D01*
X338094Y170166D01*
X338119Y170278D01*
X338140Y170391D01*
X338157Y170505D01*
X338171Y170619D01*
X338180Y170734D01*
X338186Y170849D01*
X338188Y170964D01*
X338188Y171825D01*
X338189Y171825D02*
X338187Y171955D01*
X338181Y172085D01*
X338171Y172215D01*
X338158Y172344D01*
X338140Y172473D01*
X338119Y172601D01*
X338093Y172728D01*
X338064Y172855D01*
X338031Y172981D01*
X337994Y173105D01*
X337954Y173229D01*
X337909Y173351D01*
X337861Y173472D01*
X337810Y173591D01*
X337755Y173709D01*
X337696Y173825D01*
X337634Y173939D01*
X337568Y174052D01*
X337499Y174162D01*
X337427Y174270D01*
X337352Y174376D01*
X337273Y174479D01*
X337191Y174580D01*
X337107Y174679D01*
X337019Y174775D01*
X336928Y174868D01*
X336835Y174959D01*
X336739Y175047D01*
X336640Y175131D01*
X336539Y175213D01*
X336436Y175292D01*
X336330Y175367D01*
X336222Y175439D01*
X336112Y175508D01*
X335999Y175574D01*
X335885Y175636D01*
X335769Y175695D01*
X335651Y175750D01*
X335532Y175801D01*
X335411Y175849D01*
X335289Y175894D01*
X335165Y175934D01*
X335041Y175971D01*
X334915Y176004D01*
X334788Y176033D01*
X334661Y176059D01*
X334533Y176080D01*
X334404Y176098D01*
X334275Y176111D01*
X334145Y176121D01*
X334015Y176127D01*
X333885Y176129D01*
X333755Y176127D01*
X333625Y176121D01*
X333495Y176111D01*
X333366Y176098D01*
X333237Y176080D01*
X333109Y176059D01*
X332982Y176033D01*
X332855Y176004D01*
X332729Y175971D01*
X332605Y175934D01*
X332481Y175894D01*
X332359Y175849D01*
X332238Y175801D01*
X332119Y175750D01*
X332001Y175695D01*
X331885Y175636D01*
X331771Y175574D01*
X331658Y175508D01*
X331548Y175439D01*
X331440Y175367D01*
X331334Y175292D01*
X331231Y175213D01*
X331130Y175131D01*
X331031Y175047D01*
X330935Y174959D01*
X330842Y174868D01*
X330751Y174775D01*
X330663Y174679D01*
X330579Y174580D01*
X330497Y174479D01*
X330418Y174376D01*
X330343Y174270D01*
X330271Y174162D01*
X330202Y174052D01*
X330136Y173939D01*
X330074Y173825D01*
X330015Y173709D01*
X329960Y173591D01*
X329909Y173472D01*
X329861Y173351D01*
X329816Y173229D01*
X329776Y173105D01*
X329739Y172981D01*
X329706Y172855D01*
X329677Y172728D01*
X329651Y172601D01*
X329630Y172473D01*
X329612Y172344D01*
X329599Y172215D01*
X329589Y172085D01*
X329583Y171955D01*
X329581Y171825D01*
X329581Y167521D01*
X329583Y167355D01*
X329589Y167188D01*
X329599Y167022D01*
X329613Y166856D01*
X329631Y166691D01*
X329653Y166526D01*
X329679Y166362D01*
X329709Y166198D01*
X329743Y166035D01*
X329781Y165873D01*
X329823Y165712D01*
X329869Y165552D01*
X329918Y165393D01*
X329971Y165235D01*
X330028Y165079D01*
X330089Y164924D01*
X330154Y164771D01*
X330222Y164619D01*
X330294Y164469D01*
X330370Y164321D01*
X330449Y164175D01*
X330531Y164030D01*
X330618Y163888D01*
X330707Y163747D01*
X330800Y163609D01*
X330896Y163474D01*
X330996Y163340D01*
X331098Y163209D01*
X331204Y163081D01*
X331313Y162955D01*
X331425Y162832D01*
X331539Y162711D01*
X331657Y162593D01*
X331778Y162479D01*
X331901Y162367D01*
X332027Y162258D01*
X332155Y162152D01*
X332286Y162050D01*
X332420Y161950D01*
X332555Y161854D01*
X332693Y161761D01*
X332834Y161672D01*
X332976Y161585D01*
X333121Y161503D01*
X333267Y161424D01*
X333415Y161348D01*
X333565Y161276D01*
X333717Y161208D01*
X333870Y161143D01*
X334025Y161082D01*
X334181Y161025D01*
X334339Y160972D01*
X334498Y160923D01*
X334658Y160877D01*
X334819Y160835D01*
X334981Y160797D01*
X335144Y160763D01*
X335308Y160733D01*
X335472Y160707D01*
X335637Y160685D01*
X335802Y160667D01*
X335968Y160653D01*
X336134Y160643D01*
X336301Y160637D01*
X336467Y160635D01*
X323192Y166660D02*
X312863Y166660D01*
X306475Y168382D02*
X306471Y168687D01*
X306460Y168991D01*
X306442Y169296D01*
X306417Y169599D01*
X306384Y169902D01*
X306344Y170205D01*
X306297Y170506D01*
X306243Y170806D01*
X306181Y171104D01*
X306113Y171401D01*
X306037Y171697D01*
X305955Y171990D01*
X305865Y172281D01*
X305768Y172570D01*
X305665Y172857D01*
X305555Y173141D01*
X305438Y173423D01*
X305314Y173701D01*
X305184Y173977D01*
X305146Y174080D01*
X305106Y174182D01*
X305061Y174282D01*
X305013Y174381D01*
X304962Y174478D01*
X304908Y174573D01*
X304850Y174667D01*
X304789Y174758D01*
X304725Y174847D01*
X304658Y174934D01*
X304588Y175018D01*
X304515Y175100D01*
X304439Y175180D01*
X304361Y175257D01*
X304280Y175331D01*
X304196Y175402D01*
X304110Y175470D01*
X304022Y175536D01*
X303932Y175598D01*
X303839Y175657D01*
X303745Y175713D01*
X303649Y175766D01*
X303551Y175815D01*
X303451Y175861D01*
X303350Y175903D01*
X303247Y175942D01*
X303143Y175977D01*
X303038Y176009D01*
X302932Y176037D01*
X302825Y176061D01*
X302717Y176082D01*
X302609Y176099D01*
X302500Y176112D01*
X302390Y176121D01*
X302281Y176127D01*
X302171Y176129D01*
X302061Y176127D01*
X301952Y176121D01*
X301842Y176112D01*
X301733Y176099D01*
X301625Y176082D01*
X301517Y176061D01*
X301410Y176037D01*
X301304Y176009D01*
X301199Y175977D01*
X301095Y175942D01*
X300992Y175903D01*
X300891Y175861D01*
X300791Y175815D01*
X300693Y175766D01*
X300597Y175713D01*
X300503Y175657D01*
X300410Y175598D01*
X300320Y175536D01*
X300232Y175470D01*
X300146Y175402D01*
X300062Y175331D01*
X299981Y175257D01*
X299903Y175180D01*
X299827Y175101D01*
X299754Y175018D01*
X299684Y174934D01*
X299617Y174847D01*
X299553Y174758D01*
X299492Y174667D01*
X299434Y174573D01*
X299380Y174478D01*
X299329Y174381D01*
X299281Y174282D01*
X299236Y174182D01*
X299196Y174080D01*
X299158Y173977D01*
X299028Y173701D01*
X298904Y173423D01*
X298787Y173141D01*
X298677Y172857D01*
X298574Y172570D01*
X298477Y172281D01*
X298387Y171990D01*
X298305Y171697D01*
X298229Y171401D01*
X298161Y171104D01*
X298099Y170806D01*
X298045Y170506D01*
X297998Y170205D01*
X297958Y169902D01*
X297925Y169599D01*
X297900Y169296D01*
X297882Y168991D01*
X297871Y168687D01*
X297867Y168382D01*
X306474Y168382D02*
X306470Y168077D01*
X306459Y167773D01*
X306441Y167468D01*
X306416Y167165D01*
X306383Y166862D01*
X306343Y166559D01*
X306296Y166258D01*
X306242Y165958D01*
X306180Y165660D01*
X306112Y165363D01*
X306036Y165067D01*
X305954Y164774D01*
X305864Y164483D01*
X305767Y164194D01*
X305664Y163907D01*
X305554Y163623D01*
X305437Y163341D01*
X305313Y163063D01*
X305183Y162787D01*
X305184Y162787D02*
X305146Y162684D01*
X305106Y162582D01*
X305061Y162482D01*
X305013Y162383D01*
X304962Y162286D01*
X304908Y162191D01*
X304850Y162097D01*
X304789Y162006D01*
X304725Y161917D01*
X304658Y161830D01*
X304588Y161746D01*
X304515Y161663D01*
X304439Y161584D01*
X304361Y161507D01*
X304280Y161433D01*
X304196Y161362D01*
X304110Y161294D01*
X304022Y161228D01*
X303932Y161166D01*
X303839Y161107D01*
X303745Y161051D01*
X303649Y160998D01*
X303551Y160949D01*
X303451Y160903D01*
X303350Y160861D01*
X303247Y160822D01*
X303143Y160787D01*
X303038Y160755D01*
X302932Y160727D01*
X302825Y160703D01*
X302717Y160682D01*
X302609Y160665D01*
X302500Y160652D01*
X302390Y160643D01*
X302281Y160637D01*
X302171Y160635D01*
X299158Y162787D02*
X299028Y163063D01*
X298904Y163341D01*
X298787Y163623D01*
X298677Y163907D01*
X298574Y164194D01*
X298477Y164483D01*
X298387Y164774D01*
X298305Y165067D01*
X298229Y165363D01*
X298161Y165660D01*
X298099Y165958D01*
X298045Y166258D01*
X297998Y166559D01*
X297958Y166862D01*
X297925Y167165D01*
X297900Y167468D01*
X297882Y167773D01*
X297871Y168077D01*
X297867Y168382D01*
X299158Y162787D02*
X299196Y162684D01*
X299236Y162582D01*
X299281Y162482D01*
X299329Y162383D01*
X299380Y162286D01*
X299434Y162191D01*
X299492Y162097D01*
X299553Y162006D01*
X299617Y161917D01*
X299684Y161830D01*
X299754Y161745D01*
X299827Y161663D01*
X299903Y161584D01*
X299981Y161507D01*
X300062Y161433D01*
X300146Y161362D01*
X300232Y161294D01*
X300320Y161228D01*
X300410Y161166D01*
X300503Y161107D01*
X300597Y161051D01*
X300693Y160998D01*
X300792Y160949D01*
X300891Y160903D01*
X300992Y160861D01*
X301095Y160822D01*
X301199Y160787D01*
X301304Y160755D01*
X301410Y160727D01*
X301517Y160703D01*
X301625Y160682D01*
X301733Y160665D01*
X301842Y160652D01*
X301952Y160643D01*
X302061Y160637D01*
X302171Y160635D01*
X305614Y164078D02*
X298728Y172686D01*
X291609Y164939D02*
X291607Y165069D01*
X291601Y165199D01*
X291591Y165329D01*
X291578Y165458D01*
X291560Y165587D01*
X291539Y165715D01*
X291513Y165842D01*
X291484Y165969D01*
X291451Y166095D01*
X291414Y166219D01*
X291374Y166343D01*
X291329Y166465D01*
X291281Y166586D01*
X291230Y166705D01*
X291175Y166823D01*
X291116Y166939D01*
X291054Y167053D01*
X290988Y167166D01*
X290919Y167276D01*
X290847Y167384D01*
X290772Y167490D01*
X290693Y167593D01*
X290611Y167694D01*
X290527Y167793D01*
X290439Y167889D01*
X290348Y167982D01*
X290255Y168073D01*
X290159Y168161D01*
X290060Y168245D01*
X289959Y168327D01*
X289856Y168406D01*
X289750Y168481D01*
X289642Y168553D01*
X289532Y168622D01*
X289419Y168688D01*
X289305Y168750D01*
X289189Y168809D01*
X289071Y168864D01*
X288952Y168915D01*
X288831Y168963D01*
X288709Y169008D01*
X288585Y169048D01*
X288461Y169085D01*
X288335Y169118D01*
X288208Y169147D01*
X288081Y169173D01*
X287953Y169194D01*
X287824Y169212D01*
X287695Y169225D01*
X287565Y169235D01*
X287435Y169241D01*
X287305Y169243D01*
X287175Y169241D01*
X287045Y169235D01*
X286915Y169225D01*
X286786Y169212D01*
X286657Y169194D01*
X286529Y169173D01*
X286402Y169147D01*
X286275Y169118D01*
X286149Y169085D01*
X286025Y169048D01*
X285901Y169008D01*
X285779Y168963D01*
X285658Y168915D01*
X285539Y168864D01*
X285421Y168809D01*
X285305Y168750D01*
X285191Y168688D01*
X285078Y168622D01*
X284968Y168553D01*
X284860Y168481D01*
X284754Y168406D01*
X284651Y168327D01*
X284550Y168245D01*
X284451Y168161D01*
X284355Y168073D01*
X284262Y167982D01*
X284171Y167889D01*
X284083Y167793D01*
X283999Y167694D01*
X283917Y167593D01*
X283838Y167490D01*
X283763Y167384D01*
X283691Y167276D01*
X283622Y167166D01*
X283556Y167053D01*
X283494Y166939D01*
X283435Y166823D01*
X283380Y166705D01*
X283329Y166586D01*
X283281Y166465D01*
X283236Y166343D01*
X283196Y166219D01*
X283159Y166095D01*
X283126Y165969D01*
X283097Y165842D01*
X283071Y165715D01*
X283050Y165587D01*
X283032Y165458D01*
X283019Y165329D01*
X283009Y165199D01*
X283003Y165069D01*
X283001Y164939D01*
X283003Y164809D01*
X283009Y164679D01*
X283019Y164549D01*
X283032Y164420D01*
X283050Y164291D01*
X283071Y164163D01*
X283097Y164036D01*
X283126Y163909D01*
X283159Y163783D01*
X283196Y163659D01*
X283236Y163535D01*
X283281Y163413D01*
X283329Y163292D01*
X283380Y163173D01*
X283435Y163055D01*
X283494Y162939D01*
X283556Y162825D01*
X283622Y162712D01*
X283691Y162602D01*
X283763Y162494D01*
X283838Y162388D01*
X283917Y162285D01*
X283999Y162184D01*
X284083Y162085D01*
X284171Y161989D01*
X284262Y161896D01*
X284355Y161805D01*
X284451Y161717D01*
X284550Y161633D01*
X284651Y161551D01*
X284754Y161472D01*
X284860Y161397D01*
X284968Y161325D01*
X285078Y161256D01*
X285191Y161190D01*
X285305Y161128D01*
X285421Y161069D01*
X285539Y161014D01*
X285658Y160963D01*
X285779Y160915D01*
X285901Y160870D01*
X286025Y160830D01*
X286149Y160793D01*
X286275Y160760D01*
X286402Y160731D01*
X286529Y160705D01*
X286657Y160684D01*
X286786Y160666D01*
X286915Y160653D01*
X287045Y160643D01*
X287175Y160637D01*
X287305Y160635D01*
X287435Y160637D01*
X287565Y160643D01*
X287695Y160653D01*
X287824Y160666D01*
X287953Y160684D01*
X288081Y160705D01*
X288208Y160731D01*
X288335Y160760D01*
X288461Y160793D01*
X288585Y160830D01*
X288709Y160870D01*
X288831Y160915D01*
X288952Y160963D01*
X289071Y161014D01*
X289189Y161069D01*
X289305Y161128D01*
X289419Y161190D01*
X289532Y161256D01*
X289642Y161325D01*
X289750Y161397D01*
X289856Y161472D01*
X289959Y161551D01*
X290060Y161633D01*
X290159Y161717D01*
X290255Y161805D01*
X290348Y161896D01*
X290439Y161989D01*
X290527Y162085D01*
X290611Y162184D01*
X290693Y162285D01*
X290772Y162388D01*
X290847Y162494D01*
X290919Y162602D01*
X290988Y162712D01*
X291054Y162825D01*
X291116Y162939D01*
X291175Y163055D01*
X291230Y163173D01*
X291281Y163292D01*
X291329Y163413D01*
X291374Y163535D01*
X291414Y163659D01*
X291451Y163783D01*
X291484Y163909D01*
X291513Y164036D01*
X291539Y164163D01*
X291560Y164291D01*
X291578Y164420D01*
X291591Y164549D01*
X291601Y164679D01*
X291607Y164809D01*
X291609Y164939D01*
X290748Y172686D02*
X290746Y172802D01*
X290740Y172918D01*
X290730Y173034D01*
X290717Y173150D01*
X290699Y173265D01*
X290678Y173379D01*
X290652Y173493D01*
X290623Y173605D01*
X290590Y173717D01*
X290553Y173827D01*
X290513Y173936D01*
X290469Y174044D01*
X290421Y174150D01*
X290370Y174254D01*
X290315Y174357D01*
X290257Y174458D01*
X290196Y174556D01*
X290131Y174653D01*
X290063Y174747D01*
X289992Y174839D01*
X289917Y174929D01*
X289840Y175016D01*
X289760Y175100D01*
X289677Y175181D01*
X289591Y175260D01*
X289503Y175336D01*
X289412Y175409D01*
X289319Y175478D01*
X289224Y175545D01*
X289126Y175608D01*
X289027Y175668D01*
X288925Y175724D01*
X288821Y175777D01*
X288716Y175827D01*
X288609Y175872D01*
X288501Y175915D01*
X288391Y175953D01*
X288280Y175988D01*
X288168Y176019D01*
X288055Y176046D01*
X287941Y176070D01*
X287826Y176089D01*
X287711Y176105D01*
X287595Y176117D01*
X287479Y176125D01*
X287363Y176129D01*
X287247Y176129D01*
X287131Y176125D01*
X287015Y176117D01*
X286899Y176105D01*
X286784Y176089D01*
X286669Y176070D01*
X286555Y176046D01*
X286442Y176019D01*
X286330Y175988D01*
X286219Y175953D01*
X286109Y175915D01*
X286001Y175872D01*
X285894Y175827D01*
X285789Y175777D01*
X285685Y175724D01*
X285584Y175668D01*
X285484Y175608D01*
X285386Y175545D01*
X285291Y175478D01*
X285198Y175409D01*
X285107Y175336D01*
X285019Y175260D01*
X284933Y175181D01*
X284850Y175100D01*
X284770Y175016D01*
X284693Y174929D01*
X284618Y174839D01*
X284547Y174747D01*
X284479Y174653D01*
X284414Y174556D01*
X284353Y174458D01*
X284295Y174357D01*
X284240Y174254D01*
X284189Y174150D01*
X284141Y174044D01*
X284097Y173936D01*
X284057Y173827D01*
X284020Y173717D01*
X283987Y173605D01*
X283958Y173493D01*
X283932Y173379D01*
X283911Y173265D01*
X283893Y173150D01*
X283880Y173034D01*
X283870Y172918D01*
X283864Y172802D01*
X283862Y172686D01*
X283864Y172570D01*
X283870Y172454D01*
X283880Y172338D01*
X283893Y172222D01*
X283911Y172107D01*
X283932Y171993D01*
X283958Y171879D01*
X283987Y171767D01*
X284020Y171655D01*
X284057Y171545D01*
X284097Y171436D01*
X284141Y171328D01*
X284189Y171222D01*
X284240Y171118D01*
X284295Y171015D01*
X284353Y170914D01*
X284414Y170816D01*
X284479Y170719D01*
X284547Y170625D01*
X284618Y170533D01*
X284693Y170443D01*
X284770Y170356D01*
X284850Y170272D01*
X284933Y170191D01*
X285019Y170112D01*
X285107Y170036D01*
X285198Y169963D01*
X285291Y169894D01*
X285386Y169827D01*
X285484Y169764D01*
X285584Y169704D01*
X285685Y169648D01*
X285789Y169595D01*
X285894Y169545D01*
X286001Y169500D01*
X286109Y169457D01*
X286219Y169419D01*
X286330Y169384D01*
X286442Y169353D01*
X286555Y169326D01*
X286669Y169302D01*
X286784Y169283D01*
X286899Y169267D01*
X287015Y169255D01*
X287131Y169247D01*
X287247Y169243D01*
X287363Y169243D01*
X287479Y169247D01*
X287595Y169255D01*
X287711Y169267D01*
X287826Y169283D01*
X287941Y169302D01*
X288055Y169326D01*
X288168Y169353D01*
X288280Y169384D01*
X288391Y169419D01*
X288501Y169457D01*
X288609Y169500D01*
X288716Y169545D01*
X288821Y169595D01*
X288925Y169648D01*
X289027Y169704D01*
X289126Y169764D01*
X289224Y169827D01*
X289319Y169894D01*
X289412Y169963D01*
X289503Y170036D01*
X289591Y170112D01*
X289677Y170191D01*
X289760Y170272D01*
X289840Y170356D01*
X289917Y170443D01*
X289992Y170533D01*
X290063Y170625D01*
X290131Y170719D01*
X290196Y170816D01*
X290257Y170914D01*
X290315Y171015D01*
X290370Y171118D01*
X290421Y171222D01*
X290469Y171328D01*
X290513Y171436D01*
X290553Y171545D01*
X290590Y171655D01*
X290623Y171767D01*
X290652Y171879D01*
X290678Y171993D01*
X290699Y172107D01*
X290717Y172222D01*
X290730Y172338D01*
X290740Y172454D01*
X290746Y172570D01*
X290748Y172686D01*
X241000Y419700D02*
X241000Y551700D01*
X34000Y551700D01*
X34000Y419700D02*
X137500Y399700D01*
X241000Y419700D01*
X34000Y419700D02*
X34000Y551700D01*
D14*
X112773Y391192D02*
X112773Y382104D01*
X112775Y382005D01*
X112781Y381905D01*
X112790Y381806D01*
X112803Y381708D01*
X112820Y381610D01*
X112841Y381512D01*
X112866Y381416D01*
X112894Y381321D01*
X112926Y381227D01*
X112961Y381134D01*
X113000Y381042D01*
X113043Y380952D01*
X113088Y380864D01*
X113138Y380777D01*
X113190Y380693D01*
X113246Y380610D01*
X113304Y380530D01*
X113366Y380452D01*
X113431Y380377D01*
X113499Y380304D01*
X113569Y380234D01*
X113642Y380166D01*
X113717Y380101D01*
X113795Y380039D01*
X113875Y379981D01*
X113958Y379925D01*
X114042Y379873D01*
X114129Y379823D01*
X114217Y379778D01*
X114307Y379735D01*
X114399Y379696D01*
X114492Y379661D01*
X114586Y379629D01*
X114681Y379601D01*
X114777Y379576D01*
X114875Y379555D01*
X114973Y379538D01*
X115071Y379525D01*
X115170Y379516D01*
X115270Y379510D01*
X115369Y379508D01*
X116667Y379508D01*
X107499Y379508D02*
X104254Y379508D01*
X104141Y379510D01*
X104028Y379516D01*
X103915Y379526D01*
X103802Y379540D01*
X103690Y379557D01*
X103579Y379579D01*
X103469Y379604D01*
X103359Y379634D01*
X103251Y379667D01*
X103144Y379704D01*
X103038Y379744D01*
X102934Y379789D01*
X102831Y379837D01*
X102730Y379888D01*
X102631Y379943D01*
X102534Y380001D01*
X102439Y380063D01*
X102346Y380128D01*
X102256Y380196D01*
X102168Y380267D01*
X102082Y380342D01*
X101999Y380419D01*
X101919Y380499D01*
X101842Y380582D01*
X101767Y380668D01*
X101696Y380756D01*
X101628Y380846D01*
X101563Y380939D01*
X101501Y381034D01*
X101443Y381131D01*
X101388Y381230D01*
X101337Y381331D01*
X101289Y381434D01*
X101244Y381538D01*
X101204Y381644D01*
X101167Y381751D01*
X101134Y381859D01*
X101104Y381969D01*
X101079Y382079D01*
X101057Y382190D01*
X101040Y382302D01*
X101026Y382415D01*
X101016Y382528D01*
X101010Y382641D01*
X101008Y382754D01*
X101010Y382867D01*
X101016Y382980D01*
X101026Y383093D01*
X101040Y383206D01*
X101057Y383318D01*
X101079Y383429D01*
X101104Y383539D01*
X101134Y383649D01*
X101167Y383757D01*
X101204Y383864D01*
X101244Y383970D01*
X101289Y384074D01*
X101337Y384177D01*
X101388Y384278D01*
X101443Y384377D01*
X101501Y384474D01*
X101563Y384569D01*
X101628Y384662D01*
X101696Y384752D01*
X101767Y384840D01*
X101842Y384926D01*
X101919Y385009D01*
X101999Y385089D01*
X102082Y385166D01*
X102168Y385241D01*
X102256Y385312D01*
X102346Y385380D01*
X102439Y385445D01*
X102534Y385507D01*
X102631Y385565D01*
X102730Y385620D01*
X102831Y385671D01*
X102934Y385719D01*
X103038Y385764D01*
X103144Y385804D01*
X103251Y385841D01*
X103359Y385874D01*
X103469Y385904D01*
X103579Y385929D01*
X103690Y385951D01*
X103802Y385968D01*
X103915Y385982D01*
X104028Y385992D01*
X104141Y385998D01*
X104254Y386000D01*
X103604Y391192D02*
X107499Y391192D01*
X103604Y391192D02*
X103503Y391190D01*
X103403Y391184D01*
X103303Y391174D01*
X103203Y391161D01*
X103104Y391143D01*
X103005Y391122D01*
X102908Y391097D01*
X102811Y391068D01*
X102716Y391035D01*
X102622Y390999D01*
X102530Y390959D01*
X102439Y390916D01*
X102350Y390869D01*
X102263Y390819D01*
X102177Y390765D01*
X102094Y390708D01*
X102014Y390648D01*
X101935Y390585D01*
X101859Y390518D01*
X101786Y390449D01*
X101716Y390377D01*
X101648Y390303D01*
X101583Y390226D01*
X101522Y390146D01*
X101463Y390064D01*
X101408Y389980D01*
X101356Y389894D01*
X101307Y389806D01*
X101262Y389716D01*
X101220Y389624D01*
X101182Y389531D01*
X101148Y389436D01*
X101117Y389341D01*
X101090Y389244D01*
X101067Y389146D01*
X101047Y389047D01*
X101032Y388947D01*
X101020Y388847D01*
X101012Y388747D01*
X101008Y388646D01*
X101008Y388546D01*
X101012Y388445D01*
X101020Y388345D01*
X101032Y388245D01*
X101047Y388145D01*
X101067Y388046D01*
X101090Y387948D01*
X101117Y387851D01*
X101148Y387756D01*
X101182Y387661D01*
X101220Y387568D01*
X101262Y387476D01*
X101307Y387386D01*
X101356Y387298D01*
X101408Y387212D01*
X101463Y387128D01*
X101522Y387046D01*
X101583Y386966D01*
X101648Y386889D01*
X101716Y386815D01*
X101786Y386743D01*
X101859Y386674D01*
X101935Y386607D01*
X102014Y386544D01*
X102094Y386484D01*
X102177Y386427D01*
X102263Y386373D01*
X102350Y386323D01*
X102439Y386276D01*
X102530Y386233D01*
X102622Y386193D01*
X102716Y386157D01*
X102811Y386124D01*
X102908Y386095D01*
X103005Y386070D01*
X103104Y386049D01*
X103203Y386031D01*
X103303Y386018D01*
X103403Y386008D01*
X103503Y386002D01*
X103604Y386000D01*
X103604Y385999D02*
X106201Y385999D01*
M02*
