G04 EAGLE Gerber RS-274X export*
G75*
%MOMM*%
%FSLAX34Y34*%
%LPD*%
%INSoldermask Bottom*%
%IPPOS*%
%AMOC8*
5,1,8,0,0,1.08239X$1,22.5*%
G01*
%ADD10C,3.403200*%
%ADD11C,1.553200*%
%ADD12C,2.603200*%
%ADD13C,3.819200*%
%ADD14R,0.711200X0.711200*%
%ADD15C,1.853200*%
%ADD16C,5.153200*%
%ADD17C,2.003200*%
%ADD18C,2.203200*%


D10*
X47550Y78900D03*
X161850Y78900D03*
D11*
X149150Y167800D03*
X123750Y167800D03*
X98350Y167800D03*
X72950Y167800D03*
X85650Y142400D03*
X111050Y142400D03*
X136450Y142400D03*
X60250Y142400D03*
D12*
X27200Y48400D03*
X182200Y48400D03*
D13*
X591300Y368150D03*
X591300Y328650D03*
X591300Y289150D03*
X591300Y249650D03*
X591300Y210150D03*
X591300Y170650D03*
X591300Y131150D03*
X591300Y91650D03*
X507300Y368150D03*
X507300Y328650D03*
X507300Y289150D03*
X507300Y249650D03*
X507300Y210150D03*
X507300Y170650D03*
X507300Y131150D03*
X507300Y91650D03*
D14*
X400500Y99100D03*
X110000Y210000D03*
X329000Y354000D03*
X160000Y370000D03*
X379700Y44900D03*
X380400Y60300D03*
X439600Y99200D03*
X419300Y98800D03*
D15*
X66500Y290400D03*
X88500Y290400D03*
X110500Y290400D03*
X132500Y290400D03*
X154500Y290400D03*
X176500Y290400D03*
X198500Y290400D03*
X220500Y290400D03*
X55500Y325400D03*
X77500Y325400D03*
X99500Y325400D03*
X121500Y325400D03*
X143500Y325400D03*
X165500Y325400D03*
X187500Y325400D03*
X209500Y325400D03*
D16*
X225500Y383400D03*
X50500Y383400D03*
D17*
X66000Y478700D03*
X88000Y478700D03*
X110000Y478700D03*
X132000Y478700D03*
X154000Y478700D03*
X176000Y478700D03*
X198000Y478700D03*
X220000Y478700D03*
X55000Y508700D03*
X77000Y508700D03*
X99000Y508700D03*
X121000Y508700D03*
X143000Y508700D03*
X165000Y508700D03*
X187000Y508700D03*
X209000Y508700D03*
D18*
X305800Y138000D02*
X325800Y138000D01*
X325800Y75000D02*
X305800Y75000D01*
X365800Y98000D02*
X365800Y118000D01*
M02*
