M48
;GenerationSoftware,Autodesk,EAGLE,9.5.0*%
;CreationDate,2019-09-08T12:23:40Z*%
FMAT,2
ICI,OFF
METRIC,TZ,000.000
T10C0.300
T9C0.600
T8C0.900
T7C1.000
T6C1.100
T5C1.200
T4C1.600
T3C2.600
T2C3.200
T1C3.300
%
G90
M71
T1
X22550Y38340
X5050Y38340
T2
X4755Y7890
X16185Y7890
T3
X59130Y9165
X59130Y13115
X50730Y9165
X50730Y13115
X59130Y36815
X59130Y32865
X59130Y28915
X59130Y24965
X50730Y17065
X50730Y21015
X50730Y24965
X59130Y21015
X50730Y28915
X50730Y32865
X59130Y17065
X50730Y36815
T4
X2720Y4840
X18220Y4840
T5
X20900Y50870
X18700Y50870
X16500Y50870
X14300Y50870
X12100Y50870
X9900Y50870
X11000Y47870
X8800Y47870
X5500Y50870
X7700Y50870
X6600Y47870
X17600Y47870
X19800Y47870
X22000Y47870
X13200Y47870
X15400Y47870
T6
X22050Y29040
X5550Y32540
X7750Y32540
X9950Y32540
X12150Y32540
X14350Y32540
X16550Y32540
X20950Y32540
X6650Y29040
X18750Y32540
X8850Y29040
X11050Y29040
X13250Y29040
X15450Y29040
X17650Y29040
X19850Y29040
T7
X36580Y10800
X31580Y13800
X31580Y7500
T8
X14915Y16780
X11105Y14240
X8565Y14240
X6025Y14240
X13645Y14240
X7295Y16780
X9835Y16780
X12375Y16780
T9
X34000Y25000
X27000Y32000
X20000Y19000
X12400Y34210
X35800Y36400
X28000Y52000
X18000Y44000
X45000Y37000
X14340Y39450
X25000Y25000
X38000Y29000
T10
X26000Y27000
X27120Y29920
X25514Y29464
X4812Y27812
X14500Y21600
X35000Y28000
X35652Y27000
X9000Y38000
X40400Y27740
X12097Y25303
X48000Y37000
X12620Y24691
X5305Y28882
X16000Y26012
X34200Y33000
X39970Y6020
X41880Y6700
X30600Y43700
X13027Y22400
M30